<svg id="Layer_1" data-name="Layer 1" xmlns="http://www.w3.org/2000/svg" xmlns:xlink="http://www.w3.org/1999/xlink" viewBox="0 0 1920 1080"><defs><style>.cls-1{fill:none;}.cls-2{clip-path:url(#clip-path);}.cls-3{fill:#9ce6f2;}.cls-4{fill:#6ddde2;}.cls-5{fill:#88cbff;}.cls-6{fill:#95c8ce;}.cls-7{fill:#7a7b7f;}.cls-8{fill:#4f5455;}.cls-9{fill:#787c81;}.cls-10{fill:#9f9ba5;}.cls-11{fill:#41601c;}.cls-12{fill:#375017;}.cls-13{fill:#4c721f;}.cls-14{fill:#5a872a;}.cls-15{fill:#91bd5c;}.cls-16{fill:#83aa57;}.cls-17{fill:#c1dd3d;}.cls-18{fill:#cdf255;}.cls-19{fill:#66bbe4;}.cls-20{fill:#23accc;}.cls-21{fill:#ffd092;}.cls-22{fill:#a05c2d;}</style><clipPath id="clip-path"><rect class="cls-1" width="1920" height="1080"/></clipPath></defs><title>FloatingGarden</title><g class="cls-2"><rect class="cls-3" width="1920" height="1080"/><path class="cls-4" d="M998.08,420.39h0a40.26,40.26,0,0,0-56.82-3.89l-98.85,86.19a40.28,40.28,0,0,0-5-45.78h0A40.27,40.27,0,0,0,780.59,453l-52.31,45.61a40.28,40.28,0,0,0,2.3-55.36h0a40.26,40.26,0,0,0-56.82-3.89l-44.22,38.55A40.28,40.28,0,0,0,627.92,427h0a40.26,40.26,0,0,0-56.82-3.89L320,642a40.27,40.27,0,0,0-3.88,56.82h0a40.29,40.29,0,0,0,50.26,8.55l-42.27,36.85a40.27,40.27,0,0,0-3.88,56.82h0a40.28,40.28,0,0,0,55.16,5.26L296.5,875.12a40.28,40.28,0,0,0-3.89,56.82h0a40.26,40.26,0,0,0,56.82,3.89L449.7,848.4a40.29,40.29,0,0,0,5,45.78h0A40.29,40.29,0,0,0,500.4,905l-79.32,69.16a40.28,40.28,0,0,0-3.89,56.82h0a40.28,40.28,0,0,0,56.83,3.89l318.2-277.46a40.26,40.26,0,0,0,3.89-56.82h0a40.29,40.29,0,0,0-45.7-10.78L994.19,477.21A40.26,40.26,0,0,0,998.08,420.39Z"/><rect class="cls-5" y="758" width="1920" height="322"/><path class="cls-6" d="M1827.56,341.88h-13v-.16c0-23-35.52-41.72-79.34-41.72s-79.33,18.68-79.33,41.72v.16h-19.47c-17.92,0-32.44,7.64-32.44,17.06S1618.52,376,1636.44,376h191.12c17.92,0,32.44-7.64,32.44-17.06S1845.48,341.88,1827.56,341.88Z"/><path class="cls-6" d="M414.66,174.22H400.92v-.14c0-22.14-37.6-40.08-84-40.08s-84,17.94-84,40.08v.14H212.34c-19,0-34.34,7.34-34.34,16.39S193.38,207,212.34,207H414.66c19,0,34.34-7.34,34.34-16.39S433.62,174.22,414.66,174.22Z"/><polygon class="cls-7" points="452.93 449.11 498.52 535.21 421.71 535.21 421.71 449.11 452.93 449.11"/><polygon class="cls-8" points="380.99 467.21 350.82 524.04 421.71 524.04 421.71 463.29 380.99 467.21"/><path class="cls-9" d="M421.71,390.48,364,499.22c4.77-2.52,29.54-15.1,50.3-4.86a36.23,36.23,0,0,1,7.41,4.86Z"/><polygon class="cls-8" points="364 499.22 248.44 716.95 421.71 716.95 421.71 499.22 364 499.22"/><path class="cls-10" d="M421.71,390.48V499.22a47.93,47.93,0,0,1,17.12-7.78c20.19-4.68,37,5.47,40.6,7.78Z"/><polygon class="cls-7" points="594.99 716.95 479.43 499.22 421.71 499.22 421.71 716.95 594.99 716.95"/><polygon class="cls-7" points="552.08 479 592.54 555.41 524.38 555.41 524.38 479 552.08 479"/><polygon class="cls-8" points="488.23 495.07 461.47 545.5 524.38 545.5 524.38 491.59 488.23 495.07"/><path class="cls-9" d="M524.38,427l-51.23,96.51c4.24-2.24,26.23-13.41,44.65-4.32a32.48,32.48,0,0,1,6.58,4.32Z"/><polygon class="cls-8" points="473.15 523.48 370.6 716.71 524.38 716.71 524.38 523.48 473.15 523.48"/><path class="cls-10" d="M524.38,427v96.51a42.31,42.31,0,0,1,15.19-6.91c17.92-4.15,32.81,4.86,36,6.91Q550,475.23,524.38,427Z"/><polygon class="cls-7" points="678.15 716.71 575.6 523.48 524.38 523.48 524.38 716.71 678.15 716.71"/><polygon class="cls-7" points="402.39 550.11 373.97 603.76 421.84 603.76 421.84 550.11 402.39 550.11"/><polygon class="cls-8" points="447.22 561.39 466.01 596.8 421.84 596.8 421.84 558.95 447.22 561.39"/><path class="cls-9" d="M421.84,513.58l36,67.76c-3-1.57-18.41-9.41-31.34-3a22.39,22.39,0,0,0-4.62,3Z"/><polygon class="cls-8" points="457.8 581.34 529.82 717.02 421.84 717.02 421.84 581.34 457.8 581.34"/><path class="cls-10" d="M421.84,513.58v67.76a29.91,29.91,0,0,0-10.67-4.85c-12.58-2.91-23,3.41-25.3,4.85Z"/><polygon class="cls-7" points="313.86 717.02 385.87 581.34 421.84 581.34 421.84 717.02 313.86 717.02"/><path class="cls-11" d="M257.69,735.94h194.6V605.21C349.63,614.74,257.69,735.94,257.69,735.94Z"/><path class="cls-12" d="M571.77,658c-38.28-43.41-79.69-56.49-119.48-52.8V735.94H647C611.76,729.55,571.77,658,571.77,658Z"/><path class="cls-13" d="M396.62,616.81c-10.82-13.75-23.74-19.64-37.76-19.89v139H527.17C475.41,727.59,396.62,616.81,396.62,616.81Z"/><path class="cls-14" d="M190.55,735.94H358.86v-139C288.54,595.63,190.55,735.94,190.55,735.94Z"/><path class="cls-14" d="M326.19,735.94H619.62v-139C517.94,597.7,326.19,735.94,326.19,735.94Z"/><path class="cls-13" d="M664.55,611.85c-10.84-10.66-26.39-15.08-44.93-14.94v139h90.83C687,629.42,664.55,611.85,664.55,611.85Z"/><path class="cls-15" d="M263.69,745.6H452.24V654.39C352.77,661,263.69,745.6,263.69,745.6Z"/><path class="cls-16" d="M568,691.23c-37.09-30.29-77.2-39.41-115.75-36.84V745.6H640.83C606.74,741.14,568,691.23,568,691.23Z"/><path class="cls-17" d="M398.3,662.48c-10.48-9.59-23-13.7-36.59-13.87v97H524.78C474.63,739.77,398.3,662.48,398.3,662.48Z"/><path class="cls-18" d="M198.65,745.6H361.71v-97C293.59,647.71,198.65,745.6,198.65,745.6Z"/><path class="cls-18" d="M330.06,745.6h284.3v-97C515.84,649.15,330.06,745.6,330.06,745.6Z"/><path class="cls-17" d="M657.88,659c-10.5-7.43-25.56-10.52-43.52-10.42v97h88C679.65,671.28,657.88,659,657.88,659Z"/><path class="cls-19" d="M191.72,792.09H736.58c4.95,0,9-3.59,9-8v-6.19c0-4.42-4-8-9-8H191.72c-4.95,0-9,3.59-9,8v6.19C182.76,788.5,186.77,792.09,191.72,792.09Z"/><path class="cls-19" d="M134.45,814.47H502.12c4.94,0,8.95-3.59,8.95-8v-6.18c0-4.43-4-8-8.95-8H134.45c-4.95,0-9,3.59-9,8v6.18C125.49,810.88,129.5,814.47,134.45,814.47Z"/><path class="cls-19" d="M826,792.25H566.76c-5,0-9,3.59-9,8v6.18c0,4.43,4,8,9,8H826c5,0,9-3.59,9-8v-6.18C835,795.84,831,792.25,826,792.25Z"/><path class="cls-19" d="M759.37,814.63H306.18c-4.95,0-9,3.59-9,8v6.19c0,4.42,4,8,9,8H759.37c5,0,9-3.59,9-8v-6.19C768.33,818.22,764.32,814.63,759.37,814.63Z"/><path class="cls-19" d="M248.27,828.83v-6.19c0-4.42-4-8-9-8H39.44c-4.94,0-9,3.59-9,8v6.19c0,4.42,4,8,9,8H239.31C244.26,836.84,248.27,833.25,248.27,828.83Z"/><path class="cls-19" d="M469.9,837H154.5c-4.95,0-9,3.59-9,8v6.18c0,4.43,4,8,9,8H469.9c5,0,9-3.59,9-8V845C478.86,840.59,474.85,837,469.9,837Z"/><path class="cls-19" d="M417.12,859.38H196.72c-4.94,0-9,3.59-9,8v6.18c0,4.42,4,8,9,8h220.4c4.94,0,8.95-3.59,8.95-8V867.4C426.07,863,422.06,859.38,417.12,859.38Z"/><rect class="cls-20" x="221.46" y="780.82" width="503.65" height="22.21" rx="8.02"/><rect class="cls-20" x="170.21" y="803.19" width="345.07" height="22.21" rx="8.02"/><rect class="cls-20" x="557.09" y="803.19" width="248.08" height="22.21" rx="8.02"/><rect class="cls-20" x="323.89" y="825.57" width="421.61" height="22.21" rx="8.02"/><rect class="cls-20" x="85.18" y="825.57" width="194.91" height="22.21" rx="8.02"/><rect class="cls-20" x="188.15" y="847.94" width="298.3" height="22.21" rx="8.02"/><rect class="cls-20" x="225.93" y="870.32" width="213.27" height="22.21" rx="8.02"/><rect class="cls-21" x="198.59" y="758.44" width="503.65" height="22.21" rx="11.11"/><rect class="cls-18" x="165.45" y="732.67" width="570.1" height="25.85" rx="12.92"/><rect class="cls-22" x="489.33" y="680.74" width="1.82" height="31.14" rx="0.91"/><polygon class="cls-14" points="490.24 662.23 480.84 695.61 490.24 695.61 490.24 662.23"/><polygon class="cls-13" points="490.24 662.23 499.64 695.61 490.24 695.61 490.24 662.23"/><rect class="cls-22" x="305.81" y="684.88" width="1.82" height="31.14" rx="0.91"/><polygon class="cls-14" points="306.72 666.37 297.33 699.75 306.72 699.75 306.72 666.37"/><polygon class="cls-13" points="306.72 666.37 316.12 699.75 306.72 699.75 306.72 666.37"/><rect class="cls-22" x="387.51" y="694.36" width="1.82" height="31.14" rx="0.91"/><polygon class="cls-14" points="388.42 675.84 379.02 709.22 388.42 709.22 388.42 675.84"/><polygon class="cls-13" points="388.42 675.84 397.81 709.22 388.42 709.22 388.42 675.84"/><rect class="cls-22" x="603.58" y="684.88" width="1.82" height="31.14" rx="0.91"/><polygon class="cls-14" points="604.49 666.37 595.09 699.75 604.49 699.75 604.49 666.37"/><polygon class="cls-13" points="604.49 666.37 613.89 699.75 604.49 699.75 604.49 666.37"/><rect class="cls-22" x="341.92" y="626.87" width="1.82" height="31.14" rx="0.91"/><polygon class="cls-18" points="342.83 608.35 333.44 641.74 342.83 641.74 342.83 608.35"/><polygon class="cls-17" points="342.83 608.35 352.23 641.74 342.83 641.74 342.83 608.35"/><rect class="cls-22" x="571.61" y="593.72" width="1.82" height="31.14" rx="0.91"/><polygon class="cls-18" points="572.52 575.2 563.13 608.59 572.52 608.59 572.52 575.2"/><polygon class="cls-17" points="572.52 575.2 581.92 608.59 572.52 608.59 572.52 575.2"/><rect class="cls-22" x="310.55" y="590.76" width="1.82" height="31.14" rx="0.91"/><polygon class="cls-18" points="311.46 572.24 302.06 605.63 311.46 605.63 311.46 572.24"/><polygon class="cls-17" points="311.46 572.24 320.86 605.63 311.46 605.63 311.46 572.24"/><rect class="cls-22" x="266.15" y="660.02" width="1.82" height="31.14" rx="0.91"/><polygon class="cls-18" points="267.06 641.51 257.66 674.89 267.06 674.89 267.06 641.51"/><polygon class="cls-17" points="267.06 641.51 276.46 674.89 267.06 674.89 267.06 641.51"/><rect class="cls-22" x="639.69" y="631.01" width="1.82" height="31.14" rx="0.91"/><polygon class="cls-18" points="640.6 612.5 631.21 645.88 640.6 645.88 640.6 612.5"/><polygon class="cls-17" points="640.6 612.5 650 645.88 640.6 645.88 640.6 612.5"/><rect class="cls-22" x="557.64" y="644.83" width="1.66" height="27.98" rx="0.83"/><path class="cls-11" d="M570.08,647.2a11.62,11.62,0,0,0-11.47-11.61v23.23A11.62,11.62,0,0,0,570.08,647.2Z"/><path class="cls-12" d="M558.47,635.59a11.62,11.62,0,1,0,0,23.23h.14V635.59Z"/><rect class="cls-22" x="377.67" y="644.83" width="1.66" height="27.98" rx="0.83"/><path class="cls-11" d="M390.12,647.2a11.62,11.62,0,0,0-11.47-11.61v23.23A11.62,11.62,0,0,0,390.12,647.2Z"/><path class="cls-12" d="M378.5,635.59a11.62,11.62,0,1,0,0,23.23h.15V635.59Z"/><rect class="cls-22" x="445.16" y="671.47" width="1.66" height="27.98" rx="0.83"/><path class="cls-11" d="M457.61,673.84a11.62,11.62,0,0,0-11.48-11.61v23.23A11.63,11.63,0,0,0,457.61,673.84Z"/><path class="cls-12" d="M446,662.23a11.62,11.62,0,1,0,0,23.23h.14V662.23Z"/><polygon class="cls-7" points="1477.56 449.11 1431.96 535.21 1508.77 535.21 1508.77 449.11 1477.56 449.11"/><polygon class="cls-8" points="1549.5 467.21 1579.66 524.04 1508.77 524.04 1508.77 463.29 1549.5 467.21"/><path class="cls-9" d="M1508.77,390.48l57.72,108.74c-4.78-2.52-29.55-15.1-50.3-4.86a36,36,0,0,0-7.42,4.86Z"/><polygon class="cls-8" points="1566.49 499.22 1682.05 716.95 1508.77 716.95 1508.77 499.22 1566.49 499.22"/><path class="cls-10" d="M1508.77,390.48V499.22a47.93,47.93,0,0,0-17.12-7.78c-20.19-4.68-37,5.47-40.59,7.78Q1479.92,444.85,1508.77,390.48Z"/><polygon class="cls-7" points="1335.5 716.95 1451.06 499.22 1508.77 499.22 1508.77 716.95 1335.5 716.95"/><polygon class="cls-7" points="1378.41 479 1337.94 555.41 1406.11 555.41 1406.11 479 1378.41 479"/><polygon class="cls-8" points="1442.25 495.07 1469.02 545.5 1406.11 545.5 1406.11 491.59 1442.25 495.07"/><path class="cls-9" d="M1406.11,427l51.22,96.51c-4.24-2.24-26.22-13.41-44.64-4.32a32.21,32.21,0,0,0-6.58,4.32Z"/><polygon class="cls-8" points="1457.33 523.48 1559.89 716.71 1406.11 716.71 1406.11 523.48 1457.33 523.48"/><path class="cls-10" d="M1406.11,427v96.51a42.45,42.45,0,0,0-15.2-6.91c-17.91-4.15-32.8,4.86-36,6.91Z"/><polygon class="cls-7" points="1252.33 716.71 1354.89 523.48 1406.11 523.48 1406.11 716.71 1252.33 716.71"/><polygon class="cls-7" points="1528.1 550.11 1556.51 603.76 1508.65 603.76 1508.65 550.11 1528.1 550.11"/><polygon class="cls-8" points="1483.27 561.39 1464.47 596.8 1508.65 596.8 1508.65 558.95 1483.27 561.39"/><path class="cls-9" d="M1508.65,513.58l-36,67.76c3-1.57,18.41-9.41,31.35-3a22.93,22.93,0,0,1,4.62,3Z"/><polygon class="cls-8" points="1472.68 581.34 1400.67 717.02 1508.65 717.02 1508.65 581.34 1472.68 581.34"/><path class="cls-10" d="M1508.65,513.58v67.76a29.83,29.83,0,0,1,10.67-4.85c12.58-2.91,23,3.41,25.29,4.85Z"/><polygon class="cls-7" points="1616.62 717.02 1544.61 581.34 1508.65 581.34 1508.65 717.02 1616.62 717.02"/><path class="cls-11" d="M1672.8,735.94H1478.19V605.21C1580.86,614.74,1672.8,735.94,1672.8,735.94Z"/><path class="cls-12" d="M1358.72,658c38.28-43.41,79.68-56.49,119.47-52.8V735.94H1283.54C1318.72,729.55,1358.72,658,1358.72,658Z"/><path class="cls-13" d="M1533.86,616.81c10.82-13.75,23.74-19.64,37.76-19.89v139h-168.3C1455.08,727.59,1533.86,616.81,1533.86,616.81Z"/><path class="cls-14" d="M1739.93,735.94H1571.62v-139C1641.94,595.63,1739.93,735.94,1739.93,735.94Z"/><path class="cls-14" d="M1604.29,735.94H1310.86v-139C1412.54,597.7,1604.29,735.94,1604.29,735.94Z"/><path class="cls-13" d="M1265.94,611.85c10.84-10.66,26.38-15.08,44.92-14.94v139H1220C1243.47,629.42,1265.94,611.85,1265.94,611.85Z"/><path class="cls-15" d="M1666.79,745.6H1478.25V654.39C1577.71,661,1666.79,745.6,1666.79,745.6Z"/><path class="cls-16" d="M1362.49,691.23c37.09-30.29,77.21-39.41,115.76-36.84V745.6H1289.66C1323.74,741.14,1362.49,691.23,1362.49,691.23Z"/><path class="cls-17" d="M1532.18,662.48c10.49-9.59,23-13.7,36.59-13.87v97H1405.7C1455.85,739.77,1532.18,662.48,1532.18,662.48Z"/><path class="cls-18" d="M1731.84,745.6H1568.77v-97C1636.9,647.71,1731.84,745.6,1731.84,745.6Z"/><path class="cls-18" d="M1600.42,745.6H1316.13v-97C1414.64,649.15,1600.42,745.6,1600.42,745.6Z"/><path class="cls-17" d="M1272.6,659c10.51-7.43,25.57-10.52,43.53-10.42v97h-88C1250.84,671.28,1272.6,659,1272.6,659Z"/><path class="cls-19" d="M1738.76,792.09H1193.9c-4.94,0-9-3.59-9-8v-6.19c0-4.42,4-8,9-8h544.86c5,0,9,3.59,9,8v6.19C1747.72,788.5,1743.71,792.09,1738.76,792.09Z"/><path class="cls-19" d="M1796,814.47H1428.37c-4.95,0-9-3.59-9-8v-6.18c0-4.43,4-8,9-8H1796c5,0,9,3.59,9,8v6.18C1805,810.88,1801,814.47,1796,814.47Z"/><path class="cls-19" d="M1104.44,792.25h259.29c5,0,9,3.59,9,8v6.18c0,4.43-4,8-9,8H1104.44c-4.94,0-9-3.59-9-8v-6.18C1095.48,795.84,1099.5,792.25,1104.44,792.25Z"/><path class="cls-19" d="M1171.12,814.63h453.19c5,0,9,3.59,9,8v6.19c0,4.42-4,8-9,8H1171.12c-4.95,0-9-3.59-9-8v-6.19C1162.16,818.22,1166.17,814.63,1171.12,814.63Z"/><path class="cls-19" d="M1682.21,828.83v-6.19c0-4.42,4-8,9-8H1891c5,0,9,3.59,9,8v6.19c0,4.42-4,8-9,8H1691.17C1686.22,836.84,1682.21,833.25,1682.21,828.83Z"/><path class="cls-19" d="M1460.59,837H1776c5,0,9,3.59,9,8v6.18c0,4.43-4,8-9,8h-315.4c-4.95,0-9-3.59-9-8V845C1451.63,840.59,1455.64,837,1460.59,837Z"/><path class="cls-19" d="M1513.37,859.38h220.39c5,0,9,3.59,9,8v6.18c0,4.42-4,8-9,8H1513.37c-4.95,0-9-3.59-9-8V867.4C1504.41,863,1508.42,859.38,1513.37,859.38Z"/><rect class="cls-20" x="1205.38" y="780.82" width="503.65" height="22.21" rx="8.02"/><rect class="cls-20" x="1415.21" y="803.19" width="345.07" height="22.21" rx="8.02"/><rect class="cls-20" x="1125.32" y="803.19" width="248.08" height="22.21" rx="8.02"/><rect class="cls-20" x="1184.99" y="825.57" width="421.61" height="22.21" rx="8.02"/><rect class="cls-20" x="1650.4" y="825.57" width="194.91" height="22.21" rx="8.02"/><rect class="cls-20" x="1444.04" y="847.94" width="298.3" height="22.21" rx="8.02"/><rect class="cls-20" x="1491.28" y="870.32" width="213.27" height="22.21" rx="8.02"/><rect class="cls-21" x="1228.25" y="758.44" width="503.65" height="22.21" rx="11.11" transform="translate(2960.15 1539.1) rotate(-180)"/><rect class="cls-18" x="1194.93" y="732.67" width="570.1" height="25.85" rx="12.92" transform="translate(2959.97 1491.19) rotate(-180)"/><rect class="cls-22" x="1439.33" y="680.74" width="1.82" height="31.14" rx="0.91" transform="translate(2880.49 1392.62) rotate(-180)"/><polygon class="cls-14" points="1440.25 662.23 1449.64 695.61 1440.25 695.61 1440.25 662.23"/><polygon class="cls-13" points="1440.25 662.23 1430.85 695.61 1440.25 695.61 1440.25 662.23"/><rect class="cls-22" x="1622.85" y="684.88" width="1.82" height="31.14" rx="0.91" transform="translate(3247.52 1400.9) rotate(180)"/><polygon class="cls-14" points="1623.76 666.37 1633.16 699.75 1623.76 699.75 1623.76 666.37"/><polygon class="cls-13" points="1623.76 666.37 1614.36 699.75 1623.76 699.75 1623.76 666.37"/><rect class="cls-22" x="1541.16" y="694.36" width="1.82" height="31.14" rx="0.91" transform="translate(3084.13 1419.85) rotate(180)"/><polygon class="cls-14" points="1542.07 675.84 1551.46 709.22 1542.07 709.22 1542.07 675.84"/><polygon class="cls-13" points="1542.07 675.84 1532.67 709.22 1542.07 709.22 1542.07 675.84"/><rect class="cls-22" x="1325.08" y="684.88" width="1.82" height="31.14" rx="0.91" transform="translate(2651.98 1400.91) rotate(-180)"/><polygon class="cls-14" points="1325.99 666.37 1335.39 699.75 1325.99 699.75 1325.99 666.37"/><polygon class="cls-13" points="1325.99 666.37 1316.6 699.75 1325.99 699.75 1325.99 666.37"/><rect class="cls-22" x="1586.74" y="626.87" width="1.82" height="31.14" rx="0.91" transform="translate(3175.3 1284.88) rotate(-180)"/><polygon class="cls-18" points="1587.65 608.35 1597.05 641.74 1587.65 641.74 1587.65 608.35"/><polygon class="cls-17" points="1587.65 608.35 1578.25 641.74 1587.65 641.74 1587.65 608.35"/><rect class="cls-22" x="1357.05" y="593.72" width="1.82" height="31.14" rx="0.91" transform="translate(2715.92 1218.58) rotate(180)"/><polygon class="cls-18" points="1357.96 575.2 1367.36 608.59 1357.96 608.59 1357.96 575.2"/><polygon class="cls-17" points="1357.96 575.2 1348.56 608.59 1357.96 608.59 1357.96 575.2"/><rect class="cls-22" x="1618.11" y="590.76" width="1.82" height="31.14" rx="0.91" transform="translate(3238.05 1212.66) rotate(180)"/><polygon class="cls-18" points="1619.03 572.24 1628.42 605.63 1619.03 605.63 1619.03 572.24"/><polygon class="cls-17" points="1619.03 572.24 1609.63 605.63 1619.03 605.63 1619.03 572.24"/><rect class="cls-22" x="1662.51" y="660.02" width="1.82" height="31.14" rx="0.91" transform="translate(3326.85 1351.18) rotate(-180)"/><polygon class="cls-18" points="1663.42 641.51 1672.82 674.89 1663.42 674.89 1663.42 641.51"/><polygon class="cls-17" points="1663.42 641.51 1654.03 674.89 1663.42 674.89 1663.42 641.51"/><rect class="cls-22" x="1288.97" y="631.01" width="1.82" height="31.14" rx="0.91" transform="translate(2579.76 1293.17) rotate(180)"/><polygon class="cls-18" points="1289.88 612.5 1299.28 645.88 1289.88 645.88 1289.88 612.5"/><polygon class="cls-17" points="1289.88 612.5 1280.48 645.88 1289.88 645.88 1289.88 612.5"/><rect class="cls-22" x="1371.19" y="644.83" width="1.66" height="27.98" rx="0.83" transform="translate(2744.04 1317.64) rotate(180)"/><path class="cls-11" d="M1360.4,647.2a11.62,11.62,0,0,1,11.47-11.61v23.23A11.62,11.62,0,0,1,1360.4,647.2Z"/><path class="cls-12" d="M1372,635.59a11.62,11.62,0,1,1,0,23.23h-.15V635.59Z"/><rect class="cls-22" x="1551.15" y="644.83" width="1.66" height="27.98" rx="0.83" transform="translate(3103.97 1317.64) rotate(180)"/><path class="cls-11" d="M1540.37,647.2a11.62,11.62,0,0,1,11.47-11.61v23.23A11.62,11.62,0,0,1,1540.37,647.2Z"/><path class="cls-12" d="M1552,635.59a11.62,11.62,0,1,1,0,23.23h-.14V635.59Z"/><rect class="cls-22" x="1483.67" y="671.47" width="1.66" height="27.98" rx="0.83" transform="translate(2968.99 1370.92) rotate(-180)"/><path class="cls-11" d="M1472.88,673.84a11.62,11.62,0,0,1,11.47-11.61v23.23A11.62,11.62,0,0,1,1472.88,673.84Z"/><path class="cls-12" d="M1484.5,662.23a11.62,11.62,0,0,1,0,23.23h-.15V662.23Z"/><path class="cls-6" d="M1559.65,136.31h-11.77s0-.08,0-.12c0-16.67-32.2-30.19-71.92-30.19s-71.92,13.52-71.92,30.19c0,0,0,.08,0,.12h-17.65c-16.24,0-29.41,5.52-29.41,12.34S1370.17,161,1386.41,161h173.24c16.24,0,29.41-5.53,29.41-12.35S1575.89,136.31,1559.65,136.31Z"/><path class="cls-6" d="M381.87,477.9h-8.36v-.1c0-14.25-22.85-25.8-51.05-25.8s-51.06,11.55-51.06,25.8c0,0,0,.07,0,.1H258.88c-11.53,0-20.88,4.72-20.88,10.55S247.35,499,258.88,499h123c11.53,0,20.87-4.72,20.87-10.55S393.4,477.9,381.87,477.9Z"/></g></svg>