<svg id="Layer_1" data-name="Layer 1" xmlns="http://www.w3.org/2000/svg" viewBox="0 0 1440.2 810"><defs><style>.cls-1{fill:#cdf4f2;}.cls-2{fill:#8fd2d4;}.cls-3{fill:#fe3;}.cls-4{fill:#51be1b;}.cls-5{fill:#3b840c;}.cls-6{fill:#309ea7;}.cls-7{fill:#37b0be;}.cls-8{fill:#49c9e1;}.cls-9{fill:#ffc788;}.cls-10{fill:#469f0a;}.cls-11{fill:#844f03;}.cls-12{fill:#8dd4d5;}</style></defs><title>hill</title><rect class="cls-1" width="1440.2" height="702.4"/><path class="cls-2" d="M377.28,483.79c-.49,0-1,0-1.46,0-9.93-69-70.19-122.09-143.09-122.09l-.53,0c.34-3.49.53-7,.53-10.58,0-51.36-35.72-94.52-84.07-106.75,0-.22,0-.44,0-.66,0-39.22-29.79-71.58-68.34-76.43a75.7,75.7,0,0,0,6.08-29.81c0-31-18.66-57.78-45.54-70a91.7,91.7,0,0,0,1.39-15.85A87.25,87.25,0,0,0,25.71,0H0V670.83q4.26.25,8.58.26a145,145,0,0,0,122.25-66.34A146.35,146.35,0,0,0,315,620.83a84,84,0,0,0,62.32,27.43c46.18,0,83.62-36.82,83.62-82.23S423.46,483.79,377.28,483.79Z"/><path class="cls-2" d="M1064.62,483.79c.49,0,1,0,1.46,0,9.93-69,70.19-122.09,143.09-122.09l.53,0c-.34-3.49-.53-7-.53-10.58,0-51.36,35.72-94.52,84.06-106.75,0-.22,0-.44,0-.66,0-39.22,29.79-71.58,68.34-76.43a75.7,75.7,0,0,1-6.08-29.81c0-31,18.66-57.78,45.54-70a91.7,91.7,0,0,1-1.39-15.85A87.25,87.25,0,0,1,1416.19,0h25.71V670.83q-4.26.25-8.58.26a145,145,0,0,1-122.25-66.34,146.35,146.35,0,0,1-184.13,16.08,84,84,0,0,1-62.32,27.43c-46.18,0-83.62-36.82-83.62-82.23S1018.44,483.79,1064.62,483.79Z"/><circle class="cls-3" cx="631.22" cy="357.53" r="102.24"/><path class="cls-4" d="M863.45,381.44c-19,0-36.73,10.9-51.4,29.57-11.22-71.43-46.38-123.56-88-123.56-36.73,0-68.42,40.56-83.08,99.15-16.55-30.46-39.21-49.25-64.2-49.25-50.69,0-91.77,77.23-91.77,172.49s41.08,172.49,91.77,172.49c36.73,0,68.41-40.57,83.08-99.15,16.55,30.45,39.2,49.24,64.2,49.24,19,0,36.74-10.91,51.4-29.58,11.22,71.43,46.38,123.57,88,123.57,50.69,0,91.78-77.23,91.78-172.49S914.14,381.44,863.45,381.44Z"/><path class="cls-5" d="M824.25,420.17c-14.51,0-28,8.31-39.17,22.54-8.56-54.44-35.35-94.18-67.09-94.18-28,0-52.15,30.92-63.32,75.57-12.62-23.21-29.88-37.53-48.93-37.53-38.63,0-70,58.86-70,131.46s31.32,131.46,70,131.46c28,0,52.14-30.91,63.32-75.57,12.61,23.22,29.88,37.54,48.93,37.54,14.51,0,28-8.32,39.18-22.55,8.55,54.44,35.34,94.18,67.08,94.18,38.63,0,70-58.86,70-131.46S862.88,420.17,824.25,420.17Z"/><rect class="cls-4" y="574.83" width="1440.2" height="235.17"/><rect class="cls-6" x="0.11" y="636.58" width="1440.09" height="173.42"/><polygon class="cls-7" points="1440.2 810 0 810 0 654.07 1440.2 676.7 1440.2 810"/><polygon class="cls-8" points="1440.2 810 0.41 810 0.11 718.31 1440.2 695.99 1440.2 810"/><path class="cls-9" d="M0,729.85s401.07,8.4,535.46,23.14c0,0,172,19.12,389.58,16.21,0,0,78.72.3,360-19.53,0,0,118.39-10,155.19,3.32v57H.3Z"/><path class="cls-10" d="M183.64,496.28a15.62,15.62,0,0,0,.75-4.81,15.9,15.9,0,0,0-12-15.42,20.44,20.44,0,1,0-40.25-5,20.67,20.67,0,0,0,.37,3.88,17.44,17.44,0,0,0-8,27.56,21.16,21.16,0,1,0,24.58,31.68,25.81,25.81,0,1,0,34.59-37.87Z"/><path class="cls-11" d="M149.59,594.24a1.37,1.37,0,0,1-1.37-1.38V494.37a1.38,1.38,0,0,1,2.75,0v98.49A1.38,1.38,0,0,1,149.59,594.24Z"/><path class="cls-11" d="M149.6,516.29a1.37,1.37,0,0,1-1.13-.58l-10.82-15.22a1.38,1.38,0,0,1,.33-1.92,1.36,1.36,0,0,1,1.91.32l10.83,15.23a1.37,1.37,0,0,1-1.12,2.17Z"/><path class="cls-11" d="M149.59,535.55a1.34,1.34,0,0,1-.93-.37,1.38,1.38,0,0,1-.07-1.95L171.15,509a1.38,1.38,0,0,1,2,1.88L150.6,535.11A1.38,1.38,0,0,1,149.59,535.55Z"/><path class="cls-10" d="M255.77,524.48a11.67,11.67,0,0,0-8.24-14.82A15.39,15.39,0,0,0,248,506,15,15,0,0,0,218,506a14.81,14.81,0,0,0,.28,2.85A12.77,12.77,0,0,0,212.43,529a15.5,15.5,0,1,0,18,23.2,18.9,18.9,0,1,0,25.34-27.73Z"/><path class="cls-11" d="M230.83,596.22a1,1,0,0,1-1-1V523.08a1,1,0,1,1,2,0v72.13A1,1,0,0,1,230.83,596.22Z"/><path class="cls-11" d="M230.83,539.13a1,1,0,0,1-.82-.42l-7.93-11.15a1,1,0,0,1,.24-1.41,1,1,0,0,1,1.4.24l7.93,11.15a1,1,0,0,1-.82,1.59Z"/><path class="cls-11" d="M230.83,553.24a1,1,0,0,1-.74-1.7l16.52-17.73a1,1,0,0,1,1.48,1.37l-16.52,17.74A1,1,0,0,1,230.83,553.24Z"/><path class="cls-10" d="M338.4,504.28a14.27,14.27,0,0,0-10.08-18.12,18.31,18.31,0,1,0-36.05-4.49,18.9,18.9,0,0,0,.33,3.47,15.64,15.64,0,0,0-7.2,24.68,19,19,0,1,0,22,28.37,23.11,23.11,0,1,0,31-33.91Z"/><path class="cls-11" d="M307.9,592a1.23,1.23,0,0,1-1.23-1.23v-88.2a1.23,1.23,0,1,1,2.46,0v88.2A1.23,1.23,0,0,1,307.9,592Z"/><path class="cls-11" d="M307.9,522.2a1.22,1.22,0,0,1-1-.52l-9.69-13.63a1.22,1.22,0,0,1,.29-1.72,1.24,1.24,0,0,1,1.72.29l9.69,13.63a1.24,1.24,0,0,1-.29,1.72A1.28,1.28,0,0,1,307.9,522.2Z"/><path class="cls-11" d="M307.9,539.44a1.19,1.19,0,0,1-.84-.33,1.23,1.23,0,0,1-.06-1.74l20.2-21.68a1.23,1.23,0,0,1,1.81,1.68L308.8,539.05A1.22,1.22,0,0,1,307.9,539.44Z"/><path class="cls-12" d="M474.12,54.61c1.63-.42,2.53-.86,2.53-1.3,0-2.54-27.57-4.77-69.75-6.13,2.19-.37,3.37-.75,3.37-1.14,0-1.24-11.52-2.37-30.1-3.17a.68.68,0,0,0,.11-.34c0-3.36-32-6.09-71.39-6.09s-71.39,2.73-71.39,6.09a.7.7,0,0,0,.12.35c-18.36.81-29.72,1.92-29.72,3.16,0,.45,1.57.9,4.47,1.31-39.27,1.37-64.62,3.53-64.62,6,0,.37.63.74,1.8,1.1-27.62,1.76-44.16,4-44.16,6.39,0,5.69,91.74,10.31,204.91,10.31S515.21,66.49,515.21,60.8C515.21,58.48,499.91,56.33,474.12,54.61Z"/><path class="cls-12" d="M1186.13,107.9c1.52-.4,2.36-.8,2.36-1.22,0-2.35-25.65-4.43-64.87-5.69,2-.34,3.13-.7,3.13-1.07,0-1.15-10.72-2.19-28-3a.6.6,0,0,0,.1-.31c0-3.13-29.73-5.66-66.4-5.66s-66.39,2.53-66.39,5.66a.62.62,0,0,0,.11.33c-17.07.75-27.64,1.79-27.64,2.93,0,.43,1.46.84,4.16,1.23-36.52,1.27-60.1,3.28-60.1,5.53,0,.35.58.7,1.68,1-25.7,1.64-41.08,3.7-41.08,6,0,5.29,85.33,9.58,190.58,9.58s190.57-4.29,190.57-9.58C1224.35,111.49,1210.12,109.5,1186.13,107.9Z"/><path class="cls-10" d="M1144.43,495.42a15.93,15.93,0,0,0-11.25-20.23,20.44,20.44,0,1,0-40.26-5,19.79,19.79,0,0,0,.38,3.88,17.45,17.45,0,0,0-8,27.56,21.16,21.16,0,1,0,24.59,31.68,25.81,25.81,0,1,0,34.59-37.87Z"/><path class="cls-11" d="M1110.38,593.38A1.38,1.38,0,0,1,1109,592v-98.5a1.38,1.38,0,0,1,2.76,0V592A1.38,1.38,0,0,1,1110.38,593.38Z"/><path class="cls-11" d="M1110.38,515.43a1.37,1.37,0,0,1-1.12-.58l-10.82-15.22a1.37,1.37,0,1,1,2.24-1.59l10.82,15.22a1.37,1.37,0,0,1-1.12,2.17Z"/><path class="cls-11" d="M1110.38,534.69a1.37,1.37,0,0,1-.94-.37,1.38,1.38,0,0,1-.07-1.94l22.56-24.21a1.38,1.38,0,0,1,2,1.87l-22.56,24.21A1.38,1.38,0,0,1,1110.38,534.69Z"/><path class="cls-10" d="M1216.55,523.62a11.37,11.37,0,0,0,.55-3.52,11.66,11.66,0,0,0-8.79-11.3,14.76,14.76,0,0,0,.46-3.67,15,15,0,1,0-29.94,0,15.63,15.63,0,0,0,.27,2.84,12.77,12.77,0,0,0-5.89,20.18,15.5,15.5,0,1,0,18,23.2,18.9,18.9,0,1,0,25.33-27.73Z"/><path class="cls-11" d="M1191.61,595.36a1,1,0,0,1-1-1V522.22a1,1,0,0,1,2,0v72.14A1,1,0,0,1,1191.61,595.36Z"/><path class="cls-11" d="M1191.62,538.28a1,1,0,0,1-.83-.43l-7.92-11.15a1,1,0,1,1,1.64-1.16l7.93,11.14a1,1,0,0,1-.24,1.41A1.05,1.05,0,0,1,1191.62,538.28Z"/><path class="cls-11" d="M1191.61,552.38a1,1,0,0,1-.73-1.69L1207.4,533a1,1,0,1,1,1.47,1.38l-16.52,17.73A1,1,0,0,1,1191.61,552.38Z"/><path class="cls-10" d="M1299.18,503.42a14.24,14.24,0,0,0-10.07-18.12,18.31,18.31,0,1,0-36.06-4.49,18.17,18.17,0,0,0,.34,3.48,15.61,15.61,0,0,0-7.2,24.67,18.95,18.95,0,1,0,22,28.37,23.11,23.11,0,1,0,31-33.91Z"/><path class="cls-11" d="M1268.69,591.15a1.24,1.24,0,0,1-1.23-1.24v-88.2a1.23,1.23,0,0,1,2.46,0v88.2A1.24,1.24,0,0,1,1268.69,591.15Z"/><path class="cls-11" d="M1268.69,521.34a1.23,1.23,0,0,1-1-.52L1258,507.19a1.23,1.23,0,0,1,2-1.43l9.69,13.64a1.21,1.21,0,0,1-.29,1.71A1.16,1.16,0,0,1,1268.69,521.34Z"/><path class="cls-11" d="M1268.69,538.59a1.24,1.24,0,0,1-.84-.33,1.22,1.22,0,0,1-.06-1.74l20.2-21.68a1.23,1.23,0,1,1,1.8,1.67l-20.2,21.69A1.22,1.22,0,0,1,1268.69,538.59Z"/></svg>