<svg id="Layer_1" data-name="Layer 1" xmlns="http://www.w3.org/2000/svg" xmlns:xlink="http://www.w3.org/1999/xlink" viewBox="0 0 1920 1080"><defs><style>.cls-1{fill:none;}.cls-2{fill:#ffc393;}.cls-3{clip-path:url(#clip-path);}.cls-4{fill:#ffa353;}.cls-5{fill:#2e813e;}.cls-6{fill:#003f3e;}.cls-7{fill:#54ac31;}.cls-8{fill:#fda453;}.cls-9{fill:#58d4f8;}.cls-10{fill:#84ecff;}.cls-11{fill:#31803e;}.cls-12{fill:#033a09;}.cls-13{fill:#98c54b;}.cls-14{fill:#92ca43;}.cls-15{fill:#58ab36;}.cls-16{fill:#fedcc1;}.cls-17{fill:#bcd7e2;}.cls-18{fill:#050505;}.cls-19{fill:#2f3d44;}.cls-20{fill:#899167;}.cls-21{fill:#b0b784;}.cls-22{fill:#1e272b;}.cls-23{fill:#3b5b43;}.cls-24{fill:#be041c;}.cls-25{fill:#ba3722;}.cls-26{fill:#ff4f2c;}.cls-27{opacity:0.5;}.cls-28{fill:#f7f4da;}</style><clipPath id="clip-path"><rect class="cls-1" width="1920" height="1079"/></clipPath></defs><title>Scenery01</title><rect class="cls-2" width="1920" height="1079"/><g class="cls-3"><circle class="cls-4" cx="488" cy="509" r="176"/><path class="cls-5" d="M962,542.18c-141.62-225.84-334.73-142.67-463-44.5C275.21,382.77,0,649,0,649v78H1153C1073,727,962,542.18,962,542.18Z"/><polygon class="cls-6" points="0 728 50 660 97.57 728 136 629 169.57 728 192 665 229 727 262 660 281.98 728 319 616 352 719 386 672 414.86 727 450 649 495.35 727 515 672 555.09 727 599 649 622.41 727 650 672 684 722 710 672 756 719 769 672 815 728 833 704 853 728 0 728"/><path class="cls-7" d="M1802.14,451.2c-52.14-43.64-190.86,22.25-318.46,100.53C1302.93,470.87,869.9,727,869.9,727H1920V578.49C1876.78,501.49,1802.14,451.2,1802.14,451.2Z"/><path class="cls-8" d="M1057.67,727S1590,608,1811.5,728Z"/><rect class="cls-9" y="728" width="1920" height="352"/><rect class="cls-10" x="1211" y="903" width="126" height="18" rx="9"/><rect class="cls-10" x="1503.36" y="747" width="119.48" height="17.07" rx="8.53"/><rect class="cls-10" x="49.66" y="785.88" width="1820.69" height="17.07" rx="8.53"/><rect class="cls-10" y="943" width="1920" height="47" rx="9"/><rect class="cls-9" x="229" y="958" width="1208" height="13"/><rect class="cls-10" x="515.26" y="839.93" width="107.16" height="31.29" rx="15.65"/><rect class="cls-10" x="786.47" y="839.93" width="107.16" height="31.29" rx="15.65"/><rect class="cls-10" x="1057.67" y="839.93" width="107.16" height="31.29" rx="15.65"/><rect class="cls-10" x="222.24" y="747" width="119.48" height="17.07" rx="8.53"/><rect class="cls-10" x="435.6" y="747" width="119.48" height="17.07" rx="8.53"/><rect class="cls-10" x="649.91" y="747" width="119.48" height="17.07" rx="8.53"/><rect class="cls-10" x="649.91" y="894.93" width="119.48" height="17.07" rx="8.53"/><rect class="cls-10" x="937" y="903" width="126" height="18" rx="9"/><rect class="cls-10" x="727" y="1035" width="126" height="18" rx="9"/><rect class="cls-10" x="897" y="1015" width="126" height="18" rx="9"/><rect class="cls-10" x="857.59" y="747" width="119.48" height="17.07" rx="8.53"/><rect class="cls-10" x="1082.33" y="747" width="119.48" height="17.07" rx="8.53"/><rect class="cls-10" x="1317.5" y="747" width="119.48" height="17.07" rx="8.53"/><path class="cls-7" d="M0,879s522,18,727,201H0Z"/><path class="cls-11" d="M190.89,826.49h0a53.92,53.92,0,0,0-37.08,14.71v-2.61a76.9,76.9,0,0,0-76.9-76.9h0A76.9,76.9,0,0,0,0,838.59V945.12a35.2,35.2,0,0,0,35.2,35.2H245V880.6A54.12,54.12,0,0,0,190.89,826.49Z"/><path class="cls-12" d="M133.73,1031.5a83.71,83.71,0,0,1-23.91-3.56,100.47,100.47,0,0,1-35.88-19.41,4,4,0,0,1-1.31-3V767.16a4,4,0,0,1,8,0v236.55a95.78,95.78,0,0,0,31.76,16.65c25.49,7.5,49.62,1.9,71.75-16.64V832a4,4,0,0,1,8,0v173.59a4,4,0,0,1-1.38,3C170.56,1026.08,150.65,1031.5,133.73,1031.5Z"/><path class="cls-12" d="M132.39,1084a4,4,0,0,1-4-4v-52.48a4,4,0,0,1,8,0V1080A4,4,0,0,1,132.39,1084Z"/><path class="cls-11" d="M1786.58,345.12h0a26.18,26.18,0,0,0-18,7.13V351a37.28,37.28,0,0,0-37.29-37.29h0A37.29,37.29,0,0,0,1694,351v51.67a17.07,17.07,0,0,0,17.07,17.07h101.75V371.36A26.24,26.24,0,0,0,1786.58,345.12Z"/><path class="cls-12" d="M1758.86,444.54a40.38,40.38,0,0,1-11.6-1.73,48.85,48.85,0,0,1-17.4-9.41,1.93,1.93,0,0,1-.64-1.44V316.34a1.94,1.94,0,1,1,3.88,0V431.06a46.27,46.27,0,0,0,15.4,8.07c12.37,3.64,24.07.93,34.81-8.06V347.78a1.94,1.94,0,0,1,3.88,0V432a2,2,0,0,1-.68,1.47C1776.72,441.91,1767.06,444.54,1758.86,444.54Z"/><path class="cls-12" d="M1758.2,470a1.94,1.94,0,0,1-1.94-1.94V442.61a1.94,1.94,0,0,1,3.88,0v25.45A1.94,1.94,0,0,1,1758.2,470Z"/><path class="cls-11" d="M1118.77,570.32h0A17.16,17.16,0,0,0,1107,575v-.83a24.48,24.48,0,0,0-24.49-24.48h0A24.48,24.48,0,0,0,1058,574.17v33.92a11.21,11.21,0,0,0,11.21,11.2H1136V587.55A17.22,17.22,0,0,0,1118.77,570.32Z"/><path class="cls-12" d="M1100.58,635.59a26.78,26.78,0,0,1-7.62-1.14,31.86,31.86,0,0,1-11.42-6.18,1.25,1.25,0,0,1-.42-.94v-75.9a1.28,1.28,0,1,1,2.55,0v75.31a30.41,30.41,0,0,0,10.11,5.3c8.12,2.39,15.8.6,22.85-5.3V572.06a1.27,1.27,0,0,1,2.54,0v55.27a1.26,1.26,0,0,1-.44,1C1112.3,633.86,1106,635.59,1100.58,635.59Z"/><path class="cls-12" d="M1100.15,652.3a1.27,1.27,0,0,1-1.28-1.27V634.32a1.28,1.28,0,0,1,2.55,0V651A1.27,1.27,0,0,1,1100.15,652.3Z"/><path class="cls-13" d="M446.1,797.73a119.69,119.69,0,0,0-27.24-15.39v-.06l-.08,0-.07,0v.06a119.94,119.94,0,0,0-27.25,15.39,152.29,152.29,0,0,0-27.89,27.35l27.07,69.25,13.06,33.43c3.28,8.37,9.23,12.41,15.08,12.1,5.86.31,11.81-3.73,15.08-12.1l13.07-33.43L474,825.08A152.38,152.38,0,0,0,446.1,797.73Z"/><path class="cls-12" d="M418.86,1020.58a4,4,0,0,1-4-4V788.29a4,4,0,0,1,8,0v228.29A4,4,0,0,1,418.86,1020.58Z"/><path class="cls-13" d="M1548,453.6a64.61,64.61,0,0,0-14.67-8.29v0l0,0,0,0v0a64.58,64.58,0,0,0-14.66,8.29,81.85,81.85,0,0,0-15,14.71l14.57,37.27,7,18c1.76,4.51,5,6.69,8.11,6.52,3.16.17,6.36-2,8.12-6.52l7-18L1563,468.31A82.17,82.17,0,0,0,1548,453.6Z"/><path class="cls-12" d="M1533.32,573.53a2.16,2.16,0,0,1-2.15-2.15V448.51a2.16,2.16,0,0,1,4.31,0V571.38A2.16,2.16,0,0,1,1533.32,573.53Z"/><path class="cls-13" d="M932,593.6a64.61,64.61,0,0,0-14.67-8.29v0l0,0,0,0v0a64.58,64.58,0,0,0-14.66,8.29,81.85,81.85,0,0,0-15,14.71l14.57,37.27,7,18c1.76,4.51,5,6.69,8.11,6.52,3.16.17,6.36-2,8.12-6.52l7-18L947,608.31A82.17,82.17,0,0,0,932,593.6Z"/><path class="cls-12" d="M917.32,713.53a2.16,2.16,0,0,1-2.15-2.15V588.51a2.16,2.16,0,0,1,4.31,0V711.38A2.16,2.16,0,0,1,917.32,713.53Z"/><path class="cls-14" d="M1063,1079.12S1330,799,1468.3,942.56c0,0,105,113.8,153.19,136.56Z"/><path class="cls-14" d="M1361.51,1080s267-280.12,405.3-136.56c0,0,105,113.8,153.19,136.56Z"/><polygon class="cls-14" points="1920 755 1621 979 1621.49 1079.13 1920 1079.13 1920 755"/><path class="cls-11" d="M1659.68,736.38h0a73.48,73.48,0,0,1,50.56,20.06v-3.56A104.88,104.88,0,0,1,1815.12,648h0A104.88,104.88,0,0,1,1920,752.88V898.16a48,48,0,0,1-48,48H1585.89v-136A73.79,73.79,0,0,1,1659.68,736.38Z"/><path class="cls-12" d="M1737.65,1012.4c-22.78,0-49.6-7.31-76.84-30.88a4,4,0,0,1-1.39-3V741.77a4,4,0,0,1,8,0V976.65c30.75,26,64.33,33.86,99.83,23.38a131.68,131.68,0,0,0,44.25-23.38V653.37a4,4,0,1,1,8,0V978.49a4,4,0,0,1-1.31,3,135.25,135.25,0,0,1-48.37,26.16A112.94,112.94,0,0,1,1737.65,1012.4Z"/><path class="cls-12" d="M1739.46,1084a4,4,0,0,1-4-4v-71.56a4,4,0,0,1,8,0V1080A4,4,0,0,1,1739.46,1084Z"/><path class="cls-15" d="M1430,875.67c0,55-16.59,76-37.3,76s-37.7-21-37.7-76S1392.7,776,1392.5,776C1391.1,776,1430,820.62,1430,875.67Z"/><path class="cls-12" d="M1392.3,1028.24a4,4,0,0,1-4-4V786.81a4,4,0,1,1,8,0v237.43A4,4,0,0,1,1392.3,1028.24Z"/><path class="cls-15" d="M1486,516.25c0,24.44-7.37,33.75-16.56,33.75s-16.74-9.31-16.74-33.75S1469.44,472,1469.35,472C1468.73,472,1486,491.81,1486,516.25Z"/><path class="cls-12" d="M1469.26,584a1.77,1.77,0,0,1-1.77-1.77V476.8a1.78,1.78,0,1,1,3.55,0V582.22A1.78,1.78,0,0,1,1469.26,584Z"/><polygon class="cls-16" points="0 236 937 0 1211 0 0 346 0 236"/><polygon class="cls-16" points="0 420 1317 0 1337 0 0 446 0 420"/><path class="cls-17" d="M1781.74,152.22a3.53,3.53,0,0,0,1.26-2.47c0-3.41-7.12-6.63-19.81-9.5,2.82-1.05,4.31-2.13,4.31-3.25,0-2.4-6.89-4.67-19.14-6.68a7.4,7.4,0,0,0,.14-1.32c0-18.23-72.08-33-161-33s-161,14.77-161,33c0,.12,0,.24,0,.36-16.21,2.24-25.52,4.85-25.52,7.64,0,1.22,1.77,2.4,5.1,3.53-11.93,2.8-18.6,5.92-18.6,9.22a3.69,3.69,0,0,0,1.44,2.64c-14,2.9-21.94,6.16-21.94,9.61,0,12.15,97.94,22,218.75,22s218.75-9.85,218.75-22C1804.5,158.49,1796.31,155.16,1781.74,152.22Z"/><path class="cls-17" d="M495.74,152.22a3.53,3.53,0,0,0,1.26-2.47c0-3.41-7.12-6.63-19.81-9.5,2.82-1.05,4.31-2.13,4.31-3.25,0-2.4-6.89-4.67-19.14-6.68a7.4,7.4,0,0,0,.14-1.32c0-18.23-72.08-33-161-33s-161,14.77-161,33c0,.12,0,.24,0,.36C124.31,131.6,115,134.21,115,137c0,1.22,1.77,2.4,5.1,3.53-11.93,2.8-18.6,5.92-18.6,9.22a3.69,3.69,0,0,0,1.44,2.64C88.89,155.29,81,158.55,81,162c0,12.15,97.94,22,218.75,22s218.75-9.85,218.75-22C518.5,158.49,510.31,155.16,495.74,152.22Z"/><path class="cls-18" d="M1421,338s60.62,6.88,65.51,19c0,0,31.29-22,64-22,0,0-57.69,6.33-65,11C1485.53,346,1464,338.85,1421,338Z"/><path class="cls-18" d="M1317,327.08s41.65,4.72,45,13c0,0,21.5-15.12,44-15.12,0,0-39.63,4.35-44.67,7.56C1361.33,332.56,1346.55,327.65,1317,327.08Z"/><rect class="cls-19" x="1043.64" y="878.1" width="91.9" height="1.2" transform="matrix(0.3, -0.95, 0.95, 0.3, -72.93, 1658.36)"/><polygon class="cls-20" points="1101.63 877.59 1101.63 872.19 1017.39 883.75 1020.98 888.63 1101.63 877.59 1101.63 877.59"/><polygon class="cls-21" points="1092.39 934.31 1101.63 877.59 1020.98 888.63 1020.98 940 1092.39 934.31"/><rect class="cls-19" x="1079.03" y="892.55" width="9.48" height="12.67"/><polygon class="cls-22" points="1086.28 894.27 1079.03 894.27 1079.03 892.55 1088.51 892.55 1088.51 905.23 1086.28 905.23 1086.28 894.27"/><rect class="cls-19" x="1062.71" y="892.55" width="9.48" height="12.67"/><polygon class="cls-22" points="1069.97 894.27 1062.71 894.27 1062.71 892.55 1072.19 892.55 1072.19 905.23 1069.97 905.23 1069.97 894.27"/><rect class="cls-19" x="1048.49" y="892.55" width="9.48" height="12.67"/><polygon class="cls-22" points="1055.75 894.27 1048.49 894.27 1048.49 892.55 1057.97 892.55 1057.97 905.23 1055.75 905.23 1055.75 894.27"/><rect class="cls-19" x="1034.11" y="892.55" width="9.48" height="12.67"/><polygon class="cls-22" points="1041.37 894.27 1034.11 894.27 1034.11 892.55 1043.59 892.55 1043.59 905.23 1041.37 905.23 1041.37 894.27"/><polygon class="cls-20" points="1028.56 887.59 1028.56 927.15 1020.98 927.15 1020.98 888.63 1028.56 887.59"/><rect class="cls-19" x="1102.86" y="834.82" width="1.2" height="85" transform="translate(-4.8 6.08) rotate(-0.31)"/><rect class="cls-19" x="1127.29" y="834.8" width="1.2" height="80.71" transform="translate(-24.22 32.14) rotate(-1.62)"/><rect class="cls-19" x="1135.87" y="833.58" width="1.2" height="77.55" transform="translate(-182.54 313.09) rotate(-14.53)"/><polygon class="cls-19" points="910.42 944.62 911.62 944.62 911.62 909.52 967.82 878.13 1115.51 819.58 1115.07 818.47 967.3 877.04 967.27 877.06 910.42 908.81 910.42 944.62"/><polygon class="cls-19" points="962.54 930.5 911.31 908.62 910.03 910.98 954.43 931.01 962.54 930.5 962.54 930.5"/><rect class="cls-19" x="1102.6" y="833.67" width="24.72" height="2.31"/><rect class="cls-19" x="1114.39" y="817.66" width="1.8" height="121.1"/><circle class="cls-19" cx="911.78" cy="909.89" r="3.21"/><polygon class="cls-19" points="1018.01 937.86 973.31 879.54 965.61 880.41 962.54 938.79 967.66 938.79 970.4 884.85 1012.36 937.86 1018.01 937.86"/><polygon class="cls-22" points="911.06 941.07 915.85 948.18 906.18 948.18 911.06 941.07 911.06 941.07"/><polygon class="cls-23" points="911.01 941.13 914.05 948.18 911.01 948.18 911.06 941.58 911.01 941.13"/><path class="cls-21" d="M1148.35,908.62s4,17-5.58,32.37c-6.52,10.52-20.07,19-20.07,19h-149a29.55,29.55,0,0,1-14.3-10.28c-6.39-8.22-7.31-15.41-7.31-15.41s20,2.89,94.06-5.14C1129.71,920.12,1148.35,908.62,1148.35,908.62Z"/><path class="cls-20" d="M1046.12,929.17c83.59-9,102.23-20.55,102.23-20.55a41,41,0,0,1,.81,8.23c-11.38,4.08-31.45,10.06-58.57,13.39-35.68,4.38-111,5.88-138,6.29a19.19,19.19,0,0,1-.49-2.22S972,937.2,1046.12,929.17Z"/><path class="cls-20" d="M952.57,934.72c-.05-.27-.07-.41-.07-.41s1.13.17,3.87.31C955,934.66,953.77,934.7,952.57,934.72Z"/><path class="cls-20" d="M1122.67,941c5.75-9.29,6.59-19.13,6.36-25.49,15.11-4,19.77-6.88,19.77-6.88s4,17-5.59,32.37c-6.51,10.52-20.06,19-20.06,19H1102.6S1116.15,951.51,1122.67,941Z"/><path class="cls-24" d="M1151.4,900.94l2.06,7.68s-30.14,15.27-98.29,21.78-106.52,3.91-106.52,3.91v-5.62s66.32.84,104.8-4.46C1131.17,913.54,1151.4,900.94,1151.4,900.94Z"/><path class="cls-25" d="M1129.11,909.36c16.68-4.88,22.29-8.37,22.29-8.37l2.06,7.68s-7,3.53-21.83,7.93A52.49,52.49,0,0,0,1129.11,909.36Z"/><path class="cls-24" d="M1065.92,950.79c29.48-1.06,61.63-8.45,78.85-13-.53,1-1.11,2.11-1.76,3.16-6.52,10.52-20.07,19-20.07,19h-149a29.18,29.18,0,0,1-13.26-9C983.26,951.36,1033.51,952,1065.92,950.79Z"/><path class="cls-25" d="M1143,941c-6.51,10.53-20.06,19-20.06,19h-20.55s11.42-7.15,18.33-16.46c9.4-2,17.69-4,24-5.64C1144.25,938.9,1143.68,939.93,1143,941Z"/><path class="cls-26" d="M965.27,880.41a3.94,3.94,0,1,0,3.93-3.93A3.93,3.93,0,0,0,965.27,880.41Z"/><path class="cls-19" d="M967.66,880.41a1.55,1.55,0,1,0,1.54-1.54A1.54,1.54,0,0,0,967.66,880.41Z"/><path class="cls-26" d="M1090.57,934.82a11.07,11.07,0,1,1,11.06,11.07A11.08,11.08,0,0,1,1090.57,934.82Zm5.64,0a5.43,5.43,0,1,0,5.42-5.42A5.42,5.42,0,0,0,1096.21,934.82Z"/><g class="cls-27"><path class="cls-28" d="M1108.44,934.74s.22-3-1.51-4.82c-2.22-2.31-3.69-2.19-3.69-2.19l.07-2.63a9.72,9.72,0,0,1,5.73,3.24c2.22,2.47,2.26,7.16,2.26,7.16Z"/></g><path class="cls-26" d="M1061.13,938.79a11.07,11.07,0,1,1,11.07,11.07A11.08,11.08,0,0,1,1061.13,938.79Zm5.64,0a5.43,5.43,0,1,0,5.43-5.42A5.43,5.43,0,0,0,1066.77,938.79Z"/><g class="cls-27"><path class="cls-28" d="M1079,938.71s.23-3-1.51-4.82c-2.22-2.32-3.69-2.19-3.69-2.19l.07-2.64a9.72,9.72,0,0,1,5.73,3.24c2.22,2.47,2.26,7.16,2.26,7.16Z"/></g><rect class="cls-19" x="624.7" y="789.38" width="1.09" height="83.55" transform="translate(-218.53 223.05) rotate(-17.27)"/><polygon class="cls-20" points="614.29 830.14 614.29 825.24 690.89 835.75 687.62 840.18 614.29 830.14 614.29 830.14"/><polygon class="cls-21" points="622.7 881.72 614.29 830.14 687.62 840.18 687.62 886.89 622.7 881.72"/><rect class="cls-19" x="626.23" y="843.75" width="8.62" height="11.52"/><polygon class="cls-22" points="628.25 845.31 634.85 845.31 634.85 843.75 626.23 843.75 626.23 855.27 628.25 855.27 628.25 845.31"/><rect class="cls-19" x="641.06" y="843.75" width="8.62" height="11.52"/><polygon class="cls-22" points="643.08 845.31 649.68 845.31 649.68 843.75 641.06 843.75 641.06 855.27 643.08 855.27 643.08 845.31"/><rect class="cls-19" x="653.99" y="843.75" width="8.62" height="11.52"/><polygon class="cls-22" points="656.01 845.31 662.61 845.31 662.61 843.75 653.99 843.75 653.99 855.27 656.01 855.27 656.01 845.31"/><rect class="cls-19" x="667.07" y="843.75" width="8.62" height="11.52"/><polygon class="cls-22" points="669.09 845.31 675.69 845.31 675.69 843.75 667.07 843.75 667.07 855.27 669.09 855.27 669.09 845.31"/><polygon class="cls-20" points="680.73 839.24 680.73 875.21 687.62 875.21 687.62 840.18 680.73 839.24"/><rect class="cls-19" x="574" y="829.36" width="77.28" height="1.09" transform="translate(-220.62 1437.97) rotate(-89.69)"/><rect class="cls-19" x="553.73" y="827.39" width="73.38" height="1.09" transform="translate(-253.83 1394.79) rotate(-88.38)"/><rect class="cls-19" x="547.37" y="824.84" width="70.51" height="1.09" transform="translate(-362.56 1182.25) rotate(-75.47)"/><polygon class="cls-19" points="788.15 891.09 787.06 891.09 787.06 859.17 735.96 830.64 601.68 777.41 602.08 776.39 736.43 829.65 736.46 829.67 788.15 858.53 788.15 891.09"/><polygon class="cls-19" points="740.76 878.25 787.33 858.36 788.5 860.5 748.13 878.72 740.76 878.25 740.76 878.25"/><rect class="cls-19" x="590.94" y="790.21" width="22.47" height="2.1"/><rect class="cls-19" x="601.06" y="775.66" width="1.63" height="110.1"/><circle class="cls-19" cx="786.91" cy="859.51" r="2.91"/><polygon class="cls-19" points="690.33 884.95 730.96 831.92 737.97 832.71 740.76 885.79 736.1 885.79 733.61 836.75 695.46 884.95 690.33 884.95"/><polygon class="cls-22" points="787.56 887.86 783.2 894.32 792 894.32 787.56 887.86 787.56 887.86"/><polygon class="cls-23" points="787.6 887.92 784.84 894.32 787.6 894.32 787.56 888.33 787.6 887.92"/><path class="cls-21" d="M571.82,858.36s-3.6,15.42,5.08,29.43c5.92,9.57,18.24,17.28,18.24,17.28H730.65a26.86,26.86,0,0,0,13-9.34c5.81-7.47,6.64-14,6.64-14s-18.14,2.63-85.52-4.67C588.77,868.81,571.82,858.36,571.82,858.36Z"/><path class="cls-20" d="M664.77,877.05c-76-8.24-92.95-18.69-92.95-18.69a37.35,37.35,0,0,0-.74,7.48A249.13,249.13,0,0,0,624.33,878c32.45,4,101,5.35,125.52,5.72a15.47,15.47,0,0,0,.44-2S732.15,884.35,664.77,877.05Z"/><path class="cls-20" d="M749.83,882.09l.06-.37s-1,.15-3.52.28Z"/><path class="cls-20" d="M595.17,887.79a41.21,41.21,0,0,1-5.78-23.17c-13.74-3.65-18-6.26-18-6.26s-3.6,15.42,5.08,29.43c5.92,9.57,18.24,17.28,18.24,17.28h18.68S601.1,897.36,595.17,887.79Z"/><path class="cls-24" d="M569.05,851.38l-1.87,7s27.4,13.88,89.36,19.8,96.84,3.56,96.84,3.56V876.6s-60.29.77-95.28-4.05C587.44,862.84,569.05,851.38,569.05,851.38Z"/><path class="cls-25" d="M589.31,859c-15.16-4.43-20.26-7.61-20.26-7.61l-1.87,7s6.35,3.22,19.84,7.21A49.19,49.19,0,0,1,589.31,859Z"/><path class="cls-24" d="M646.77,896.7c-26.81-1-56-7.68-71.7-11.79.48,1,1,1.93,1.61,2.88,5.92,9.57,18.24,17.28,18.24,17.28H730.43a26.46,26.46,0,0,0,12.05-8.18C721.92,897.21,676.24,897.76,646.77,896.7Z"/><path class="cls-25" d="M576.64,887.76c5.93,9.56,18.25,17.28,18.25,17.28h18.68s-10.38-6.5-16.67-15c-8.55-1.78-16.08-3.62-21.83-5.12C575.55,885.89,576.07,886.82,576.64,887.76Z"/><path class="cls-26" d="M738.27,832.71a3.58,3.58,0,1,1-3.57-3.57A3.57,3.57,0,0,1,738.27,832.71Z"/><path class="cls-19" d="M736.1,832.71a1.4,1.4,0,1,1-1.4-1.4A1.4,1.4,0,0,1,736.1,832.71Z"/><path class="cls-26" d="M614.29,892.24a10.06,10.06,0,1,1,10.07-10.06A10.07,10.07,0,0,1,614.29,892.24Zm0-15a4.93,4.93,0,1,0,4.93,4.93A4.94,4.94,0,0,0,614.29,877.25Z"/><g class="cls-27"><path class="cls-28" d="M608.11,882.11a6.4,6.4,0,0,1,1.37-4.39c2-2.1,3.36-2,3.36-2l-.07-2.4a8.82,8.82,0,0,0-5.21,2.94c-2,2.25-2.06,6.51-2.06,6.51Z"/></g><path class="cls-26" d="M641.06,895.85a10.07,10.07,0,1,1,10.06-10.06A10.07,10.07,0,0,1,641.06,895.85Zm0-15a4.93,4.93,0,1,0,4.93,4.93A4.93,4.93,0,0,0,641.06,880.86Z"/><g class="cls-27"><path class="cls-28" d="M634.87,885.72a6.45,6.45,0,0,1,1.37-4.39c2-2.1,3.36-2,3.36-2l-.07-2.4a8.84,8.84,0,0,0-5.2,2.95c-2,2.25-2.06,6.51-2.06,6.51Z"/></g></g></svg>