<svg id="Layer_1" data-name="Layer 1" xmlns="http://www.w3.org/2000/svg" xmlns:xlink="http://www.w3.org/1999/xlink" viewBox="0 0 1920 1080"><defs><style>.cls-1{fill:none;}.cls-2{clip-path:url(#clip-path);}.cls-3{fill:#fcb040;}.cls-4{fill:#f4b867;}.cls-5{fill:#e8aa60;}.cls-6{fill:#d89955;}.cls-7{fill:#fff;}.cls-8{fill:#ad622a;}.cls-9{opacity:0.5;}.cls-10{fill:#a05725;}.cls-11{fill:#995120;}.cls-12{fill:#bf7441;}.cls-13{fill:#c1682d;}.cls-14{fill:#723706;stroke:#512503;stroke-miterlimit:10;}.cls-15{fill:#175c2f;}.cls-16{fill:#11793e;}.cls-17{fill:#37d175;}.cls-18{fill:#a8a9ad;}.cls-19{fill:#8b2b2c;}.cls-20{fill:#742425;}.cls-21{fill:#afafaf;}.cls-22{fill:#d3d3d3;}.cls-23{fill:#a83434;}.cls-24{fill:#818286;}.cls-25{fill:#9c9da1;}.cls-26{fill:#414143;}.cls-27{fill:#58595b;}</style><clipPath id="clip-path"><rect class="cls-1" width="1920" height="1080"/></clipPath></defs><title>CurveMountains</title><g class="cls-2"><rect class="cls-3" width="1920" height="1080"/><path class="cls-4" d="M2021,714.13c0-.75,0-1.49,0-2.24h0C2018.79,536.43,1900.88,395,1755.71,395c-103.82,0-193.7,72.34-237.27,177.72-25.2-23.41-56.7-37.34-90.89-37.34-45.63,0-86.48,24.81-113.9,63.89-38.77-119.42-134.72-203.94-246.94-203.94-57.25,0-110.25,22-153.59,59.4A185,185,0,0,0,864,448.1c-68,0-128.76,37.14-169.39,95.58-34.8,13-64.2,40.89-83.07,77.61-27-55-76.48-91.89-133.09-91.89-43.19,0-82.24,21.46-110.31,56.07-38-81.79-110.23-137-193.14-137C54.2,448.43-44,565.74-46.44,711.56h-.06c0,.86,0,1.72,0,2.57s0,1.72,0,2.58h.06C-44,862.53,54.2,979.84,175,979.84c82.91,0,155.16-55.25,193.14-137,28.07,34.6,67.12,56.07,110.31,56.07,56.61,0,106.11-36.87,133.09-91.89,18.87,36.72,48.27,64.66,83.07,77.61C735.25,943,796.05,980.17,864,980.17a185,185,0,0,0,49.11-6.63c43.34,37.4,96.34,59.4,153.59,59.4,112.22,0,208.17-84.52,246.94-203.94,27.42,39.08,68.27,63.89,113.9,63.89,34.19,0,65.69-13.93,90.89-37.34,43.57,105.38,133.45,177.72,237.27,177.72,145.17,0,263.08-141.43,265.24-316.89h0C2021,715.63,2021,714.88,2021,714.13Z"/><path class="cls-5" d="M2023,750.13c0-.75,0-1.49,0-2.24h0C2020.79,572.43,1902.88,431,1757.71,431c-103.82,0-193.7,72.34-237.27,177.72-25.2-23.41-56.7-37.34-90.89-37.34-45.63,0-86.48,24.81-113.9,63.89-38.77-119.42-134.72-203.94-246.94-203.94-57.25,0-110.25,22-153.59,59.4A185,185,0,0,0,866,484.1c-68,0-128.76,37.14-169.39,95.58-34.8,13-64.2,40.89-83.07,77.61-27-55-76.48-91.89-133.09-91.89-43.19,0-82.24,21.46-110.31,56.07-38-81.79-110.23-137-193.14-137C56.2,484.43-42,601.74-44.44,747.56h-.06c0,.86,0,1.72,0,2.57s0,1.72,0,2.58h.06C-42,898.53,56.2,1015.84,177,1015.84c82.91,0,155.16-55.25,193.14-137,28.07,34.6,67.12,56.07,110.31,56.07,56.61,0,106.11-36.87,133.09-91.89,18.87,36.72,48.27,64.66,83.07,77.61C737.25,979,798.05,1016.17,866,1016.17a185,185,0,0,0,49.11-6.63c43.34,37.4,96.34,59.4,153.59,59.4,112.22,0,208.17-84.52,246.94-203.94,27.42,39.08,68.27,63.89,113.9,63.89,34.19,0,65.69-13.93,90.89-37.34,43.57,105.38,133.45,177.72,237.27,177.72,145.17,0,263.08-141.43,265.24-316.89h0C2023,751.63,2023,750.88,2023,750.13Z"/><path class="cls-6" d="M2023,793.13c0-.75,0-1.49,0-2.24h0C2020.79,615.43,1902.88,474,1757.71,474c-103.82,0-193.7,72.34-237.27,177.72-25.2-23.41-56.7-37.34-90.89-37.34-45.63,0-86.48,24.81-113.9,63.89-38.77-119.42-134.72-203.94-246.94-203.94-57.25,0-110.25,22-153.59,59.4A185,185,0,0,0,866,527.1c-68,0-128.76,37.14-169.39,95.58-34.8,13-64.2,40.89-83.07,77.61-27-55-76.48-91.89-133.09-91.89-43.19,0-82.24,21.46-110.31,56.07-38-81.79-110.23-137-193.14-137C56.2,527.43-42,644.74-44.44,790.56h-.06c0,.86,0,1.72,0,2.57s0,1.72,0,2.58h.06C-42,941.53,56.2,1058.84,177,1058.84c82.91,0,155.16-55.25,193.14-137,28.07,34.6,67.12,56.07,110.31,56.07,56.61,0,106.11-36.87,133.09-91.89,18.87,36.72,48.27,64.66,83.07,77.61,40.63,58.44,101.43,95.58,169.39,95.58a185,185,0,0,0,49.11-6.63c43.34,37.4,96.34,59.4,153.59,59.4,112.22,0,208.17-84.52,246.94-203.94,27.42,39.08,68.27,63.89,113.9,63.89,34.19,0,65.69-13.93,90.89-37.34,43.57,105.38,133.45,177.72,237.27,177.72,145.17,0,263.08-141.43,265.24-316.89h0C2023,794.63,2023,793.88,2023,793.13Z"/><path class="cls-7" d="M251.46,191.63H240.05s0-.11,0-.16c0-24.56-31.22-44.47-69.72-44.47s-69.72,19.91-69.72,44.47v.16H83.51c-15.75,0-28.51,8.14-28.51,18.19S67.76,228,83.51,228h168c15.75,0,28.51-8.14,28.51-18.18S267.21,191.63,251.46,191.63Z"/><path class="cls-7" d="M1732.87,198.24h-8.36v-.18a51.06,51.06,0,1,0-102.11,0c0,.06,0,.12,0,.18h-12.53a20.88,20.88,0,0,0,0,41.76h123a20.88,20.88,0,0,0,0-41.76Z"/><path class="cls-7" d="M468.27,112.88h-11v-.16C457.23,89.68,427,71,389.7,71s-67.52,18.68-67.52,41.72v.16H305.61c-15.25,0-27.61,7.64-27.61,17.06S290.36,147,305.61,147H468.27c15.25,0,27.62-7.64,27.62-17.06S483.52,112.88,468.27,112.88Z"/><path class="cls-7" d="M1506.94,123.88h-17.18v-.16c0-23-47-41.72-105-41.72s-105,18.68-105,41.72c0,0,0,.11,0,.16H1254c-23.72,0-43,7.64-43,17.06S1230.23,158,1254,158h253c23.72,0,43-7.64,43-17.06S1530.66,123.88,1506.94,123.88Z"/><rect class="cls-8" y="765" width="1920" height="315"/><g class="cls-9"><path class="cls-10" d="M584.85,813.4a636.07,636.07,0,0,1-6,88.28c-12.95-4.67-26.82,18.2-26.82,18.2-15.46,30.28-30.93,33.06-42.64,28.08V743.32h71.73A653.44,653.44,0,0,1,584.85,813.4Z"/><path class="cls-10" d="M489.25,929.43c-21.75-35.53-31.72,0-31.72,0-2.83,6.42-6.33,10.48-10.16,12.84-8.45-36.58-13.4-81-13.4-128.87a653.44,653.44,0,0,1,3.68-70.08h71.79V948C497.35,942.82,489.25,929.43,489.25,929.43Z"/><path class="cls-11" d="M552.08,919.88S566,897,578.9,901.68c-11.46,81.18-38.24,138.14-69.46,138.17V948C521.15,952.94,536.62,950.16,552.08,919.88Z"/><path class="cls-12" d="M457.53,929.43s10-35.53,31.72,0c0,0,8.1,13.39,20.19,18.53v91.89h0c-25.71,0-48.42-38.62-62-97.58C451.2,939.91,454.7,935.85,457.53,929.43Z"/><path class="cls-13" d="M211.14,860.92c-19.55-22.44-28.51,0-28.51,0a20.13,20.13,0,0,1-9.14,8.12c-7.59-23.12-12-51.18-12-81.44a291.52,291.52,0,0,1,3.31-44.28h64.57V872.65C218.44,869.41,211.14,860.92,211.14,860.92Z"/><path class="cls-13" d="M297.09,787.6a285.08,285.08,0,0,1-5.35,55.79c-11.65-2.95-24.12,11.5-24.12,11.5-13.88,19.11-27.76,20.89-38.29,17.76V743.32h64.45A292.81,292.81,0,0,1,297.09,787.6Z"/><path class="cls-11" d="M267.62,854.89s12.47-14.45,24.12-11.5c-10.3,51.27-34.36,87.25-62.41,87.31V872.65C239.86,875.78,253.74,874,267.62,854.89Z"/><path class="cls-12" d="M182.63,860.92s9-22.44,28.51,0c0,0,7.3,8.49,18.19,11.73V930.7h-.06c-23.12,0-43.53-24.4-55.78-61.66A20.13,20.13,0,0,0,182.63,860.92Z"/><path class="cls-13" d="M461.72,807a409.59,409.59,0,0,1-7.7,80.28c-16.75-4.25-34.7,16.55-34.7,16.55-20,27.53-40,30.06-55.16,25.53V743.32H457A418.64,418.64,0,0,1,461.72,807Z"/><path class="cls-13" d="M338,912.55c-28.13-32.3-41,0-41,0a29,29,0,0,1-13.15,11.68C272.94,891,266.54,850.58,266.54,807a420,420,0,0,1,4.76-63.72h92.86V929.4C348.52,924.73,338,912.55,338,912.55Z"/><path class="cls-11" d="M419.32,903.87s17.95-20.8,34.7-16.55c-14.83,73.82-49.48,125.61-89.86,125.64V929.4C379.31,933.93,399.32,931.4,419.32,903.87Z"/><path class="cls-12" d="M297,912.55s12.89-32.3,41,0c0,0,10.48,12.18,26.12,16.85V1013h0c-33.27,0-62.64-35.11-80.26-88.73A29,29,0,0,0,297,912.55Z"/></g><polygon class="cls-14" points="603.85 765.15 603.85 750.57 588.79 750.57 588.79 765.15 576.3 765.15 576.3 750.19 561.25 750.19 561.25 731.88 546.19 731.88 546.19 750.19 531.87 750.19 531.87 765.15 492.57 765.15 492.57 735.24 477.52 735.24 477.52 765.15 428.31 765.15 428.31 731.88 413.25 731.88 413.25 764.03 400.03 764.03 400.03 765.15 262.32 765.15 262.32 758.74 247.26 758.74 247.26 765.15 217.15 765.15 217.15 758.05 202.09 758.05 202.09 765.15 171.98 765.15 171.98 761.16 156.93 761.16 156.93 765.15 111.02 765.15 111.02 780.48 126.81 780.48 126.81 795.81 141.87 795.81 141.87 829.27 156.93 829.27 156.93 818.21 171.98 818.21 171.98 851.06 187.04 851.06 187.04 829.62 202.09 829.62 202.09 815.1 217.15 815.1 217.15 863.85 232.21 863.85 232.21 846.56 247.26 846.56 247.26 828.58 262.32 828.58 262.32 795.81 294.27 795.81 294.27 819.79 309.33 819.79 309.33 795.81 324.38 795.81 324.38 826.09 339.44 826.09 339.44 817.76 354.5 817.76 354.5 795.81 384.98 795.81 384.98 845.16 400.03 845.16 400.03 825.64 415.09 825.64 415.09 807.4 428.31 807.4 428.31 835.7 443.37 835.7 443.37 795.81 477.52 795.81 477.52 810.76 492.57 810.76 492.57 795.81 531.87 795.81 531.87 825.72 546.92 825.72 546.92 807.4 561.25 807.4 561.25 825.72 576.3 825.72 576.3 852.26 591.36 852.26 591.36 826.09 603.85 826.09 603.85 852.26 618.9 852.26 618.9 795.81 628.08 795.81 628.08 780.48 628.08 765.15 603.85 765.15"/><path class="cls-15" d="M639.91,745H106.4a10.09,10.09,0,0,0-10.09,9.91H650A10.1,10.1,0,0,0,639.91,745Z"/><path class="cls-16" d="M96.31,754.87a1.09,1.09,0,0,0,0,.18h0a10.1,10.1,0,0,0,10.1,10.1H639.91A10.1,10.1,0,0,0,650,755.05h0v-.18Z"/><path class="cls-15" d="M584.85,688.28a419.69,419.69,0,0,0-6-71.56C566,620.51,552.08,602,552.08,602c-15.46-24.53-30.93-26.79-42.64-22.75V745.07h71.73A430.26,430.26,0,0,0,584.85,688.28Z"/><path class="cls-16" d="M489.25,594.24c-21.75,28.79-31.72,0-31.72,0-2.83-5.21-6.33-8.5-10.16-10.41-8.45,29.65-13.4,65.64-13.4,104.45a430.26,430.26,0,0,0,3.68,56.79h71.79V579.22C497.35,583.38,489.25,594.24,489.25,594.24Z"/><path class="cls-17" d="M552.08,602S566,620.51,578.9,616.72c-11.46-65.79-38.24-112-69.46-112v74.47C521.15,575.18,536.62,577.44,552.08,602Z"/><path class="cls-17" d="M457.53,594.24s10,28.79,31.72,0c0,0,8.1-10.86,20.19-15V504.75h0c-25.71,0-48.42,31.3-62,79.08C451.2,585.74,454.7,589,457.53,594.24Z"/><path class="cls-16" d="M211.14,649.76c-19.55,18.19-28.51,0-28.51,0a19.44,19.44,0,0,0-9.14-6.58c-7.59,18.73-12,41.48-12,66a192.46,192.46,0,0,0,3.31,35.89h64.57V640.25A44.27,44.27,0,0,0,211.14,649.76Z"/><path class="cls-15" d="M297.09,709.18A189,189,0,0,0,291.74,664c-11.65,2.4-24.12-9.32-24.12-9.32-13.88-15.48-27.76-16.92-38.29-14.39V745.07h64.45A193.31,193.31,0,0,0,297.09,709.18Z"/><path class="cls-17" d="M267.62,654.64s12.47,11.72,24.12,9.32c-10.3-41.55-34.36-70.71-62.41-70.75v47C239.86,637.72,253.74,639.16,267.62,654.64Z"/><path class="cls-17" d="M182.63,649.76s9,18.19,28.51,0a44.27,44.27,0,0,1,18.19-9.51v-47h-.06c-23.12,0-43.53,19.77-55.78,50A19.44,19.44,0,0,1,182.63,649.76Z"/><path class="cls-16" d="M461.72,693.42a271.29,271.29,0,0,0-7.7-65.06c-16.75,3.45-34.7-13.41-34.7-13.41-20-22.31-40-24.36-55.16-20.69V745.07H457A276.46,276.46,0,0,0,461.72,693.42Z"/><path class="cls-15" d="M338,607.92c-28.13,26.18-41,0-41,0a28,28,0,0,0-13.15-9.47c-10.93,27-17.33,59.69-17.33,95a277.32,277.32,0,0,0,4.76,51.65h92.86V594.26A63.57,63.57,0,0,0,338,607.92Z"/><path class="cls-17" d="M419.32,615s17.95,16.86,34.7,13.41c-14.83-59.83-49.48-101.8-89.86-101.82v67.72C379.31,590.59,399.32,592.64,419.32,615Z"/><path class="cls-17" d="M297,607.92s12.89,26.18,41,0a63.57,63.57,0,0,1,26.12-13.66V526.54h0c-33.27,0-62.64,28.46-80.26,71.91A28,28,0,0,1,297,607.92Z"/><rect class="cls-18" x="357.45" y="587.4" width="39.05" height="20.95"/><polygon class="cls-19" points="376.87 630.32 352.98 630.32 352.62 643.25 376.87 643.25 376.87 630.32"/><polygon class="cls-20" points="376.87 643.25 401.17 643.25 400.78 630.32 376.87 630.32 376.87 643.25"/><polygon class="cls-21" points="376.87 696 402.75 696 402.2 677.64 376.87 677.64 376.87 696"/><polygon class="cls-22" points="376.87 617.65 353.33 617.65 352.98 630.32 376.87 630.32 376.87 617.65"/><polygon class="cls-21" points="376.87 659.28 401.65 659.28 401.17 643.25 376.87 643.25 376.87 659.28"/><polygon class="cls-20" points="376.87 677.64 402.2 677.64 401.65 659.28 376.87 659.28 376.87 677.64"/><polygon class="cls-21" points="400.78 630.32 400.39 617.65 376.87 617.65 376.87 630.32 400.78 630.32"/><polygon class="cls-22" points="350.63 714.36 349.97 737.89 376.87 737.89 376.87 714.36 350.63 714.36"/><polygon class="cls-21" points="376.87 737.89 404.02 737.89 403.31 714.36 376.87 714.36 376.87 737.89"/><polygon class="cls-22" points="376.87 643.25 352.62 643.25 352.17 659.28 376.87 659.28 376.87 643.25"/><polygon class="cls-20" points="376.87 696 376.87 714.36 403.31 714.36 402.75 696 376.87 696"/><polygon class="cls-19" points="376.87 696 351.14 696 350.63 714.36 376.87 714.36 376.87 696"/><polygon class="cls-19" points="376.87 659.28 352.17 659.28 351.66 677.64 376.87 677.64 376.87 659.28"/><polygon class="cls-22" points="376.87 677.64 351.66 677.64 351.14 696 376.87 696 376.87 677.64"/><polygon class="cls-23" points="410.87 748.75 343.12 748.75 344.67 735.82 409.32 735.82 410.87 748.75"/><polygon class="cls-24" points="400.78 607.82 376.22 607.55 376.22 619.2 402.85 619.2 400.78 607.82"/><polygon class="cls-25" points="353.72 607.31 351.14 619.2 376.22 619.2 376.22 607.55 353.72 607.31"/><polygon class="cls-26" points="377.18 555.98 353.7 588.04 400.28 588.04 377.18 555.98"/><polygon class="cls-27" points="377.18 555.98 360.19 588.04 366.39 588.04 377.18 555.98"/><rect class="cls-7" x="367.28" y="593.47" width="19.39" height="10.6" rx="5.3"/><g class="cls-9"><path class="cls-10" d="M1781.85,813.4a636.07,636.07,0,0,1-5.95,88.28c-13-4.67-26.82,18.2-26.82,18.2-15.46,30.28-30.93,33.06-42.64,28.08V743.32h71.73A653.44,653.44,0,0,1,1781.85,813.4Z"/><path class="cls-10" d="M1686.25,929.43c-21.75-35.53-31.72,0-31.72,0-2.83,6.42-6.33,10.48-10.16,12.84-8.45-36.58-13.4-81-13.4-128.87a653.44,653.44,0,0,1,3.68-70.08h71.79V948C1694.35,942.82,1686.25,929.43,1686.25,929.43Z"/><path class="cls-11" d="M1749.08,919.88S1763,897,1775.9,901.68c-11.46,81.18-38.24,138.14-69.46,138.17V948C1718.15,952.94,1733.62,950.16,1749.08,919.88Z"/><path class="cls-12" d="M1654.53,929.43s10-35.53,31.72,0c0,0,8.1,13.39,20.19,18.53v91.89h0c-25.71,0-48.42-38.62-62-97.58C1648.2,939.91,1651.7,935.85,1654.53,929.43Z"/><path class="cls-13" d="M1408.14,860.92c-19.55-22.44-28.51,0-28.51,0a20.13,20.13,0,0,1-9.14,8.12c-7.59-23.12-12-51.18-12-81.44a291.52,291.52,0,0,1,3.31-44.28h64.57V872.65C1415.44,869.41,1408.14,860.92,1408.14,860.92Z"/><path class="cls-13" d="M1494.09,787.6a285.08,285.08,0,0,1-5.35,55.79c-11.65-2.95-24.12,11.5-24.12,11.5-13.88,19.11-27.76,20.89-38.29,17.76V743.32h64.45A292.81,292.81,0,0,1,1494.09,787.6Z"/><path class="cls-11" d="M1464.62,854.89s12.47-14.45,24.12-11.5c-10.3,51.27-34.36,87.25-62.41,87.31V872.65C1436.86,875.78,1450.74,874,1464.62,854.89Z"/><path class="cls-12" d="M1379.63,860.92s9-22.44,28.51,0c0,0,7.3,8.49,18.19,11.73V930.7h-.06c-23.12,0-43.53-24.4-55.78-61.66A20.13,20.13,0,0,0,1379.63,860.92Z"/><path class="cls-13" d="M1658.72,807a409.59,409.59,0,0,1-7.7,80.28c-16.75-4.25-34.7,16.55-34.7,16.55-20,27.53-40,30.06-55.16,25.53V743.32H1654A418.64,418.64,0,0,1,1658.72,807Z"/><path class="cls-13" d="M1535,912.55c-28.13-32.3-41,0-41,0a29,29,0,0,1-13.15,11.68c-10.93-33.27-17.33-73.65-17.33-117.19a420,420,0,0,1,4.76-63.72h92.86V929.4C1545.52,924.73,1535,912.55,1535,912.55Z"/><path class="cls-11" d="M1616.32,903.87s18-20.8,34.7-16.55c-14.83,73.82-49.48,125.61-89.86,125.64V929.4C1576.31,933.93,1596.32,931.4,1616.32,903.87Z"/><path class="cls-12" d="M1494,912.55s12.89-32.3,41,0c0,0,10.48,12.18,26.12,16.85V1013h0c-33.27,0-62.64-35.11-80.26-88.73A29,29,0,0,0,1494,912.55Z"/></g><polygon class="cls-14" points="1800.85 765.15 1800.85 750.57 1785.79 750.57 1785.79 765.15 1773.3 765.15 1773.3 750.19 1758.25 750.19 1758.25 731.88 1743.19 731.88 1743.19 750.19 1728.87 750.19 1728.87 765.15 1689.57 765.15 1689.57 735.24 1674.52 735.24 1674.52 765.15 1625.31 765.15 1625.31 731.88 1610.25 731.88 1610.25 764.03 1597.03 764.03 1597.03 765.15 1459.32 765.15 1459.32 758.74 1444.27 758.74 1444.27 765.15 1414.15 765.15 1414.15 758.05 1399.1 758.05 1399.1 765.15 1368.98 765.15 1368.98 761.16 1353.93 761.16 1353.93 765.15 1308.02 765.15 1308.02 780.48 1323.81 780.48 1323.81 795.81 1338.87 795.81 1338.87 829.27 1353.93 829.27 1353.93 818.21 1368.98 818.21 1368.98 851.06 1384.04 851.06 1384.04 829.62 1399.1 829.62 1399.1 815.1 1414.15 815.1 1414.15 863.85 1429.21 863.85 1429.21 846.56 1444.27 846.56 1444.27 828.58 1459.32 828.58 1459.32 795.81 1491.27 795.81 1491.27 819.79 1506.33 819.79 1506.33 795.81 1521.38 795.81 1521.38 826.09 1536.44 826.09 1536.44 817.76 1551.5 817.76 1551.5 795.81 1581.98 795.81 1581.98 845.16 1597.03 845.16 1597.03 825.64 1612.09 825.64 1612.09 807.4 1625.31 807.4 1625.31 835.7 1640.37 835.7 1640.37 795.81 1674.52 795.81 1674.52 810.76 1689.57 810.76 1689.57 795.81 1728.87 795.81 1728.87 825.72 1743.92 825.72 1743.92 807.4 1758.25 807.4 1758.25 825.72 1773.3 825.72 1773.3 852.26 1788.36 852.26 1788.36 826.09 1800.85 826.09 1800.85 852.26 1815.9 852.26 1815.9 795.81 1825.08 795.81 1825.08 780.48 1825.08 765.15 1800.85 765.15"/><path class="cls-15" d="M1836.91,745H1303.4a10.09,10.09,0,0,0-10.09,9.91H1847A10.1,10.1,0,0,0,1836.91,745Z"/><path class="cls-16" d="M1293.31,754.87a1.09,1.09,0,0,0,0,.18h0a10.1,10.1,0,0,0,10.1,10.1h533.51a10.1,10.1,0,0,0,10.09-10.1h0v-.18Z"/><path class="cls-15" d="M1781.85,688.28a419.69,419.69,0,0,0-5.95-71.56c-13,3.79-26.82-14.75-26.82-14.75-15.46-24.53-30.93-26.79-42.64-22.75V745.07h71.73A430.26,430.26,0,0,0,1781.85,688.28Z"/><path class="cls-16" d="M1686.25,594.24c-21.75,28.79-31.72,0-31.72,0-2.83-5.21-6.33-8.5-10.16-10.41-8.45,29.65-13.4,65.64-13.4,104.45a430.26,430.26,0,0,0,3.68,56.79h71.79V579.22C1694.35,583.38,1686.25,594.24,1686.25,594.24Z"/><path class="cls-17" d="M1749.08,602s13.87,18.54,26.82,14.75c-11.46-65.79-38.24-112-69.46-112v74.47C1718.15,575.18,1733.62,577.44,1749.08,602Z"/><path class="cls-17" d="M1654.53,594.24s10,28.79,31.72,0c0,0,8.1-10.86,20.19-15V504.75h0c-25.71,0-48.42,31.3-62,79.08C1648.2,585.74,1651.7,589,1654.53,594.24Z"/><path class="cls-16" d="M1408.14,649.76c-19.55,18.19-28.51,0-28.51,0a19.44,19.44,0,0,0-9.14-6.58c-7.59,18.73-12,41.48-12,66a192.46,192.46,0,0,0,3.31,35.89h64.57V640.25A44.27,44.27,0,0,0,1408.14,649.76Z"/><path class="cls-15" d="M1494.09,709.18a189,189,0,0,0-5.35-45.22c-11.65,2.4-24.12-9.32-24.12-9.32-13.88-15.48-27.76-16.92-38.29-14.39V745.07h64.45A193.31,193.31,0,0,0,1494.09,709.18Z"/><path class="cls-17" d="M1464.62,654.64s12.47,11.72,24.12,9.32c-10.3-41.55-34.36-70.71-62.41-70.75v47C1436.86,637.72,1450.74,639.16,1464.62,654.64Z"/><path class="cls-17" d="M1379.63,649.76s9,18.19,28.51,0a44.27,44.27,0,0,1,18.19-9.51v-47h-.06c-23.12,0-43.53,19.77-55.78,50A19.44,19.44,0,0,1,1379.63,649.76Z"/><path class="cls-16" d="M1658.72,693.42a271.29,271.29,0,0,0-7.7-65.06c-16.75,3.45-34.7-13.41-34.7-13.41-20-22.31-40-24.36-55.16-20.69V745.07H1654A276.46,276.46,0,0,0,1658.72,693.42Z"/><path class="cls-15" d="M1535,607.92c-28.13,26.18-41,0-41,0a28,28,0,0,0-13.15-9.47c-10.93,27-17.33,59.69-17.33,95a277.32,277.32,0,0,0,4.76,51.65h92.86V594.26A63.57,63.57,0,0,0,1535,607.92Z"/><path class="cls-17" d="M1616.32,615s18,16.86,34.7,13.41c-14.83-59.83-49.48-101.8-89.86-101.82v67.72C1576.31,590.59,1596.32,592.64,1616.32,615Z"/><path class="cls-17" d="M1494,607.92s12.89,26.18,41,0a63.57,63.57,0,0,1,26.12-13.66V526.54h0c-33.27,0-62.64,28.46-80.26,71.91A28,28,0,0,1,1494,607.92Z"/><rect class="cls-18" x="1554.45" y="587.4" width="39.05" height="20.95"/><polygon class="cls-19" points="1573.87 630.32 1549.98 630.32 1549.62 643.25 1573.87 643.25 1573.87 630.32"/><polygon class="cls-20" points="1573.87 643.25 1598.17 643.25 1597.78 630.32 1573.87 630.32 1573.87 643.25"/><polygon class="cls-21" points="1573.87 696 1599.75 696 1599.2 677.64 1573.87 677.64 1573.87 696"/><polygon class="cls-22" points="1573.87 617.65 1550.33 617.65 1549.98 630.32 1573.87 630.32 1573.87 617.65"/><polygon class="cls-21" points="1573.87 659.28 1598.65 659.28 1598.17 643.25 1573.87 643.25 1573.87 659.28"/><polygon class="cls-20" points="1573.87 677.64 1599.2 677.64 1598.65 659.28 1573.87 659.28 1573.87 677.64"/><polygon class="cls-21" points="1597.78 630.32 1597.39 617.65 1573.87 617.65 1573.87 630.32 1597.78 630.32"/><polygon class="cls-22" points="1547.63 714.36 1546.97 737.89 1573.87 737.89 1573.87 714.36 1547.63 714.36"/><polygon class="cls-21" points="1573.87 737.89 1601.02 737.89 1600.31 714.36 1573.87 714.36 1573.87 737.89"/><polygon class="cls-22" points="1573.87 643.25 1549.62 643.25 1549.17 659.28 1573.87 659.28 1573.87 643.25"/><polygon class="cls-20" points="1573.87 696 1573.87 714.36 1600.31 714.36 1599.75 696 1573.87 696"/><polygon class="cls-19" points="1573.87 696 1548.14 696 1547.63 714.36 1573.87 714.36 1573.87 696"/><polygon class="cls-19" points="1573.87 659.28 1549.17 659.28 1548.66 677.64 1573.87 677.64 1573.87 659.28"/><polygon class="cls-22" points="1573.87 677.64 1548.66 677.64 1548.14 696 1573.87 696 1573.87 677.64"/><polygon class="cls-23" points="1607.87 748.75 1540.12 748.75 1541.67 735.82 1606.32 735.82 1607.87 748.75"/><polygon class="cls-24" points="1597.78 607.82 1573.22 607.55 1573.22 619.2 1599.85 619.2 1597.78 607.82"/><polygon class="cls-25" points="1550.72 607.31 1548.14 619.2 1573.22 619.2 1573.22 607.55 1550.72 607.31"/><polygon class="cls-26" points="1574.18 555.98 1550.7 588.04 1597.28 588.04 1574.18 555.98"/><polygon class="cls-27" points="1574.18 555.98 1557.19 588.04 1563.39 588.04 1574.18 555.98"/><rect class="cls-7" x="1564.28" y="593.47" width="19.39" height="10.6" rx="5.3"/><path class="cls-7" d="M689.87,576.33h-8.36v-.06c0-7.88-22.85-14.27-51-14.27s-51.06,6.39-51.06,14.27c0,0,0,0,0,.06H566.88c-11.53,0-20.88,2.61-20.88,5.83s9.35,5.84,20.88,5.84h123c11.53,0,20.87-2.61,20.87-5.84S701.4,576.33,689.87,576.33Z"/><path class="cls-7" d="M321.87,541.33h-8.36v-.06c0-7.88-22.85-14.27-51.05-14.27s-51.06,6.39-51.06,14.27c0,0,0,0,0,.06H198.88c-11.53,0-20.88,2.61-20.88,5.83s9.35,5.84,20.88,5.84h123c11.53,0,20.87-2.61,20.87-5.84S333.4,541.33,321.87,541.33Z"/></g></svg>