<?xml version="1.0" encoding="utf-8"?>
<!-- Generator: Adobe Illustrator 23.0.3, SVG Export Plug-In . SVG Version: 6.00 Build 0)  -->
<svg version="1.1" id="Layer_1" xmlns="http://www.w3.org/2000/svg" xmlns:xlink="http://www.w3.org/1999/xlink" x="0px" y="0px"
	 viewBox="0 0 1920 1080" style="enable-background:new 0 0 1920 1080;" xml:space="preserve">
<style type="text/css">
	.st0{fill:#66BBE4;}
	.st1{fill:#23ACCC;}
	.st2{fill:#FFD092;}
	.st3{fill:#CDF255;}
	.st4{fill:#A05C2D;}
	.st5{fill:#5A872A;}
	.st6{fill:#4C721F;}
	.st7{fill:#C1DD3D;}
	.st8{fill:#41601C;}
	.st9{fill:#375017;}
	.st10{fill:#A6E0F7;}
	.st11{fill:#59AFD1;}
	.st12{fill:#787C81;}
	.st13{fill:#9F9BA5;}
	.st14{fill:#FFFFFF;}
	.st15{fill:#FE7E00;}
	.st16{fill:#FEFE00;}
	.st17{fill:#FCFCFC;}
	.st18{clip-path:url(#SVGID_2_);}
	.st19{clip-path:url(#SVGID_2_);fill:#037AB2;}
	.st20{fill:#91BD5C;}
	.st21{fill:#83AA57;}
	.st22{clip-path:url(#SVGID_2_);fill:#FCFCFC;}
	.st23{clip-path:url(#SVGID_2_);fill:#0589BC;}
</style>
<rect class="st10" width="1920" height="1080"/>
<g>
	<defs>
		<rect id="SVGID_1_" width="1920" height="1080"/>
	</defs>
	<clipPath id="SVGID_2_">
		<use xlink:href="#SVGID_1_"  style="overflow:visible;"/>
	</clipPath>
	<g class="st18">
		<path class="st15" d="M1634.08,631.55l-8.88-2.65c-10.84-3.24-21.01,6.7-18.03,17.61l2.44,8.94c3.95,14.47-14.08,24.6-24.38,13.7
			l-6.36-6.74c-7.77-8.22-21.54-4.7-24.42,6.23l-2.36,8.96c-3.81,14.51-24.49,14.26-27.96-0.33l-2.14-9.02
			c-2.62-11-16.3-14.84-24.26-6.81l-6.52,6.58c-10.56,10.66-28.34,0.11-24.05-14.27l2.65-8.88c3.24-10.84-6.7-21.01-17.61-18.03
			l-8.94,2.44c-14.47,3.95-24.6-14.08-13.69-24.38l6.74-6.36c8.22-7.77,4.7-21.54-6.23-24.42l-8.96-2.36
			c-14.51-3.81-14.26-24.49,0.33-27.96l9.02-2.14c11-2.62,14.84-16.3,6.81-24.26l-6.58-6.52c-10.66-10.56-0.11-28.34,14.27-24.05
			l8.88,2.65c10.84,3.24,21.01-6.7,18.03-17.61l-2.44-8.94c-3.95-14.47,14.08-24.6,24.38-13.7l6.36,6.74
			c7.77,8.22,21.54,4.7,24.42-6.23l2.36-8.96c3.81-14.51,24.49-14.26,27.96,0.33l2.14,9.02c2.62,11,16.3,14.84,24.26,6.81l6.52-6.58
			c10.56-10.66,28.34-0.11,24.05,14.27l-2.65,8.88c-3.24,10.84,6.7,21.01,17.61,18.03l8.94-2.44c14.47-3.95,24.6,14.08,13.7,24.38
			l-6.74,6.36c-8.22,7.77-4.7,21.54,6.23,24.42l8.96,2.36c14.51,3.81,14.26,24.49-0.33,27.96l-9.02,2.14
			c-11,2.62-14.84,16.3-6.81,24.26l6.58,6.52C1659.01,618.06,1648.46,635.85,1634.08,631.55z"/>
		<circle class="st16" cx="1539.51" cy="559.19" r="92.03"/>
	</g>
	<rect y="769" class="st19" width="1920" height="304"/>
	<g class="st18">
		<g>
			<polygon class="st11" points="281.78,532 316.05,596.7 258.33,596.7 258.33,532 			"/>
			<polygon class="st0" points="227.72,545.61 205.06,588.31 258.33,588.31 258.33,542.66 			"/>
			<path class="st12" d="M258.33,487.94l-43.37,81.72c3.59-1.9,22.2-11.35,37.8-3.66c1.79,0.88,3.68,2.06,5.57,3.66
				C258.33,542.42,258.33,515.18,258.33,487.94z"/>
			<polygon class="st0" points="214.95,569.66 128.12,733.27 258.33,733.27 258.33,569.66 			"/>
			<path class="st13" d="M258.33,487.94v81.72c2.87-2.05,7.18-4.53,12.87-5.85c15.17-3.51,27.78,4.11,30.5,5.85
				C287.24,542.42,272.78,515.18,258.33,487.94z"/>
			<polygon class="st11" points="388.53,733.27 301.7,569.66 258.33,569.66 258.33,733.27 			"/>
		</g>
		<g>
			<polygon class="st0" points="610.33,532 644.59,596.7 586.87,596.7 586.87,532 			"/>
			<polygon class="st11" points="556.27,545.61 533.61,588.31 586.87,588.31 586.87,542.66 			"/>
			<path class="st12" d="M586.87,487.94l-43.37,81.72c3.59-1.9,22.2-11.35,37.8-3.66c1.79,0.88,3.68,2.06,5.57,3.66
				C586.87,542.42,586.87,515.18,586.87,487.94z"/>
			<polygon class="st11" points="543.5,569.66 456.66,733.27 586.87,733.27 586.87,569.66 			"/>
			<path class="st13" d="M586.87,487.94v81.72c2.87-2.05,7.18-4.53,12.87-5.85c15.17-3.51,27.78,4.11,30.5,5.85
				C615.79,542.42,601.33,515.18,586.87,487.94z"/>
			<polygon class="st0" points="717.08,733.27 630.24,569.66 586.87,569.66 586.87,733.27 			"/>
		</g>
		<g>
			<polygon class="st0" points="437.89,554.65 468.3,612.07 417.08,612.07 417.08,554.65 			"/>
			<polygon class="st11" points="389.92,566.72 369.8,604.62 417.08,604.62 417.08,564.1 			"/>
			<path class="st12" d="M417.08,515.55l-38.49,72.52c3.18-1.69,19.71-10.07,33.55-3.24c1.59,0.78,3.27,1.83,4.94,3.24
				C417.08,563.9,417.08,539.72,417.08,515.55z"/>
			<polygon class="st11" points="378.59,588.07 301.52,733.27 417.08,733.27 417.08,588.07 			"/>
			<path class="st13" d="M417.08,515.55v72.52c2.54-1.82,6.37-4.02,11.42-5.19c13.46-3.12,24.65,3.65,27.07,5.19
				C442.74,563.9,429.91,539.72,417.08,515.55z"/>
			<polygon class="st0" points="532.63,733.27 455.57,588.07 417.08,588.07 417.08,733.27 			"/>
		</g>
		<g>
			<polygon class="st0" points="679.71,554.65 710.12,612.07 658.89,612.07 658.89,554.65 			"/>
			<polygon class="st11" points="631.73,566.72 611.62,604.62 658.89,604.62 658.89,564.1 			"/>
			<path class="st12" d="M658.89,515.55l-38.49,72.52c3.18-1.69,19.71-10.07,33.55-3.24c1.59,0.78,3.27,1.83,4.94,3.24
				C658.89,563.9,658.89,539.72,658.89,515.55z"/>
			<polygon class="st11" points="620.4,588.07 543.34,733.27 658.89,733.27 658.89,588.07 			"/>
			<path class="st13" d="M658.89,515.55v72.52c2.54-1.82,6.37-4.02,11.42-5.19c13.46-3.12,24.65,3.65,27.07,5.19
				C684.55,563.9,671.72,539.72,658.89,515.55z"/>
			<polygon class="st0" points="774.45,733.27 697.39,588.07 658.89,588.07 658.89,733.27 			"/>
		</g>
		<g>
			<polygon class="st0" points="301.48,607.85 280.13,648.17 316.1,648.17 316.1,607.85 			"/>
			<polygon class="st11" points="335.17,616.33 349.29,642.94 316.1,642.94 316.1,614.49 			"/>
			<path class="st12" d="M316.1,580.4l27.03,50.92c-2.24-1.18-13.84-7.07-23.56-2.28c-1.12,0.55-2.3,1.29-3.47,2.28
				C316.1,614.34,316.1,597.37,316.1,580.4z"/>
			<polygon class="st11" points="343.13,631.32 397.24,733.27 316.1,733.27 316.1,631.32 			"/>
			<path class="st13" d="M316.1,580.4v50.92c-1.79-1.28-4.47-2.82-8.02-3.65c-9.45-2.19-17.31,2.56-19.01,3.65
				C298.08,614.34,307.09,597.37,316.1,580.4z"/>
			<polygon class="st0" points="234.96,733.27 289.07,631.32 316.1,631.32 316.1,733.27 			"/>
		</g>
		<g>
			<polygon class="st0" points="501,607.85 479.65,648.17 515.62,648.17 515.62,607.85 			"/>
			<polygon class="st11" points="534.69,616.33 548.81,642.94 515.62,642.94 515.62,614.49 			"/>
			<path class="st12" d="M515.62,580.4l27.03,50.92c-2.24-1.18-13.84-7.07-23.56-2.28c-1.12,0.55-2.3,1.29-3.47,2.28
				C515.62,614.34,515.62,597.37,515.62,580.4z"/>
			<polygon class="st11" points="542.65,631.32 596.76,733.27 515.62,733.27 515.62,631.32 			"/>
			<path class="st13" d="M515.62,580.4v50.92c-1.79-1.28-4.47-2.82-8.02-3.65c-9.45-2.19-17.31,2.56-19.01,3.65
				C497.6,614.34,506.61,597.37,515.62,580.4z"/>
			<polygon class="st0" points="434.48,733.27 488.59,631.32 515.62,631.32 515.62,733.27 			"/>
		</g>
		<g>
			<path class="st3" d="M778.41,768.48H117.39c-6.6,0-12-5.4-12-12v-12.79c0-6.6,5.4-12,12-12h661.02c6.6,0,12,5.4,12,12v12.79
				C790.41,763.08,785.01,768.48,778.41,768.48z"/>
			<g>
				<path class="st1" d="M819,822.87H76.81c-6.6,0-12-5.4-12-12v-30.39c0-6.6,5.4-12,12-12H819c6.6,0,12,5.4,12,12v30.39
					C831,817.47,825.6,822.87,819,822.87z"/>
				<g>
					<g>
						<g>
							<path class="st14" d="M102.46,790.21c1.74-1.59,3.5-3.16,5.27-4.71c0.18-0.15,0.44-0.15,0.6,0l0.04,0.04
								c1.52,1.37,3.05,2.73,4.55,4.11l-1.05-0.07c1.8-1.51,3.58-3.05,5.4-4.55c0.37-0.31,0.89-0.31,1.27-0.04l0.05,0.04l5.69,4.17
								l-1.59,0.02l5.18-4.42c0.51-0.44,1.26-0.43,1.76-0.01l0.04,0.04c1.68,1.4,3.33,2.85,4.99,4.28l-1.96,0.03l4.61-4.36
								c0.55-0.52,1.41-0.54,1.98-0.06l5.23,4.36l-1.89,0.03c1.66-1.43,3.31-2.87,5-4.28l0.04-0.04c0.55-0.46,1.36-0.41,1.85,0.1
								l4.25,4.41l-1.72-0.08l5.38-4.18l0.05-0.04c0.39-0.3,0.91-0.29,1.28,0c1.92,1.49,3.81,3.04,5.71,4.56l-0.97,0.01
								c1.92-1.36,3.86-2.7,5.79-4.04l0.04-0.03c0.17-0.12,0.4-0.09,0.53,0.06c1.36,1.53,2.7,3.07,4.02,4.64
								c-1.56-1.33-3.11-2.67-4.64-4.02l0.57,0.04c-1.77,1.55-3.55,3.1-5.34,4.62c-0.26,0.22-0.64,0.24-0.91,0.05l-0.05-0.04
								c-2.01-1.37-4.05-2.71-6.04-4.1l1.33-0.04l-5.13,4.48c-0.49,0.42-1.21,0.4-1.67-0.04l-0.05-0.04l-4.41-4.25l1.9,0.06
								c-1.62,1.48-3.26,2.93-4.9,4.38c-0.54,0.48-1.34,0.48-1.88,0.04l-0.01-0.01l-5.28-4.3l1.98-0.06l-4.67,4.3l-0.01,0.01
								c-0.55,0.51-1.4,0.5-1.95,0.02c-1.64-1.46-3.29-2.9-4.91-4.38l1.81,0.03l-5.34,4.24l-0.05,0.04
								c-0.46,0.37-1.11,0.35-1.55-0.01l-5.44-4.49h1.31c-1.89,1.39-3.82,2.74-5.74,4.11l-0.05,0.04c-0.32,0.23-0.75,0.18-1-0.1
								c-1.39-1.5-2.74-3.03-4.11-4.55l0.64,0.04C106.39,787.6,104.44,788.92,102.46,790.21z"/>
						</g>
						<g>
							<path class="st14" d="M102.46,797.94c1.74-1.59,3.5-3.16,5.27-4.71c0.18-0.15,0.44-0.15,0.6,0l0.04,0.04
								c1.52,1.37,3.05,2.73,4.55,4.11l-1.05-0.07c1.8-1.51,3.58-3.05,5.4-4.55c0.37-0.31,0.89-0.31,1.27-0.04l0.05,0.04l5.69,4.17
								l-1.59,0.02l5.18-4.42c0.51-0.44,1.26-0.43,1.76-0.01l0.04,0.04c1.68,1.4,3.33,2.85,4.99,4.28l-1.96,0.03l4.61-4.36
								c0.55-0.52,1.41-0.54,1.98-0.06l5.23,4.36l-1.89,0.03c1.66-1.43,3.31-2.87,5-4.28l0.04-0.04c0.55-0.46,1.36-0.41,1.85,0.1
								l4.25,4.41l-1.72-0.08l5.38-4.18l0.05-0.04c0.39-0.3,0.91-0.29,1.28,0c1.92,1.49,3.81,3.04,5.71,4.56l-0.97,0.01
								c1.92-1.36,3.86-2.7,5.79-4.04l0.04-0.03c0.17-0.12,0.4-0.09,0.53,0.06c1.36,1.53,2.7,3.07,4.02,4.64
								c-1.56-1.33-3.11-2.67-4.64-4.02l0.57,0.04c-1.77,1.55-3.55,3.1-5.34,4.62c-0.26,0.22-0.64,0.24-0.91,0.05l-0.05-0.04
								c-2.01-1.37-4.05-2.71-6.04-4.1l1.33-0.04l-5.13,4.48c-0.49,0.42-1.21,0.4-1.67-0.04l-0.05-0.04l-4.41-4.25l1.9,0.06
								c-1.62,1.48-3.26,2.93-4.9,4.38c-0.54,0.48-1.34,0.48-1.88,0.04l-0.01-0.01l-5.28-4.3l1.98-0.06l-4.67,4.3l-0.01,0.01
								c-0.55,0.51-1.4,0.5-1.95,0.02c-1.64-1.46-3.29-2.9-4.91-4.38l1.81,0.03l-5.34,4.24l-0.05,0.04
								c-0.46,0.37-1.11,0.35-1.55-0.01l-5.44-4.49h1.31c-1.89,1.39-3.82,2.74-5.74,4.11l-0.05,0.04c-0.32,0.23-0.75,0.18-1-0.1
								c-1.39-1.5-2.74-3.03-4.11-4.55l0.64,0.04C106.39,795.33,104.44,796.65,102.46,797.94z"/>
						</g>
						<g>
							<path class="st14" d="M102.46,805.67c1.74-1.59,3.5-3.16,5.27-4.71c0.18-0.15,0.44-0.15,0.6,0l0.04,0.04
								c1.52,1.37,3.05,2.73,4.55,4.11l-1.05-0.07c1.8-1.51,3.58-3.05,5.4-4.55c0.37-0.31,0.89-0.31,1.27-0.04l0.05,0.04l5.69,4.17
								l-1.59,0.02l5.18-4.42c0.51-0.44,1.26-0.43,1.76-0.01l0.04,0.04c1.68,1.4,3.33,2.85,4.99,4.28l-1.96,0.03l4.61-4.36
								c0.55-0.52,1.41-0.54,1.98-0.06l5.23,4.36l-1.89,0.03c1.66-1.43,3.31-2.87,5-4.28l0.04-0.04c0.55-0.46,1.36-0.41,1.85,0.1
								l4.25,4.41l-1.72-0.08l5.38-4.18l0.05-0.04c0.39-0.3,0.91-0.29,1.28,0c1.92,1.49,3.81,3.04,5.71,4.56l-0.97,0.01
								c1.92-1.36,3.86-2.7,5.79-4.04l0.04-0.03c0.17-0.12,0.4-0.09,0.53,0.06c1.36,1.53,2.7,3.07,4.02,4.64
								c-1.56-1.33-3.11-2.67-4.64-4.02l0.57,0.04c-1.77,1.55-3.55,3.1-5.34,4.62c-0.26,0.22-0.64,0.24-0.91,0.05l-0.05-0.04
								c-2.01-1.37-4.05-2.71-6.04-4.1l1.33-0.04l-5.13,4.48c-0.49,0.42-1.21,0.4-1.67-0.04l-0.05-0.04l-4.41-4.25l1.9,0.06
								c-1.62,1.48-3.26,2.93-4.9,4.38c-0.54,0.48-1.34,0.48-1.88,0.04l-0.01-0.01l-5.28-4.3l1.98-0.06l-4.67,4.3l-0.01,0.01
								c-0.55,0.51-1.4,0.5-1.95,0.02c-1.64-1.46-3.29-2.9-4.91-4.38l1.81,0.03l-5.34,4.24l-0.05,0.04
								c-0.46,0.37-1.11,0.35-1.55-0.01l-5.44-4.49h1.31c-1.89,1.39-3.82,2.74-5.74,4.11l-0.05,0.04c-0.32,0.23-0.75,0.18-1-0.1
								c-1.39-1.5-2.74-3.03-4.11-4.55l0.64,0.04C106.39,803.06,104.44,804.38,102.46,805.67z"/>
						</g>
					</g>
					<g>
						<g>
							<path class="st14" d="M205.7,790.21c1.74-1.59,3.5-3.16,5.27-4.71c0.18-0.15,0.44-0.15,0.6,0l0.04,0.04
								c1.52,1.37,3.05,2.73,4.55,4.11l-1.05-0.07c1.8-1.51,3.58-3.05,5.4-4.55c0.37-0.31,0.89-0.31,1.27-0.04l0.05,0.04l5.69,4.17
								l-1.59,0.02l5.18-4.42c0.51-0.44,1.26-0.43,1.76-0.01l0.04,0.04c1.68,1.4,3.33,2.85,4.99,4.28l-1.96,0.03l4.61-4.36
								c0.55-0.52,1.41-0.54,1.98-0.06l5.23,4.36l-1.89,0.03c1.66-1.43,3.31-2.87,5-4.28l0.04-0.04c0.55-0.46,1.36-0.41,1.85,0.1
								l4.25,4.41l-1.72-0.08l5.38-4.18l0.05-0.04c0.39-0.3,0.91-0.29,1.28,0c1.92,1.49,3.81,3.04,5.71,4.56l-0.97,0.01
								c1.92-1.36,3.86-2.7,5.79-4.04l0.04-0.03c0.17-0.12,0.4-0.09,0.53,0.06c1.36,1.53,2.7,3.07,4.02,4.64
								c-1.56-1.33-3.11-2.67-4.64-4.02l0.57,0.04c-1.77,1.55-3.55,3.1-5.34,4.62c-0.26,0.22-0.64,0.24-0.91,0.05l-0.05-0.04
								c-2.01-1.37-4.05-2.71-6.04-4.1l1.33-0.04l-5.13,4.48c-0.49,0.42-1.21,0.4-1.67-0.04l-0.05-0.04l-4.41-4.25l1.9,0.06
								c-1.62,1.48-3.26,2.93-4.9,4.38c-0.54,0.48-1.34,0.48-1.88,0.04l-0.01-0.01l-5.28-4.3l1.98-0.06l-4.67,4.3l-0.01,0.01
								c-0.55,0.51-1.4,0.5-1.95,0.02c-1.64-1.46-3.29-2.9-4.91-4.38l1.81,0.03l-5.34,4.24l-0.05,0.04
								c-0.46,0.37-1.11,0.35-1.55-0.01l-5.44-4.49h1.31c-1.89,1.39-3.82,2.74-5.74,4.11l-0.05,0.04c-0.32,0.23-0.75,0.18-1-0.1
								c-1.39-1.5-2.74-3.03-4.11-4.55l0.64,0.04C209.63,787.6,207.67,788.92,205.7,790.21z"/>
						</g>
						<g>
							<path class="st14" d="M205.7,797.94c1.74-1.59,3.5-3.16,5.27-4.71c0.18-0.15,0.44-0.15,0.6,0l0.04,0.04
								c1.52,1.37,3.05,2.73,4.55,4.11l-1.05-0.07c1.8-1.51,3.58-3.05,5.4-4.55c0.37-0.31,0.89-0.31,1.27-0.04l0.05,0.04l5.69,4.17
								l-1.59,0.02l5.18-4.42c0.51-0.44,1.26-0.43,1.76-0.01l0.04,0.04c1.68,1.4,3.33,2.85,4.99,4.28l-1.96,0.03l4.61-4.36
								c0.55-0.52,1.41-0.54,1.98-0.06l5.23,4.36l-1.89,0.03c1.66-1.43,3.31-2.87,5-4.28l0.04-0.04c0.55-0.46,1.36-0.41,1.85,0.1
								l4.25,4.41l-1.72-0.08l5.38-4.18l0.05-0.04c0.39-0.3,0.91-0.29,1.28,0c1.92,1.49,3.81,3.04,5.71,4.56l-0.97,0.01
								c1.92-1.36,3.86-2.7,5.79-4.04l0.04-0.03c0.17-0.12,0.4-0.09,0.53,0.06c1.36,1.53,2.7,3.07,4.02,4.64
								c-1.56-1.33-3.11-2.67-4.64-4.02l0.57,0.04c-1.77,1.55-3.55,3.1-5.34,4.62c-0.26,0.22-0.64,0.24-0.91,0.05l-0.05-0.04
								c-2.01-1.37-4.05-2.71-6.04-4.1l1.33-0.04l-5.13,4.48c-0.49,0.42-1.21,0.4-1.67-0.04l-0.05-0.04l-4.41-4.25l1.9,0.06
								c-1.62,1.48-3.26,2.93-4.9,4.38c-0.54,0.48-1.34,0.48-1.88,0.04l-0.01-0.01l-5.28-4.3l1.98-0.06l-4.67,4.3l-0.01,0.01
								c-0.55,0.51-1.4,0.5-1.95,0.02c-1.64-1.46-3.29-2.9-4.91-4.38l1.81,0.03l-5.34,4.24l-0.05,0.04
								c-0.46,0.37-1.11,0.35-1.55-0.01l-5.44-4.49h1.31c-1.89,1.39-3.82,2.74-5.74,4.11l-0.05,0.04c-0.32,0.23-0.75,0.18-1-0.1
								c-1.39-1.5-2.74-3.03-4.11-4.55l0.64,0.04C209.63,795.33,207.67,796.65,205.7,797.94z"/>
						</g>
						<g>
							<path class="st14" d="M205.7,805.67c1.74-1.59,3.5-3.16,5.27-4.71c0.18-0.15,0.44-0.15,0.6,0l0.04,0.04
								c1.52,1.37,3.05,2.73,4.55,4.11l-1.05-0.07c1.8-1.51,3.58-3.05,5.4-4.55c0.37-0.31,0.89-0.31,1.27-0.04l0.05,0.04l5.69,4.17
								l-1.59,0.02l5.18-4.42c0.51-0.44,1.26-0.43,1.76-0.01l0.04,0.04c1.68,1.4,3.33,2.85,4.99,4.28l-1.96,0.03l4.61-4.36
								c0.55-0.52,1.41-0.54,1.98-0.06l5.23,4.36l-1.89,0.03c1.66-1.43,3.31-2.87,5-4.28l0.04-0.04c0.55-0.46,1.36-0.41,1.85,0.1
								l4.25,4.41l-1.72-0.08l5.38-4.18l0.05-0.04c0.39-0.3,0.91-0.29,1.28,0c1.92,1.49,3.81,3.04,5.71,4.56l-0.97,0.01
								c1.92-1.36,3.86-2.7,5.79-4.04l0.04-0.03c0.17-0.12,0.4-0.09,0.53,0.06c1.36,1.53,2.7,3.07,4.02,4.64
								c-1.56-1.33-3.11-2.67-4.64-4.02l0.57,0.04c-1.77,1.55-3.55,3.1-5.34,4.62c-0.26,0.22-0.64,0.24-0.91,0.05l-0.05-0.04
								c-2.01-1.37-4.05-2.71-6.04-4.1l1.33-0.04l-5.13,4.48c-0.49,0.42-1.21,0.4-1.67-0.04l-0.05-0.04l-4.41-4.25l1.9,0.06
								c-1.62,1.48-3.26,2.93-4.9,4.38c-0.54,0.48-1.34,0.48-1.88,0.04l-0.01-0.01l-5.28-4.3l1.98-0.06l-4.67,4.3l-0.01,0.01
								c-0.55,0.51-1.4,0.5-1.95,0.02c-1.64-1.46-3.29-2.9-4.91-4.38l1.81,0.03l-5.34,4.24l-0.05,0.04
								c-0.46,0.37-1.11,0.35-1.55-0.01l-5.44-4.49h1.31c-1.89,1.39-3.82,2.74-5.74,4.11l-0.05,0.04c-0.32,0.23-0.75,0.18-1-0.1
								c-1.39-1.5-2.74-3.03-4.11-4.55l0.64,0.04C209.63,803.06,207.67,804.38,205.7,805.67z"/>
						</g>
					</g>
					<g>
						<g>
							<path class="st14" d="M308.94,790.21c1.74-1.59,3.5-3.16,5.27-4.71c0.18-0.15,0.44-0.15,0.6,0l0.04,0.04
								c1.52,1.37,3.05,2.73,4.55,4.11l-1.05-0.07c1.8-1.51,3.58-3.05,5.4-4.55c0.37-0.31,0.89-0.31,1.27-0.04l0.05,0.04l5.69,4.17
								l-1.59,0.02l5.18-4.42c0.51-0.44,1.26-0.43,1.76-0.01l0.04,0.04c1.68,1.4,3.33,2.85,4.99,4.28l-1.96,0.03l4.61-4.36
								c0.55-0.52,1.41-0.54,1.98-0.06l5.23,4.36l-1.89,0.03c1.66-1.43,3.31-2.87,5-4.28l0.04-0.04c0.55-0.46,1.36-0.41,1.85,0.1
								l4.25,4.41l-1.72-0.08l5.38-4.18l0.05-0.04c0.39-0.3,0.91-0.29,1.28,0c1.92,1.49,3.81,3.04,5.71,4.56l-0.97,0.01
								c1.92-1.36,3.86-2.7,5.79-4.04l0.04-0.03c0.17-0.12,0.4-0.09,0.53,0.06c1.36,1.53,2.7,3.07,4.02,4.64
								c-1.56-1.33-3.11-2.67-4.64-4.02l0.57,0.04c-1.77,1.55-3.55,3.1-5.34,4.62c-0.26,0.22-0.64,0.24-0.91,0.05l-0.05-0.04
								c-2.01-1.37-4.05-2.71-6.04-4.1l1.33-0.04l-5.13,4.48c-0.49,0.42-1.21,0.4-1.67-0.04l-0.05-0.04l-4.41-4.25l1.9,0.06
								c-1.62,1.48-3.26,2.93-4.9,4.38c-0.54,0.48-1.34,0.48-1.88,0.04l-0.01-0.01l-5.28-4.3l1.98-0.06l-4.67,4.3l-0.01,0.01
								c-0.55,0.51-1.4,0.5-1.95,0.02c-1.64-1.46-3.29-2.9-4.91-4.38l1.81,0.03l-5.34,4.24l-0.05,0.04
								c-0.46,0.37-1.11,0.35-1.55-0.01l-5.44-4.49h1.31c-1.89,1.39-3.82,2.74-5.74,4.11l-0.05,0.04c-0.32,0.23-0.75,0.18-1-0.1
								c-1.39-1.5-2.74-3.03-4.11-4.55l0.64,0.04C312.87,787.6,310.91,788.92,308.94,790.21z"/>
						</g>
						<g>
							<path class="st14" d="M308.94,797.94c1.74-1.59,3.5-3.16,5.27-4.71c0.18-0.15,0.44-0.15,0.6,0l0.04,0.04
								c1.52,1.37,3.05,2.73,4.55,4.11l-1.05-0.07c1.8-1.51,3.58-3.05,5.4-4.55c0.37-0.31,0.89-0.31,1.27-0.04l0.05,0.04l5.69,4.17
								l-1.59,0.02l5.18-4.42c0.51-0.44,1.26-0.43,1.76-0.01l0.04,0.04c1.68,1.4,3.33,2.85,4.99,4.28l-1.96,0.03l4.61-4.36
								c0.55-0.52,1.41-0.54,1.98-0.06l5.23,4.36l-1.89,0.03c1.66-1.43,3.31-2.87,5-4.28l0.04-0.04c0.55-0.46,1.36-0.41,1.85,0.1
								l4.25,4.41l-1.72-0.08l5.38-4.18l0.05-0.04c0.39-0.3,0.91-0.29,1.28,0c1.92,1.49,3.81,3.04,5.71,4.56l-0.97,0.01
								c1.92-1.36,3.86-2.7,5.79-4.04l0.04-0.03c0.17-0.12,0.4-0.09,0.53,0.06c1.36,1.53,2.7,3.07,4.02,4.64
								c-1.56-1.33-3.11-2.67-4.64-4.02l0.57,0.04c-1.77,1.55-3.55,3.1-5.34,4.62c-0.26,0.22-0.64,0.24-0.91,0.05l-0.05-0.04
								c-2.01-1.37-4.05-2.71-6.04-4.1l1.33-0.04l-5.13,4.48c-0.49,0.42-1.21,0.4-1.67-0.04l-0.05-0.04l-4.41-4.25l1.9,0.06
								c-1.62,1.48-3.26,2.93-4.9,4.38c-0.54,0.48-1.34,0.48-1.88,0.04l-0.01-0.01l-5.28-4.3l1.98-0.06l-4.67,4.3l-0.01,0.01
								c-0.55,0.51-1.4,0.5-1.95,0.02c-1.64-1.46-3.29-2.9-4.91-4.38l1.81,0.03l-5.34,4.24l-0.05,0.04
								c-0.46,0.37-1.11,0.35-1.55-0.01l-5.44-4.49h1.31c-1.89,1.39-3.82,2.74-5.74,4.11l-0.05,0.04c-0.32,0.23-0.75,0.18-1-0.1
								c-1.39-1.5-2.74-3.03-4.11-4.55l0.64,0.04C312.87,795.33,310.91,796.65,308.94,797.94z"/>
						</g>
						<g>
							<path class="st14" d="M308.94,805.67c1.74-1.59,3.5-3.16,5.27-4.71c0.18-0.15,0.44-0.15,0.6,0l0.04,0.04
								c1.52,1.37,3.05,2.73,4.55,4.11l-1.05-0.07c1.8-1.51,3.58-3.05,5.4-4.55c0.37-0.31,0.89-0.31,1.27-0.04l0.05,0.04l5.69,4.17
								l-1.59,0.02l5.18-4.42c0.51-0.44,1.26-0.43,1.76-0.01l0.04,0.04c1.68,1.4,3.33,2.85,4.99,4.28l-1.96,0.03l4.61-4.36
								c0.55-0.52,1.41-0.54,1.98-0.06l5.23,4.36l-1.89,0.03c1.66-1.43,3.31-2.87,5-4.28l0.04-0.04c0.55-0.46,1.36-0.41,1.85,0.1
								l4.25,4.41l-1.72-0.08l5.38-4.18l0.05-0.04c0.39-0.3,0.91-0.29,1.28,0c1.92,1.49,3.81,3.04,5.71,4.56l-0.97,0.01
								c1.92-1.36,3.86-2.7,5.79-4.04l0.04-0.03c0.17-0.12,0.4-0.09,0.53,0.06c1.36,1.53,2.7,3.07,4.02,4.64
								c-1.56-1.33-3.11-2.67-4.64-4.02l0.57,0.04c-1.77,1.55-3.55,3.1-5.34,4.62c-0.26,0.22-0.64,0.24-0.91,0.05l-0.05-0.04
								c-2.01-1.37-4.05-2.71-6.04-4.1l1.33-0.04l-5.13,4.48c-0.49,0.42-1.21,0.4-1.67-0.04l-0.05-0.04l-4.41-4.25l1.9,0.06
								c-1.62,1.48-3.26,2.93-4.9,4.38c-0.54,0.48-1.34,0.48-1.88,0.04l-0.01-0.01l-5.28-4.3l1.98-0.06l-4.67,4.3l-0.01,0.01
								c-0.55,0.51-1.4,0.5-1.95,0.02c-1.64-1.46-3.29-2.9-4.91-4.38l1.81,0.03l-5.34,4.24l-0.05,0.04
								c-0.46,0.37-1.11,0.35-1.55-0.01l-5.44-4.49h1.31c-1.89,1.39-3.82,2.74-5.74,4.11l-0.05,0.04c-0.32,0.23-0.75,0.18-1-0.1
								c-1.39-1.5-2.74-3.03-4.11-4.55l0.64,0.04C312.87,803.06,310.91,804.38,308.94,805.67z"/>
						</g>
					</g>
					<g>
						<g>
							<path class="st14" d="M412.18,790.21c1.74-1.59,3.5-3.16,5.27-4.71c0.18-0.15,0.44-0.15,0.6,0l0.04,0.04
								c1.52,1.37,3.05,2.73,4.55,4.11l-1.05-0.07c1.8-1.51,3.58-3.05,5.4-4.55c0.37-0.31,0.89-0.31,1.27-0.04l0.05,0.04l5.69,4.17
								l-1.59,0.02l5.18-4.42c0.51-0.44,1.26-0.43,1.76-0.01l0.04,0.04c1.68,1.4,3.33,2.85,4.99,4.28l-1.96,0.03l4.61-4.36
								c0.55-0.52,1.41-0.54,1.98-0.06l5.23,4.36l-1.89,0.03c1.66-1.43,3.31-2.87,5-4.28l0.04-0.04c0.55-0.46,1.36-0.41,1.85,0.1
								l4.25,4.41l-1.72-0.08l5.38-4.18l0.05-0.04c0.39-0.3,0.91-0.29,1.28,0c1.92,1.49,3.81,3.04,5.71,4.56l-0.97,0.01
								c1.92-1.36,3.86-2.7,5.79-4.04l0.04-0.03c0.17-0.12,0.4-0.09,0.53,0.06c1.36,1.53,2.7,3.07,4.02,4.64
								c-1.56-1.33-3.11-2.67-4.64-4.02l0.57,0.04c-1.77,1.55-3.55,3.1-5.34,4.62c-0.26,0.22-0.64,0.24-0.91,0.05l-0.05-0.04
								c-2.01-1.37-4.05-2.71-6.04-4.1l1.33-0.04l-5.13,4.48c-0.49,0.42-1.21,0.4-1.67-0.04l-0.05-0.04l-4.41-4.25l1.9,0.06
								c-1.62,1.48-3.26,2.93-4.9,4.38c-0.54,0.48-1.34,0.48-1.88,0.04l-0.01-0.01l-5.28-4.3l1.98-0.06l-4.67,4.3l-0.01,0.01
								c-0.55,0.51-1.4,0.5-1.95,0.02c-1.64-1.46-3.29-2.9-4.91-4.38l1.81,0.03l-5.34,4.24l-0.05,0.04
								c-0.46,0.37-1.11,0.35-1.55-0.01l-5.44-4.49h1.31c-1.89,1.39-3.82,2.74-5.74,4.11l-0.05,0.04c-0.32,0.23-0.75,0.18-1-0.1
								c-1.39-1.5-2.74-3.03-4.11-4.55l0.64,0.04C416.1,787.6,414.15,788.92,412.18,790.21z"/>
						</g>
						<g>
							<path class="st14" d="M412.18,797.94c1.74-1.59,3.5-3.16,5.27-4.71c0.18-0.15,0.44-0.15,0.6,0l0.04,0.04
								c1.52,1.37,3.05,2.73,4.55,4.11l-1.05-0.07c1.8-1.51,3.58-3.05,5.4-4.55c0.37-0.31,0.89-0.31,1.27-0.04l0.05,0.04l5.69,4.17
								l-1.59,0.02l5.18-4.42c0.51-0.44,1.26-0.43,1.76-0.01l0.04,0.04c1.68,1.4,3.33,2.85,4.99,4.28l-1.96,0.03l4.61-4.36
								c0.55-0.52,1.41-0.54,1.98-0.06l5.23,4.36l-1.89,0.03c1.66-1.43,3.31-2.87,5-4.28l0.04-0.04c0.55-0.46,1.36-0.41,1.85,0.1
								l4.25,4.41l-1.72-0.08l5.38-4.18l0.05-0.04c0.39-0.3,0.91-0.29,1.28,0c1.92,1.49,3.81,3.04,5.71,4.56l-0.97,0.01
								c1.92-1.36,3.86-2.7,5.79-4.04l0.04-0.03c0.17-0.12,0.4-0.09,0.53,0.06c1.36,1.53,2.7,3.07,4.02,4.64
								c-1.56-1.33-3.11-2.67-4.64-4.02l0.57,0.04c-1.77,1.55-3.55,3.1-5.34,4.62c-0.26,0.22-0.64,0.24-0.91,0.05l-0.05-0.04
								c-2.01-1.37-4.05-2.71-6.04-4.1l1.33-0.04l-5.13,4.48c-0.49,0.42-1.21,0.4-1.67-0.04l-0.05-0.04l-4.41-4.25l1.9,0.06
								c-1.62,1.48-3.26,2.93-4.9,4.38c-0.54,0.48-1.34,0.48-1.88,0.04l-0.01-0.01l-5.28-4.3l1.98-0.06l-4.67,4.3l-0.01,0.01
								c-0.55,0.51-1.4,0.5-1.95,0.02c-1.64-1.46-3.29-2.9-4.91-4.38l1.81,0.03l-5.34,4.24l-0.05,0.04
								c-0.46,0.37-1.11,0.35-1.55-0.01l-5.44-4.49h1.31c-1.89,1.39-3.82,2.74-5.74,4.11l-0.05,0.04c-0.32,0.23-0.75,0.18-1-0.1
								c-1.39-1.5-2.74-3.03-4.11-4.55l0.64,0.04C416.1,795.33,414.15,796.65,412.18,797.94z"/>
						</g>
						<g>
							<path class="st14" d="M412.18,805.67c1.74-1.59,3.5-3.16,5.27-4.71c0.18-0.15,0.44-0.15,0.6,0l0.04,0.04
								c1.52,1.37,3.05,2.73,4.55,4.11l-1.05-0.07c1.8-1.51,3.58-3.05,5.4-4.55c0.37-0.31,0.89-0.31,1.27-0.04l0.05,0.04l5.69,4.17
								l-1.59,0.02l5.18-4.42c0.51-0.44,1.26-0.43,1.76-0.01l0.04,0.04c1.68,1.4,3.33,2.85,4.99,4.28l-1.96,0.03l4.61-4.36
								c0.55-0.52,1.41-0.54,1.98-0.06l5.23,4.36l-1.89,0.03c1.66-1.43,3.31-2.87,5-4.28l0.04-0.04c0.55-0.46,1.36-0.41,1.85,0.1
								l4.25,4.41l-1.72-0.08l5.38-4.18l0.05-0.04c0.39-0.3,0.91-0.29,1.28,0c1.92,1.49,3.81,3.04,5.71,4.56l-0.97,0.01
								c1.92-1.36,3.86-2.7,5.79-4.04l0.04-0.03c0.17-0.12,0.4-0.09,0.53,0.06c1.36,1.53,2.7,3.07,4.02,4.64
								c-1.56-1.33-3.11-2.67-4.64-4.02l0.57,0.04c-1.77,1.55-3.55,3.1-5.34,4.62c-0.26,0.22-0.64,0.24-0.91,0.05l-0.05-0.04
								c-2.01-1.37-4.05-2.71-6.04-4.1l1.33-0.04l-5.13,4.48c-0.49,0.42-1.21,0.4-1.67-0.04l-0.05-0.04l-4.41-4.25l1.9,0.06
								c-1.62,1.48-3.26,2.93-4.9,4.38c-0.54,0.48-1.34,0.48-1.88,0.04l-0.01-0.01l-5.28-4.3l1.98-0.06l-4.67,4.3l-0.01,0.01
								c-0.55,0.51-1.4,0.5-1.95,0.02c-1.64-1.46-3.29-2.9-4.91-4.38l1.81,0.03l-5.34,4.24l-0.05,0.04
								c-0.46,0.37-1.11,0.35-1.55-0.01l-5.44-4.49h1.31c-1.89,1.39-3.82,2.74-5.74,4.11l-0.05,0.04c-0.32,0.23-0.75,0.18-1-0.1
								c-1.39-1.5-2.74-3.03-4.11-4.55l0.64,0.04C416.1,803.06,414.15,804.38,412.18,805.67z"/>
						</g>
					</g>
					<g>
						<g>
							<path class="st14" d="M515.42,790.21c1.74-1.59,3.5-3.16,5.27-4.71c0.18-0.15,0.44-0.15,0.6,0l0.04,0.04
								c1.52,1.37,3.05,2.73,4.55,4.11l-1.05-0.07c1.8-1.51,3.58-3.05,5.4-4.55c0.37-0.31,0.89-0.31,1.27-0.04l0.05,0.04l5.69,4.17
								l-1.59,0.02l5.18-4.42c0.51-0.44,1.26-0.43,1.76-0.01l0.04,0.04c1.68,1.4,3.33,2.85,4.99,4.28l-1.96,0.03l4.61-4.36
								c0.55-0.52,1.41-0.54,1.98-0.06l5.23,4.36l-1.89,0.03c1.66-1.43,3.31-2.87,5-4.28l0.04-0.04c0.55-0.46,1.36-0.41,1.85,0.1
								l4.25,4.41l-1.72-0.08l5.38-4.18l0.05-0.04c0.39-0.3,0.91-0.29,1.28,0c1.92,1.49,3.81,3.04,5.71,4.56l-0.97,0.01
								c1.92-1.36,3.86-2.7,5.79-4.04l0.04-0.03c0.17-0.12,0.4-0.09,0.53,0.06c1.36,1.53,2.7,3.07,4.02,4.64
								c-1.56-1.33-3.11-2.67-4.64-4.02l0.57,0.04c-1.77,1.55-3.55,3.1-5.34,4.62c-0.26,0.22-0.64,0.24-0.91,0.05l-0.05-0.04
								c-2.01-1.37-4.05-2.71-6.04-4.1l1.33-0.04l-5.13,4.48c-0.49,0.42-1.21,0.4-1.67-0.04l-0.05-0.04l-4.41-4.25l1.9,0.06
								c-1.62,1.48-3.26,2.93-4.9,4.38c-0.54,0.48-1.34,0.48-1.88,0.04l-0.01-0.01l-5.28-4.3l1.98-0.06l-4.67,4.3l-0.01,0.01
								c-0.55,0.51-1.4,0.5-1.95,0.02c-1.64-1.46-3.29-2.9-4.91-4.38l1.81,0.03l-5.34,4.24l-0.05,0.04
								c-0.46,0.37-1.11,0.35-1.55-0.01l-5.44-4.49h1.31c-1.89,1.39-3.82,2.74-5.74,4.11l-0.05,0.04c-0.32,0.23-0.75,0.18-1-0.1
								c-1.39-1.5-2.74-3.03-4.11-4.55l0.64,0.04C519.34,787.6,517.39,788.92,515.42,790.21z"/>
						</g>
						<g>
							<path class="st14" d="M515.42,797.94c1.74-1.59,3.5-3.16,5.27-4.71c0.18-0.15,0.44-0.15,0.6,0l0.04,0.04
								c1.52,1.37,3.05,2.73,4.55,4.11l-1.05-0.07c1.8-1.51,3.58-3.05,5.4-4.55c0.37-0.31,0.89-0.31,1.27-0.04l0.05,0.04l5.69,4.17
								l-1.59,0.02l5.18-4.42c0.51-0.44,1.26-0.43,1.76-0.01l0.04,0.04c1.68,1.4,3.33,2.85,4.99,4.28l-1.96,0.03l4.61-4.36
								c0.55-0.52,1.41-0.54,1.98-0.06l5.23,4.36l-1.89,0.03c1.66-1.43,3.31-2.87,5-4.28l0.04-0.04c0.55-0.46,1.36-0.41,1.85,0.1
								l4.25,4.41l-1.72-0.08l5.38-4.18l0.05-0.04c0.39-0.3,0.91-0.29,1.28,0c1.92,1.49,3.81,3.04,5.71,4.56l-0.97,0.01
								c1.92-1.36,3.86-2.7,5.79-4.04l0.04-0.03c0.17-0.12,0.4-0.09,0.53,0.06c1.36,1.53,2.7,3.07,4.02,4.64
								c-1.56-1.33-3.11-2.67-4.64-4.02l0.57,0.04c-1.77,1.55-3.55,3.1-5.34,4.62c-0.26,0.22-0.64,0.24-0.91,0.05l-0.05-0.04
								c-2.01-1.37-4.05-2.71-6.04-4.1l1.33-0.04l-5.13,4.48c-0.49,0.42-1.21,0.4-1.67-0.04l-0.05-0.04l-4.41-4.25l1.9,0.06
								c-1.62,1.48-3.26,2.93-4.9,4.38c-0.54,0.48-1.34,0.48-1.88,0.04l-0.01-0.01l-5.28-4.3l1.98-0.06l-4.67,4.3l-0.01,0.01
								c-0.55,0.51-1.4,0.5-1.95,0.02c-1.64-1.46-3.29-2.9-4.91-4.38l1.81,0.03l-5.34,4.24l-0.05,0.04
								c-0.46,0.37-1.11,0.35-1.55-0.01l-5.44-4.49h1.31c-1.89,1.39-3.82,2.74-5.74,4.11l-0.05,0.04c-0.32,0.23-0.75,0.18-1-0.1
								c-1.39-1.5-2.74-3.03-4.11-4.55l0.64,0.04C519.34,795.33,517.39,796.65,515.42,797.94z"/>
						</g>
						<g>
							<path class="st14" d="M515.42,805.67c1.74-1.59,3.5-3.16,5.27-4.71c0.18-0.15,0.44-0.15,0.6,0l0.04,0.04
								c1.52,1.37,3.05,2.73,4.55,4.11l-1.05-0.07c1.8-1.51,3.58-3.05,5.4-4.55c0.37-0.31,0.89-0.31,1.27-0.04l0.05,0.04l5.69,4.17
								l-1.59,0.02l5.18-4.42c0.51-0.44,1.26-0.43,1.76-0.01l0.04,0.04c1.68,1.4,3.33,2.85,4.99,4.28l-1.96,0.03l4.61-4.36
								c0.55-0.52,1.41-0.54,1.98-0.06l5.23,4.36l-1.89,0.03c1.66-1.43,3.31-2.87,5-4.28l0.04-0.04c0.55-0.46,1.36-0.41,1.85,0.1
								l4.25,4.41l-1.72-0.08l5.38-4.18l0.05-0.04c0.39-0.3,0.91-0.29,1.28,0c1.92,1.49,3.81,3.04,5.71,4.56l-0.97,0.01
								c1.92-1.36,3.86-2.7,5.79-4.04l0.04-0.03c0.17-0.12,0.4-0.09,0.53,0.06c1.36,1.53,2.7,3.07,4.02,4.64
								c-1.56-1.33-3.11-2.67-4.64-4.02l0.57,0.04c-1.77,1.55-3.55,3.1-5.34,4.62c-0.26,0.22-0.64,0.24-0.91,0.05l-0.05-0.04
								c-2.01-1.37-4.05-2.71-6.04-4.1l1.33-0.04l-5.13,4.48c-0.49,0.42-1.21,0.4-1.67-0.04l-0.05-0.04l-4.41-4.25l1.9,0.06
								c-1.62,1.48-3.26,2.93-4.9,4.38c-0.54,0.48-1.34,0.48-1.88,0.04l-0.01-0.01l-5.28-4.3l1.98-0.06l-4.67,4.3l-0.01,0.01
								c-0.55,0.51-1.4,0.5-1.95,0.02c-1.64-1.46-3.29-2.9-4.91-4.38l1.81,0.03l-5.34,4.24l-0.05,0.04
								c-0.46,0.37-1.11,0.35-1.55-0.01l-5.44-4.49h1.31c-1.89,1.39-3.82,2.74-5.74,4.11l-0.05,0.04c-0.32,0.23-0.75,0.18-1-0.1
								c-1.39-1.5-2.74-3.03-4.11-4.55l0.64,0.04C519.34,803.06,517.39,804.38,515.42,805.67z"/>
						</g>
					</g>
					<g>
						<g>
							<path class="st14" d="M721.9,792.21c1.74-1.59,3.5-3.16,5.27-4.71c0.18-0.15,0.44-0.15,0.6,0l0.04,0.04
								c1.52,1.37,3.05,2.73,4.55,4.11l-1.05-0.07c1.8-1.51,3.58-3.05,5.4-4.55c0.37-0.31,0.89-0.31,1.27-0.04l0.05,0.04l5.69,4.17
								l-1.59,0.02l5.18-4.42c0.51-0.44,1.26-0.43,1.76-0.01l0.04,0.04c1.68,1.4,3.33,2.85,4.99,4.28l-1.96,0.03l4.61-4.36
								c0.55-0.52,1.41-0.54,1.98-0.06l5.23,4.36l-1.89,0.03c1.66-1.43,3.31-2.87,5-4.28l0.04-0.04c0.55-0.46,1.36-0.41,1.85,0.1
								l4.25,4.41l-1.72-0.08l5.38-4.18l0.05-0.04c0.39-0.3,0.91-0.29,1.28,0c1.92,1.49,3.81,3.04,5.71,4.56l-0.97,0.01
								c1.92-1.36,3.86-2.7,5.79-4.04l0.04-0.03c0.17-0.12,0.4-0.09,0.53,0.06c1.36,1.53,2.7,3.07,4.02,4.64
								c-1.56-1.33-3.11-2.67-4.64-4.02l0.57,0.04c-1.77,1.55-3.55,3.1-5.34,4.62c-0.26,0.22-0.64,0.24-0.91,0.05l-0.05-0.04
								c-2.01-1.37-4.05-2.71-6.04-4.1l1.33-0.04l-5.13,4.48c-0.49,0.42-1.21,0.4-1.67-0.04l-0.05-0.04l-4.41-4.25l1.9,0.06
								c-1.62,1.48-3.26,2.93-4.9,4.38c-0.54,0.48-1.34,0.48-1.88,0.04l-0.01-0.01l-5.28-4.3l1.98-0.06l-4.67,4.3l-0.01,0.01
								c-0.55,0.51-1.4,0.5-1.95,0.02c-1.64-1.46-3.29-2.9-4.91-4.38l1.81,0.03l-5.34,4.24l-0.05,0.04
								c-0.46,0.37-1.11,0.35-1.55-0.01l-5.44-4.49h1.31c-1.89,1.39-3.82,2.74-5.74,4.11l-0.05,0.04c-0.32,0.23-0.75,0.18-1-0.1
								c-1.39-1.5-2.74-3.03-4.11-4.55l0.64,0.04C725.82,789.6,723.87,790.92,721.9,792.21z"/>
						</g>
						<g>
							<path class="st14" d="M721.9,799.94c1.74-1.59,3.5-3.16,5.27-4.71c0.18-0.15,0.44-0.15,0.6,0l0.04,0.04
								c1.52,1.37,3.05,2.73,4.55,4.11l-1.05-0.07c1.8-1.51,3.58-3.05,5.4-4.55c0.37-0.31,0.89-0.31,1.27-0.04l0.05,0.04l5.69,4.17
								l-1.59,0.02l5.18-4.42c0.51-0.44,1.26-0.43,1.76-0.01l0.04,0.04c1.68,1.4,3.33,2.85,4.99,4.28l-1.96,0.03l4.61-4.36
								c0.55-0.52,1.41-0.54,1.98-0.06l5.23,4.36l-1.89,0.03c1.66-1.43,3.31-2.87,5-4.28l0.04-0.04c0.55-0.46,1.36-0.41,1.85,0.1
								l4.25,4.41l-1.72-0.08l5.38-4.18l0.05-0.04c0.39-0.3,0.91-0.29,1.28,0c1.92,1.49,3.81,3.04,5.71,4.56l-0.97,0.01
								c1.92-1.36,3.86-2.7,5.79-4.04l0.04-0.03c0.17-0.12,0.4-0.09,0.53,0.06c1.36,1.53,2.7,3.07,4.02,4.64
								c-1.56-1.33-3.11-2.67-4.64-4.02l0.57,0.04c-1.77,1.55-3.55,3.1-5.34,4.62c-0.26,0.22-0.64,0.24-0.91,0.05l-0.05-0.04
								c-2.01-1.37-4.05-2.71-6.04-4.1l1.33-0.04l-5.13,4.48c-0.49,0.42-1.21,0.4-1.67-0.04l-0.05-0.04l-4.41-4.25l1.9,0.06
								c-1.62,1.48-3.26,2.93-4.9,4.38c-0.54,0.48-1.34,0.48-1.88,0.04l-0.01-0.01l-5.28-4.3l1.98-0.06l-4.67,4.3l-0.01,0.01
								c-0.55,0.51-1.4,0.5-1.95,0.02c-1.64-1.46-3.29-2.9-4.91-4.38l1.81,0.03l-5.34,4.24l-0.05,0.04
								c-0.46,0.37-1.11,0.35-1.55-0.01l-5.44-4.49l1.31,0c-1.89,1.39-3.82,2.74-5.74,4.11l-0.05,0.04c-0.32,0.23-0.75,0.18-1-0.1
								c-1.39-1.5-2.74-3.03-4.11-4.55l0.64,0.04C725.82,797.33,723.87,798.65,721.9,799.94z"/>
						</g>
						<g>
							<path class="st14" d="M721.9,807.67c1.74-1.59,3.5-3.16,5.27-4.71c0.18-0.15,0.44-0.15,0.6,0l0.04,0.04
								c1.52,1.37,3.05,2.73,4.55,4.11l-1.05-0.07c1.8-1.51,3.58-3.05,5.4-4.55c0.37-0.31,0.89-0.31,1.27-0.04l0.05,0.04l5.69,4.17
								l-1.59,0.02l5.18-4.42c0.51-0.44,1.26-0.43,1.76-0.01l0.04,0.04c1.68,1.4,3.33,2.85,4.99,4.28l-1.96,0.03l4.61-4.36
								c0.55-0.52,1.41-0.54,1.98-0.06l5.23,4.36l-1.89,0.03c1.66-1.43,3.31-2.87,5-4.28l0.04-0.04c0.55-0.46,1.36-0.41,1.85,0.1
								l4.25,4.41l-1.72-0.08l5.38-4.18l0.05-0.04c0.39-0.3,0.91-0.29,1.28,0c1.92,1.49,3.81,3.04,5.71,4.56l-0.97,0.01
								c1.92-1.36,3.86-2.7,5.79-4.04l0.04-0.03c0.17-0.12,0.4-0.09,0.53,0.06c1.36,1.53,2.7,3.07,4.02,4.64
								c-1.56-1.33-3.11-2.67-4.64-4.02l0.57,0.04c-1.77,1.55-3.55,3.1-5.34,4.62c-0.26,0.22-0.64,0.24-0.91,0.05l-0.05-0.04
								c-2.01-1.37-4.05-2.71-6.04-4.1l1.33-0.04l-5.13,4.48c-0.49,0.42-1.21,0.4-1.67-0.04l-0.05-0.04l-4.41-4.25l1.9,0.06
								c-1.62,1.48-3.26,2.93-4.9,4.38c-0.54,0.48-1.34,0.48-1.88,0.04l-0.01-0.01l-5.28-4.3l1.98-0.06l-4.67,4.3l-0.01,0.01
								c-0.55,0.51-1.4,0.5-1.95,0.02c-1.64-1.46-3.29-2.9-4.91-4.38l1.81,0.03l-5.34,4.24l-0.05,0.04
								c-0.46,0.37-1.11,0.35-1.55-0.01l-5.44-4.49l1.31,0c-1.89,1.39-3.82,2.74-5.74,4.11l-0.05,0.04c-0.32,0.23-0.75,0.18-1-0.1
								c-1.39-1.5-2.74-3.03-4.11-4.55l0.64,0.04C725.82,805.06,723.87,806.38,721.9,807.67z"/>
						</g>
					</g>
					<g>
						<g>
							<path class="st14" d="M618.66,792.21c1.74-1.59,3.5-3.16,5.27-4.71c0.18-0.15,0.44-0.15,0.6,0l0.04,0.04
								c1.52,1.37,3.05,2.73,4.55,4.11l-1.05-0.07c1.8-1.51,3.58-3.05,5.4-4.55c0.37-0.31,0.89-0.31,1.27-0.04l0.05,0.04l5.69,4.17
								l-1.59,0.02l5.18-4.42c0.51-0.44,1.26-0.43,1.76-0.01l0.04,0.04c1.68,1.4,3.33,2.85,4.99,4.28l-1.96,0.03l4.61-4.36
								c0.55-0.52,1.41-0.54,1.98-0.06l5.23,4.36l-1.89,0.03c1.66-1.43,3.31-2.87,5-4.28l0.04-0.04c0.55-0.46,1.36-0.41,1.85,0.1
								l4.25,4.41l-1.72-0.08l5.38-4.18l0.05-0.04c0.39-0.3,0.91-0.29,1.28,0c1.92,1.49,3.81,3.04,5.71,4.56l-0.97,0.01
								c1.92-1.36,3.86-2.7,5.79-4.04l0.04-0.03c0.17-0.12,0.4-0.09,0.53,0.06c1.36,1.53,2.7,3.07,4.02,4.64
								c-1.56-1.33-3.11-2.67-4.64-4.02l0.57,0.04c-1.77,1.55-3.55,3.1-5.34,4.62c-0.26,0.22-0.64,0.24-0.91,0.05l-0.05-0.04
								c-2.01-1.37-4.05-2.71-6.04-4.1l1.33-0.04l-5.13,4.48c-0.49,0.42-1.21,0.4-1.67-0.04l-0.05-0.04l-4.41-4.25l1.9,0.06
								c-1.62,1.48-3.26,2.93-4.9,4.38c-0.54,0.48-1.34,0.48-1.88,0.04l-0.01-0.01l-5.28-4.3l1.98-0.06l-4.67,4.3l-0.01,0.01
								c-0.55,0.51-1.4,0.5-1.95,0.02c-1.64-1.46-3.29-2.9-4.91-4.38l1.81,0.03l-5.34,4.24l-0.05,0.04
								c-0.46,0.37-1.11,0.35-1.55-0.01l-5.44-4.49h1.31c-1.89,1.39-3.82,2.74-5.74,4.11l-0.05,0.04c-0.32,0.23-0.75,0.18-1-0.1
								c-1.39-1.5-2.74-3.03-4.11-4.55l0.64,0.04C622.58,789.6,620.63,790.92,618.66,792.21z"/>
						</g>
						<g>
							<path class="st14" d="M618.66,799.94c1.74-1.59,3.5-3.16,5.27-4.71c0.18-0.15,0.44-0.15,0.6,0l0.04,0.04
								c1.52,1.37,3.05,2.73,4.55,4.11l-1.05-0.07c1.8-1.51,3.58-3.05,5.4-4.55c0.37-0.31,0.89-0.31,1.27-0.04l0.05,0.04l5.69,4.17
								l-1.59,0.02l5.18-4.42c0.51-0.44,1.26-0.43,1.76-0.01l0.04,0.04c1.68,1.4,3.33,2.85,4.99,4.28l-1.96,0.03l4.61-4.36
								c0.55-0.52,1.41-0.54,1.98-0.06l5.23,4.36l-1.89,0.03c1.66-1.43,3.31-2.87,5-4.28l0.04-0.04c0.55-0.46,1.36-0.41,1.85,0.1
								l4.25,4.41l-1.72-0.08l5.38-4.18l0.05-0.04c0.39-0.3,0.91-0.29,1.28,0c1.92,1.49,3.81,3.04,5.71,4.56l-0.97,0.01
								c1.92-1.36,3.86-2.7,5.79-4.04l0.04-0.03c0.17-0.12,0.4-0.09,0.53,0.06c1.36,1.53,2.7,3.07,4.02,4.64
								c-1.56-1.33-3.11-2.67-4.64-4.02l0.57,0.04c-1.77,1.55-3.55,3.1-5.34,4.62c-0.26,0.22-0.64,0.24-0.91,0.05l-0.05-0.04
								c-2.01-1.37-4.05-2.71-6.04-4.1l1.33-0.04l-5.13,4.48c-0.49,0.42-1.21,0.4-1.67-0.04l-0.05-0.04l-4.41-4.25l1.9,0.06
								c-1.62,1.48-3.26,2.93-4.9,4.38c-0.54,0.48-1.34,0.48-1.88,0.04l-0.01-0.01l-5.28-4.3l1.98-0.06l-4.67,4.3l-0.01,0.01
								c-0.55,0.51-1.4,0.5-1.95,0.02c-1.64-1.46-3.29-2.9-4.91-4.38l1.81,0.03l-5.34,4.24l-0.05,0.04
								c-0.46,0.37-1.11,0.35-1.55-0.01l-5.44-4.49l1.31,0c-1.89,1.39-3.82,2.74-5.74,4.11l-0.05,0.04c-0.32,0.23-0.75,0.18-1-0.1
								c-1.39-1.5-2.74-3.03-4.11-4.55l0.64,0.04C622.58,797.33,620.63,798.65,618.66,799.94z"/>
						</g>
						<g>
							<path class="st14" d="M618.66,807.67c1.74-1.59,3.5-3.16,5.27-4.71c0.18-0.15,0.44-0.15,0.6,0l0.04,0.04
								c1.52,1.37,3.05,2.73,4.55,4.11l-1.05-0.07c1.8-1.51,3.58-3.05,5.4-4.55c0.37-0.31,0.89-0.31,1.27-0.04l0.05,0.04l5.69,4.17
								l-1.59,0.02l5.18-4.42c0.51-0.44,1.26-0.43,1.76-0.01l0.04,0.04c1.68,1.4,3.33,2.85,4.99,4.28l-1.96,0.03l4.61-4.36
								c0.55-0.52,1.41-0.54,1.98-0.06l5.23,4.36l-1.89,0.03c1.66-1.43,3.31-2.87,5-4.28l0.04-0.04c0.55-0.46,1.36-0.41,1.85,0.1
								l4.25,4.41l-1.72-0.08l5.38-4.18l0.05-0.04c0.39-0.3,0.91-0.29,1.28,0c1.92,1.49,3.81,3.04,5.71,4.56l-0.97,0.01
								c1.92-1.36,3.86-2.7,5.79-4.04l0.04-0.03c0.17-0.12,0.4-0.09,0.53,0.06c1.36,1.53,2.7,3.07,4.02,4.64
								c-1.56-1.33-3.11-2.67-4.64-4.02l0.57,0.04c-1.77,1.55-3.55,3.1-5.34,4.62c-0.26,0.22-0.64,0.24-0.91,0.05l-0.05-0.04
								c-2.01-1.37-4.05-2.71-6.04-4.1l1.33-0.04l-5.13,4.48c-0.49,0.42-1.21,0.4-1.67-0.04l-0.05-0.04l-4.41-4.25l1.9,0.06
								c-1.62,1.48-3.26,2.93-4.9,4.38c-0.54,0.48-1.34,0.48-1.88,0.04l-0.01-0.01l-5.28-4.3l1.98-0.06l-4.67,4.3l-0.01,0.01
								c-0.55,0.51-1.4,0.5-1.95,0.02c-1.64-1.46-3.29-2.9-4.91-4.38l1.81,0.03l-5.34,4.24l-0.05,0.04
								c-0.46,0.37-1.11,0.35-1.55-0.01l-5.44-4.49l1.31,0c-1.89,1.39-3.82,2.74-5.74,4.11l-0.05,0.04c-0.32,0.23-0.75,0.18-1-0.1
								c-1.39-1.5-2.74-3.03-4.11-4.55l0.64,0.04C622.58,805.06,620.63,806.38,618.66,807.67z"/>
						</g>
					</g>
				</g>
			</g>
		</g>
		<g>
			<path class="st4" d="M736.31,746.22H736c-0.47,0-0.85-0.38-0.85-0.85v-32.19c0-0.47,0.38-0.85,0.85-0.85h0.31
				c0.47,0,0.85,0.38,0.85,0.85v32.19C737.16,745.84,736.78,746.22,736.31,746.22z"/>
			<g>
				<path class="st8" d="M750.23,715.2c0-7.71-6.21-13.97-13.9-14.07v28.14C744.03,729.17,750.23,722.91,750.23,715.2z"/>
				<path class="st9" d="M736.16,701.12c-7.77,0-14.08,6.3-14.08,14.08s6.3,14.08,14.08,14.08c0.06,0,0.12,0,0.18,0v-28.14
					C736.28,701.13,736.22,701.12,736.16,701.12z"/>
			</g>
		</g>
		<g>
			<path class="st4" d="M323.6,747.07h-0.31c-0.47,0-0.85-0.38-0.85-0.85v-32.19c0-0.47,0.38-0.85,0.85-0.85h0.31
				c0.47,0,0.85,0.38,0.85,0.85v32.19C324.45,746.69,324.07,747.07,323.6,747.07z"/>
			<g>
				<path class="st8" d="M337.52,716.05c0-7.71-6.21-13.97-13.9-14.07v28.14C331.31,730.03,337.52,723.76,337.52,716.05z"/>
				<path class="st9" d="M323.44,701.98c-7.77,0-14.08,6.3-14.08,14.08s6.3,14.08,14.08,14.08c0.06,0,0.12,0,0.18,0v-28.14
					C323.56,701.98,323.5,701.98,323.44,701.98z"/>
			</g>
		</g>
		<g>
			<path class="st4" d="M517.24,753.06h-0.31c-0.47,0-0.86-0.39-0.86-0.86V719.2c0-0.47,0.39-0.86,0.86-0.86h0.31
				c0.47,0,0.86,0.39,0.86,0.86v32.99C518.1,752.67,517.71,753.06,517.24,753.06z"/>
			<g>
				<polygon class="st5" points="517.08,697.7 506.6,734.92 517.08,734.92 				"/>
				<polygon class="st6" points="517.08,697.7 527.56,734.92 517.08,734.92 				"/>
			</g>
		</g>
		<g>
			<path class="st4" d="M548.43,746.22h-0.31c-0.47,0-0.86-0.39-0.86-0.86v-32.99c0-0.47,0.39-0.86,0.86-0.86h0.31
				c0.47,0,0.86,0.39,0.86,0.86v32.99C549.29,745.83,548.9,746.22,548.43,746.22z"/>
			<g>
				<polygon class="st5" points="548.27,690.87 537.79,728.08 548.27,728.08 				"/>
				<polygon class="st6" points="548.27,690.87 558.75,728.08 548.27,728.08 				"/>
			</g>
		</g>
		<g>
			<path class="st4" d="M201.05,745.37h-0.36c-0.54,0-0.99-0.45-0.99-0.99v-37.94c0-0.54,0.44-0.99,0.99-0.99h0.36
				c0.54,0,0.99,0.45,0.99,0.99v37.94C202.04,744.92,201.59,745.37,201.05,745.37z"/>
			<g>
				<polygon class="st3" points="200.87,681.71 188.82,724.51 200.87,724.51 				"/>
				<polygon class="st7" points="200.87,681.71 212.92,724.51 200.87,724.51 				"/>
			</g>
		</g>
		<g>
			<path class="st4" d="M222.41,757.33h-0.36c-0.54,0-0.99-0.44-0.99-0.99V718.4c0-0.54,0.44-0.99,0.99-0.99h0.36
				c0.54,0,0.99,0.44,0.99,0.99v37.94C223.4,756.88,222.95,757.33,222.41,757.33z"/>
			<g>
				<polygon class="st3" points="222.23,693.67 210.18,736.47 222.23,736.47 				"/>
				<polygon class="st7" points="222.23,693.67 234.28,736.47 222.23,736.47 				"/>
			</g>
		</g>
		<g>
			<path class="st4" d="M417.09,739.84h-0.29c-0.45,0-0.81-0.36-0.81-0.81v-31.08c0-0.45,0.36-0.81,0.81-0.81h0.29
				c0.45,0,0.81,0.36,0.81,0.81v31.08C417.9,739.47,417.53,739.84,417.09,739.84z"/>
			<g>
				<polygon class="st5" points="416.94,687.69 407.07,722.75 416.94,722.75 				"/>
				<polygon class="st6" points="416.94,687.69 426.81,722.75 416.94,722.75 				"/>
			</g>
		</g>
	</g>
	<g class="st18">
		<g>
			<g>
				<g>
					<path class="st8" d="M1280.23,739.2h194.28V541.56C1372.02,555.97,1280.23,739.2,1280.23,739.2z"/>
					<path class="st9" d="M1592.79,621.38c-38.22-65.64-79.55-85.41-119.28-79.83V739.2h194.33
						C1632.72,729.54,1592.79,621.38,1592.79,621.38z"/>
				</g>
				<g>
					<path class="st6" d="M1417.93,559.08c-10.81-20.79-23.7-29.68-37.7-30.07V739.2h168.03
						C1496.58,726.58,1417.93,559.08,1417.93,559.08z"/>
					<path class="st5" d="M1213.2,739.2h168.03V529.01C1311.03,527.07,1213.2,739.2,1213.2,739.2z"/>
				</g>
				<g>
					<path class="st5" d="M1347.62,739.2h292.95V529.01C1539.05,530.2,1347.62,739.2,1347.62,739.2z"/>
					<path class="st6" d="M1685.41,551.59c-10.82-16.12-26.34-22.8-44.85-22.59V739.2h90.68
						C1707.84,578.15,1685.41,551.59,1685.41,551.59z"/>
				</g>
			</g>
			<g>
				<g>
					<path class="st20" d="M1285.22,753.8h188.23V615.91C1374.15,625.97,1285.22,753.8,1285.22,753.8z"/>
					<path class="st21" d="M1589.02,671.6c-37.03-45.79-77.07-59.59-115.56-55.69V753.8h188.28
						C1627.7,747.06,1589.02,671.6,1589.02,671.6z"/>
				</g>
				<g>
					<path class="st7" d="M1419.61,628.14c-10.47-14.5-22.97-20.71-36.53-20.98V753.8h162.8
						C1495.81,744.99,1419.61,628.14,1419.61,628.14z"/>
					<path class="st3" d="M1220.29,753.8h162.8V607.16C1315.07,605.8,1220.29,753.8,1220.29,753.8z"/>
				</g>
				<g>
					<path class="st3" d="M1351.48,753.8h283.82V607.15C1536.95,607.99,1351.48,753.8,1351.48,753.8z"/>
					<path class="st7" d="M1678.76,622.91c-10.49-11.25-25.52-15.91-43.45-15.76V753.8h87.85
						C1700.48,641.44,1678.76,622.91,1678.76,622.91z"/>
				</g>
			</g>
		</g>
		<g>
			<path class="st3" d="M1802.23,768.08h-661.02c-6.6,0-12-5.4-12-12v-12.79c0-6.6,5.4-12,12-12h661.02c6.6,0,12,5.4,12,12v12.79
				C1814.23,762.68,1808.83,768.08,1802.23,768.08z"/>
			<g>
				<path class="st1" d="M1842.82,822.46h-742.19c-6.6,0-12-5.4-12-12v-30.39c0-6.6,5.4-12,12-12h742.19c6.6,0,12,5.4,12,12v30.39
					C1854.82,817.06,1849.42,822.46,1842.82,822.46z"/>
				<g>
					<g>
						<g>
							<path class="st14" d="M1126.28,789.8c1.74-1.59,3.5-3.16,5.27-4.71c0.18-0.15,0.44-0.15,0.6,0l0.04,0.04
								c1.52,1.37,3.05,2.73,4.55,4.11l-1.05-0.07c1.8-1.51,3.58-3.05,5.4-4.55c0.37-0.31,0.89-0.31,1.27-0.04l0.05,0.04l5.69,4.17
								l-1.59,0.02l5.18-4.42c0.51-0.44,1.26-0.43,1.76-0.01l0.04,0.04c1.68,1.4,3.33,2.85,4.99,4.28l-1.96,0.03l4.61-4.36
								c0.55-0.52,1.41-0.54,1.98-0.06l5.23,4.36l-1.89,0.03c1.66-1.43,3.31-2.87,5-4.28l0.04-0.04c0.55-0.46,1.36-0.41,1.85,0.1
								l4.25,4.41l-1.72-0.08l5.38-4.18l0.05-0.04c0.39-0.3,0.91-0.29,1.28,0c1.92,1.49,3.81,3.04,5.71,4.56l-0.97,0.01
								c1.92-1.36,3.86-2.7,5.79-4.04l0.04-0.03c0.17-0.12,0.4-0.09,0.53,0.06c1.36,1.53,2.7,3.07,4.02,4.64
								c-1.56-1.33-3.11-2.67-4.64-4.02l0.57,0.04c-1.77,1.55-3.55,3.1-5.34,4.62c-0.26,0.22-0.64,0.24-0.91,0.05l-0.05-0.04
								c-2.01-1.37-4.05-2.71-6.04-4.1l1.33-0.04l-5.13,4.48c-0.49,0.42-1.21,0.4-1.67-0.04l-0.05-0.04l-4.41-4.25l1.9,0.06
								c-1.62,1.48-3.26,2.93-4.9,4.38c-0.54,0.48-1.34,0.48-1.88,0.04l-0.01-0.01l-5.28-4.3l1.98-0.06l-4.67,4.3l-0.01,0.01
								c-0.55,0.51-1.4,0.5-1.95,0.02c-1.64-1.46-3.29-2.9-4.91-4.38l1.81,0.03l-5.34,4.24l-0.05,0.04
								c-0.46,0.37-1.11,0.35-1.55-0.01l-5.44-4.49h1.31c-1.89,1.39-3.82,2.74-5.74,4.11l-0.05,0.04c-0.32,0.23-0.75,0.18-1-0.1
								c-1.39-1.5-2.74-3.03-4.11-4.55l0.64,0.04C1130.21,787.19,1128.25,788.51,1126.28,789.8z"/>
						</g>
						<g>
							<path class="st14" d="M1126.28,797.53c1.74-1.59,3.5-3.16,5.27-4.71c0.18-0.15,0.44-0.15,0.6,0l0.04,0.04
								c1.52,1.37,3.05,2.73,4.55,4.11l-1.05-0.07c1.8-1.51,3.58-3.05,5.4-4.55c0.37-0.31,0.89-0.31,1.27-0.04l0.05,0.04l5.69,4.17
								l-1.59,0.02l5.18-4.42c0.51-0.44,1.26-0.43,1.76-0.01l0.04,0.04c1.68,1.4,3.33,2.85,4.99,4.28l-1.96,0.03l4.61-4.36
								c0.55-0.52,1.41-0.54,1.98-0.06l5.23,4.36l-1.89,0.03c1.66-1.43,3.31-2.87,5-4.28l0.04-0.04c0.55-0.46,1.36-0.41,1.85,0.1
								l4.25,4.41l-1.72-0.08l5.38-4.18l0.05-0.04c0.39-0.3,0.91-0.29,1.28,0c1.92,1.49,3.81,3.04,5.71,4.56l-0.97,0.01
								c1.92-1.36,3.86-2.7,5.79-4.04l0.04-0.03c0.17-0.12,0.4-0.09,0.53,0.06c1.36,1.53,2.7,3.07,4.02,4.64
								c-1.56-1.33-3.11-2.67-4.64-4.02l0.57,0.04c-1.77,1.55-3.55,3.1-5.34,4.62c-0.26,0.22-0.64,0.24-0.91,0.05l-0.05-0.04
								c-2.01-1.37-4.05-2.71-6.04-4.1l1.33-0.04l-5.13,4.48c-0.49,0.42-1.21,0.4-1.67-0.04l-0.05-0.04l-4.41-4.25l1.9,0.06
								c-1.62,1.48-3.26,2.93-4.9,4.38c-0.54,0.48-1.34,0.48-1.88,0.04l-0.01-0.01l-5.28-4.3l1.98-0.06l-4.67,4.3l-0.01,0.01
								c-0.55,0.51-1.4,0.5-1.95,0.02c-1.64-1.46-3.29-2.9-4.91-4.38l1.81,0.03l-5.34,4.24l-0.05,0.04
								c-0.46,0.37-1.11,0.35-1.55-0.01l-5.44-4.49h1.31c-1.89,1.39-3.82,2.74-5.74,4.11l-0.05,0.04c-0.32,0.23-0.75,0.18-1-0.1
								c-1.39-1.5-2.74-3.03-4.11-4.55l0.64,0.04C1130.21,794.92,1128.25,796.24,1126.28,797.53z"/>
						</g>
						<g>
							<path class="st14" d="M1126.28,805.27c1.74-1.59,3.5-3.16,5.27-4.71c0.18-0.15,0.44-0.15,0.6,0l0.04,0.04
								c1.52,1.37,3.05,2.73,4.55,4.11l-1.05-0.07c1.8-1.51,3.58-3.05,5.4-4.55c0.37-0.31,0.89-0.31,1.27-0.04l0.05,0.04l5.69,4.17
								l-1.59,0.02l5.18-4.42c0.51-0.44,1.26-0.43,1.76-0.01l0.04,0.04c1.68,1.4,3.33,2.85,4.99,4.28l-1.96,0.03l4.61-4.36
								c0.55-0.52,1.41-0.54,1.98-0.06l5.23,4.36l-1.89,0.03c1.66-1.43,3.31-2.87,5-4.28l0.04-0.04c0.55-0.46,1.36-0.41,1.85,0.1
								l4.25,4.41l-1.72-0.08l5.38-4.18l0.05-0.04c0.39-0.3,0.91-0.29,1.28,0c1.92,1.49,3.81,3.04,5.71,4.56l-0.97,0.01
								c1.92-1.36,3.86-2.7,5.79-4.04l0.04-0.03c0.17-0.12,0.4-0.09,0.53,0.06c1.36,1.53,2.7,3.07,4.02,4.64
								c-1.56-1.33-3.11-2.67-4.64-4.02l0.57,0.04c-1.77,1.55-3.55,3.1-5.34,4.62c-0.26,0.22-0.64,0.24-0.91,0.05l-0.05-0.04
								c-2.01-1.37-4.05-2.71-6.04-4.1l1.33-0.04l-5.13,4.48c-0.49,0.42-1.21,0.4-1.67-0.04l-0.05-0.04l-4.41-4.25l1.9,0.06
								c-1.62,1.48-3.26,2.93-4.9,4.38c-0.54,0.48-1.34,0.48-1.88,0.04l-0.01-0.01l-5.28-4.3l1.98-0.06l-4.67,4.3l-0.01,0.01
								c-0.55,0.51-1.4,0.5-1.95,0.02c-1.64-1.46-3.29-2.9-4.91-4.38l1.81,0.03l-5.34,4.24l-0.05,0.04
								c-0.46,0.37-1.11,0.35-1.55-0.01l-5.44-4.49h1.31c-1.89,1.39-3.82,2.74-5.74,4.11l-0.05,0.04c-0.32,0.23-0.75,0.18-1-0.1
								c-1.39-1.5-2.74-3.03-4.11-4.55l0.64,0.04C1130.21,802.65,1128.25,803.97,1126.28,805.27z"/>
						</g>
					</g>
					<g>
						<g>
							<path class="st14" d="M1229.52,789.8c1.74-1.59,3.5-3.16,5.27-4.71c0.18-0.15,0.44-0.15,0.6,0l0.04,0.04
								c1.52,1.37,3.05,2.73,4.55,4.11l-1.05-0.07c1.8-1.51,3.58-3.05,5.4-4.55c0.37-0.31,0.89-0.31,1.27-0.04l0.05,0.04l5.69,4.17
								l-1.59,0.02l5.18-4.42c0.51-0.44,1.26-0.43,1.76-0.01l0.04,0.04c1.68,1.4,3.33,2.85,4.99,4.28l-1.96,0.03l4.61-4.36
								c0.55-0.52,1.41-0.54,1.98-0.06l5.23,4.36l-1.89,0.03c1.66-1.43,3.31-2.87,5-4.28l0.04-0.04c0.55-0.46,1.36-0.41,1.85,0.1
								l4.25,4.41l-1.72-0.08l5.38-4.18l0.05-0.04c0.39-0.3,0.91-0.29,1.28,0c1.92,1.49,3.81,3.04,5.71,4.56l-0.97,0.01
								c1.92-1.36,3.86-2.7,5.79-4.04l0.04-0.03c0.17-0.12,0.4-0.09,0.53,0.06c1.36,1.53,2.7,3.07,4.02,4.64
								c-1.56-1.33-3.11-2.67-4.64-4.02l0.57,0.04c-1.77,1.55-3.55,3.1-5.34,4.62c-0.26,0.22-0.64,0.24-0.91,0.05l-0.05-0.04
								c-2.01-1.37-4.05-2.71-6.04-4.1l1.33-0.04l-5.13,4.48c-0.49,0.42-1.21,0.4-1.67-0.04l-0.05-0.04l-4.41-4.25l1.9,0.06
								c-1.62,1.48-3.26,2.93-4.9,4.38c-0.54,0.48-1.34,0.48-1.88,0.04l-0.01-0.01l-5.28-4.3l1.98-0.06l-4.67,4.3l-0.01,0.01
								c-0.55,0.51-1.4,0.5-1.95,0.02c-1.64-1.46-3.29-2.9-4.91-4.38l1.81,0.03l-5.34,4.24l-0.05,0.04
								c-0.46,0.37-1.11,0.35-1.55-0.01l-5.44-4.49h1.31c-1.89,1.39-3.82,2.74-5.74,4.11l-0.05,0.04c-0.32,0.23-0.75,0.18-1-0.1
								c-1.39-1.5-2.74-3.03-4.11-4.55l0.64,0.04C1233.44,787.19,1231.49,788.51,1229.52,789.8z"/>
						</g>
						<g>
							<path class="st14" d="M1229.52,797.53c1.74-1.59,3.5-3.16,5.27-4.71c0.18-0.15,0.44-0.15,0.6,0l0.04,0.04
								c1.52,1.37,3.05,2.73,4.55,4.11l-1.05-0.07c1.8-1.51,3.58-3.05,5.4-4.55c0.37-0.31,0.89-0.31,1.27-0.04l0.05,0.04l5.69,4.17
								l-1.59,0.02l5.18-4.42c0.51-0.44,1.26-0.43,1.76-0.01l0.04,0.04c1.68,1.4,3.33,2.85,4.99,4.28l-1.96,0.03l4.61-4.36
								c0.55-0.52,1.41-0.54,1.98-0.06l5.23,4.36l-1.89,0.03c1.66-1.43,3.31-2.87,5-4.28l0.04-0.04c0.55-0.46,1.36-0.41,1.85,0.1
								l4.25,4.41l-1.72-0.08l5.38-4.18l0.05-0.04c0.39-0.3,0.91-0.29,1.28,0c1.92,1.49,3.81,3.04,5.71,4.56l-0.97,0.01
								c1.92-1.36,3.86-2.7,5.79-4.04l0.04-0.03c0.17-0.12,0.4-0.09,0.53,0.06c1.36,1.53,2.7,3.07,4.02,4.64
								c-1.56-1.33-3.11-2.67-4.64-4.02l0.57,0.04c-1.77,1.55-3.55,3.1-5.34,4.62c-0.26,0.22-0.64,0.24-0.91,0.05l-0.05-0.04
								c-2.01-1.37-4.05-2.71-6.04-4.1l1.33-0.04l-5.13,4.48c-0.49,0.42-1.21,0.4-1.67-0.04l-0.05-0.04l-4.41-4.25l1.9,0.06
								c-1.62,1.48-3.26,2.93-4.9,4.38c-0.54,0.48-1.34,0.48-1.88,0.04l-0.01-0.01l-5.28-4.3l1.98-0.06l-4.67,4.3l-0.01,0.01
								c-0.55,0.51-1.4,0.5-1.95,0.02c-1.64-1.46-3.29-2.9-4.91-4.38l1.81,0.03l-5.34,4.24l-0.05,0.04
								c-0.46,0.37-1.11,0.35-1.55-0.01l-5.44-4.49h1.31c-1.89,1.39-3.82,2.74-5.74,4.11l-0.05,0.04c-0.32,0.23-0.75,0.18-1-0.1
								c-1.39-1.5-2.74-3.03-4.11-4.55l0.64,0.04C1233.44,794.92,1231.49,796.24,1229.52,797.53z"/>
						</g>
						<g>
							<path class="st14" d="M1229.52,805.27c1.74-1.59,3.5-3.16,5.27-4.71c0.18-0.15,0.44-0.15,0.6,0l0.04,0.04
								c1.52,1.37,3.05,2.73,4.55,4.11l-1.05-0.07c1.8-1.51,3.58-3.05,5.4-4.55c0.37-0.31,0.89-0.31,1.27-0.04l0.05,0.04l5.69,4.17
								l-1.59,0.02l5.18-4.42c0.51-0.44,1.26-0.43,1.76-0.01l0.04,0.04c1.68,1.4,3.33,2.85,4.99,4.28l-1.96,0.03l4.61-4.36
								c0.55-0.52,1.41-0.54,1.98-0.06l5.23,4.36l-1.89,0.03c1.66-1.43,3.31-2.87,5-4.28l0.04-0.04c0.55-0.46,1.36-0.41,1.85,0.1
								l4.25,4.41l-1.72-0.08l5.38-4.18l0.05-0.04c0.39-0.3,0.91-0.29,1.28,0c1.92,1.49,3.81,3.04,5.71,4.56l-0.97,0.01
								c1.92-1.36,3.86-2.7,5.79-4.04l0.04-0.03c0.17-0.12,0.4-0.09,0.53,0.06c1.36,1.53,2.7,3.07,4.02,4.64
								c-1.56-1.33-3.11-2.67-4.64-4.02l0.57,0.04c-1.77,1.55-3.55,3.1-5.34,4.62c-0.26,0.22-0.64,0.24-0.91,0.05l-0.05-0.04
								c-2.01-1.37-4.05-2.71-6.04-4.1l1.33-0.04l-5.13,4.48c-0.49,0.42-1.21,0.4-1.67-0.04l-0.05-0.04l-4.41-4.25l1.9,0.06
								c-1.62,1.48-3.26,2.93-4.9,4.38c-0.54,0.48-1.34,0.48-1.88,0.04l-0.01-0.01l-5.28-4.3l1.98-0.06l-4.67,4.3l-0.01,0.01
								c-0.55,0.51-1.4,0.5-1.95,0.02c-1.64-1.46-3.29-2.9-4.91-4.38l1.81,0.03l-5.34,4.24l-0.05,0.04
								c-0.46,0.37-1.11,0.35-1.55-0.01l-5.44-4.49h1.31c-1.89,1.39-3.82,2.74-5.74,4.11l-0.05,0.04c-0.32,0.23-0.75,0.18-1-0.1
								c-1.39-1.5-2.74-3.03-4.11-4.55l0.64,0.04C1233.44,802.65,1231.49,803.97,1229.52,805.27z"/>
						</g>
					</g>
					<g>
						<g>
							<path class="st14" d="M1332.76,789.8c1.74-1.59,3.5-3.16,5.27-4.71c0.18-0.15,0.44-0.15,0.6,0l0.04,0.04
								c1.52,1.37,3.05,2.73,4.55,4.11l-1.05-0.07c1.8-1.51,3.58-3.05,5.4-4.55c0.37-0.31,0.89-0.31,1.27-0.04l0.05,0.04l5.69,4.17
								l-1.59,0.02l5.18-4.42c0.51-0.44,1.26-0.43,1.76-0.01l0.04,0.04c1.68,1.4,3.33,2.85,4.99,4.28l-1.96,0.03l4.61-4.36
								c0.55-0.52,1.41-0.54,1.98-0.06l5.23,4.36l-1.89,0.03c1.66-1.43,3.31-2.87,5-4.28l0.04-0.04c0.55-0.46,1.36-0.41,1.85,0.1
								l4.25,4.41l-1.72-0.08l5.38-4.18l0.05-0.04c0.39-0.3,0.91-0.29,1.28,0c1.92,1.49,3.81,3.04,5.71,4.56l-0.97,0.01
								c1.92-1.36,3.86-2.7,5.79-4.04l0.04-0.03c0.17-0.12,0.4-0.09,0.53,0.06c1.36,1.53,2.7,3.07,4.02,4.64
								c-1.56-1.33-3.11-2.67-4.64-4.02l0.57,0.04c-1.77,1.55-3.55,3.1-5.34,4.62c-0.26,0.22-0.64,0.24-0.91,0.05l-0.05-0.04
								c-2.01-1.37-4.05-2.71-6.04-4.1l1.33-0.04l-5.13,4.48c-0.49,0.42-1.21,0.4-1.67-0.04l-0.05-0.04l-4.41-4.25l1.9,0.06
								c-1.62,1.48-3.26,2.93-4.9,4.38c-0.54,0.48-1.34,0.48-1.88,0.04l-0.01-0.01l-5.28-4.3l1.98-0.06l-4.67,4.3l-0.01,0.01
								c-0.55,0.51-1.4,0.5-1.95,0.02c-1.64-1.46-3.29-2.9-4.91-4.38l1.81,0.03l-5.34,4.24l-0.05,0.04
								c-0.46,0.37-1.11,0.35-1.55-0.01l-5.44-4.49h1.31c-1.89,1.39-3.82,2.74-5.74,4.11l-0.05,0.04c-0.32,0.23-0.74,0.18-1-0.1
								c-1.39-1.5-2.74-3.03-4.11-4.55l0.64,0.04C1336.68,787.19,1334.73,788.51,1332.76,789.8z"/>
						</g>
						<g>
							<path class="st14" d="M1332.76,797.53c1.74-1.59,3.5-3.16,5.27-4.71c0.18-0.15,0.44-0.15,0.6,0l0.04,0.04
								c1.52,1.37,3.05,2.73,4.55,4.11l-1.05-0.07c1.8-1.51,3.58-3.05,5.4-4.55c0.37-0.31,0.89-0.31,1.27-0.04l0.05,0.04l5.69,4.17
								l-1.59,0.02l5.18-4.42c0.51-0.44,1.26-0.43,1.76-0.01l0.04,0.04c1.68,1.4,3.33,2.85,4.99,4.28l-1.96,0.03l4.61-4.36
								c0.55-0.52,1.41-0.54,1.98-0.06l5.23,4.36l-1.89,0.03c1.66-1.43,3.31-2.87,5-4.28l0.04-0.04c0.55-0.46,1.36-0.41,1.85,0.1
								l4.25,4.41l-1.72-0.08l5.38-4.18l0.05-0.04c0.39-0.3,0.91-0.29,1.28,0c1.92,1.49,3.81,3.04,5.71,4.56l-0.97,0.01
								c1.92-1.36,3.86-2.7,5.79-4.04l0.04-0.03c0.17-0.12,0.4-0.09,0.53,0.06c1.36,1.53,2.7,3.07,4.02,4.64
								c-1.56-1.33-3.11-2.67-4.64-4.02l0.57,0.04c-1.77,1.55-3.55,3.1-5.34,4.62c-0.26,0.22-0.64,0.24-0.91,0.05l-0.05-0.04
								c-2.01-1.37-4.05-2.71-6.04-4.1l1.33-0.04l-5.13,4.48c-0.49,0.42-1.21,0.4-1.67-0.04l-0.05-0.04l-4.41-4.25l1.9,0.06
								c-1.62,1.48-3.26,2.93-4.9,4.38c-0.54,0.48-1.34,0.48-1.88,0.04l-0.01-0.01l-5.28-4.3l1.98-0.06l-4.67,4.3l-0.01,0.01
								c-0.55,0.51-1.4,0.5-1.95,0.02c-1.64-1.46-3.29-2.9-4.91-4.38l1.81,0.03l-5.34,4.24l-0.05,0.04
								c-0.46,0.37-1.11,0.35-1.55-0.01l-5.44-4.49h1.31c-1.89,1.39-3.82,2.74-5.74,4.11l-0.05,0.04c-0.32,0.23-0.74,0.18-1-0.1
								c-1.39-1.5-2.74-3.03-4.11-4.55l0.64,0.04C1336.68,794.92,1334.73,796.24,1332.76,797.53z"/>
						</g>
						<g>
							<path class="st14" d="M1332.76,805.27c1.74-1.59,3.5-3.16,5.27-4.71c0.18-0.15,0.44-0.15,0.6,0l0.04,0.04
								c1.52,1.37,3.05,2.73,4.55,4.11l-1.05-0.07c1.8-1.51,3.58-3.05,5.4-4.55c0.37-0.31,0.89-0.31,1.27-0.04l0.05,0.04l5.69,4.17
								l-1.59,0.02l5.18-4.42c0.51-0.44,1.26-0.43,1.76-0.01l0.04,0.04c1.68,1.4,3.33,2.85,4.99,4.28l-1.96,0.03l4.61-4.36
								c0.55-0.52,1.41-0.54,1.98-0.06l5.23,4.36l-1.89,0.03c1.66-1.43,3.31-2.87,5-4.28l0.04-0.04c0.55-0.46,1.36-0.41,1.85,0.1
								l4.25,4.41l-1.72-0.08l5.38-4.18l0.05-0.04c0.39-0.3,0.91-0.29,1.28,0c1.92,1.49,3.81,3.04,5.71,4.56l-0.97,0.01
								c1.92-1.36,3.86-2.7,5.79-4.04l0.04-0.03c0.17-0.12,0.4-0.09,0.53,0.06c1.36,1.53,2.7,3.07,4.02,4.64
								c-1.56-1.33-3.11-2.67-4.64-4.02l0.57,0.04c-1.77,1.55-3.55,3.1-5.34,4.62c-0.26,0.22-0.64,0.24-0.91,0.05l-0.05-0.04
								c-2.01-1.37-4.05-2.71-6.04-4.1l1.33-0.04l-5.13,4.48c-0.49,0.42-1.21,0.4-1.67-0.04l-0.05-0.04l-4.41-4.25l1.9,0.06
								c-1.62,1.48-3.26,2.93-4.9,4.38c-0.54,0.48-1.34,0.48-1.88,0.04l-0.01-0.01l-5.28-4.3l1.98-0.06l-4.67,4.3l-0.01,0.01
								c-0.55,0.51-1.4,0.5-1.95,0.02c-1.64-1.46-3.29-2.9-4.91-4.38l1.81,0.03l-5.34,4.24l-0.05,0.04
								c-0.46,0.37-1.11,0.35-1.55-0.01l-5.44-4.49h1.31c-1.89,1.39-3.82,2.74-5.74,4.11l-0.05,0.04c-0.32,0.23-0.74,0.18-1-0.1
								c-1.39-1.5-2.74-3.03-4.11-4.55l0.64,0.04C1336.68,802.65,1334.73,803.97,1332.76,805.27z"/>
						</g>
					</g>
					<g>
						<g>
							<path class="st14" d="M1436,789.8c1.74-1.59,3.5-3.16,5.27-4.71c0.18-0.15,0.44-0.15,0.6,0l0.04,0.04
								c1.52,1.37,3.05,2.73,4.55,4.11l-1.05-0.07c1.8-1.51,3.58-3.05,5.4-4.55c0.37-0.31,0.89-0.31,1.27-0.04l0.05,0.04l5.69,4.17
								l-1.59,0.02l5.18-4.42c0.51-0.44,1.26-0.43,1.76-0.01l0.04,0.04c1.68,1.4,3.33,2.85,4.99,4.28l-1.96,0.03l4.61-4.36
								c0.55-0.52,1.41-0.54,1.98-0.06l5.23,4.36l-1.89,0.03c1.66-1.43,3.31-2.87,5-4.28l0.04-0.04c0.55-0.46,1.36-0.41,1.85,0.1
								l4.25,4.41l-1.72-0.08l5.38-4.18l0.05-0.04c0.39-0.3,0.91-0.29,1.28,0c1.92,1.49,3.81,3.04,5.71,4.56l-0.97,0.01
								c1.92-1.36,3.86-2.7,5.79-4.04l0.04-0.03c0.17-0.12,0.4-0.09,0.53,0.06c1.36,1.53,2.7,3.07,4.02,4.64
								c-1.56-1.33-3.11-2.67-4.64-4.02l0.57,0.04c-1.77,1.55-3.55,3.1-5.34,4.62c-0.26,0.22-0.64,0.24-0.91,0.05l-0.05-0.04
								c-2.01-1.37-4.05-2.71-6.04-4.1l1.33-0.04l-5.13,4.48c-0.49,0.42-1.21,0.4-1.67-0.04l-0.05-0.04l-4.41-4.25l1.9,0.06
								c-1.62,1.48-3.26,2.93-4.9,4.38c-0.54,0.48-1.34,0.48-1.88,0.04l-0.01-0.01l-5.28-4.3l1.98-0.06l-4.67,4.3l-0.01,0.01
								c-0.55,0.51-1.4,0.5-1.95,0.02c-1.64-1.46-3.29-2.9-4.91-4.38l1.81,0.03l-5.34,4.24l-0.05,0.04
								c-0.46,0.37-1.11,0.35-1.55-0.01l-5.44-4.49h1.31c-1.89,1.39-3.82,2.74-5.74,4.11l-0.05,0.04c-0.32,0.23-0.75,0.18-1-0.1
								c-1.39-1.5-2.74-3.03-4.11-4.55l0.64,0.04C1439.92,787.19,1437.97,788.51,1436,789.8z"/>
						</g>
						<g>
							<path class="st14" d="M1436,797.53c1.74-1.59,3.5-3.16,5.27-4.71c0.18-0.15,0.44-0.15,0.6,0l0.04,0.04
								c1.52,1.37,3.05,2.73,4.55,4.11l-1.05-0.07c1.8-1.51,3.58-3.05,5.4-4.55c0.37-0.31,0.89-0.31,1.27-0.04l0.05,0.04l5.69,4.17
								l-1.59,0.02l5.18-4.42c0.51-0.44,1.26-0.43,1.76-0.01l0.04,0.04c1.68,1.4,3.33,2.85,4.99,4.28l-1.96,0.03l4.61-4.36
								c0.55-0.52,1.41-0.54,1.98-0.06l5.23,4.36l-1.89,0.03c1.66-1.43,3.31-2.87,5-4.28l0.04-0.04c0.55-0.46,1.36-0.41,1.85,0.1
								l4.25,4.41l-1.72-0.08l5.38-4.18l0.05-0.04c0.39-0.3,0.91-0.29,1.28,0c1.92,1.49,3.81,3.04,5.71,4.56l-0.97,0.01
								c1.92-1.36,3.86-2.7,5.79-4.04l0.04-0.03c0.17-0.12,0.4-0.09,0.53,0.06c1.36,1.53,2.7,3.07,4.02,4.64
								c-1.56-1.33-3.11-2.67-4.64-4.02l0.57,0.04c-1.77,1.55-3.55,3.1-5.34,4.62c-0.26,0.22-0.64,0.24-0.91,0.05l-0.05-0.04
								c-2.01-1.37-4.05-2.71-6.04-4.1l1.33-0.04l-5.13,4.48c-0.49,0.42-1.21,0.4-1.67-0.04l-0.05-0.04l-4.41-4.25l1.9,0.06
								c-1.62,1.48-3.26,2.93-4.9,4.38c-0.54,0.48-1.34,0.48-1.88,0.04l-0.01-0.01l-5.28-4.3l1.98-0.06l-4.67,4.3l-0.01,0.01
								c-0.55,0.51-1.4,0.5-1.95,0.02c-1.64-1.46-3.29-2.9-4.91-4.38l1.81,0.03l-5.34,4.24l-0.05,0.04
								c-0.46,0.37-1.11,0.35-1.55-0.01l-5.44-4.49h1.31c-1.89,1.39-3.82,2.74-5.74,4.11l-0.05,0.04c-0.32,0.23-0.75,0.18-1-0.1
								c-1.39-1.5-2.74-3.03-4.11-4.55l0.64,0.04C1439.92,794.92,1437.97,796.24,1436,797.53z"/>
						</g>
						<g>
							<path class="st14" d="M1436,805.27c1.74-1.59,3.5-3.16,5.27-4.71c0.18-0.15,0.44-0.15,0.6,0l0.04,0.04
								c1.52,1.37,3.05,2.73,4.55,4.11l-1.05-0.07c1.8-1.51,3.58-3.05,5.4-4.55c0.37-0.31,0.89-0.31,1.27-0.04l0.05,0.04l5.69,4.17
								l-1.59,0.02l5.18-4.42c0.51-0.44,1.26-0.43,1.76-0.01l0.04,0.04c1.68,1.4,3.33,2.85,4.99,4.28l-1.96,0.03l4.61-4.36
								c0.55-0.52,1.41-0.54,1.98-0.06l5.23,4.36l-1.89,0.03c1.66-1.43,3.31-2.87,5-4.28l0.04-0.04c0.55-0.46,1.36-0.41,1.85,0.1
								l4.25,4.41l-1.72-0.08l5.38-4.18l0.05-0.04c0.39-0.3,0.91-0.29,1.28,0c1.92,1.49,3.81,3.04,5.71,4.56l-0.97,0.01
								c1.92-1.36,3.86-2.7,5.79-4.04l0.04-0.03c0.17-0.12,0.4-0.09,0.53,0.06c1.36,1.53,2.7,3.07,4.02,4.64
								c-1.56-1.33-3.11-2.67-4.64-4.02l0.57,0.04c-1.77,1.55-3.55,3.1-5.34,4.62c-0.26,0.22-0.64,0.24-0.91,0.05l-0.05-0.04
								c-2.01-1.37-4.05-2.71-6.04-4.1l1.33-0.04l-5.13,4.48c-0.49,0.42-1.21,0.4-1.67-0.04l-0.05-0.04l-4.41-4.25l1.9,0.06
								c-1.62,1.48-3.26,2.93-4.9,4.38c-0.54,0.48-1.34,0.48-1.88,0.04l-0.01-0.01l-5.28-4.3l1.98-0.06l-4.67,4.3l-0.01,0.01
								c-0.55,0.51-1.4,0.5-1.95,0.02c-1.64-1.46-3.29-2.9-4.91-4.38l1.81,0.03l-5.34,4.24l-0.05,0.04
								c-0.46,0.37-1.11,0.35-1.55-0.01l-5.44-4.49h1.31c-1.89,1.39-3.82,2.74-5.74,4.11l-0.05,0.04c-0.32,0.23-0.75,0.18-1-0.1
								c-1.39-1.5-2.74-3.03-4.11-4.55l0.64,0.04C1439.92,802.65,1437.97,803.97,1436,805.27z"/>
						</g>
					</g>
					<g>
						<g>
							<path class="st14" d="M1539.24,789.8c1.74-1.59,3.5-3.16,5.27-4.71c0.18-0.15,0.44-0.15,0.6,0l0.04,0.04
								c1.52,1.37,3.05,2.73,4.55,4.11l-1.05-0.07c1.8-1.51,3.58-3.05,5.4-4.55c0.37-0.31,0.89-0.31,1.27-0.04l0.05,0.04l5.69,4.17
								l-1.59,0.02l5.18-4.42c0.51-0.44,1.26-0.43,1.76-0.01l0.04,0.04c1.68,1.4,3.33,2.85,4.99,4.28l-1.96,0.03l4.61-4.36
								c0.55-0.52,1.41-0.54,1.98-0.06l5.23,4.36l-1.89,0.03c1.66-1.43,3.31-2.87,5-4.28l0.04-0.04c0.55-0.46,1.36-0.41,1.85,0.1
								l4.25,4.41l-1.72-0.08l5.38-4.18l0.05-0.04c0.39-0.3,0.91-0.29,1.28,0c1.92,1.49,3.81,3.04,5.71,4.56l-0.97,0.01
								c1.92-1.36,3.86-2.7,5.79-4.04l0.04-0.03c0.17-0.12,0.4-0.09,0.53,0.06c1.36,1.53,2.7,3.07,4.02,4.64
								c-1.56-1.33-3.11-2.67-4.64-4.02l0.57,0.04c-1.77,1.55-3.55,3.1-5.34,4.62c-0.26,0.22-0.64,0.24-0.91,0.05l-0.05-0.04
								c-2.01-1.37-4.05-2.71-6.04-4.1l1.33-0.04l-5.13,4.48c-0.49,0.42-1.21,0.4-1.67-0.04l-0.05-0.04l-4.41-4.25l1.9,0.06
								c-1.62,1.48-3.26,2.93-4.9,4.38c-0.54,0.48-1.34,0.48-1.88,0.04l-0.01-0.01l-5.28-4.3l1.98-0.06l-4.67,4.3l-0.01,0.01
								c-0.55,0.51-1.4,0.5-1.95,0.02c-1.64-1.46-3.29-2.9-4.91-4.38l1.81,0.03l-5.34,4.24l-0.05,0.04
								c-0.46,0.37-1.11,0.35-1.55-0.01l-5.44-4.49h1.31c-1.89,1.39-3.82,2.74-5.74,4.11l-0.05,0.04c-0.32,0.23-0.75,0.18-1-0.1
								c-1.39-1.5-2.74-3.03-4.11-4.55l0.64,0.04C1543.16,787.19,1541.21,788.51,1539.24,789.8z"/>
						</g>
						<g>
							<path class="st14" d="M1539.24,797.53c1.74-1.59,3.5-3.16,5.27-4.71c0.18-0.15,0.44-0.15,0.6,0l0.04,0.04
								c1.52,1.37,3.05,2.73,4.55,4.11l-1.05-0.07c1.8-1.51,3.58-3.05,5.4-4.55c0.37-0.31,0.89-0.31,1.27-0.04l0.05,0.04l5.69,4.17
								l-1.59,0.02l5.18-4.42c0.51-0.44,1.26-0.43,1.76-0.01l0.04,0.04c1.68,1.4,3.33,2.85,4.99,4.28l-1.96,0.03l4.61-4.36
								c0.55-0.52,1.41-0.54,1.98-0.06l5.23,4.36l-1.89,0.03c1.66-1.43,3.31-2.87,5-4.28l0.04-0.04c0.55-0.46,1.36-0.41,1.85,0.1
								l4.25,4.41l-1.72-0.08l5.38-4.18l0.05-0.04c0.39-0.3,0.91-0.29,1.28,0c1.92,1.49,3.81,3.04,5.71,4.56l-0.97,0.01
								c1.92-1.36,3.86-2.7,5.79-4.04l0.04-0.03c0.17-0.12,0.4-0.09,0.53,0.06c1.36,1.53,2.7,3.07,4.02,4.64
								c-1.56-1.33-3.11-2.67-4.64-4.02l0.57,0.04c-1.77,1.55-3.55,3.1-5.34,4.62c-0.26,0.22-0.64,0.24-0.91,0.05l-0.05-0.04
								c-2.01-1.37-4.05-2.71-6.04-4.1l1.33-0.04l-5.13,4.48c-0.49,0.42-1.21,0.4-1.67-0.04l-0.05-0.04l-4.41-4.25l1.9,0.06
								c-1.62,1.48-3.26,2.93-4.9,4.38c-0.54,0.48-1.34,0.48-1.88,0.04l-0.01-0.01l-5.28-4.3l1.98-0.06l-4.67,4.3l-0.01,0.01
								c-0.55,0.51-1.4,0.5-1.95,0.02c-1.64-1.46-3.29-2.9-4.91-4.38l1.81,0.03l-5.34,4.24l-0.05,0.04
								c-0.46,0.37-1.11,0.35-1.55-0.01l-5.44-4.49h1.31c-1.89,1.39-3.82,2.74-5.74,4.11l-0.05,0.04c-0.32,0.23-0.75,0.18-1-0.1
								c-1.39-1.5-2.74-3.03-4.11-4.55l0.64,0.04C1543.16,794.92,1541.21,796.24,1539.24,797.53z"/>
						</g>
						<g>
							<path class="st14" d="M1539.24,805.27c1.74-1.59,3.5-3.16,5.27-4.71c0.18-0.15,0.44-0.15,0.6,0l0.04,0.04
								c1.52,1.37,3.05,2.73,4.55,4.11l-1.05-0.07c1.8-1.51,3.58-3.05,5.4-4.55c0.37-0.31,0.89-0.31,1.27-0.04l0.05,0.04l5.69,4.17
								l-1.59,0.02l5.18-4.42c0.51-0.44,1.26-0.43,1.76-0.01l0.04,0.04c1.68,1.4,3.33,2.85,4.99,4.28l-1.96,0.03l4.61-4.36
								c0.55-0.52,1.41-0.54,1.98-0.06l5.23,4.36l-1.89,0.03c1.66-1.43,3.31-2.87,5-4.28l0.04-0.04c0.55-0.46,1.36-0.41,1.85,0.1
								l4.25,4.41l-1.72-0.08l5.38-4.18l0.05-0.04c0.39-0.3,0.91-0.29,1.28,0c1.92,1.49,3.81,3.04,5.71,4.56l-0.97,0.01
								c1.92-1.36,3.86-2.7,5.79-4.04l0.04-0.03c0.17-0.12,0.4-0.09,0.53,0.06c1.36,1.53,2.7,3.07,4.02,4.64
								c-1.56-1.33-3.11-2.67-4.64-4.02l0.57,0.04c-1.77,1.55-3.55,3.1-5.34,4.62c-0.26,0.22-0.64,0.24-0.91,0.05l-0.05-0.04
								c-2.01-1.37-4.05-2.71-6.04-4.1l1.33-0.04l-5.13,4.48c-0.49,0.42-1.21,0.4-1.67-0.04l-0.05-0.04l-4.41-4.25l1.9,0.06
								c-1.62,1.48-3.26,2.93-4.9,4.38c-0.54,0.48-1.34,0.48-1.88,0.04l-0.01-0.01l-5.28-4.3l1.98-0.06l-4.67,4.3l-0.01,0.01
								c-0.55,0.51-1.4,0.5-1.95,0.02c-1.64-1.46-3.29-2.9-4.91-4.38l1.81,0.03l-5.34,4.24l-0.05,0.04
								c-0.46,0.37-1.11,0.35-1.55-0.01l-5.44-4.49h1.31c-1.89,1.39-3.82,2.74-5.74,4.11l-0.05,0.04c-0.32,0.23-0.75,0.18-1-0.1
								c-1.39-1.5-2.74-3.03-4.11-4.55l0.64,0.04C1543.16,802.65,1541.21,803.97,1539.24,805.27z"/>
						</g>
					</g>
					<g>
						<g>
							<path class="st14" d="M1745.72,791.8c1.74-1.59,3.5-3.16,5.27-4.71c0.18-0.15,0.44-0.15,0.6,0l0.04,0.04
								c1.52,1.37,3.05,2.73,4.55,4.11l-1.05-0.07c1.8-1.51,3.58-3.05,5.4-4.55c0.37-0.31,0.89-0.31,1.27-0.04l0.05,0.04l5.69,4.17
								l-1.59,0.02l5.18-4.42c0.51-0.44,1.26-0.43,1.76-0.01l0.04,0.04c1.68,1.4,3.33,2.85,4.99,4.28l-1.96,0.03l4.61-4.36
								c0.55-0.52,1.41-0.54,1.98-0.06l5.23,4.36l-1.89,0.03c1.66-1.43,3.31-2.87,5-4.28l0.04-0.04c0.55-0.46,1.36-0.41,1.85,0.1
								l4.25,4.41l-1.72-0.08l5.38-4.18l0.05-0.04c0.39-0.3,0.91-0.29,1.28,0c1.92,1.49,3.81,3.04,5.71,4.56l-0.97,0.01
								c1.92-1.36,3.86-2.7,5.79-4.04l0.04-0.03c0.17-0.12,0.4-0.09,0.53,0.06c1.36,1.53,2.7,3.07,4.02,4.64
								c-1.56-1.33-3.11-2.67-4.64-4.02l0.57,0.04c-1.77,1.55-3.55,3.1-5.34,4.62c-0.26,0.22-0.64,0.24-0.91,0.05l-0.05-0.04
								c-2.01-1.37-4.05-2.71-6.04-4.1l1.33-0.04l-5.13,4.48c-0.49,0.42-1.21,0.4-1.67-0.04l-0.05-0.04l-4.41-4.25l1.9,0.06
								c-1.62,1.48-3.26,2.93-4.9,4.38c-0.54,0.48-1.34,0.48-1.88,0.04l-0.01-0.01l-5.28-4.3l1.98-0.06l-4.67,4.3l-0.01,0.01
								c-0.55,0.51-1.4,0.5-1.95,0.02c-1.64-1.46-3.29-2.9-4.91-4.38l1.81,0.03l-5.34,4.24l-0.05,0.04
								c-0.46,0.37-1.11,0.35-1.55-0.01l-5.44-4.49h1.31c-1.89,1.39-3.82,2.74-5.74,4.11l-0.05,0.04c-0.32,0.23-0.75,0.18-1-0.1
								c-1.39-1.5-2.74-3.03-4.11-4.55l0.64,0.04C1749.64,789.19,1747.69,790.51,1745.72,791.8z"/>
						</g>
						<g>
							<path class="st14" d="M1745.72,799.53c1.74-1.59,3.5-3.16,5.27-4.71c0.18-0.15,0.44-0.15,0.6,0l0.04,0.04
								c1.52,1.37,3.05,2.73,4.55,4.11l-1.05-0.07c1.8-1.51,3.58-3.05,5.4-4.55c0.37-0.31,0.89-0.31,1.27-0.04l0.05,0.04l5.69,4.17
								l-1.59,0.02l5.18-4.42c0.51-0.44,1.26-0.43,1.76-0.01l0.04,0.04c1.68,1.4,3.33,2.85,4.99,4.28l-1.96,0.03l4.61-4.36
								c0.55-0.52,1.41-0.54,1.98-0.06l5.23,4.36l-1.89,0.03c1.66-1.43,3.31-2.87,5-4.28l0.04-0.04c0.55-0.46,1.36-0.41,1.85,0.1
								l4.25,4.41l-1.72-0.08l5.38-4.18l0.05-0.04c0.39-0.3,0.91-0.29,1.28,0c1.92,1.49,3.81,3.04,5.71,4.56l-0.97,0.01
								c1.92-1.36,3.86-2.7,5.79-4.04l0.04-0.03c0.17-0.12,0.4-0.09,0.53,0.06c1.36,1.53,2.7,3.07,4.02,4.64
								c-1.56-1.33-3.11-2.67-4.64-4.02l0.57,0.04c-1.77,1.55-3.55,3.1-5.34,4.62c-0.26,0.22-0.64,0.24-0.91,0.05l-0.05-0.04
								c-2.01-1.37-4.05-2.71-6.04-4.1l1.33-0.04l-5.13,4.48c-0.49,0.42-1.21,0.4-1.67-0.04l-0.05-0.04l-4.41-4.25l1.9,0.06
								c-1.62,1.48-3.26,2.93-4.9,4.38c-0.54,0.48-1.34,0.48-1.88,0.04l-0.01-0.01l-5.28-4.3l1.98-0.06l-4.67,4.3l-0.01,0.01
								c-0.55,0.51-1.4,0.5-1.95,0.02c-1.64-1.46-3.29-2.9-4.91-4.38l1.81,0.03l-5.34,4.24l-0.05,0.04
								c-0.46,0.37-1.11,0.35-1.55-0.01l-5.44-4.49h1.31c-1.89,1.39-3.82,2.74-5.74,4.11l-0.05,0.04c-0.32,0.23-0.75,0.18-1-0.1
								c-1.39-1.5-2.74-3.03-4.11-4.55l0.64,0.04C1749.64,796.92,1747.69,798.24,1745.72,799.53z"/>
						</g>
						<g>
							<path class="st14" d="M1745.72,807.26c1.74-1.59,3.5-3.16,5.27-4.71c0.18-0.15,0.44-0.15,0.6,0l0.04,0.04
								c1.52,1.37,3.05,2.73,4.55,4.11l-1.05-0.07c1.8-1.51,3.58-3.05,5.4-4.55c0.37-0.31,0.89-0.31,1.27-0.04l0.05,0.04l5.69,4.17
								l-1.59,0.02l5.18-4.42c0.51-0.44,1.26-0.43,1.76-0.01l0.04,0.04c1.68,1.4,3.33,2.85,4.99,4.28l-1.96,0.03l4.61-4.36
								c0.55-0.52,1.41-0.54,1.98-0.06l5.23,4.36l-1.89,0.03c1.66-1.43,3.31-2.87,5-4.28l0.04-0.04c0.55-0.46,1.36-0.41,1.85,0.1
								l4.25,4.41l-1.72-0.08l5.38-4.18l0.05-0.04c0.39-0.3,0.91-0.29,1.28,0c1.92,1.49,3.81,3.04,5.71,4.56l-0.97,0.01
								c1.92-1.36,3.86-2.7,5.79-4.04l0.04-0.03c0.17-0.12,0.4-0.09,0.53,0.06c1.36,1.53,2.7,3.07,4.02,4.64
								c-1.56-1.33-3.11-2.67-4.64-4.02l0.57,0.04c-1.77,1.55-3.55,3.1-5.34,4.62c-0.26,0.22-0.64,0.24-0.91,0.05l-0.05-0.04
								c-2.01-1.37-4.05-2.71-6.04-4.1l1.33-0.04l-5.13,4.48c-0.49,0.42-1.21,0.4-1.67-0.04l-0.05-0.04l-4.41-4.25l1.9,0.06
								c-1.62,1.48-3.26,2.93-4.9,4.38c-0.54,0.48-1.34,0.48-1.88,0.04l-0.01-0.01l-5.28-4.3l1.98-0.06l-4.67,4.3l-0.01,0.01
								c-0.55,0.51-1.4,0.5-1.95,0.02c-1.64-1.46-3.29-2.9-4.91-4.38l1.81,0.03l-5.34,4.24l-0.05,0.04
								c-0.46,0.37-1.11,0.35-1.55-0.01l-5.44-4.49h1.31c-1.89,1.39-3.82,2.74-5.74,4.11l-0.05,0.04c-0.32,0.23-0.75,0.18-1-0.1
								c-1.39-1.5-2.74-3.03-4.11-4.55l0.64,0.04C1749.64,804.65,1747.69,805.97,1745.72,807.26z"/>
						</g>
					</g>
					<g>
						<g>
							<path class="st14" d="M1642.48,791.8c1.74-1.59,3.5-3.16,5.27-4.71c0.18-0.15,0.44-0.15,0.6,0l0.04,0.04
								c1.52,1.37,3.05,2.73,4.55,4.11l-1.05-0.07c1.8-1.51,3.58-3.05,5.4-4.55c0.37-0.31,0.89-0.31,1.27-0.04l0.05,0.04l5.69,4.17
								l-1.59,0.02l5.18-4.42c0.51-0.44,1.26-0.43,1.76-0.01l0.04,0.04c1.68,1.4,3.33,2.85,4.99,4.28l-1.96,0.03l4.61-4.36
								c0.55-0.52,1.41-0.54,1.98-0.06l5.23,4.36l-1.89,0.03c1.66-1.43,3.31-2.87,5-4.28l0.04-0.04c0.55-0.46,1.36-0.41,1.85,0.1
								l4.25,4.41l-1.72-0.08l5.38-4.18l0.05-0.04c0.39-0.3,0.91-0.29,1.28,0c1.92,1.49,3.81,3.04,5.71,4.56l-0.97,0.01
								c1.92-1.36,3.86-2.7,5.79-4.04l0.04-0.03c0.17-0.12,0.4-0.09,0.53,0.06c1.36,1.53,2.7,3.07,4.02,4.64
								c-1.56-1.33-3.11-2.67-4.64-4.02l0.57,0.04c-1.77,1.55-3.55,3.1-5.34,4.62c-0.26,0.22-0.64,0.24-0.91,0.05l-0.05-0.04
								c-2.01-1.37-4.05-2.71-6.04-4.1l1.33-0.04l-5.13,4.48c-0.49,0.42-1.21,0.4-1.67-0.04l-0.05-0.04l-4.41-4.25l1.9,0.06
								c-1.62,1.48-3.26,2.93-4.9,4.38c-0.54,0.48-1.34,0.48-1.88,0.04l-0.01-0.01l-5.28-4.3l1.98-0.06l-4.67,4.3l-0.01,0.01
								c-0.55,0.51-1.4,0.5-1.95,0.02c-1.64-1.46-3.29-2.9-4.91-4.38l1.81,0.03l-5.34,4.24l-0.05,0.04
								c-0.46,0.37-1.11,0.35-1.55-0.01l-5.44-4.49h1.31c-1.89,1.39-3.82,2.74-5.74,4.11l-0.05,0.04c-0.32,0.23-0.74,0.18-1-0.1
								c-1.39-1.5-2.74-3.03-4.11-4.55l0.64,0.04C1646.4,789.19,1644.45,790.51,1642.48,791.8z"/>
						</g>
						<g>
							<path class="st14" d="M1642.48,799.53c1.74-1.59,3.5-3.16,5.27-4.71c0.18-0.15,0.44-0.15,0.6,0l0.04,0.04
								c1.52,1.37,3.05,2.73,4.55,4.11l-1.05-0.07c1.8-1.51,3.58-3.05,5.4-4.55c0.37-0.31,0.89-0.31,1.27-0.04l0.05,0.04l5.69,4.17
								l-1.59,0.02l5.18-4.42c0.51-0.44,1.26-0.43,1.76-0.01l0.04,0.04c1.68,1.4,3.33,2.85,4.99,4.28l-1.96,0.03l4.61-4.36
								c0.55-0.52,1.41-0.54,1.98-0.06l5.23,4.36l-1.89,0.03c1.66-1.43,3.31-2.87,5-4.28l0.04-0.04c0.55-0.46,1.36-0.41,1.85,0.1
								l4.25,4.41l-1.72-0.08l5.38-4.18l0.05-0.04c0.39-0.3,0.91-0.29,1.28,0c1.92,1.49,3.81,3.04,5.71,4.56l-0.97,0.01
								c1.92-1.36,3.86-2.7,5.79-4.04l0.04-0.03c0.17-0.12,0.4-0.09,0.53,0.06c1.36,1.53,2.7,3.07,4.02,4.64
								c-1.56-1.33-3.11-2.67-4.64-4.02l0.57,0.04c-1.77,1.55-3.55,3.1-5.34,4.62c-0.26,0.22-0.64,0.24-0.91,0.05l-0.05-0.04
								c-2.01-1.37-4.05-2.71-6.04-4.1l1.33-0.04l-5.13,4.48c-0.49,0.42-1.21,0.4-1.67-0.04l-0.05-0.04l-4.41-4.25l1.9,0.06
								c-1.62,1.48-3.26,2.93-4.9,4.38c-0.54,0.48-1.34,0.48-1.88,0.04l-0.01-0.01l-5.28-4.3l1.98-0.06l-4.67,4.3l-0.01,0.01
								c-0.55,0.51-1.4,0.5-1.95,0.02c-1.64-1.46-3.29-2.9-4.91-4.38l1.81,0.03l-5.34,4.24l-0.05,0.04
								c-0.46,0.37-1.11,0.35-1.55-0.01l-5.44-4.49h1.31c-1.89,1.39-3.82,2.74-5.74,4.11l-0.05,0.04c-0.32,0.23-0.74,0.18-1-0.1
								c-1.39-1.5-2.74-3.03-4.11-4.55l0.64,0.04C1646.4,796.92,1644.45,798.24,1642.48,799.53z"/>
						</g>
						<g>
							<path class="st14" d="M1642.48,807.26c1.74-1.59,3.5-3.16,5.27-4.71c0.18-0.15,0.44-0.15,0.6,0l0.04,0.04
								c1.52,1.37,3.05,2.73,4.55,4.11l-1.05-0.07c1.8-1.51,3.58-3.05,5.4-4.55c0.37-0.31,0.89-0.31,1.27-0.04l0.05,0.04l5.69,4.17
								l-1.59,0.02l5.18-4.42c0.51-0.44,1.26-0.43,1.76-0.01l0.04,0.04c1.68,1.4,3.33,2.85,4.99,4.28l-1.96,0.03l4.61-4.36
								c0.55-0.52,1.41-0.54,1.98-0.06l5.23,4.36l-1.89,0.03c1.66-1.43,3.31-2.87,5-4.28l0.04-0.04c0.55-0.46,1.36-0.41,1.85,0.1
								l4.25,4.41l-1.72-0.08l5.38-4.18l0.05-0.04c0.39-0.3,0.91-0.29,1.28,0c1.92,1.49,3.81,3.04,5.71,4.56l-0.97,0.01
								c1.92-1.36,3.86-2.7,5.79-4.04l0.04-0.03c0.17-0.12,0.4-0.09,0.53,0.06c1.36,1.53,2.7,3.07,4.02,4.64
								c-1.56-1.33-3.11-2.67-4.64-4.02l0.57,0.04c-1.77,1.55-3.55,3.1-5.34,4.62c-0.26,0.22-0.64,0.24-0.91,0.05l-0.05-0.04
								c-2.01-1.37-4.05-2.71-6.04-4.1l1.33-0.04l-5.13,4.48c-0.49,0.42-1.21,0.4-1.67-0.04l-0.05-0.04l-4.41-4.25l1.9,0.06
								c-1.62,1.48-3.26,2.93-4.9,4.38c-0.54,0.48-1.34,0.48-1.88,0.04l-0.01-0.01l-5.28-4.3l1.98-0.06l-4.67,4.3l-0.01,0.01
								c-0.55,0.51-1.4,0.5-1.95,0.02c-1.64-1.46-3.29-2.9-4.91-4.38l1.81,0.03l-5.34,4.24l-0.05,0.04
								c-0.46,0.37-1.11,0.35-1.55-0.01l-5.44-4.49h1.31c-1.89,1.39-3.82,2.74-5.74,4.11l-0.05,0.04c-0.32,0.23-0.74,0.18-1-0.1
								c-1.39-1.5-2.74-3.03-4.11-4.55l0.64,0.04C1646.4,804.65,1644.45,805.97,1642.48,807.26z"/>
						</g>
					</g>
				</g>
			</g>
		</g>
	</g>
	<path class="st22" d="M1781.72,511.8c-6.37,0-12.18,1.8-16.62,4.77c-2.34-6.61-9.14-11.81-17.79-13.59
		c0.01-0.22,0.02-0.45,0.02-0.67c0-10.66-11.32-19.31-25.28-19.31c-13.96,0-25.28,8.64-25.28,19.31c-10.62,0-19.7,5-23.44,12.08
		c-2.53-0.65-5.24-1.01-8.05-1.01c-13.96,0-25.28,8.64-25.28,19.31c0,10.66,11.32,19.31,25.28,19.31l116.44-1.58
		c13.96,0,25.28-8.64,25.28-19.31S1795.68,511.8,1781.72,511.8z"/>
	<path class="st22" d="M336.79,88.6c-8.62,0-16.48,2.44-22.5,6.45c-3.16-8.94-12.37-15.98-24.08-18.4c0.01-0.3,0.03-0.6,0.03-0.91
		c0-14.43-15.32-26.13-34.21-26.13s-34.21,11.7-34.21,26.13c-14.37,0-26.66,6.77-31.72,16.35c-3.42-0.88-7.08-1.36-10.9-1.36
		c-18.89,0-34.21,11.7-34.21,26.13c0,14.43,15.32,26.13,34.21,26.13l157.58-2.14c18.89,0,34.21-11.7,34.21-26.13
		C371,100.3,355.68,88.6,336.79,88.6z"/>
	<path class="st22" d="M1708.79,181.6c-8.62,0-16.48,2.44-22.5,6.45c-3.16-8.94-12.37-15.98-24.08-18.4c0.01-0.3,0.03-0.6,0.03-0.91
		c0-14.43-15.32-26.13-34.21-26.13s-34.21,11.7-34.21,26.13c-14.37,0-26.66,6.77-31.72,16.35c-3.42-0.88-7.08-1.36-10.9-1.36
		c-18.89,0-34.21,11.7-34.21,26.13c0,14.43,15.32,26.13,34.21,26.13l157.58-2.14c18.89,0,34.21-11.7,34.21-26.13
		C1743,193.3,1727.68,181.6,1708.79,181.6z"/>
	<path class="st22" d="M566.92,512.08c-4.26,0-8.16,1.21-11.13,3.19c-1.56-4.43-6.12-7.91-11.92-9.1c0.01-0.15,0.01-0.3,0.01-0.45
		c0-7.14-7.58-12.93-16.93-12.93c-9.35,0-16.93,5.79-16.93,12.93c-7.11,0-13.19,3.35-15.7,8.09c-1.69-0.43-3.51-0.67-5.39-0.67
		c-9.35,0-16.93,5.79-16.93,12.93S479.58,539,488.93,539l77.99-1.06c9.35,0,16.93-5.79,16.93-12.93S576.27,512.08,566.92,512.08z"/>
	<path class="st22" d="M227.2,538.56c-4.19,0-8.01,1.18-10.93,3.14c-1.54-4.35-6.01-7.77-11.7-8.94c0.01-0.15,0.01-0.29,0.01-0.44
		c0-7.01-7.44-12.7-16.62-12.7c-9.18,0-16.62,5.68-16.62,12.7c-6.98,0-12.95,3.29-15.42,7.95c-1.66-0.43-3.44-0.66-5.3-0.66
		c-9.18,0-16.62,5.68-16.62,12.7s7.44,12.7,16.62,12.7l76.58-1.04c9.18,0,16.62-5.68,16.62-12.7
		C243.83,544.25,236.38,538.56,227.2,538.56z"/>
	<rect y="862" class="st23" width="1920" height="218"/>
	<path class="st19" d="M325,945H75c-6.6,0-12-5.4-12-12l0,0c0-6.6,5.4-12,12-12h250c6.6,0,12,5.4,12,12l0,0
		C337,939.6,331.6,945,325,945z"/>
	<path class="st19" d="M383,1025H133c-6.6,0-12-5.4-12-12l0,0c0-6.6,5.4-12,12-12h250c6.6,0,12,5.4,12,12l0,0
		C395,1019.6,389.6,1025,383,1025z"/>
	<path class="st19" d="M770,1037H520c-6.6,0-12-5.4-12-12l0,0c0-6.6,5.4-12,12-12h250c6.6,0,12,5.4,12,12l0,0
		C782,1031.6,776.6,1037,770,1037z"/>
	<path class="st19" d="M712,933H462c-6.6,0-12-5.4-12-12l0,0c0-6.6,5.4-12,12-12h250c6.6,0,12,5.4,12,12l0,0
		C724,927.6,718.6,933,712,933z"/>
	<path class="st19" d="M1410,1037h-250c-6.6,0-12-5.4-12-12l0,0c0-6.6,5.4-12,12-12h250c6.6,0,12,5.4,12,12l0,0
		C1422,1031.6,1416.6,1037,1410,1037z"/>
	<path class="st19" d="M1837,1037h-250c-6.6,0-12-5.4-12-12l0,0c0-6.6,5.4-12,12-12h250c6.6,0,12,5.4,12,12l0,0
		C1849,1031.6,1843.6,1037,1837,1037z"/>
	<path class="st19" d="M1700,906h-250c-6.6,0-12-5.4-12-12l0,0c0-6.6,5.4-12,12-12h250c6.6,0,12,5.4,12,12l0,0
		C1712,900.6,1706.6,906,1700,906z"/>
	<path class="st19" d="M1052,983H802c-6.6,0-12-5.4-12-12l0,0c0-6.6,5.4-12,12-12h250c6.6,0,12,5.4,12,12l0,0
		C1064,977.6,1058.6,983,1052,983z"/>
	<path class="st19" d="M1561,971h-250c-6.6,0-12-5.4-12-12l0,0c0-6.6,5.4-12,12-12h250c6.6,0,12,5.4,12,12l0,0
		C1573,965.6,1567.6,971,1561,971z"/>
	<path class="st19" d="M1942,971h-250c-6.6,0-12-5.4-12-12l0,0c0-6.6,5.4-12,12-12h250c6.6,0,12,5.4,12,12l0,0
		C1954,965.6,1948.6,971,1942,971z"/>
	<path class="st19" d="M1251,921h-250c-6.6,0-12-5.4-12-12l0,0c0-6.6,5.4-12,12-12h250c6.6,0,12,5.4,12,12l0,0
		C1263,915.6,1257.6,921,1251,921z"/>
</g>
</svg>
