<svg id="Layer_1" data-name="Layer 1" xmlns="http://www.w3.org/2000/svg" xmlns:xlink="http://www.w3.org/1999/xlink" viewBox="0 0 1920 1080"><defs><style>.cls-1{fill:none;}.cls-2{clip-path:url(#clip-path);}.cls-3{fill:#b3e5fc;}.cls-4{fill:#72dbf7;}.cls-5{fill:#90dff4;}.cls-6{fill:#64b5f6;}.cls-7{fill:#8ccaf9;}.cls-8{fill:#ad8653;}.cls-9{fill:#b78f55;}.cls-10{fill:#c49a57;}.cls-11{fill:#cca256;}.cls-12{fill:#d6ab56;}.cls-13{fill:#784031;}.cls-14{opacity:0.5;}.cls-15{fill:#a86a55;}.cls-16{fill:#894a38;}.cls-17{fill:#753d2c;}.cls-18{fill:#ff7244;}.cls-19{fill:#ffa827;}.cls-20{fill:#ffb64d;}.cls-21{fill:#fff;}</style><clipPath id="clip-path"><rect class="cls-1" width="1916" height="1082"/></clipPath></defs><title>Volcano</title><g class="cls-2"><rect class="cls-3" width="1920" height="1080"/><circle class="cls-4" cx="961.5" cy="521" r="401"/><circle class="cls-5" cx="961.5" cy="521" r="311"/><rect class="cls-6" y="652" width="1920" height="428"/><rect class="cls-7" x="602" y="767" width="303" height="16" rx="8"/><rect class="cls-7" x="45" y="677" width="303" height="16" rx="8"/><rect class="cls-7" x="714" y="677" width="303" height="16" rx="8"/><rect class="cls-7" x="81" y="819" width="303" height="16" rx="8"/><rect class="cls-7" x="936" y="819" width="303" height="16" rx="8"/><rect class="cls-7" x="1463" y="685" width="303" height="16" rx="8"/><rect class="cls-7" x="1294" y="775" width="303" height="16" rx="8"/><rect class="cls-7" x="1105" y="717" width="134" height="16" rx="8"/><rect class="cls-7" x="1747" y="734" width="134" height="16" rx="8"/><rect class="cls-7" x="1640" y="827" width="134" height="16" rx="8"/><rect class="cls-7" x="429" y="709" width="134" height="16" rx="8"/><rect class="cls-7" x="166" y="748" width="134" height="16" rx="8"/><rect class="cls-7" x="496" y="827" width="134" height="16" rx="8"/><rect class="cls-8" x="-93" y="871.35" width="2106" height="48.26"/><rect class="cls-9" x="-93" y="919.62" width="2106" height="48.26"/><rect class="cls-10" x="-93" y="962.39" width="2106" height="48.26"/><rect class="cls-11" x="-93" y="1010.66" width="2106" height="48.26"/><rect class="cls-12" x="-93" y="1053.43" width="2106" height="48.26"/><path class="cls-13" d="M74,941H634.26a10.28,10.28,0,0,0,10.28-10.28H63.75A10.28,10.28,0,0,0,74,941Z"/><path class="cls-13" d="M634.26,920.39H74a10.28,10.28,0,0,0-10.28,10.28H644.54A10.28,10.28,0,0,0,634.26,920.39Z"/><g class="cls-14"><path class="cls-13" d="M41.19,955.69H650.81c6.18,0,11.19-6.51,11.19-14.55H30C30,949.18,35,955.69,41.19,955.69Z"/><path class="cls-13" d="M650.81,926.59H41.19C35,926.59,30,933.11,30,941.14H662C662,933.11,657,926.59,650.81,926.59Z"/></g><polygon class="cls-15" points="274.21 706.17 122.43 920.39 264.39 920.39 339.65 669.84 274.21 706.17"/><polygon class="cls-16" points="375.08 650.17 339.65 669.84 264.39 920.39 586.66 920.39 375.08 650.17"/><rect class="cls-17" x="239.49" y="817.49" width="114.84" height="23.22" rx="10.45"/><rect class="cls-17" x="312.81" y="850.27" width="72.16" height="23.22" rx="10.45"/><circle class="cls-18" cx="310.13" cy="628.25" r="85.74"/><path class="cls-18" d="M313.81,696.41h-.09a7.76,7.76,0,0,1-7.67-7.84,259.44,259.44,0,0,1,6.61-51.07c3.74-15.77,8.83-29.25,15.14-40.09,8.28-14.23,18.73-24,31.05-29,15.51-6.33,33.65-5,53.93,3.81,21.93,9.58,47.06,28.42,74.7,56a7.76,7.76,0,1,1-11,11c-26.26-26.19-49.79-43.94-69.94-52.74-16.29-7.12-30.37-8.36-41.85-3.68-21.11,8.61-31.72,36.33-36.9,58.06a247.08,247.08,0,0,0-6.26,47.94A7.75,7.75,0,0,1,313.81,696.41Z"/><path class="cls-18" d="M218.18,798.66a11.64,11.64,0,0,1-9-19l78.75-96.32a11.64,11.64,0,0,1,18,14.74L227.2,794.39A11.62,11.62,0,0,1,218.18,798.66Z"/><path class="cls-19" d="M453.05,768.34a11.64,11.64,0,0,1-8.56-3.74l-87.44-94.7a11.64,11.64,0,0,1,17.11-15.8l87.43,94.71a11.63,11.63,0,0,1-8.54,19.53Z"/><path class="cls-19" d="M309.77,785.18a11.64,11.64,0,0,1-11.18-14.92l29.85-101.83A11.64,11.64,0,1,1,350.78,675L320.93,776.81A11.64,11.64,0,0,1,309.77,785.18Z"/><path class="cls-19" d="M380.87,797.82c-5.27.36-10.41-4.6-12.21-12.37l-23.9-102.89c-2.11-9.07,1.13-18.52,7.22-21.11s12.74,2.66,14.84,11.73l23.9,102.89c2.11,9.06-1.12,18.52-7.22,21.11A8.1,8.1,0,0,1,380.87,797.82Z"/><path class="cls-18" d="M153.78,696.53a7.88,7.88,0,0,1-1.66-.18,7.75,7.75,0,0,1-5.92-9.24c7.28-33.34,22.07-54.46,44-62.8,39.45-15,86.1,18.34,88.07,19.77a7.76,7.76,0,0,1-9.11,12.57h0c-.42-.3-41.9-29.88-73.47-17.82-16.66,6.36-28.19,23.72-34.28,51.6A7.77,7.77,0,0,1,153.78,696.53Z"/><path class="cls-18" d="M317.89,686.83a7.75,7.75,0,0,1-7.76-7.76V485.47a7.76,7.76,0,0,1,15.52,0v193.6A7.76,7.76,0,0,1,317.89,686.83Z"/><circle class="cls-19" cx="352.8" cy="660.84" r="48.5"/><path class="cls-18" d="M304.3,705.84a7.76,7.76,0,0,1-7.69-6.8,363.62,363.62,0,0,1-.82-69.49c1.92-21.65,6-40.44,12.06-55.85,7.91-20.05,19.34-34.54,33.94-43.05,17-9.89,38-11.63,62.53-5.16,26.58,7,58.06,24,93.56,50.36a7.76,7.76,0,0,1-9.26,12.45c-33.91-25.22-63.6-41.3-88.26-47.8-20.4-5.38-37.47-4.19-50.75,3.55-26.73,15.58-35.61,55.84-38.36,86.87a353.25,353.25,0,0,0,.76,66.2,7.76,7.76,0,0,1-6.74,8.66A8,8,0,0,1,304.3,705.84Z"/><circle class="cls-19" cx="310.32" cy="642.8" r="40.93"/><circle class="cls-20" cx="384.81" cy="627.28" r="40.93"/><path class="cls-19" d="M324.87,712.44h0a7.77,7.77,0,0,1-7.75-7.77L317.29,558a7.81,7.81,0,0,1,3.12-6.22,57.56,57.56,0,0,1,11.84-6.5c9.82-3.94,18.83-4,26.05-.19,6.24,3.3,10.86,9.26,13.72,17.73,2.94,8.69,4.07,19.92,3.46,34.31a7.76,7.76,0,1,1-15.5-.66c.87-20.45-2.38-34.17-8.91-37.65-5.24-2.79-13.37.61-18.26,3.41l-.18,142.44A7.77,7.77,0,0,1,324.87,712.44Z"/><path class="cls-19" d="M317.89,688.77h-.29a7.76,7.76,0,0,1-7.47-8,759.89,759.89,0,0,0-1.92-79.08c-1.92-23.13-5-42-9.15-56.2-4.51-15.36-10.37-25-16.48-27.23-7.68-2.76-19.68,5.89-33.8,24.34a7.75,7.75,0,0,1-12.32-9.42c9.46-12.37,18.07-20.79,26.33-25.75,8.83-5.3,17.26-6.57,25-3.77C299.21,507.7,307.76,520,314,541.13c4.46,15.19,7.73,35.16,9.72,59.37a776.91,776.91,0,0,1,2,80.8A7.75,7.75,0,0,1,317.89,688.77Z"/><circle class="cls-18" cx="203.37" cy="532.28" r="10.36"/><circle class="cls-18" cx="280.73" cy="477.72" r="10.36"/><circle class="cls-18" cx="490.01" cy="541.95" r="10.36"/><circle class="cls-18" cx="454.1" cy="650.39" r="10.36"/><circle class="cls-18" cx="454.1" cy="696.67" r="10.36"/><circle class="cls-18" cx="213.73" cy="734.66" r="10.36"/><circle class="cls-18" cx="213.73" cy="687" r="10.36"/><circle class="cls-18" cx="354.63" cy="488.08" r="10.36"/><circle class="cls-18" cx="213.73" cy="582.01" r="10.36"/><circle class="cls-18" cx="169.52" cy="602.04" r="10.36"/><circle class="cls-18" cx="161.93" cy="547.48" r="2.76"/><circle class="cls-18" cx="190.94" cy="571.65" r="2.76"/><circle class="cls-18" cx="257.24" cy="498.44" r="2.76"/><circle class="cls-18" cx="401.6" cy="550.24" r="2.76"/><circle class="cls-18" cx="467.22" cy="532.28" r="2.76"/><circle class="cls-18" cx="487.25" cy="693.91" r="2.76"/><circle class="cls-18" cx="469.98" cy="719.46" r="2.76"/><circle class="cls-18" cx="375.36" cy="504.65" r="2.76"/><circle class="cls-18" cx="277.97" cy="450.09" r="2.76"/><circle class="cls-18" cx="193.01" cy="660.75" r="2.76"/><circle class="cls-18" cx="195.77" cy="757.45" r="2.76"/><circle class="cls-18" cx="196.12" cy="707.38" r="5.18"/><circle class="cls-18" cx="480" cy="600.32" r="5.18"/><circle class="cls-18" cx="500.72" cy="709.45" r="5.18"/><circle class="cls-18" cx="145.69" cy="586.5" r="5.18"/><circle class="cls-18" cx="231.34" cy="507.07" r="5.18"/><circle class="cls-18" cx="310.08" cy="467.01" r="5.18"/><circle class="cls-18" cx="203.71" cy="602.39" r="5.18"/><circle class="cls-18" cx="343.93" cy="512.6" r="5.18"/><circle class="cls-18" cx="459.28" cy="512.6" r="5.18"/><circle class="cls-20" cx="310.93" cy="640.8" r="22.69"/><path class="cls-13" d="M1304,941h560.23a10.28,10.28,0,0,0,10.28-10.28H1293.75A10.28,10.28,0,0,0,1304,941Z"/><path class="cls-13" d="M1864.26,920.39H1304a10.28,10.28,0,0,0-10.28,10.28h580.79A10.28,10.28,0,0,0,1864.26,920.39Z"/><g class="cls-14"><path class="cls-13" d="M1271.19,955.69h609.62c6.18,0,11.19-6.51,11.19-14.55H1260C1260,949.18,1265,955.69,1271.19,955.69Z"/><path class="cls-13" d="M1880.81,926.59H1271.19c-6.18,0-11.19,6.52-11.19,14.55h632C1892,933.11,1887,926.59,1880.81,926.59Z"/></g><polygon class="cls-15" points="1504.21 706.17 1352.43 920.39 1494.39 920.39 1569.65 669.84 1504.21 706.17"/><polygon class="cls-16" points="1605.08 650.17 1569.65 669.84 1494.39 920.39 1816.66 920.39 1605.08 650.17"/><rect class="cls-17" x="1469.49" y="817.49" width="114.84" height="23.22" rx="10.45"/><rect class="cls-17" x="1542.81" y="850.27" width="72.16" height="23.22" rx="10.45"/><circle class="cls-18" cx="1540.13" cy="628.25" r="85.74"/><path class="cls-18" d="M1543.81,696.41h-.09a7.76,7.76,0,0,1-7.67-7.84,259.44,259.44,0,0,1,6.61-51.07c3.74-15.77,8.83-29.25,15.14-40.09,8.28-14.23,18.73-24,31-29,15.51-6.33,33.65-5,53.93,3.81,21.93,9.58,47.06,28.42,74.7,56a7.76,7.76,0,1,1-11,11c-26.26-26.19-49.79-43.94-69.94-52.74-16.29-7.12-30.37-8.36-41.85-3.68-21.11,8.61-31.72,36.33-36.9,58.06a247.08,247.08,0,0,0-6.26,47.94A7.75,7.75,0,0,1,1543.81,696.41Z"/><path class="cls-18" d="M1448.18,798.66a11.64,11.64,0,0,1-9-19l78.75-96.32a11.64,11.64,0,0,1,18,14.74l-78.75,96.31A11.62,11.62,0,0,1,1448.18,798.66Z"/><path class="cls-19" d="M1683.05,768.34a11.64,11.64,0,0,1-8.56-3.74l-87.44-94.7a11.64,11.64,0,0,1,17.11-15.8l87.43,94.71a11.63,11.63,0,0,1-8.54,19.53Z"/><path class="cls-19" d="M1539.77,785.18a11.64,11.64,0,0,1-11.18-14.92l29.85-101.83a11.64,11.64,0,1,1,22.34,6.54l-29.85,101.84A11.64,11.64,0,0,1,1539.77,785.18Z"/><path class="cls-19" d="M1610.87,797.82c-5.27.36-10.41-4.6-12.21-12.37l-23.9-102.89c-2.11-9.07,1.13-18.52,7.22-21.11s12.74,2.66,14.84,11.73l23.9,102.89c2.11,9.06-1.12,18.52-7.22,21.11A8.1,8.1,0,0,1,1610.87,797.82Z"/><path class="cls-18" d="M1383.78,696.53a7.88,7.88,0,0,1-1.66-.18,7.75,7.75,0,0,1-5.92-9.24c7.28-33.34,22.07-54.46,44-62.8,39.45-15,86.1,18.34,88.07,19.77a7.76,7.76,0,0,1-9.11,12.57h0c-.42-.3-41.9-29.88-73.47-17.82-16.66,6.36-28.19,23.72-34.28,51.6A7.77,7.77,0,0,1,1383.78,696.53Z"/><path class="cls-18" d="M1547.89,686.83a7.75,7.75,0,0,1-7.76-7.76V485.47a7.76,7.76,0,0,1,15.52,0v193.6A7.76,7.76,0,0,1,1547.89,686.83Z"/><circle class="cls-19" cx="1582.8" cy="660.84" r="48.5"/><path class="cls-18" d="M1534.3,705.84a7.76,7.76,0,0,1-7.69-6.8,363.62,363.62,0,0,1-.82-69.49c1.92-21.65,6-40.44,12.06-55.85,7.91-20.05,19.34-34.54,33.94-43.05,17-9.89,38-11.63,62.53-5.16,26.58,7,58.06,24,93.56,50.36a7.76,7.76,0,0,1-9.26,12.45c-33.91-25.22-63.6-41.3-88.26-47.8-20.4-5.38-37.47-4.19-50.75,3.55-26.73,15.58-35.61,55.84-38.36,86.87a353.25,353.25,0,0,0,.76,66.2,7.76,7.76,0,0,1-6.74,8.66A8,8,0,0,1,1534.3,705.84Z"/><circle class="cls-19" cx="1540.32" cy="642.8" r="40.93"/><circle class="cls-20" cx="1614.81" cy="627.28" r="40.93"/><path class="cls-19" d="M1554.87,712.44h0a7.77,7.77,0,0,1-7.75-7.77l.18-146.65a7.81,7.81,0,0,1,3.12-6.22,57.56,57.56,0,0,1,11.84-6.5c9.82-3.94,18.83-4,26-.19,6.24,3.3,10.86,9.26,13.72,17.73,2.94,8.69,4.07,19.92,3.46,34.31a7.76,7.76,0,1,1-15.5-.66c.87-20.45-2.38-34.17-8.91-37.65-5.24-2.79-13.37.61-18.26,3.41l-.18,142.44A7.77,7.77,0,0,1,1554.87,712.44Z"/><path class="cls-19" d="M1547.89,688.77h-.29a7.76,7.76,0,0,1-7.47-8,759.89,759.89,0,0,0-1.92-79.08c-1.92-23.13-5-42-9.15-56.2-4.51-15.36-10.37-25-16.48-27.23-7.68-2.76-19.68,5.89-33.8,24.34a7.75,7.75,0,1,1-12.32-9.42c9.46-12.37,18.07-20.79,26.33-25.75,8.83-5.3,17.26-6.57,25-3.77,11.39,4.08,19.94,16.36,26.14,37.51,4.46,15.19,7.73,35.16,9.72,59.37a776.91,776.91,0,0,1,2,80.8A7.75,7.75,0,0,1,1547.89,688.77Z"/><circle class="cls-18" cx="1433.37" cy="532.28" r="10.36"/><circle class="cls-18" cx="1510.73" cy="477.72" r="10.36"/><circle class="cls-18" cx="1720.01" cy="541.95" r="10.36"/><circle class="cls-18" cx="1684.1" cy="650.39" r="10.36"/><circle class="cls-18" cx="1684.1" cy="696.67" r="10.36"/><circle class="cls-18" cx="1443.73" cy="734.66" r="10.36"/><circle class="cls-18" cx="1443.73" cy="687" r="10.36"/><circle class="cls-18" cx="1584.63" cy="488.08" r="10.36"/><circle class="cls-18" cx="1443.73" cy="582.01" r="10.36"/><circle class="cls-18" cx="1399.52" cy="602.04" r="10.36"/><circle class="cls-18" cx="1391.93" cy="547.48" r="2.76"/><circle class="cls-18" cx="1420.94" cy="571.65" r="2.76"/><circle class="cls-18" cx="1487.24" cy="498.44" r="2.76"/><circle class="cls-18" cx="1631.6" cy="550.24" r="2.76"/><circle class="cls-18" cx="1697.22" cy="532.28" r="2.76"/><circle class="cls-18" cx="1717.25" cy="693.91" r="2.76"/><circle class="cls-18" cx="1699.98" cy="719.46" r="2.76"/><circle class="cls-18" cx="1605.36" cy="504.65" r="2.76"/><circle class="cls-18" cx="1507.97" cy="450.09" r="2.76"/><circle class="cls-18" cx="1423.01" cy="660.75" r="2.76"/><circle class="cls-18" cx="1425.77" cy="757.45" r="2.76"/><circle class="cls-18" cx="1426.12" cy="707.38" r="5.18"/><circle class="cls-18" cx="1710" cy="600.32" r="5.18"/><circle class="cls-18" cx="1730.72" cy="709.45" r="5.18"/><circle class="cls-18" cx="1375.69" cy="586.5" r="5.18"/><circle class="cls-18" cx="1461.34" cy="507.07" r="5.18"/><circle class="cls-18" cx="1540.08" cy="467.01" r="5.18"/><circle class="cls-18" cx="1433.71" cy="602.39" r="5.18"/><circle class="cls-18" cx="1573.93" cy="512.6" r="5.18"/><circle class="cls-18" cx="1689.28" cy="512.6" r="5.18"/><circle class="cls-20" cx="1540.93" cy="640.8" r="22.69"/><path class="cls-21" d="M414.56,175.24H394.38c0-.06,0-.12,0-.18,0-28.2-55.23-51.06-123.35-51.06S147.7,146.86,147.7,175.06c0,.06,0,.12,0,.18H117.44c-27.86,0-50.44,9.35-50.44,20.88S89.58,217,117.44,217H414.56c27.86,0,50.44-9.35,50.44-20.88S442.42,175.24,414.56,175.24Z"/><path class="cls-21" d="M556.7,318.24H544.17c0-.06,0-.12,0-.18,0-28.2-34.27-51.06-76.55-51.06s-76.55,22.86-76.55,51.06c0,.06,0,.12,0,.18H372.3c-17.29,0-31.3,9.35-31.3,20.88S355,360,372.3,360H556.7c17.29,0,31.3-9.35,31.3-20.88S574,318.24,556.7,318.24Z"/><path class="cls-21" d="M1803.37,247.24h-11v-.18c0-28.2-30.25-51.06-67.56-51.06s-67.56,22.86-67.56,51.06c0,.06,0,.12,0,.18h-16.58c-15.26,0-27.63,9.35-27.63,20.88S1625.37,289,1640.63,289h162.74c15.26,0,27.63-9.35,27.63-20.88S1818.63,247.24,1803.37,247.24Z"/><path class="cls-21" d="M1617.25,134.24h-14.71c0-.06,0-.12,0-.18,0-28.2-40.24-51.06-89.87-51.06s-89.88,22.86-89.88,51.06c0,.06,0,.12,0,.18h-22.06c-20.3,0-36.75,9.35-36.75,20.88S1380.45,176,1400.75,176h216.5c20.3,0,36.75-9.35,36.75-20.88S1637.55,134.24,1617.25,134.24Z"/></g></svg>