<svg id="Layer_1" data-name="Layer 1" xmlns="http://www.w3.org/2000/svg" xmlns:xlink="http://www.w3.org/1999/xlink" viewBox="0 0 1920 1080"><defs><style>.cls-1{fill:none;}.cls-2{fill:#fcb040;}.cls-3{clip-path:url(#clip-path);}.cls-4{fill:#f7b257;}.cls-5{fill:#f9a332;}.cls-10,.cls-6{fill:#c86102;}.cls-6{opacity:0.7;}.cls-7{fill:#e59b39;}.cls-8{fill:#ce8630;}.cls-9{fill:#723706;}.cls-11{fill:#20c928;}.cls-12{fill:#009b0b;}.cls-13{fill:#016b06;}.cls-14{fill:#e0594b;}.cls-15{fill:#eb6d46;}.cls-16{fill:#d94c36;}.cls-17{fill:#f0f0f2;}</style><clipPath id="clip-path"><rect class="cls-1" y="1" width="1920" height="1078"/></clipPath></defs><title>Working for</title><rect class="cls-2" width="1920" height="1079"/><g class="cls-3"><polygon class="cls-4" points="855.48 -490.5 970.81 -407.6 970.81 689.31 855.48 -490.5"/><polygon class="cls-5" points="472.62 -396.75 607.93 -353.55 946.89 689.67 472.62 -396.75"/><polygon class="cls-4" points="137.47 -189.28 279.51 -190.01 924.26 697.41 137.47 -189.28"/><polygon class="cls-5" points="-117.16 111.6 17.7 67.02 905.12 711.76 -117.16 111.6"/><polygon class="cls-4" points="-266.35 476.44 -151.87 392.36 891.36 731.33 -266.35 476.44"/><polygon class="cls-5" points="-295.5 869.52 -212.6 754.19 884.31 754.19 -295.5 869.52"/><polygon class="cls-4" points="-201.75 1252.38 -158.55 1117.07 884.67 778.11 -201.75 1252.38"/><polygon class="cls-5" points="5.72 1587.53 4.99 1445.49 892.41 800.74 5.72 1587.53"/><polygon class="cls-4" points="306.6 1842.16 262.01 1707.3 906.76 819.88 306.6 1842.16"/><polygon class="cls-5" points="671.44 1991.35 587.36 1876.87 926.33 833.64 671.44 1991.35"/><polygon class="cls-4" points="1064.53 2020.5 949.19 1937.6 949.19 840.69 1064.53 2020.5"/><polygon class="cls-5" points="1447.38 1926.75 1312.07 1883.55 973.11 840.33 1447.38 1926.75"/><polygon class="cls-4" points="1782.53 1719.28 1640.49 1720.01 995.74 832.59 1782.53 1719.28"/><polygon class="cls-5" points="2037.16 1418.4 1902.3 1462.98 1014.88 818.24 2037.16 1418.4"/><polygon class="cls-4" points="2186.35 1053.56 2071.87 1137.64 1028.64 798.67 2186.35 1053.56"/><polygon class="cls-5" points="2215.5 660.48 2132.6 775.81 1035.69 775.81 2215.5 660.48"/><polygon class="cls-4" points="2121.75 277.62 2078.55 412.93 1035.33 751.89 2121.75 277.62"/><polygon class="cls-5" points="1914.28 -57.53 1915.01 84.51 1027.59 729.26 1914.28 -57.53"/><polygon class="cls-4" points="1613.4 -312.16 1657.98 -177.3 1013.24 710.12 1613.4 -312.16"/><polygon class="cls-5" points="1248.56 -461.35 1332.64 -346.87 993.67 696.36 1248.56 -461.35"/><circle class="cls-5" cx="960" cy="765" r="243"/><path class="cls-6" d="M2005.2,967,1843,597a49,49,0,0,0-64.55-25.21l-224.69,98.5A30.18,30.18,0,0,1,1514,654.71l-11.49-26.2a45.25,45.25,0,0,0-59.61-23.27L1212.64,706.17a52.65,52.65,0,0,1-56.71-9.4l-86.56-79.28A60.4,60.4,0,0,0,984,621.24L874.45,740.88a17.19,17.19,0,0,1-28.79-5.64L806.27,628.87A38.69,38.69,0,0,0,756.53,606L513.42,696a33,33,0,0,1-40-14.42l-41-71a36.05,36.05,0,0,0-49.26-13.2l-112.9,65.18a39.94,39.94,0,0,1-43.55-2.35L107.17,572.76A42.79,42.79,0,0,0,47.37,582l-202.63,277L210.36,1126.5l41.48-56.7,54.77,94.85,236-136.25,45.56,123L939,1021.51l159.18,145.8,148.15-161.75,66.36,151.37,297.22-130.3,41.78,95.3Z"/><path class="cls-7" d="M1875,1078.22H-280.53V900.15c-3.13-35.77,17.52-61.82,49.11-81.27C79,627.7,1756.09,881.79,1875,900.15Z"/><path class="cls-8" d="M1875,1078.22H-280.53V913.64c-3.13-33,17.52-57.13,49.11-75.11C79,661.85,1756.09,896.68,1875,913.64Z"/><path class="cls-2" d="M2200.84,1078.87-280.32,1081l-.42-139.23C85.2,892.39,1822.49,666,2161.55,902.36c16.13,11.24,29.23,23.62,38.88,37.28Z"/><path class="cls-7" d="M2200.82,1078.18l-2481.17,2.13-.36-121.79c366-43.23,2103.33-241.42,2442.3-34.74,16.13,9.83,29.23,20.67,38.87,32.61Z"/><path class="cls-8" d="M2200.8,1078.87-280.37,1081l-.32-105.7c366-37.57,2103.42-209.77,2442.32-30.43,16.12,8.53,29.21,17.93,38.85,28.29Z"/><path class="cls-9" d="M156.53,568.7a5.58,5.58,0,0,1,5.59,5.58V786.44a5.58,5.58,0,0,1-5.59,5.58h-.21V568.71Z"/><path class="cls-10" d="M156.32,568.71V792a5.59,5.59,0,0,1-5.37-5.57V574.28A5.58,5.58,0,0,1,156.32,568.71Z"/><path class="cls-10" d="M105.64,562.25h.22v62.27h50.66a1.48,1.48,0,0,1,0,.21,4.94,4.94,0,0,1-4.94,4.94H105.64a4.51,4.51,0,0,1-4.51-4.51V566.76A4.51,4.51,0,0,1,105.64,562.25Z"/><path class="cls-9" d="M105.86,562.26a4.51,4.51,0,0,1,4.29,4.5v53h41.44a4.93,4.93,0,0,1,4.93,4.73H105.86Z"/><path class="cls-10" d="M110.37,672.21h.21a4.72,4.72,0,0,1,4.72,4.72V707h35.86a4.94,4.94,0,0,1,4.94,4.94H110.37Z"/><path class="cls-9" d="M110.37,672.21v39.71H156.1a4.94,4.94,0,0,1-4.94,4.94H110.58a4.72,4.72,0,0,1-4.72-4.72V676.92A4.71,4.71,0,0,1,110.37,672.21Z"/><path class="cls-10" d="M157.84,604.56c0-.15,0-.29,0-.43a4.94,4.94,0,0,1,4.94-4.94h35.86V569.13a4.73,4.73,0,0,1,4.51-4.72v40.15Z"/><path class="cls-9" d="M203.13,604.56V564.41h.21a4.73,4.73,0,0,1,4.73,4.73v35.21a4.73,4.73,0,0,1-4.73,4.73H162.76a5,5,0,0,1-4.92-4.51Z"/><path class="cls-10" d="M250.37,599.19a4.51,4.51,0,0,1,4.51,4.51v69.14a4.51,4.51,0,0,1-4.51,4.51H161a4.94,4.94,0,0,1-4.94-4.94h94.27Z"/><path class="cls-9" d="M161,667.47h84.82V603.7a4.51,4.51,0,0,1,4.51-4.51v73.22H156.1A4.94,4.94,0,0,1,161,667.47Z"/><rect class="cls-11" x="166.41" y="568.7" width="25.77" height="20.18" rx="5.88" transform="translate(358.59 1157.58) rotate(-180)"/><rect class="cls-11" x="57.76" y="558.82" width="33.5" height="20.18" rx="5.88" transform="translate(149.01 1137.82) rotate(-180)"/><rect class="cls-11" x="116.59" y="558.82" width="29.2" height="20.18" rx="5.88" transform="translate(262.39 1137.82) rotate(180)"/><rect class="cls-11" x="214.08" y="604.77" width="25.77" height="20.18" rx="5.88" transform="translate(453.93 1229.73) rotate(-180)"/><rect class="cls-11" x="214.08" y="682.07" width="25.77" height="20.18" rx="5.88" transform="translate(453.93 1384.33) rotate(-180)"/><rect class="cls-11" x="97.27" y="723.3" width="25.77" height="20.18" rx="5.88" transform="translate(220.3 1466.79) rotate(-180)"/><path class="cls-12" d="M72.68,509h65.71a10.1,10.1,0,0,1,10.09,9.88H62.59A10.1,10.1,0,0,1,72.68,509Z"/><path class="cls-13" d="M148.48,518.88v.21h0a10.09,10.09,0,0,1-10.09,10.09H72.68a10.09,10.09,0,0,1-10.09-10.09h0v-.21Z"/><path class="cls-13" d="M67.74,532.62h75.59a10.08,10.08,0,0,1,10.08,9.88H57.65A10.1,10.1,0,0,1,67.74,532.62Z"/><path class="cls-12" d="M153.41,542.5a1.48,1.48,0,0,1,0,.21h0a10.1,10.1,0,0,1-10.09,10.1H67.74a10.1,10.1,0,0,1-10.09-10.1h0v-.21Z"/><path class="cls-12" d="M201,515.87h27.49a10.1,10.1,0,0,1,10.09,9.88H190.9A10.08,10.08,0,0,1,201,515.87Z"/><path class="cls-13" d="M238.56,525.75V526h0a10.1,10.1,0,0,1-10.09,10.1H201A10.1,10.1,0,0,1,190.89,526h0a1.48,1.48,0,0,1,0-.21Z"/><path class="cls-13" d="M189.39,539.92h27.48A10.08,10.08,0,0,1,227,549.8H179.3A10.09,10.09,0,0,1,189.39,539.92Z"/><path class="cls-12" d="M227,549.8c0,.07,0,.14,0,.21h0a10.1,10.1,0,0,1-10.1,10.1H189.39a10.1,10.1,0,0,1-10.1-10.1h0c0-.07,0-.14,0-.21Z"/><path class="cls-12" d="M225,575.57h50.68a10.1,10.1,0,0,1,10.09,9.88H215A10.08,10.08,0,0,1,225,575.57Z"/><path class="cls-13" d="M285.8,585.45v.21h0a10.09,10.09,0,0,1-10.09,10.09H225a10.09,10.09,0,0,1-10.09-10.09h0a1.48,1.48,0,0,1,0-.21Z"/><path class="cls-13" d="M277,604.77h24.91A10.08,10.08,0,0,1,312,614.65H266.91A10.1,10.1,0,0,1,277,604.77Z"/><path class="cls-12" d="M312,614.65a1.48,1.48,0,0,1,0,.21h0A10.1,10.1,0,0,1,301.91,625H277a10.09,10.09,0,0,1-10.09-10.1h0v-.21Z"/><path class="cls-13" d="M88.46,647.29h43.81a10.1,10.1,0,0,1,10.09,9.88h-64A10.08,10.08,0,0,1,88.46,647.29Z"/><path class="cls-12" d="M142.36,657.17v.21h0a10.09,10.09,0,0,1-10.09,10.09H88.46a10.09,10.09,0,0,1-10.09-10.09h0a1.48,1.48,0,0,1,0-.21Z"/><path class="cls-13" d="M65.7,672.63H91.47a10.09,10.09,0,0,1,10.09,9.87H55.61A10.09,10.09,0,0,1,65.7,672.63Z"/><path class="cls-12" d="M101.56,682.5v.22h0a10.09,10.09,0,0,1-10.09,10.09H65.7a10.09,10.09,0,0,1-10.09-10.09h0v-.22Z"/><path class="cls-9" d="M1706.07,659.58a7.64,7.64,0,0,0-7.63,7.63V957.15a7.64,7.64,0,0,0,7.63,7.63h.3V659.6Z"/><path class="cls-10" d="M1706.37,659.6V964.77a7.63,7.63,0,0,0,7.33-7.62V667.21A7.62,7.62,0,0,0,1706.37,659.6Z"/><path class="cls-10" d="M1775.62,650.78h-.29v85.09h-69.24c0,.1,0,.2,0,.3a6.75,6.75,0,0,0,6.75,6.74h62.8a6.16,6.16,0,0,0,6.17-6.16V656.94A6.16,6.16,0,0,0,1775.62,650.78Z"/><path class="cls-9" d="M1775.33,650.79a6.16,6.16,0,0,0-5.87,6.15v72.49h-56.64a6.73,6.73,0,0,0-6.73,6.45h69.24Z"/><path class="cls-10" d="M1769.17,801h-.3a6.46,6.46,0,0,0-6.45,6.46v41.08h-49a6.75,6.75,0,0,0-6.75,6.75h62.51Z"/><path class="cls-9" d="M1769.17,801v54.28h-62.51a6.75,6.75,0,0,0,6.75,6.75h55.46a6.46,6.46,0,0,0,6.46-6.46V807.49A6.46,6.46,0,0,0,1769.17,801Z"/><path class="cls-10" d="M1704.28,708.59a5.68,5.68,0,0,0,0-.59,6.75,6.75,0,0,0-6.75-6.75h-49V660.17a6.45,6.45,0,0,0-6.17-6.44v54.86Z"/><path class="cls-9" d="M1642.39,708.59V653.73l-.29,0a6.46,6.46,0,0,0-6.46,6.46V708.3a6.46,6.46,0,0,0,6.46,6.45h55.46a6.74,6.74,0,0,0,6.72-6.16Z"/><path class="cls-10" d="M1577.83,701.25a6.16,6.16,0,0,0-6.16,6.17v94.49a6.16,6.16,0,0,0,6.16,6.16h122.08a6.75,6.75,0,0,0,6.75-6.75H1577.83Z"/><path class="cls-9" d="M1699.91,794.57H1584V707.42a6.16,6.16,0,0,0-6.16-6.17V801.32h128.83A6.75,6.75,0,0,0,1699.91,794.57Z"/><rect class="cls-11" x="1657.36" y="659.58" width="35.22" height="27.59" rx="11.1"/><rect class="cls-11" x="1795.29" y="646.08" width="45.78" height="27.59" rx="11.1"/><rect class="cls-11" x="1720.75" y="646.08" width="39.91" height="27.59" rx="11.1"/><rect class="cls-11" x="1592.21" y="708.88" width="35.22" height="27.59" rx="11.1"/><rect class="cls-11" x="1592.21" y="814.53" width="35.22" height="27.59" rx="11.1"/><rect class="cls-11" x="1751.85" y="870.87" width="35.22" height="27.59" rx="11.1"/><path class="cls-12" d="M1820.67,578h-89.8a13.78,13.78,0,0,0-13.78,13.5h117.37A13.8,13.8,0,0,0,1820.67,578Z"/><path class="cls-13" d="M1717.09,591.5a2.81,2.81,0,0,0,0,.29h0a13.79,13.79,0,0,0,13.79,13.8h89.8a13.79,13.79,0,0,0,13.79-13.8h0v-.29Z"/><path class="cls-13" d="M1827.42,610.28h-103.3a13.78,13.78,0,0,0-13.78,13.5H1841.2A13.78,13.78,0,0,0,1827.42,610.28Z"/><path class="cls-12" d="M1710.34,623.78a2.81,2.81,0,0,0,0,.29h0a13.79,13.79,0,0,0,13.79,13.8h103.3a13.79,13.79,0,0,0,13.79-13.8h0a2.81,2.81,0,0,0,0-.29Z"/><path class="cls-12" d="M1645.33,587.39h-37.57a13.8,13.8,0,0,0-13.78,13.5h65.13A13.78,13.78,0,0,0,1645.33,587.39Z"/><path class="cls-13" d="M1594,600.89c0,.1,0,.19,0,.29h0a13.8,13.8,0,0,0,13.79,13.8h37.57a13.8,13.8,0,0,0,13.79-13.8h0c0-.1,0-.19,0-.29Z"/><path class="cls-13" d="M1661.17,620.26h-37.56a13.78,13.78,0,0,0-13.78,13.5H1675A13.8,13.8,0,0,0,1661.17,620.26Z"/><path class="cls-12" d="M1609.83,633.76a2.81,2.81,0,0,0,0,.29h0a13.78,13.78,0,0,0,13.79,13.79h37.56a13.79,13.79,0,0,0,13.8-13.79h0c0-.1,0-.19,0-.29Z"/><path class="cls-12" d="M1612.46,669H1543.2a13.78,13.78,0,0,0-13.78,13.5h96.83A13.8,13.8,0,0,0,1612.46,669Z"/><path class="cls-13" d="M1529.42,682.47c0,.1,0,.2,0,.3h0a13.8,13.8,0,0,0,13.79,13.79h69.26a13.79,13.79,0,0,0,13.79-13.79h0v-.3Z"/><path class="cls-13" d="M1541.44,708.88h-34a13.78,13.78,0,0,0-13.78,13.5h61.61A13.8,13.8,0,0,0,1541.44,708.88Z"/><path class="cls-12" d="M1493.62,722.38c0,.1,0,.2,0,.3h0a13.79,13.79,0,0,0,13.79,13.79h34a13.8,13.8,0,0,0,13.8-13.79h0c0-.1,0-.2,0-.3Z"/><path class="cls-13" d="M1799.1,767h-59.87a13.8,13.8,0,0,0-13.78,13.5h87.44A13.8,13.8,0,0,0,1799.1,767Z"/><path class="cls-12" d="M1725.45,780.49c0,.1,0,.19,0,.29h0a13.79,13.79,0,0,0,13.79,13.79h59.87a13.78,13.78,0,0,0,13.79-13.79h0v-.29Z"/><path class="cls-13" d="M1830.21,801.62H1795a13.78,13.78,0,0,0-13.78,13.5H1844A13.78,13.78,0,0,0,1830.21,801.62Z"/><path class="cls-12" d="M1781.21,815.12a2.71,2.71,0,0,0,0,.29h0A13.78,13.78,0,0,0,1795,829.2h35.22A13.79,13.79,0,0,0,1844,815.41h0c0-.1,0-.2,0-.29Z"/><path class="cls-9" d="M687.86,717.15a5,5,0,0,1,5,5V911a5,5,0,0,1-5,5h-.19V717.16Z"/><path class="cls-10" d="M687.67,717.16V916a5,5,0,0,1-4.78-5V722.12A5,5,0,0,1,687.67,717.16Z"/><path class="cls-10" d="M642.55,711.42h.19v55.43h45.11a1.34,1.34,0,0,1,0,.2,4.4,4.4,0,0,1-4.39,4.39H642.55a4,4,0,0,1-4-4v-52A4,4,0,0,1,642.55,711.42Z"/><path class="cls-9" d="M642.74,711.43a4,4,0,0,1,3.82,4v47.23h36.91a4.39,4.39,0,0,1,4.38,4.2H642.74Z"/><path class="cls-10" d="M646.76,809.32H647a4.2,4.2,0,0,1,4.2,4.21v26.77h31.93a4.39,4.39,0,0,1,4.4,4.39H646.76Z"/><path class="cls-9" d="M646.76,809.32v35.36h40.72a4.4,4.4,0,0,1-4.4,4.4H647a4.2,4.2,0,0,1-4.21-4.21V813.52A4.2,4.2,0,0,1,646.76,809.32Z"/><path class="cls-10" d="M689,749.08c0-.12,0-.25,0-.38a4.4,4.4,0,0,1,4.4-4.4h31.93V717.54a4.2,4.2,0,0,1,4-4.2v35.74Z"/><path class="cls-9" d="M729.35,749.08V713.34h.19a4.2,4.2,0,0,1,4.21,4.21v31.35a4.2,4.2,0,0,1-4.21,4.21H693.41a4.4,4.4,0,0,1-4.38-4Z"/><path class="cls-10" d="M771.42,744.3a4,4,0,0,1,4,4v61.56a4,4,0,0,1-4,4H691.88a4.4,4.4,0,0,1-4.4-4.4h83.94Z"/><path class="cls-9" d="M691.88,805.1H767.4V748.32a4,4,0,0,1,4-4v65.2H687.48A4.4,4.4,0,0,1,691.88,805.1Z"/><rect class="cls-14" x="696.66" y="717.15" width="22.94" height="17.97" rx="8.99" transform="translate(1416.26 1452.28) rotate(180)"/><rect class="cls-14" x="599.91" y="708.36" width="29.83" height="17.97" rx="8.99" transform="translate(1229.65 1434.69) rotate(-180)"/><rect class="cls-14" x="652.3" y="708.36" width="26" height="17.97" rx="8.99" transform="translate(1330.6 1434.69) rotate(-180)"/><rect class="cls-14" x="739.1" y="749.27" width="22.94" height="17.97" rx="8.99" transform="translate(1501.15 1516.52) rotate(-180)"/><rect class="cls-14" x="739.1" y="818.11" width="22.94" height="17.97" rx="8.99" transform="translate(1501.15 1654.19) rotate(-180)"/><rect class="cls-14" x="635.09" y="854.82" width="22.94" height="17.97" rx="8.99" transform="translate(1293.13 1727.61) rotate(-180)"/><path class="cls-15" d="M613.2,664h58.51a9,9,0,0,1,9,8.8H604.22A9,9,0,0,1,613.2,664Z"/><path class="cls-16" d="M680.69,672.8V673h0a9,9,0,0,1-9,9H613.2a9,9,0,0,1-9-9h0c0-.07,0-.13,0-.19Z"/><path class="cls-16" d="M608.8,685h67.3a9,9,0,0,1,9,8.8H599.82A9,9,0,0,1,608.8,685Z"/><path class="cls-15" d="M685.09,693.83V694h0a9,9,0,0,1-9,9H608.8a9,9,0,0,1-9-9h0v-.19Z"/><path class="cls-15" d="M727.44,670.12h24.48a9,9,0,0,1,9,8.79H718.46A9,9,0,0,1,727.44,670.12Z"/><path class="cls-16" d="M760.9,678.91v.19h0a9,9,0,0,1-9,9H727.44a9,9,0,0,1-9-9h0v-.19Z"/><path class="cls-16" d="M717.12,691.53h24.47a9,9,0,0,1,9,8.8H708.14A9,9,0,0,1,717.12,691.53Z"/><path class="cls-15" d="M750.57,700.33c0,.06,0,.12,0,.19h0a9,9,0,0,1-9,9H717.12a9,9,0,0,1-9-9h0a1.15,1.15,0,0,1,0-.19Z"/><path class="cls-15" d="M748.86,723.27H794a9,9,0,0,1,9,8.8H739.87A9,9,0,0,1,748.86,723.27Z"/><path class="cls-16" d="M803,732.07c0,.06,0,.12,0,.19h0a9,9,0,0,1-9,9H748.86a9,9,0,0,1-9-9h0v-.19Z"/><path class="cls-16" d="M795.13,749.27h22.18a9,9,0,0,1,9,8.8H786.14A9,9,0,0,1,795.13,749.27Z"/><path class="cls-15" d="M826.29,758.07v.19h0a9,9,0,0,1-9,9H795.13a9,9,0,0,1-9-9h0v-.19Z"/><path class="cls-16" d="M627.25,787.13h39a9,9,0,0,1,9,8.8h-57A9,9,0,0,1,627.25,787.13Z"/><path class="cls-15" d="M675.24,795.93v.19h0a9,9,0,0,1-9,9h-39a9,9,0,0,1-9-9h0v-.19Z"/><path class="cls-16" d="M607,809.69h22.94a9,9,0,0,1,9,8.8H598A9,9,0,0,1,607,809.69Z"/><path class="cls-15" d="M638.91,818.49c0,.06,0,.13,0,.19h0a9,9,0,0,1-9,9H607a9,9,0,0,1-9-9h0v-.19Z"/><path class="cls-9" d="M1312,686.77a4.11,4.11,0,0,0-4.1,4.1V846.43a4.1,4.1,0,0,0,4.1,4.09h.15V686.78Z"/><path class="cls-10" d="M1312.15,686.78V850.52a4.1,4.1,0,0,0,3.94-4.09V690.87A4.09,4.09,0,0,0,1312.15,686.78Z"/><path class="cls-10" d="M1349.31,682.05h-.15v45.65H1312v.16a3.62,3.62,0,0,0,3.62,3.62h33.69a3.31,3.31,0,0,0,3.31-3.31V685.36A3.31,3.31,0,0,0,1349.31,682.05Z"/><path class="cls-9" d="M1349.16,682.06a3.29,3.29,0,0,0-3.15,3.3v38.89h-30.39a3.62,3.62,0,0,0-3.62,3.46h37.16Z"/><path class="cls-10" d="M1345.85,762.67h-.16a3.46,3.46,0,0,0-3.46,3.46v22h-26.3a3.62,3.62,0,0,0-3.62,3.62h33.54Z"/><path class="cls-9" d="M1345.85,762.67v29.12h-33.54a3.63,3.63,0,0,0,3.62,3.63h29.76a3.48,3.48,0,0,0,3.47-3.47V766.13A3.47,3.47,0,0,0,1345.85,762.67Z"/><path class="cls-10" d="M1311,713.07c0-.11,0-.21,0-.32a3.62,3.62,0,0,0-3.62-3.62h-26.29v-22a3.47,3.47,0,0,0-3.31-3.46v29.44Z"/><path class="cls-9" d="M1277.83,713.07V683.63h-.16a3.46,3.46,0,0,0-3.46,3.47v25.82a3.46,3.46,0,0,0,3.46,3.46h29.76a3.62,3.62,0,0,0,3.61-3.3Z"/><path class="cls-10" d="M1243.19,709.13a3.31,3.31,0,0,0-3.31,3.31v50.7a3.31,3.31,0,0,0,3.31,3.3h65.5a3.62,3.62,0,0,0,3.62-3.62h-69.12Z"/><path class="cls-9" d="M1308.69,759.2H1246.5V712.44a3.31,3.31,0,0,0-3.31-3.31v53.69h69.12A3.62,3.62,0,0,0,1308.69,759.2Z"/><rect class="cls-14" x="1285.86" y="686.77" width="18.89" height="14.8" rx="7.4"/><rect class="cls-14" x="1359.86" y="679.53" width="24.56" height="14.8" rx="7.4"/><rect class="cls-14" x="1319.87" y="679.53" width="21.41" height="14.8" rx="7.4"/><rect class="cls-14" x="1250.9" y="713.22" width="18.89" height="14.8" rx="7.4"/><rect class="cls-14" x="1250.9" y="769.91" width="18.89" height="14.8" rx="7.4"/><rect class="cls-14" x="1336.56" y="800.14" width="18.89" height="14.8" rx="7.4"/><path class="cls-15" d="M1373.48,643H1325.3a7.39,7.39,0,0,0-7.39,7.24h63A7.4,7.4,0,0,0,1373.48,643Z"/><path class="cls-16" d="M1317.91,650.24a.92.92,0,0,0,0,.16h0a7.4,7.4,0,0,0,7.4,7.4h48.18a7.4,7.4,0,0,0,7.4-7.4h0v-.16Z"/><path class="cls-16" d="M1377.1,660.32h-55.42a7.41,7.41,0,0,0-7.4,7.24h70.22A7.4,7.4,0,0,0,1377.1,660.32Z"/><path class="cls-15" d="M1314.28,667.56v.16h0a7.4,7.4,0,0,0,7.4,7.4h55.42a7.4,7.4,0,0,0,7.4-7.4h0v-.16Z"/><path class="cls-15" d="M1279.4,648h-20.15a7.41,7.41,0,0,0-7.4,7.24h35A7.4,7.4,0,0,0,1279.4,648Z"/><path class="cls-16" d="M1251.85,655.28v.16h0a7.4,7.4,0,0,0,7.4,7.4h20.15a7.4,7.4,0,0,0,7.4-7.4h0v-.16Z"/><path class="cls-16" d="M1287.91,665.67h-20.16a7.4,7.4,0,0,0-7.39,7.25h34.94A7.4,7.4,0,0,0,1287.91,665.67Z"/><path class="cls-15" d="M1260.36,672.92a.76.76,0,0,0,0,.15h0a7.4,7.4,0,0,0,7.4,7.4h20.16a7.4,7.4,0,0,0,7.4-7.4h0c0-.05,0-.1,0-.15Z"/><path class="cls-15" d="M1261.77,691.81h-37.16a7.41,7.41,0,0,0-7.4,7.24h52A7.41,7.41,0,0,0,1261.77,691.81Z"/><path class="cls-16" d="M1217.21,699.05v.16h0a7.4,7.4,0,0,0,7.4,7.4h37.16a7.4,7.4,0,0,0,7.4-7.4h0v-.16Z"/><path class="cls-16" d="M1223.66,713.22H1205.4a7.41,7.41,0,0,0-7.4,7.25h33.06A7.4,7.4,0,0,0,1223.66,713.22Z"/><path class="cls-15" d="M1198,720.47v.15h0a7.4,7.4,0,0,0,7.4,7.41h18.26a7.41,7.41,0,0,0,7.41-7.41h0s0-.1,0-.15Z"/><path class="cls-16" d="M1361.91,744.4h-32.12a7.4,7.4,0,0,0-7.4,7.24h46.92A7.41,7.41,0,0,0,1361.91,744.4Z"/><path class="cls-15" d="M1322.39,751.64v.16h0a7.4,7.4,0,0,0,7.4,7.4h32.12a7.4,7.4,0,0,0,7.4-7.4h0v-.16Z"/><path class="cls-16" d="M1378.6,763h-18.89a7.4,7.4,0,0,0-7.4,7.24H1386A7.41,7.41,0,0,0,1378.6,763Z"/><path class="cls-15" d="M1352.31,770.22c0,.06,0,.11,0,.16h0a7.4,7.4,0,0,0,7.41,7.4h18.89a7.4,7.4,0,0,0,7.4-7.4h0v-.16Z"/><path class="cls-17" d="M315.92,117.8H99.51A11.55,11.55,0,0,0,88,129.35h0a11.54,11.54,0,0,0,11.54,11.54h31.74a11.54,11.54,0,0,1,11.54,11.54h0A11.54,11.54,0,0,1,131.25,164h-5.77a11.54,11.54,0,0,0,0,23.08H240.9a11.54,11.54,0,0,0,1.4-23l0-.09H238a11.54,11.54,0,0,1-11.54-11.54h0A11.54,11.54,0,0,1,238,140.89h77.91a11.54,11.54,0,0,0,11.54-11.54h0A11.55,11.55,0,0,0,315.92,117.8ZM212,152.43h0a8.65,8.65,0,0,1-8.65,8.65H163a8.66,8.66,0,0,1-8.66-8.65h0a8.66,8.66,0,0,1,8.66-8.66h40.4A8.66,8.66,0,0,1,212,152.43Z"/><path class="cls-17" d="M606.92,184.8H390.51A11.55,11.55,0,0,0,379,196.35h0a11.54,11.54,0,0,0,11.54,11.54h31.74a11.54,11.54,0,0,1,11.54,11.54h0A11.54,11.54,0,0,1,422.25,231h-5.77a11.54,11.54,0,0,0,0,23.08H531.9a11.54,11.54,0,0,0,1.4-23l0-.09H529a11.54,11.54,0,0,1-11.54-11.54h0A11.54,11.54,0,0,1,529,207.89h77.91a11.54,11.54,0,0,0,11.54-11.54h0A11.55,11.55,0,0,0,606.92,184.8ZM503,219.43h0a8.65,8.65,0,0,1-8.65,8.65H454a8.66,8.66,0,0,1-8.66-8.65h0a8.66,8.66,0,0,1,8.66-8.66h40.4A8.66,8.66,0,0,1,503,219.43Z"/><path class="cls-17" d="M1599,129.35h0a11.54,11.54,0,0,0,11.54,11.54h77.91A11.54,11.54,0,0,1,1700,152.43h0A11.54,11.54,0,0,1,1688.42,164h-4.33l0,.09a11.54,11.54,0,0,0,1.41,23H1801a11.54,11.54,0,0,0,0-23.08h-5.77a11.54,11.54,0,0,1-11.54-11.54h0a11.53,11.53,0,0,1,11.54-11.54h31.74a11.54,11.54,0,0,0,11.54-11.54h0a11.55,11.55,0,0,0-11.54-11.55H1610.51A11.55,11.55,0,0,0,1599,129.35ZM1723,143.77h40.4a8.66,8.66,0,0,1,8.65,8.66h0a8.65,8.65,0,0,1-8.65,8.65H1723a8.65,8.65,0,0,1-8.65-8.65h0A8.66,8.66,0,0,1,1723,143.77Z"/><path class="cls-17" d="M1308,196.35h0a11.54,11.54,0,0,0,11.54,11.54h77.91A11.54,11.54,0,0,1,1409,219.43h0A11.54,11.54,0,0,1,1397.42,231h-4.33l0,.09a11.54,11.54,0,0,0,1.41,23H1510a11.54,11.54,0,0,0,0-23.08h-5.77a11.54,11.54,0,0,1-11.54-11.54h0a11.53,11.53,0,0,1,11.54-11.54h31.74a11.54,11.54,0,0,0,11.54-11.54h0a11.55,11.55,0,0,0-11.54-11.55H1319.51A11.55,11.55,0,0,0,1308,196.35ZM1432,210.77h40.4a8.66,8.66,0,0,1,8.65,8.66h0a8.65,8.65,0,0,1-8.65,8.65H1432a8.65,8.65,0,0,1-8.65-8.65h0A8.66,8.66,0,0,1,1432,210.77Z"/></g></svg>