<svg id="Layer_1" data-name="Layer 1" xmlns="http://www.w3.org/2000/svg" xmlns:xlink="http://www.w3.org/1999/xlink" viewBox="0 0 1920 1080"><defs><style>.cls-1,.cls-7{fill:none;}.cls-2{clip-path:url(#clip-path);}.cls-3{fill:#0096d6;}.cls-4{fill:#68c61e;}.cls-5{fill:#469f0a;}.cls-6{fill:#00b0e7;opacity:0.5;}.cls-7{stroke:#333248;stroke-miterlimit:10;stroke-width:9.63px;}.cls-8{fill:#fcb62b;}.cls-9{fill:#f4de75;}.cls-10{fill:#ea882d;}.cls-11{fill:#ef5460;}.cls-12{fill:#f27a87;}.cls-13{fill:#d73d50;}.cls-14{fill:#ffebc2;}.cls-15{fill:#8a5442;}.cls-16{fill:#6a392b;}.cls-17{fill:#9c6550;}.cls-18{fill:#b4d2e1;}.cls-19{fill:#c7e8f0;}.cls-20{fill:#408708;}.cls-21{fill:#844f03;}.cls-22{fill:#935606;}.cls-23{fill:#3d7c06;}</style><clipPath id="clip-path"><rect class="cls-1" x="1" width="1919" height="1080"/></clipPath></defs><title>AirBalloon</title><g class="cls-2"><rect class="cls-3" x="-0.5" y="-0.5" width="1921" height="1081"/><path class="cls-4" d="M1920.5,1080.5V589c-60.69-5.23-123-8-186.5-8-419.37,0-786,118.56-984.86,295.31C612.73,771.19,404.42,704,171,704A1177.56,1177.56,0,0,0,.5,716.27V1080.5Z"/><path class="cls-5" d="M1921,1080V650.45c-60.69-4.57-123-7-186.5-7-419.37,0-786,103.61-984.86,258.06C613.23,809.7,404.92,751,171.5,751A1344.34,1344.34,0,0,0,1,761.71V1080Z"/><path class="cls-6" d="M0,0C487.07,238,1076.36,406.28,1733,341.93q95.31-9.33,187-24.46V0Z"/><path class="cls-6" d="M0,0C487.07,185.13,1076.36,316.06,1733,266q95.31-7.26,187-19V0Z"/><path class="cls-6" d="M0,1C487.07,135.46,1076.36,230.55,1733,194.19q95.31-5.26,187-13.82V1Z"/><line class="cls-7" x1="244.89" y1="435.09" x2="247.6" y2="503.53"/><line class="cls-7" x1="260.31" y1="434.18" x2="263.03" y2="502.62"/><line class="cls-7" x1="290.16" y1="434.18" x2="287.45" y2="502.62"/><line class="cls-7" x1="309.03" y1="435.09" x2="306.31" y2="503.53"/><path class="cls-8" d="M430,237C430,157.59,362.1,93.2,278.35,93.2S126.71,157.59,126.71,237c0,49.4,26.26,93,66.26,118.86h0c46.37,35.95,50.51,81,50.51,81h67.4S317.31,392,363.51,356C403.64,330.14,430,286.5,430,237Z"/><path class="cls-9" d="M268.55,236.93C224.94,278.62,168.16,290,141.73,262.35s-12.5-83.85,31.11-125.54,100.39-53.07,126.82-25.42S312.16,195.25,268.55,236.93Z"/><path class="cls-10" d="M389.67,139.36A150.15,150.15,0,0,1,146.11,307.41,147.74,147.74,0,0,0,193,355.87c46.37,35.95,50.51,81,50.51,81h67.4S317.31,392,363.51,356C403.64,330.14,430,286.5,430,237,430,199.31,414.7,165,389.67,139.36Z"/><path class="cls-11" d="M398.06,237c0-79.42-53.6-143.81-119.71-143.81S158.65,157.59,158.65,237c0,49.4,20.73,93,52.31,118.86h0c36.6,35.95,39.87,81,39.87,81H304S309.11,392,345.57,356C377.25,330.14,398.06,286.5,398.06,237Z"/><path class="cls-12" d="M299.66,111.39C288.26,99.47,271.22,94.81,252,96.7c-53.45,14.41-93.38,71.75-93.38,140.31A171.58,171.58,0,0,0,162.87,275c29.4,8.66,71.57-5.41,105.68-38C312.16,195.25,326.09,139,299.66,111.39Z"/><path class="cls-13" d="M398,242.85A150.23,150.23,0,0,1,195.69,341,127.49,127.49,0,0,0,211,355.87c36.6,35.95,39.87,81,39.87,81H304S309.11,392,345.57,356C376,331.17,396.38,289.92,398,242.85Z"/><path class="cls-8" d="M346.41,237c0-79.42-30.47-143.81-68.06-143.81S210.3,157.59,210.3,237c0,49.4,11.79,93,29.74,118.86h0c20.81,35.95,22.66,81,22.66,81H293S295.84,392,316.57,356C334.58,330.14,346.41,286.5,346.41,237Z"/><path class="cls-9" d="M299.66,111.39c-9-9.37-21.39-14.24-35.61-15C233.33,110.28,210.3,168,210.3,237a296.77,296.77,0,0,0,2,35c19-6.39,38.67-18.25,56.22-35C312.16,195.25,326.09,139,299.66,111.39Z"/><path class="cls-10" d="M329.56,331.72a150.41,150.41,0,0,1-92.31,19.9c.92,1.46,1.84,2.89,2.79,4.25,20.81,35.95,22.66,81,22.66,81H293S295.84,392,316.57,356A130,130,0,0,0,329.56,331.72Z"/><path class="cls-11" d="M310.52,237c0-79.42-14.4-143.81-32.17-143.81S246.18,157.59,246.18,237c0,49.4,5.57,93,14.06,118.86h0c9.84,35.95,10.71,81,10.71,81h14.3S286.62,392,296.42,356C304.93,330.14,310.52,286.5,310.52,237Z"/><path class="cls-12" d="M290.69,104.16a53.13,53.13,0,0,0-19.81-7c-14.16,15.06-24.7,72-24.7,139.9q0,9,.25,17.8a169.88,169.88,0,0,0,22.12-17.88c18.94-18.1,32.27-38.93,39.14-59C304.34,144.7,298.24,118.19,290.69,104.16Z"/><path class="cls-14" d="M229.46,397.53c12.41,21.88,14,39.37,14,39.37h67.4s2.45-17.1,15.17-38.64C281.42,380.7,245.34,390.94,229.46,397.53Z"/><path class="cls-15" d="M248.5,498.4h57.21a.9.9,0,0,1,.9.9v50a.91.91,0,0,1-.91.91H248.51a.91.91,0,0,1-.91-.91v-50A.9.9,0,0,1,248.5,498.4Z"/><path class="cls-16" d="M306.62,515.58V499.31a.91.91,0,0,0-.91-.91H248.5a.91.91,0,0,0-.9.91v16.27Z"/><path class="cls-17" d="M245.79,496.59h62.94a.9.9,0,0,1,.9.9V508a.91.91,0,0,1-.91.91H245.79a.9.9,0,0,1-.9-.9V497.5A.9.9,0,0,1,245.79,496.59Z"/><path class="cls-18" d="M1878,307.74c-17.48,19.91-42.6,13.81-42.6,13.81s18.71,17.84,11.39,43.31c17.49-19.92,42.6-13.81,42.6-13.81S1870.71,333.21,1878,307.74Z"/><path class="cls-18" d="M107,27.74c-17.48,19.91-42.6,13.81-42.6,13.81S83.13,59.39,75.81,84.86c17.49-19.92,42.6-13.81,42.6-13.81S99.71,53.21,107,27.74Z"/><path class="cls-18" d="M1251.09,83.31c-11,12.58-26.93,8.73-26.93,8.73s11.83,11.27,7.2,27.37c11.06-12.58,26.92-8.72,26.92-8.72S1246.46,99.41,1251.09,83.31Z"/><path class="cls-18" d="M1364.09,442.31c-11,12.58-26.93,8.73-26.93,8.73s11.83,11.27,7.2,27.37c11.06-12.58,26.92-8.72,26.92-8.72S1359.46,458.41,1364.09,442.31Z"/><path class="cls-18" d="M533.83,313.26c-5.38,6.13-13.12,4.25-13.12,4.25s5.76,5.5,3.51,13.34c5.39-6.13,13.12-4.25,13.12-4.25S531.58,321.1,533.83,313.26Z"/><path class="cls-18" d="M1477.83,296.26c-5.38,6.13-13.12,4.25-13.12,4.25s5.76,5.5,3.51,13.34c5.39-6.13,13.12-4.25,13.12-4.25S1475.58,304.1,1477.83,296.26Z"/><path class="cls-18" d="M516.83,572.26c-5.38,6.13-13.12,4.25-13.12,4.25s5.76,5.5,3.51,13.34c5.39-6.13,13.12-4.25,13.12-4.25S514.58,580.1,516.83,572.26Z"/><circle class="cls-18" cx="594.5" cy="263.5" r="13.5"/><circle class="cls-18" cx="1804.5" cy="240.5" r="13.5"/><path class="cls-19" d="M479.64,68.13A11.65,11.65,0,1,1,468,56.48,11.64,11.64,0,0,1,479.64,68.13Z"/><path class="cls-19" d="M400.64,456.13A11.65,11.65,0,1,1,389,444.48,11.64,11.64,0,0,1,400.64,456.13Z"/><path class="cls-19" d="M1625.64,376.13A11.65,11.65,0,1,1,1614,364.48,11.64,11.64,0,0,1,1625.64,376.13Z"/><path class="cls-18" d="M99.34,305.12c-8.61,9.8-21,6.79-21,6.79s9.22,8.79,5.61,21.34c8.62-9.81,21-6.8,21-6.8S95.74,317.66,99.34,305.12Z"/><path class="cls-18" d="M120.34,534.12c-8.61,9.8-21,6.79-21,6.79s9.22,8.79,5.61,21.34c8.62-9.81,21-6.8,21-6.8S116.74,546.66,120.34,534.12Z"/><path class="cls-18" d="M1781.37,121.64A89.36,89.36,0,1,1,1692,32.29,89.36,89.36,0,0,1,1781.37,121.64Z"/><path class="cls-20" d="M1571.72,523.44a28.51,28.51,0,0,0-20.16-36.24,36.62,36.62,0,1,0-72.11-9,37.16,37.16,0,0,0,.67,7,31.24,31.24,0,0,0-14.4,49.36,37.9,37.9,0,1,0,44,56.74,46.23,46.23,0,1,0,62-67.82Z"/><path class="cls-21" d="M1510.72,698.9a2.46,2.46,0,0,1-2.46-2.46V520a2.47,2.47,0,1,1,4.93,0V696.44A2.47,2.47,0,0,1,1510.72,698.9Z"/><path class="cls-21" d="M1510.73,559.28a2.47,2.47,0,0,1-2-1L1489.33,531a2.46,2.46,0,0,1,4-2.85l19.38,27.27a2.46,2.46,0,0,1-.58,3.43A2.43,2.43,0,0,1,1510.73,559.28Z"/><path class="cls-21" d="M1510.72,593.77a2.46,2.46,0,0,1-1.8-4.14l40.41-43.37a2.47,2.47,0,0,1,3.61,3.36L1512.53,593A2.48,2.48,0,0,1,1510.72,593.77Z"/><path class="cls-20" d="M1700.91,574a20.91,20.91,0,0,0-14.76-26.55,26.82,26.82,0,1,0-52.82-6.58,27.54,27.54,0,0,0,.49,5.09,22.88,22.88,0,0,0-10.54,36.15,27.76,27.76,0,1,0,32.25,41.56A33.85,33.85,0,1,0,1700.91,574Z"/><path class="cls-21" d="M1656.24,702.46a1.81,1.81,0,0,1-1.81-1.81V571.44a1.81,1.81,0,0,1,3.61,0V700.65A1.81,1.81,0,0,1,1656.24,702.46Z"/><path class="cls-21" d="M1656.24,600.2a1.8,1.8,0,0,1-1.47-.76l-14.2-20a1.81,1.81,0,0,1,2.94-2.1l14.2,20a1.79,1.79,0,0,1-.43,2.51A1.75,1.75,0,0,1,1656.24,600.2Z"/><path class="cls-21" d="M1656.24,625.46a1.8,1.8,0,0,1-1.32-3l29.59-31.76a1.8,1.8,0,1,1,2.64,2.46l-29.59,31.77A1.81,1.81,0,0,1,1656.24,625.46Z"/><path class="cls-20" d="M1848.92,537.77a25.54,25.54,0,0,0-18.05-32.46,32.79,32.79,0,1,0-64-1.83,28,28,0,0,0-12.9,44.21,33.95,33.95,0,1,0,39.44,50.82,41.4,41.4,0,1,0,55.49-60.74Z"/><path class="cls-21" d="M1794.3,694.9a2.21,2.21,0,0,1-2.21-2.2v-158a2.21,2.21,0,0,1,4.41,0v158A2.2,2.2,0,0,1,1794.3,694.9Z"/><path class="cls-21" d="M1794.3,569.86a2.19,2.19,0,0,1-1.8-.93l-17.36-24.42a2.21,2.21,0,0,1,3.6-2.55l17.36,24.42a2.21,2.21,0,0,1-1.8,3.48Z"/><path class="cls-21" d="M1794.3,600.75a2.2,2.2,0,0,1-1.62-3.71l36.19-38.83a2.21,2.21,0,1,1,3.23,3l-36.19,38.83A2.17,2.17,0,0,1,1794.3,600.75Z"/><path class="cls-20" d="M159.34,662.68a19.55,19.55,0,0,0-13.81-24.84,25.09,25.09,0,1,0-49.42-6.16,25.69,25.69,0,0,0,.46,4.76,21.42,21.42,0,0,0-9.87,33.83,26,26,0,1,0,30.18,38.88,31.67,31.67,0,1,0,42.46-46.47Z"/><path class="cls-21" d="M117.54,782.92a1.69,1.69,0,0,1-1.68-1.69V660.33a1.69,1.69,0,1,1,3.37,0v120.9A1.69,1.69,0,0,1,117.54,782.92Z"/><path class="cls-21" d="M117.54,687.24a1.68,1.68,0,0,1-1.37-.72l-13.29-18.68a1.69,1.69,0,1,1,2.76-2l13.28,18.69a1.68,1.68,0,0,1-.4,2.35A1.71,1.71,0,0,1,117.54,687.24Z"/><path class="cls-21" d="M117.54,710.87a1.68,1.68,0,0,1-1.23-2.84L144,678.32a1.69,1.69,0,1,1,2.47,2.3l-27.69,29.72A1.7,1.7,0,0,1,117.54,710.87Z"/><path class="cls-20" d="M247.87,706a11.79,11.79,0,0,0,.67-3.9c0-6-4.59-11.08-10.79-12.49a14.8,14.8,0,0,0,.56-4.06c0-9.15-8.22-16.56-18.37-16.56s-18.38,7.41-18.38,16.56a14.88,14.88,0,0,0,.34,3.14c-6.24,1.87-10.74,7.16-10.74,13.41a13.26,13.26,0,0,0,3.51,8.91c-7.44,2.33-12.78,8.69-12.78,16.19,0,9.47,8.52,17.14,19,17.14a19.62,19.62,0,0,0,15.85-7.67,24.29,24.29,0,0,0,17.47,7.15c12.81,0,23.2-9.36,23.2-20.91A20.31,20.31,0,0,0,247.87,706Z"/><path class="cls-21" d="M217.26,785.35a1.19,1.19,0,0,1-1.24-1.11V704.46a1.24,1.24,0,0,1,2.47,0v79.78A1.18,1.18,0,0,1,217.26,785.35Z"/><path class="cls-21" d="M217.26,722.22a1.3,1.3,0,0,1-1-.47l-9.73-12.33a1.06,1.06,0,0,1,.29-1.56,1.33,1.33,0,0,1,1.73.27l9.73,12.33A1,1,0,0,1,218,722,1.28,1.28,0,0,1,217.26,722.22Z"/><path class="cls-21" d="M217.26,737.81a1.29,1.29,0,0,1-.84-.3,1,1,0,0,1-.07-1.57l20.28-19.61a1.34,1.34,0,0,1,1.75-.05,1,1,0,0,1,.06,1.57l-20.28,19.61A1.3,1.3,0,0,1,217.26,737.81Z"/><path class="cls-20" d="M349.29,672.5a17.5,17.5,0,0,0-12.36-22.25,22.72,22.72,0,0,0,.68-5.51,22.47,22.47,0,0,0-44.94,0,23,23,0,0,0,.41,4.26,19.17,19.17,0,0,0-8.83,30.29,23.26,23.26,0,1,0,27,34.83,28.37,28.37,0,1,0,38-41.62Z"/><path class="cls-21" d="M311.86,780.17a1.51,1.51,0,0,1-1.51-1.51V670.4a1.52,1.52,0,1,1,3,0V778.66A1.51,1.51,0,0,1,311.86,780.17Z"/><path class="cls-21" d="M311.87,694.49a1.51,1.51,0,0,1-1.24-.64l-11.89-16.73a1.51,1.51,0,1,1,2.46-1.75l11.9,16.73a1.52,1.52,0,0,1-.36,2.11A1.5,1.5,0,0,1,311.87,694.49Z"/><path class="cls-21" d="M311.86,715.66a1.55,1.55,0,0,1-1-.41,1.5,1.5,0,0,1-.07-2.13l24.8-26.62a1.51,1.51,0,0,1,2.21,2.06L313,715.18A1.51,1.51,0,0,1,311.86,715.66Z"/><path class="cls-21" d="M1921,1080H1V948c31.39,1.17,82.34,3,145,5,511.74,16.21,767.61,24.31,1001,8,192.9-13.48,279-31.6,486-29,121.3,1.53,221.14,9.38,288,16Z"/><path class="cls-22" d="M1920,1080H0V966.7c31.39,1,82.34,2.59,145,4.29,511.74,13.91,767.61,20.87,1001,6.87,192.9-11.57,279-27.13,486-24.9,121.3,1.31,221.14,8,288,13.74Z"/><path class="cls-23" d="M1786.31,1080,1763,999.6s31.46,53.6,32.63,75.74c0,0,10.49-137.5-8.16-101.38,0,0,14-58.26,15.15,12.82s0,2.33,0,2.33-2.33,71.08,0,87.39c0,0,19.81-79.23,15.15-81.56,0,0,8.15,12.81-5.83,75.74,0,0,16.32-61.76,23.31-54.77,0,0-22.14,38.45-16.32,64.09Z"/><path class="cls-23" d="M1811.94,1080l-23.3-80.4s31.46,53.6,32.62,75.74c0,0,10.49-137.5-8.15-101.38,0,0,14-58.26,15.15,12.82s0,2.33,0,2.33-2.34,71.08,0,87.39c0,0,19.8-79.23,15.14-81.56,0,0,8.16,12.81-5.82,75.74,0,0,16.31-61.76,23.3-54.77,0,0-22.14,38.45-16.31,64.09Z"/><path class="cls-23" d="M1791.8,1077.67,1763,978.31s38.88,66.24,40.32,93.6c0,0,13-169.92-10.08-125.28,0,0,17.28-72,18.72,15.84s0,2.88,0,2.88-2.88,87.84,0,108c0,0,24.48-97.92,18.72-100.8,0,0,10.08,15.84-7.2,93.6,0,0,20.16-76.32,28.8-67.68,0,0-27.36,47.52-20.16,79.2Z"/><path class="cls-23" d="M1849.23,1080l23.31-80.4s-31.47,53.6-32.63,75.74c0,0-10.49-137.5,8.15-101.38,0,0-14-58.26-15.14,12.82s0,2.33,0,2.33,2.33,71.08,0,87.39c0,0-19.81-79.23-15.15-81.56,0,0-8.16,12.81,5.82,75.74,0,0-16.31-61.76-23.3-54.77,0,0,22.14,38.45,16.31,64.09Z"/><path class="cls-23" d="M47.31,1079,24,998.6s31.46,53.6,32.63,75.74c0,0,10.49-137.5-8.16-101.38,0,0,14-58.26,15.15,12.82s0,2.33,0,2.33-2.33,71.08,0,87.39c0,0,19.81-79.23,15.15-81.56,0,0,8.15,12.81-5.83,75.74,0,0,16.32-61.76,23.31-54.77,0,0-22.14,38.45-16.32,64.09Z"/><path class="cls-23" d="M72.94,1079l-23.3-80.4s31.46,53.6,32.62,75.74c0,0,10.49-137.5-8.15-101.38,0,0,14-58.26,15.15,12.82s0,2.33,0,2.33-2.34,71.08,0,87.39c0,0,19.8-79.23,15.14-81.56,0,0,8.16,12.81-5.82,75.74,0,0,16.31-61.76,23.3-54.77,0,0-22.14,38.45-16.31,64.09Z"/><path class="cls-23" d="M52.8,1076.67,24,977.31s38.88,66.24,40.32,93.6c0,0,13-169.92-10.08-125.28,0,0,17.28-72,18.72,15.84s0,2.88,0,2.88-2.88,87.84,0,108c0,0,24.48-97.92,18.72-100.8,0,0,10.08,15.84-7.2,93.6,0,0,20.16-76.32,28.8-67.68,0,0-27.36,47.52-20.16,79.2Z"/><path class="cls-23" d="M110.23,1079l23.31-80.4s-31.47,53.6-32.63,75.74c0,0-10.49-137.5,8.15-101.38,0,0-14-58.26-15.14,12.82s0,2.33,0,2.33,2.33,71.08,0,87.39c0,0-19.81-79.23-15.15-81.56,0,0-8.16,12.81,5.82,75.74,0,0-16.31-61.76-23.3-54.77,0,0,22.14,38.45,16.31,64.09Z"/><rect class="cls-23" x="1" y="1056" width="1919" height="24"/></g></svg>