<svg xmlns="http://www.w3.org/2000/svg" xmlns:xlink="http://www.w3.org/1999/xlink" viewBox="0 0 1920 1080"><defs><style>.cls-1{fill:none;}.cls-2{isolation:isolate;}.cls-3{clip-path:url(#clip-path);}.cls-4{fill:#daf3f7;}.cls-5{fill:#cce2e5;}.cls-6{fill:#b9c6b3;}.cls-7{fill:#dcebd6;}.cls-12,.cls-8{fill:#8cb347;}.cls-8{mix-blend-mode:multiply;}.cls-15,.cls-9{fill:#cbd3c7;}.cls-10{fill:#98b547;}.cls-11{fill:#cdca31;}.cls-13{fill:#603e2a;}.cls-14{fill:#fff;}.cls-15{stroke:#b5b7b3;stroke-miterlimit:10;stroke-width:2px;}</style><clipPath id="clip-path"><rect class="cls-1" width="1920" height="1080"/></clipPath></defs><title>second</title><g class="cls-2"><g id="Layer_1" data-name="Layer 1"><g class="cls-3"><rect class="cls-4" width="1920" height="1080"/><path class="cls-5" d="M1551,137c-172.88,0-324.89,89.36-412.37,224.4A536.81,536.81,0,0,0,793,236c-207.85,0-388.21,117.65-478.15,290A332.62,332.62,0,0,0,98,446c-184.46,0-334,149.54-334,334s149.54,334,334,334a332.75,332.75,0,0,0,220.49-83.14C409.59,1199.46,587.92,1314,793,1314c205.65,0,384.39-115.18,475.26-284.54A488.77,488.77,0,0,0,1551,1119c271.17,0,491-219.83,491-491S1822.17,137,1551,137Z"/><path class="cls-6" d="M1920,604.46l-96-55.89S1660,543,1616,616l-218-58-153,64.39L1154,583,785,622.39S557,655,364,578.1L154,607.62,82,533.8,48,548.57,0,441v599H1920Z"/><path class="cls-7" d="M0,636.46l96-56.92s164-5.67,208,68.67l218-59.06,153,65.57,91-40.11,369,40.11s228,33.21,421-45.11l210,30.07,72-75.17,34,15L1920,470v610H0Z"/><polygon class="cls-8" points="0 670.7 134 638 272 716.29 535 683.59 1346 784.67 1346 1080 0 1080 0 670.7"/><path class="cls-9" d="M1920,674s-141,114.9-669,62.24L658,842l.14,221H1920Z"/><path class="cls-10" d="M0,762.71S355,724,673,824c0,0,452-89,733-51,0,0,487,26.68,514-17.66V1080H0Z"/><rect class="cls-11" y="866" width="1920" height="214"/><path class="cls-12" d="M232.65,670.26A39.21,39.21,0,0,0,219.51,644a36.23,36.23,0,0,0-8.25-5.51,38.57,38.57,0,0,0,.6-10.1,41.24,41.24,0,0,0-13.8-27.62c-7.51-6.6-16-9.29-25.48-9.92a39.28,39.28,0,0,0-10.93-16.09c-8.31-7.32-17.94-9.59-28.73-9.59-20.69,0-36.53,20.79-35.94,40.29a40.25,40.25,0,0,0-16.76,26.28,39.7,39.7,0,0,0-11.3,66.63l8.54,5.74a39.94,39.94,0,0,0,20.73,4L108.27,706a39.44,39.44,0,0,0,5.06-2.2c.51.5,1,1,1.57,1.46l10.26,6.88A48,48,0,0,0,150,717l12.09-2.55a47.69,47.69,0,0,0,13-7c6.57,3.48,13.81,4.69,21.66,4.69C218,712.12,234.17,690.19,232.65,670.26Z"/><path class="cls-8" d="M92.81,670.41c0-44,31.1-81.81,72.17-92.35a37.26,37.26,0,0,0-3.33-3.32c-8.31-7.32-17.94-9.59-28.73-9.59-20.69,0-36.53,20.79-35.94,40.29a40.25,40.25,0,0,0-16.76,26.28,39.7,39.7,0,0,0-11.3,66.63l8.54,5.74a39.94,39.94,0,0,0,20.73,4l2.39-.5A93.17,93.17,0,0,1,92.81,670.41Z"/><polygon class="cls-13" points="138 775.54 148 675.54 152 675.54 162 775.54 138 775.54"/><line class="cls-12" x1="151.58" y1="710.47" x2="167.3" y2="694.75"/><polygon class="cls-13" points="148.04 706.93 166.71 694.16 167.89 695.34 155.12 714 148.04 706.93"/><line class="cls-12" x1="151.58" y1="732.47" x2="135.86" y2="716.75"/><polygon class="cls-13" points="148.05 736 135.27 717.34 136.45 716.16 155.12 728.93 148.05 736"/><path class="cls-12" d="M1836.79,681.77c-5.44-9.38-1-17.63,9.83-17.63h2.1c10.85,0,15.27-7.11,9.82-16.5l-26.36-45.14c-5.44-9.38-2.86-16.92,5.75-16.92s11.2-7.6,5.75-17L1820.09,528c-5.44-9.39-14.36-24.73-19.8-34.11l-23.59-40.64c-5.45-9.38-14.36-9.38-19.81,0l-23.58,40.64L1713.5,528l-23.58,40.64c-5.45,9.39-2.86,17.07,5.74,17.07s11.2,7.67,5.75,17.06l-26.36,44.86c-5.45,9.38-1,16.49,9.83,16.49h2.1c10.85,0,15.27,8.25,9.83,17.63l-37.88,65.8c-5.45,9.39-1,17.6,9.82,17.6h196.09c10.85,0,15.27-8.21,9.83-17.6Z"/><path class="cls-8" d="M1767.55,446.27c-3.84-.35-7.74,2-10.66,7l-23.58,40.64L1713.5,528l-23.58,40.64c-5.45,9.39-2.86,17.07,5.74,17.07s11.2,7.67,5.75,17.06l-26.36,45.11c-5.45,9.39-1,16.75,9.83,16.75h2.1c10.85,0,15.27,8,9.83,17.38l-37.88,65.72c-5.45,9.39-1,17.52,9.82,17.52h98.8Z"/><polygon class="cls-13" points="1751.94 809.35 1761.94 567.59 1765.95 567.59 1775.94 809.35 1751.94 809.35"/><line class="cls-12" x1="1766.8" y1="691.12" x2="1795.16" y2="662.76"/><polygon class="cls-13" points="1763.26 687.58 1794.57 662.17 1795.75 663.35 1770.33 694.65 1763.26 687.58"/><line class="cls-12" x1="1766.8" y1="730.81" x2="1738.44" y2="702.45"/><polygon class="cls-13" points="1763.26 734.35 1737.85 703.04 1739.03 701.86 1770.33 727.27 1763.26 734.35"/><line class="cls-12" x1="1766.8" y1="649.62" x2="1738.44" y2="621.26"/><polygon class="cls-13" points="1763.26 653.16 1737.85 621.85 1739.03 620.67 1770.33 646.09 1763.26 653.16"/><path class="cls-12" d="M554.7,633.92l-.18-.24a32.79,32.79,0,0,0-5.63-32.56,27.33,27.33,0,0,0-6.43-32.79l-5.9-4a27.6,27.6,0,0,0-14.3-2.79l-7,1.47a27.35,27.35,0,0,0-16,37c-.15.17-.31.32-.46.49a33.13,33.13,0,0,0-8.1,24.29,32.37,32.37,0,0,0,2,8.88,39,39,0,0,0-2.67,4.53c-.33.67-.63,1.34-.92,2a38.79,38.79,0,0,0-3.36,19,37.19,37.19,0,0,0,65.74,20.89l.05,0c4.33-4.22,7.74-12.27,8.84-18,.2-3.35.39-6.69.59-10A37.56,37.56,0,0,0,554.7,633.92Z"/><path class="cls-8" d="M499.53,660.81a33.15,33.15,0,0,1,4.79-17.11,33.11,33.11,0,0,1-2.78-13.28A34,34,0,0,1,514,604.31a33.27,33.27,0,0,1-2.73-13.17,34.13,34.13,0,0,1,17.13-29.33,28.32,28.32,0,0,0-6.12-.23l-7,1.47a27.35,27.35,0,0,0-16,37c-.15.17-.31.32-.46.49a33.13,33.13,0,0,0-8.1,24.29,32.37,32.37,0,0,0,2,8.88,39,39,0,0,0-2.67,4.53c-.33.67-.63,1.34-.92,2a38.79,38.79,0,0,0-3.36,19,37.18,37.18,0,0,0,39.29,34.28A34.13,34.13,0,0,1,499.53,660.81Z"/><polygon class="cls-13" points="511.33 706.53 521.33 641.5 525.33 641.5 535.33 706.53 511.33 706.53"/><line class="cls-12" x1="524.35" y1="663.91" x2="534.58" y2="653.69"/><polygon class="cls-13" points="520.82 660.38 533.99 653.1 535.17 654.28 527.89 667.45 520.82 660.38"/><line class="cls-12" x1="524.35" y1="678.22" x2="514.13" y2="668"/><polygon class="cls-13" points="520.82 681.76 513.54 668.59 514.72 667.41 527.89 674.68 520.82 681.76"/><path class="cls-12" d="M613.77,686.86a17.6,17.6,0,0,0-1.76-6.41,21.73,21.73,0,0,0-2.4-30.19l-4.68-3.14a22,22,0,0,0-11.35-2.21l-5.52,1.17a21.73,21.73,0,0,0-8.2,35.87,17.15,17.15,0,0,0,2.3,16.85,15,15,0,0,0-1,6.43c.67,8.66,8,13.89,16.22,13.89s14.48-8.5,13.89-16.22a15.23,15.23,0,0,0-.95-4.26A18.4,18.4,0,0,0,613.77,686.86Z"/><path class="cls-8" d="M591.16,699.94a18.69,18.69,0,0,1,1.25-18.16,19.12,19.12,0,0,1,11.26-34.61c.48,0,1,0,1.43.06l-.17-.11a22,22,0,0,0-11.35-2.21l-5.52,1.17a21.73,21.73,0,0,0-8.2,35.87,17.15,17.15,0,0,0,2.3,16.85,15,15,0,0,0-1,6.43c.58,7.53,6.2,12.46,13.05,13.62a18.91,18.91,0,0,1-4.37-12A18.58,18.58,0,0,1,591.16,699.94Z"/><polygon class="cls-13" points="584.58 741.66 594.58 687.97 598.58 687.97 608.58 741.66 584.58 741.66"/><line class="cls-12" x1="597.21" y1="715.4" x2="603.51" y2="709.1"/><polygon class="cls-13" points="593.68 711.87 602.92 708.51 604.1 709.69 600.75 718.94 593.68 711.87"/><line class="cls-12" x1="597.21" y1="724.22" x2="590.92" y2="717.92"/><polygon class="cls-13" points="593.68 727.75 590.33 718.51 591.51 717.33 600.75 720.68 593.68 727.75"/><line class="cls-12" x1="597.21" y1="706.19" x2="590.92" y2="699.89"/><polygon class="cls-13" points="593.68 709.72 590.33 700.48 591.51 699.3 600.75 702.65 593.68 709.72"/><path class="cls-12" d="M292.7,755.59a26.51,26.51,0,0,0-8.87-17.75,24.08,24.08,0,0,0-5.58-3.71,26.19,26.19,0,0,0,.41-6.83,27.86,27.86,0,0,0-9.32-18.65c-5.07-4.46-10.83-6.27-17.21-6.7a26.45,26.45,0,0,0-7.38-10.87c-5.61-4.94-12.11-6.47-19.4-6.47-14,0-24.67,14-24.27,27.21a27.18,27.18,0,0,0-11.32,17.75,26.8,26.8,0,0,0-7.63,45l5.77,3.88a27,27,0,0,0,14,2.72l6.8-1.43a26.17,26.17,0,0,0,3.42-1.49c.35.34.7.67,1.06,1l6.93,4.65a32.37,32.37,0,0,0,16.79,3.26l8.16-1.72a32.1,32.1,0,0,0,8.79-4.73c4.43,2.35,9.32,3.17,14.63,3.17C282.83,783.86,293.73,769.05,292.7,755.59Z"/><path class="cls-8" d="M198.26,755.69c0-29.7,21-55.24,48.74-62.37a25,25,0,0,0-2.25-2.24c-5.61-4.94-12.11-6.47-19.4-6.47-14,0-24.67,14-24.27,27.21a27.18,27.18,0,0,0-11.32,17.75,26.8,26.8,0,0,0-7.63,45l5.77,3.88a27,27,0,0,0,14,2.72l1.61-.34A62.89,62.89,0,0,1,198.26,755.69Z"/><polygon class="cls-13" points="224.88 827 234.88 759.47 238.88 759.47 248.88 827 224.88 827"/><line class="cls-12" x1="237.95" y1="782.74" x2="248.57" y2="772.13"/><polygon class="cls-13" points="234.42 779.21 247.98 771.54 249.16 772.72 241.49 786.28 234.42 779.21"/><line class="cls-12" x1="237.95" y1="797.6" x2="227.34" y2="786.98"/><polygon class="cls-13" points="234.42 801.14 226.75 787.57 227.93 786.4 241.49 794.07 234.42 801.14"/><path class="cls-12" d="M1269.56,613.73c-5.4-7-13.8-7.38-19.09-6.8-5.28-.58-13.68-.16-19.08,6.8-14.54,18.76-85.23,147.38,19.08,146.37C1354.79,761.11,1284.1,632.49,1269.56,613.73Z"/><path class="cls-8" d="M1227.72,741.51c-10.12-23.31-14-48-10.18-72.64,1.84-12,3.45-24.26,8.57-35.64,4-8.88,8.58-17.91,15.06-25.77a17.47,17.47,0,0,0-9.78,6.27c-14.06,18.14-80.62,139,9.32,146.06C1234.73,754.8,1230.81,748.63,1227.72,741.51Z"/><polygon class="cls-13" points="1241 791.51 1251 657.51 1255 657.51 1265 791.51 1241 791.51"/><line class="cls-12" x1="1254.58" y1="726.47" x2="1270.3" y2="710.75"/><polygon class="cls-13" points="1251.05 722.93 1269.71 710.16 1270.89 711.34 1258.12 730 1251.05 722.93"/><line class="cls-12" x1="1254.58" y1="748.47" x2="1238.86" y2="732.75"/><polygon class="cls-13" points="1251.05 752 1238.27 733.34 1239.45 732.16 1258.12 744.93 1251.05 752"/><line class="cls-12" x1="1254.58" y1="703.47" x2="1238.86" y2="687.75"/><polygon class="cls-13" points="1251.05 707 1238.27 688.34 1239.45 687.16 1258.12 699.93 1251.05 707"/><path class="cls-12" d="M1627.85,734.33a53.75,53.75,0,0,0-9-25.92l-9.07-10.32a54.69,54.69,0,1,0-62.5,88.18c3.88,2.35,22.19,7.37,14.48,5a3.2,3.2,0,0,0,.81.14,140.54,140.54,0,0,0,14.63.85,3.42,3.42,0,0,0,.46,0c4.86-.59,9.63-2,14.41-3a53.8,53.8,0,0,0,35.83-54.88Z"/><path class="cls-8" d="M1562.52,791.41l3,.3a63.16,63.16,0,0,1-27-51.37c0-25,15.26-47,36.84-57.06a54,54,0,0,0-21.9,2.9,54.43,54.43,0,0,0-6.22,100.09c3.88,2.35,22.19,7.37,14.48,5A3.2,3.2,0,0,0,1562.52,791.41Z"/><polygon class="cls-13" points="1560.53 821.17 1570.53 753.46 1574.53 753.46 1584.53 821.17 1560.53 821.17"/><line class="cls-12" x1="1573.6" y1="776.79" x2="1584.24" y2="766.15"/><polygon class="cls-13" points="1570.06 773.26 1583.65 765.56 1584.83 766.74 1577.14 780.33 1570.06 773.26"/><line class="cls-12" x1="1573.6" y1="791.69" x2="1562.96" y2="781.05"/><polygon class="cls-13" points="1570.06 795.23 1562.37 781.64 1563.55 780.46 1577.14 788.15 1570.06 795.23"/><path class="cls-8" d="M1982.73,1013.62c-5.84-1.4-10,.61-15.32,2.07-4,1.09-4.58,1.89-8.63,0-2-.93-4.19-3-6.1-3.69-2.65-1-10.62.43-13.12,3.07-3.54,3.73-1.71,7-7.74,4.63-5.4-2.17-10.22-6.1-15.85-8.22a63.4,63.4,0,0,1-14.55-7.36,76.89,76.89,0,0,1-10.45-8.31c-1.91-2-12.94.3-16.6,4.1-2.26,2.35-4.54,5.67-7.71,6.84-1.29.48-2.9,0-4.18.53s-3.09,3.43-4.37,3.49c-2.45.1-2.16-3.7-3.21-4.62-3.69-3.2-9.93,1-13.53,3.8-3.09,2.44-5.09,5.11-8.5,7.13a82.45,82.45,0,0,0-15.59,11.39c-4.7,4.43-9.81,8.59-15.52,11.08-3.54,1.55-7.82,2-11.4,3.52-4.06,1.74-6.3.4-10.31,2.43-4.73,2.38-7.67,1.84-12.47,3-3.59.88-8.52-1.84-12.09-.74-6.14,1.89-11.33,7.13-17.4,5.56-4.59-1.19-8.08-4.56-12.79-4.82-5-.27-8.39.54-13.16,0-4.45-.5-9.14-3.17-12.66-1.1-1.89,1.1-6.33.67-8.19.26-7.62-1.69-8.07,1.2-13.17-4.14-3.6-3.78-3.88-3.47-8.14-2.45-2.77.66-3.77.23-6.09-.5-4.36-1.38-6.89-8.12-11.13-10.32-7.55-3.92-15.41-9.7-24.43-11.15-3.27-.53-3.81,1.36-6.33,2a23.77,23.77,0,0,1-5.85.17c-5.68-.06-11-.1-16.35,1-6.55,1.37-10.12,2.18-14.85-3.11-2.11-2.37-18.33-5-20.64-3.65-7,3.93-12.7,10.76-18.91,16a40.3,40.3,0,0,1-17.85,8.14c-5.13,1-8.4-8.79-13.4-7.6-4,1-11.74,8.42-15.52,6.47-4.91-2.54-9.87-2.14-15.77-1.06-9,1.65-22.34,8.3-30.56,3.66a40.42,40.42,0,0,0-12.15-4.57c-1.78-.44-4.11-.83-6.11-1.41a21,21,0,0,0-6-.69c-4.76.08-6.28,1.86-10.54,3.77-3.85,1.72-5.8,1.3-8.64-1.84a51.66,51.66,0,0,0-11.33-9.48,54.3,54.3,0,0,0-11.48-5.4c-4.25-1.31-8.78-2.25-13.14-4.27-1.16-.54-2.57-2.17-3.86-2.24-2.43-.13-5.89,2.6-8.23,3.31-5.5,1.68-10.48,3.32-16.27,3-5.27-.26-7.7-5.89-12.1-6.34-2.59-.27-6.2,2.87-8.1,4.17-3.44,2.35-6.13.36-9.88,2.29-.76.39-3.84-.79-7.08-2.78-.39-.23-.81-.51-1.26-.78v-.73c-4.58-2-9.29-2.33-14.41-3.55-5.84-1.4-10,.61-15.32,2.07-4,1.09-4.58,1.89-8.63,0-2-.93-4.19-3-6.1-3.69-2.65-1-10.62.43-13.12,3.07-3.54,3.73-1.71,7-7.74,4.63-5.4-2.17-10.22-6.1-15.85-8.22a63.4,63.4,0,0,1-14.55-7.36,76.89,76.89,0,0,1-10.45-8.31c-1.91-2-12.94.3-16.6,4.1-2.26,2.35-4.54,5.67-7.71,6.84-1.29.48-2.9,0-4.18.53s-3.09,3.43-4.37,3.49c-2.45.1-2.16-3.7-3.21-4.62-3.69-3.2-9.93,1-13.53,3.8-3.09,2.44-5.09,5.11-8.5,7.13a82.45,82.45,0,0,0-15.59,11.39c-4.7,4.43-9.81,8.59-15.52,11.08-3.54,1.55-7.82,2-11.4,3.52-4.06,1.74-6.3.4-10.31,2.43-4.73,2.38-7.67,1.84-12.47,3-3.59.88-8.52-1.84-12.09-.74-6.14,1.89-11.33,7.13-17.4,5.56-4.59-1.19-8.08-4.56-12.79-4.82-5-.27-8.39.54-13.16,0-4.45-.5-9.14-3.17-12.66-1.1-1.89,1.1-6.33.67-8.19.26-7.62-1.69-8.07,1.2-13.17-4.14-3.6-3.78-3.88-3.47-8.14-2.45-2.77.66-3.77.23-6.09-.5-4.36-1.38-6.89-8.12-11.13-10.32-7.55-3.92-15.41-9.7-24.43-11.15-3.27-.53-3.81,1.36-6.33,2a23.77,23.77,0,0,1-5.85.17c-5.68-.06-11-.1-16.35,1-6.55,1.37-10.12,2.18-14.85-3.11-2.11-2.37-18.33-5-20.64-3.65-7,3.93-12.7,10.76-18.91,16a40.3,40.3,0,0,1-17.85,8.14c-5.13,1-8.4-8.79-13.4-7.6-4,1-11.74,8.42-15.52,6.47-4.91-2.54-9.87-2.14-15.77-1.06-9,1.65-22.34,8.3-30.56,3.66a40.42,40.42,0,0,0-12.15-4.57c-1.78-.44-4.11-.83-6.11-1.41a21,21,0,0,0-6-.69c-4.76.08-6.28,1.86-10.54,3.77-3.85,1.72-5.8,1.3-8.64-1.84a51.66,51.66,0,0,0-11.33-9.48,54.3,54.3,0,0,0-11.48-5.4c-4.25-1.31-8.78-2.25-13.14-4.27-1.16-.54-2.57-2.17-3.86-2.24-2.43-.13-5.89,2.6-8.23,3.31-5.5,1.68-10.48,3.32-16.27,3-5.27-.26-7.7-5.89-12.1-6.34-2.59-.27-6.2,2.87-8.1,4.17-3.44,2.35-6.13.36-9.88,2.29-.76.39-3.84-.79-7.08-2.78-.39-.23-.81-.51-1.26-.78v-.73c-4.58-2-9.29-2.33-14.41-3.55-5.84-1.4-10,.61-15.32,2.07-4,1.09-4.58,1.89-8.63,0-2-.93-4.19-3-6.1-3.69-2.65-1-10.62.43-13.12,3.07-3.54,3.73-1.71,7-7.74,4.63-5.4-2.17-10.22-6.1-15.85-8.22a63.4,63.4,0,0,1-14.55-7.36A76.89,76.89,0,0,1,509,995.86c-1.91-2-12.94.3-16.6,4.1-2.26,2.35-4.54,5.67-7.71,6.84-1.29.48-2.9,0-4.18.53s-3.09,3.43-4.37,3.49c-2.45.1-2.16-3.7-3.21-4.62-3.69-3.2-9.93,1-13.53,3.8-3.09,2.44-5.09,5.11-8.5,7.13a82.45,82.45,0,0,0-15.59,11.39c-4.7,4.43-9.81,8.59-15.52,11.08-3.54,1.55-7.82,2-11.4,3.52-4.06,1.74-6.3.4-10.31,2.43-4.73,2.38-7.67,1.84-12.47,3-3.59.88-8.52-1.84-12.09-.74-6.14,1.89-11.33,7.13-17.4,5.56-4.59-1.19-8.08-4.56-12.79-4.82-4.95-.27-8.39.54-13.16,0-4.45-.5-9.14-3.17-12.66-1.1-1.89,1.1-6.33.67-8.19.26-7.62-1.69-8.07,1.2-13.17-4.14-3.6-3.78-3.88-3.47-8.14-2.45-2.77.66-3.77.23-6.09-.5-4.36-1.38-6.89-8.12-11.13-10.32-7.55-3.92-15.41-9.7-24.43-11.15-3.27-.53-3.81,1.36-6.33,2a23.77,23.77,0,0,1-5.85.17c-5.68-.06-11-.1-16.35,1-6.55,1.37-10.12,2.18-14.85-3.11-2.11-2.37-18.33-5-20.64-3.65-7,3.93-12.7,10.76-18.91,16a40.3,40.3,0,0,1-17.85,8.14c-5.13,1-8.4-8.79-13.4-7.6-4,1-11.74,8.42-15.52,6.47-4.91-2.54-9.87-2.14-15.77-1.06-9,1.65-22.34,8.3-30.56,3.66a40.42,40.42,0,0,0-12.15-4.57c-1.78-.44-4.11-.83-6.11-1.41a21,21,0,0,0-6-.69c-4.76.08-6.28,1.86-10.54,3.77-3.85,1.72-5.8,1.3-8.64-1.84a51.66,51.66,0,0,0-11.33-9.48,54.3,54.3,0,0,0-11.48-5.4c-4.25-1.31-8.78-2.25-13.14-4.27-1.16-.54-2.57-2.17-3.86-2.24-2.43-.13-5.89,2.6-8.23,3.31-5.5,1.68-10.48,3.32-16.27,3-5.27-.26-7.7-5.89-12.1-6.34-2.59-.27-6.2,2.87-8.1,4.17-3.44,2.35-6.13.36-9.88,2.29-.76.39-3.84-.79-7.08-2.78-.72-.44-1.58-1-2.54-1.51V1080H1997.14v-62.83C1992.56,1015.18,1987.85,1014.84,1982.73,1013.62Z"/><circle class="cls-14" cx="493.31" cy="115.21" r="79.21"/><path class="cls-15" d="M407.68,122.4a188,188,0,0,0-45.53,5.37c-10-14.29-35.63-24.46-65.71-24.46-23.42,0-44.14,6.17-56.89,15.64a69.75,69.75,0,0,0-26.66-5.14c-30.06,0-54.42,18-54.42,40.1a30.31,30.31,0,0,0,2.08,11C140.46,168.5,126,178.46,126,190.2c0,14.76,22.87,26.73,51.09,26.73A86,86,0,0,0,206.53,212c16.8,3.07,37.89,4.89,60.79,4.89,33.19,0,62.57-3.83,80.6-9.72,16.57,6.1,37.28,9.72,59.76,9.72,54.32,0,98.35-21.16,98.35-47.26S462,122.4,407.68,122.4Z"/><path class="cls-15" d="M1418.68,122.4a188,188,0,0,0-45.53,5.37c-10-14.29-35.63-24.46-65.71-24.46-23.42,0-44.14,6.17-56.89,15.64a69.75,69.75,0,0,0-26.66-5.14c-30.06,0-54.42,18-54.42,40.1a30.31,30.31,0,0,0,2.08,11c-20.09,3.6-34.55,13.56-34.55,25.3,0,14.76,22.87,26.73,51.09,26.73a86,86,0,0,0,29.44-4.89c16.8,3.07,37.89,4.89,60.79,4.89,33.19,0,62.57-3.83,80.6-9.72,16.57,6.1,37.28,9.72,59.76,9.72,54.32,0,98.35-21.16,98.35-47.26S1473,122.4,1418.68,122.4Z"/><path class="cls-15" d="M554.32,122.4a188,188,0,0,1,45.53,5.37c10-14.29,35.63-24.46,65.71-24.46,23.42,0,44.14,6.17,56.89,15.64a69.75,69.75,0,0,1,26.66-5.14c30.06,0,54.42,18,54.42,40.1a30.31,30.31,0,0,1-2.08,11c20.09,3.6,34.55,13.56,34.55,25.3,0,14.76-22.87,26.73-51.09,26.73A86,86,0,0,1,755.47,212c-16.8,3.07-37.89,4.89-60.79,4.89-33.19,0-62.57-3.83-80.6-9.72-16.57,6.1-37.28,9.72-59.76,9.72C500,216.93,456,195.77,456,169.67S500,122.4,554.32,122.4Z"/><path class="cls-15" d="M1565.32,89.4a188,188,0,0,1,45.53,5.37c10-14.29,35.63-24.46,65.71-24.46,23.42,0,44.14,6.17,56.89,15.64a69.75,69.75,0,0,1,26.66-5.14c30.06,0,54.42,18,54.42,40.1a30.31,30.31,0,0,1-2.08,11c20.09,3.6,34.55,13.56,34.55,25.3,0,14.76-22.87,26.73-51.09,26.73a86,86,0,0,1-29.44-4.89c-16.8,3.07-37.89,4.89-60.79,4.89-33.19,0-62.57-3.83-80.6-9.72-16.57,6.1-37.28,9.72-59.76,9.72-54.32,0-98.35-21.16-98.35-47.26S1511,89.4,1565.32,89.4Z"/></g></g></g></svg>