<svg id="_8" data-name="8" xmlns="http://www.w3.org/2000/svg" xmlns:xlink="http://www.w3.org/1999/xlink" width="1920.5" height="1080" viewBox="0 0 1920.5 1080">
  <defs>
    <linearGradient id="linear-gradient" x1="0.222" y1="0.182" x2="0.794" y2="0.837" gradientUnits="objectBoundingBox">
      <stop offset="0" stop-color="#fff"/>
      <stop offset="1" stop-color="#fff"/>
    </linearGradient>
  </defs>
  <g id="Layer_1" data-name="Layer 1">
    <rect id="Rectangle_123" data-name="Rectangle 123" fill="#cef4f1"/>
    <path id="Path_306" data-name="Path 306" d="M1223.97,465.3V398.99h-76.25v68h-62.43v34.48h-46V425.01H979.96v47.71H921.67V374.8H876.38v81.76H827.84v56.99H747.2v13.66H680.69v-57H632.15V388.45H586.86v97.93h-58.3V438.66H469.24v76.46h-46V480.64H360.81V412.65H284.55v66.3H260.52V834.31h43.65V821.62h50.1v12.69H789.75V820.66h364.51V807.97h50.09v12.69H1248V465.3Z" fill="#c1e4db"/>
    <path id="Path_307" data-name="Path 307" d="M1227.39,612.27V555.39h-65.42v58.33h-43.94v36.67h-10.35V562.4h-20.61V505.51h-65.42v58.34H968.09v29.58H928.62v-65.6H877.73v40.94H827.72V484.75H788.87V554.9H747.22v48.9H678.04v11.71H620.98v-48.9H579.34V496.47H540.48v84.01h-50V539.54h-50.9v65.6H400.12V575.56H346.56V517.23H281.13v56.88H260.52V878.98h37.45V868.09h42.98v10.89H714.54V867.27h312.72V856.38h42.97v10.89h37.45V833.12h10.35v84.02h49.55V906.25h42.98v10.89H1248V612.27Z" fill="#a4d2c6"/>
    <g id="Group_105" data-name="Group 105" opacity="0.5">
      <path id="Path_308" data-name="Path 308" d="M1686,445.39l-2.18-168.26c23.57-1.79,47.51-2.69,71.15-2.69,7.61,0,15.33.09,22.95.28a948.18,948.18,0,0,1,94.65,7.08l-10.9,167.94Z" fill="#ba581d"/>
      <path id="Path_309" data-name="Path 309" d="M1754.91,274.94c7.62,0,15.33.09,22.94.28,31.35.76,63,3.12,94.14,7l-5.42,83.5-5.42,83.49-174.71-4.33-2.16-167.31c23.4-1.76,47.16-2.65,70.63-2.65h0m0-1c-25.53,0-49.48,1-71.65,2.72l2.2,169.22,176.63,4.37q5.48-84.44,11-168.89a943.214,943.214,0,0,0-95.17-7.14q-11.69-.29-23-.28Z" fill="#994116"/>
    </g>
    <path id="Path_310" data-name="Path 310" d="M1742.31,430.55l1.37-55.32a21.63,21.63,0,0,1,21.48-21h.55l21.16.52a21.52,21.52,0,0,1,21,22l-1.37,55.32Z" fill="#525a66"/>
    <path id="Path_311" data-name="Path 311" d="M1765.17,353.76v1h.52l21.17.52a21,21,0,0,1,20.47,21.52L1806,431.63l-63.15-1.56,1.36-54.83a21.13,21.13,0,0,1,21-20.48v-1m0,0a22,22,0,0,0-22,21.46L1741.8,431l65.15,1.61,1.38-55.82a22,22,0,0,0-21.45-22.54l-21.16-.52Z" fill="#3c434c"/>
    <path id="Path_312" data-name="Path 312" d="M1681.8,612.85l-2.18-168.26c23.57-1.79,47.51-2.69,71.14-2.69,7.62,0,15.34.09,23,.28a948.855,948.855,0,0,1,94.66,7.08L1857.47,617.2Z" fill="#cb7c72"/>
    <path id="Path_313" data-name="Path 313" d="M1750.76,441.4v1c7.62,0,15.34.09,23,.28,31.35.76,63,3.12,94.14,7l-5.43,83.5L1857,616.69l-174.7-4.33-2.17-167.31c23.41-1.76,47.17-2.65,70.63-2.65v-1m0,0c-25.53,0-49.48,1-71.64,2.72l2.19,169.22,176.63,4.37q5.47-84.45,11-168.89a943.236,943.236,0,0,0-95.17-7.14q-11.68-.29-23-.28Z" fill="#b26964"/>
    <path id="Path_314" data-name="Path 314" d="M1672.41,445.25l.33-13.42a753.014,753.014,0,0,1,83.18-4.62c6.09,0,12.27.07,18.36.22a752.242,752.242,0,0,1,101.6,9.44l-.33,13.41Z" fill="#5b070c"/>
    <path id="Path_315" data-name="Path 315" d="M1755.92,427.71c6.09,0,12.26.07,18.35.22a752.977,752.977,0,0,1,101.1,9.36l-.16,6.34-.15,6.14-202.14-5,.31-12.48a753.882,753.882,0,0,1,82.69-4.57h0m0-1a749.042,749.042,0,0,0-83.761,4.69l-.259,14.34L1876,450.8q.18-7.19.35-14.36a752.351,752.351,0,0,0-102.09-9.51q-9.35-.23-18.38-.22Z" fill="#050505"/>
    <path id="Path_316" data-name="Path 316" d="M1782.11,88.07l48.77,89.52,53.06,93.49-106.2-6.49-105.55,1.94,56.78-91.46Z" fill="#8f5012" stroke="#4c3300" stroke-linecap="round" stroke-linejoin="round" stroke-width="1"/>
    <path id="Path_317" data-name="Path 317" d="M1737.76,614.23l1.37-55.32a21.64,21.64,0,0,1,21.49-21h.54l21.16.52a21.54,21.54,0,0,1,21,22l-1.37,55.32Z" fill="#525a66"/>
    <path id="Path_318" data-name="Path 318" d="M1760.62,537.44v1h.53l21.16.52a21,21,0,0,1,20.47,21.52l-1.36,54.82-63.15-1.56,1.36-54.83a21.13,21.13,0,0,1,21-20.48v-1m0,0a22,22,0,0,0-22,21.46l-1.38,55.82,65.15,1.61,1.38-55.82a22,22,0,0,0-21.45-22.5l-21.16-.52Z" fill="#3c434c"/>
    <path id="Path_319" data-name="Path 319" d="M1670.5,277.64l.33-13.41a844.385,844.385,0,0,1,87-4.51c6.84,0,13.78.08,20.62.25a843.915,843.915,0,0,1,107.67,9.59l-.34,13.41Z" fill="#5b070c"/>
    <path id="Path_320" data-name="Path 320" d="M1757.8,260.22c6.84,0,13.77.08,20.61.25A843.192,843.192,0,0,1,1885.57,270l-.3,12.47L1671,277.16l.31-12.48a843.481,843.481,0,0,1,86.48-4.46h0m0-1a839.673,839.673,0,0,0-87.553,4.57l-.257,14.34,216.25,5.36.36-14.36a841.455,841.455,0,0,0-108.17-9.66Q1767.92,259.22,1757.79,259.22Z" fill="#3a1503"/>
    <path id="Path_321" data-name="Path 321" d="M0,655.83S893.62,616.46,1431,1080H0Z" fill="#9ab954"/>
    <path id="Path_322" data-name="Path 322" d="M1920.5,606.5S483.5,547.62,330,1080H1920.5Z" fill="#b1d35f"/>
    <path id="Path_323" data-name="Path 323" d="M0,808s160.5-90.5,366.5-35.5c0,0,147,26,350,9,0,0,232-56,409,0,0,0,157,55,314-15,0,0,185-103.14,480.5-36.07V1049.5H.5Z" fill="#48cae4"/>
    <path id="Path_324" data-name="Path 324" d="M1580.34,791.28s.64-12-3.17-19a17.69,17.69,0,0,1,5.39,12.36,36.58,36.58,0,0,0,0-12.68,24.76,24.76,0,0,1,2.54,11.41s0-10.14,1.9-14c0,0,1.27,5.71,0,16.49,0,0,2.54-15.22,5.07-18.39,0,0-3.8,13.32,0,24.1C1592.07,791.6,1586.37,797.3,1580.34,791.28Z" fill="#e0e2e0"/>
    <ellipse id="Ellipse_71" data-name="Ellipse 71" cx="39" cy="15.22" rx="39" ry="15.22" transform="translate(1574 776.06)" fill="#228500"/>
    <ellipse id="Ellipse_72" data-name="Ellipse 72" cx="26" cy="4.5" rx="26" ry="4.5" transform="translate(1586 779)" fill="#174f02"/>
    <path id="Path_325" data-name="Path 325" d="M1668.31,796.66s.43-8.19-2.16-12.93a12,12,0,0,1,3.67,8.4,24.9,24.9,0,0,0,0-8.61,16.831,16.831,0,0,1,1.72,7.75s0-6.89,1.29-9.48c0,0,.87,3.88,0,11.21,0,0,1.73-10.35,3.45-12.5,0,0-2.58,9,0,16.37a5.47,5.47,0,0,1-7.97-.21Z" fill="#e0e2e0"/>
    <ellipse id="Ellipse_73" data-name="Ellipse 73" cx="26.5" cy="10.34" rx="26.5" ry="10.34" transform="translate(1664 786.32)" fill="#228500"/>
    <ellipse id="Ellipse_74" data-name="Ellipse 74" cx="17.67" cy="3.06" rx="17.67" ry="3.06" transform="translate(1672.15 788.31)" fill="#174f02"/>
    <path id="Path_326" data-name="Path 326" d="M1477.3,96.78a77.78,77.78,0,1,0-142.52,43.1h129.48A77.421,77.421,0,0,0,1477.3,96.78Z" fill="#ffee32"/>
    <path id="Path_327" data-name="Path 327" d="M1257.72,140h438.87s-25.18-19.82-76-9.91c0,0-17.34-60.69-65.65-19.82,0,0,1-43.35-46.58-42.11s-45.07,48.3-45.07,48.3-33.44-55.73-80.51-3.71c0,0-31-12.39-40.87,18.58Z" fill="#8ed3d4"/>
    <path id="Path_328" data-name="Path 328" d="M59.36,131.78H424l-87.23-11.9s7-31.51-24.43-36.64c-36-5.87-39.76,24.51-40.55,28.15,0,0,.83-60.19-55.86-60.19-61.26,0-57.13,53-57.13,53S120,66.9,91.21,126.44Z" fill="#8ed3d4"/>
    <path id="Path_329" data-name="Path 329" d="M1823.23,630c26.79-61.84-10.81-45.93-10.81-45.93-5.77-51.44-22.75-.79-22.75-.79C1778.11,553.83,1769,597,1769,597s1.8-21.2-6.14-27.88-25.64,15.31-25.64,15.31-.72-20-8.31-25.12-19.85,21-19.85,21-8-15.87-13.72-16.66-3.62,25.13-3.62,25.13c-13.36-4.32-22,12.17-22,12.17-2.52-33-24.91-8.24-24.91-8.24s-.36-18.45-6.86-22.38-22.4,16.49-22.4,16.49,0-12.17-9.2-21.2-22.93,18.45-22.93,18.45.36-20.81-8.31-25.13S1556.27,577,1556.27,577c-13.42-14.11-21.67,29-21.67,29s-.72-17.28-10.11-21.6-21.67,14.92-21.67,14.92C1495.6,580.13,1479,595,1479,595s-1.09-18.06-10.11-22.77S1450,586.8,1450,586.8s2.28-24.35-5.31-29.45-20.26,14.92-20.26,14.92-1-16.09-9.35-17.66-9.61,40.45-9.61,40.45c-30.11-21.63-13.65,15.56-3.77,34.94Z" fill="#007834"/>
    <path id="Path_330" data-name="Path 330" d="M1709.18,630.93c19-43.82-7.66-32.55-7.66-32.55-4.1-36.45-16.13-.56-16.13-.56-8.19-20.86-14.67,9.73-14.67,9.73s1.27-15-4.35-19.75-18.17,10.85-18.17,10.85-.51-14.19-5.89-17.81-14.07,14.87-14.07,14.87-5.63-11.25-9.72-11.81-2.57,17.81-2.57,17.81c-9.46-3.06-15.6,8.62-15.6,8.62-1.79-23.37-17.66-5.84-17.66-5.84s-.25-13.08-4.86-15.86S1562,600.32,1562,600.32a23,23,0,0,0-6.52-15c-6.52-6.4-16.25,13.08-16.25,13.08s.26-14.75-5.89-17.81-13.3,12.8-13.3,12.8c-9.51-10-15.35,20.59-15.35,20.59s-.51-12.24-7.17-15.3-15.35,10.57-15.35,10.57c-5.12-13.63-16.89-3.06-16.89-3.06s-.77-12.8-7.16-16.14-13.38,10.3-13.38,10.3,1.61-17.25-3.77-20.87-14.4,10.52-14.4,10.52-.73-11.4-6.62-12.52-6.81,28.67-6.81,28.67c-21.34-15.32-9.67,11-2.67,24.76Z" fill="#4e932a"/>
    <path id="Path_331" data-name="Path 331" d="M1753.17,627.42l11.46-1.5-.49,7.97-23.8,21.84-11.09-9.87Z" fill="#503413"/>
    <path id="Path_332" data-name="Path 332" d="M1778.84,454.23l-20.93,175.68-22.53,17.86-2.89-186.07Z" fill="#6c3408"/>
    <path id="Path_333" data-name="Path 333" d="M1764.52,493.35l10.3-5.4,2.68-22.53-5.07,1.67c-13.21,4.31-26.2,9.6-39.65,13.12l.49,31.42C1743.94,506.07,1753.91,498.89,1764.52,493.35Z" fill="#b2c9b0"/>
    <path id="Path_334" data-name="Path 334" d="M1771.6,515l2.9-24.31c-3.28,1.75-6.55,3.5-9.8,5.28-10.52,5.74-20.59,12.89-31.39,18.35l.28,18.1C1746.37,526.93,1758.76,520.32,1771.6,515Z" fill="#d1d8d0"/>
    <path id="Path_335" data-name="Path 335" d="M1766,539.32l2.94-1.66,2.38-20c-12.7,5.35-25,11.89-37.65,17.26l.38,24.86C1744.83,553.25,1755,545.44,1766,539.32Z" fill="#d4d293"/>
    <path id="Path_336" data-name="Path 336" d="M1734.66,590c9.95-9.08,20.5-17.44,31.07-25.76l2.83-23.74-3.83,2.18c-10.49,6-20.28,13.44-30.67,19.71l.43,27.77Z" fill="#b2c9b0"/>
    <path id="Path_337" data-name="Path 337" d="M1759.36,617.69l2.53-21.22c-5.29,2.4-10.53,4.92-15.68,7.67-3.83,2-7.63,4.14-11.41,6.27l.3,19.48Q1747.18,623.67,1759.36,617.69Z" fill="#b2c9b0"/>
    <path id="Path_338" data-name="Path 338" d="M1735.15,632.54l.23,15.23,22.53-17.86,1.11-9.41Q1747,626.38,1735.15,632.54Z" fill="#d4d293"/>
    <path id="Path_339" data-name="Path 339" d="M1746.23,601.43c5.25-2.75,10.6-5.28,16-7.7l3.12-26.14c-9.88,7.78-19.69,15.63-29,24.13l-1.81,1.66.22,14.29C1738.56,605.55,1742.37,603.45,1746.23,601.43Z" fill="#d4d293"/>
    <path id="Path_340" data-name="Path 340" d="M1771.8,464.79l6-2,1-8.59-46.34,7.47.25,16C1746,474.22,1758.77,469,1771.8,464.79Z" fill="#d4d293"/>
    <path id="Path_341" data-name="Path 341" d="M1779.21,449.74l-21.3,180.17-5.23,4.98,15.44-178.92Z" fill="#c75864"/>
    <path id="Path_342" data-name="Path 342" d="M1627.08,348.07l-.82-9.68,65.11,5.57,97.19,101.67-30.75,23.25Z" fill="#8b1308"/>
    <rect id="Rectangle_124" data-name="Rectangle 124" width="220.91" height="8.6" transform="translate(1519.43 647.14)" fill="#613d14"/>
    <path id="Path_343" data-name="Path 343" d="M1735.58,641.32H1525.02l-13.07-176.59,115.13-97.18,108.5,86.71Z" fill="#6c3408"/>
    <path id="Path_344" data-name="Path 344" d="M1636.88,445c-24.39.78-48.8,2.53-73.09,4.86q-18.36,1.76-36.68,4l-2.69.34L1512,464.73l.86,11.52h222.77v-22l-12.36-9.87C1694.44,444.44,1665.65,444,1636.88,445Z" fill="#d1d8d0"/>
    <path id="Path_345" data-name="Path 345" d="M1672.05,442c16.07-.07,32.16,0,48.26,0l-93.23-74.51-99.38,83.89A1235.261,1235.261,0,0,1,1672.05,442Z" fill="#b2c9b0"/>
    <path id="Path_346" data-name="Path 346" d="M1578.92,503.77q74,0,147.85,5.56l8.81.67V478.62H1513l2,26.35Q1546.91,503.77,1578.92,503.77Z" fill="#d4d293"/>
    <path id="Path_347" data-name="Path 347" d="M1535.36,537.46q24.38-1.69,48.77-3c49.27-2.53,98.6-3.57,147.91-4.8l3.54-.09V512.45c-32.92-2.41-65.85-4.57-98.87-5.49-40.53-1.12-81.09-1.12-121.6.37l2.35,31.81C1523.44,538.56,1529.41,537.86,1535.36,537.46Z" fill="#b2c9b0"/>
    <path id="Path_348" data-name="Path 348" d="M1735.58,571V532c-34.23.83-68.46,1.65-102.67,2.82q-37,1.26-73.9,3.5c-12,.73-24.13,1.39-36.14,2.61l-5.24.53,2.18,29.52Z" fill="#d1d8d0"/>
    <path id="Path_349" data-name="Path 349" d="M1532.35,597c16.23.62,32.46,1.08,48.69,1.56,51.54,1.53,103,4,154.54,6V573.32H1520l1.73,23.37C1525.27,596.77,1528.81,596.84,1532.35,597Z" fill="#b2c9b0"/>
    <path id="Path_350" data-name="Path 350" d="M1626.78,602.51c-24.59-1.08-49.18-1.66-73.78-2.44-10.37-.33-20.73-.71-31.1-1l3.12,42.25h210.56V607.19C1699.3,605.77,1663.05,604.08,1626.78,602.51Z" fill="#d1d8d0"/>
    <rect id="Rectangle_125" data-name="Rectangle 125" width="10.48" height="75.91" transform="translate(1636.79 563.79)" fill="#683d0c"/>
    <rect id="Rectangle_126" data-name="Rectangle 126" width="6.7" height="76.07" transform="translate(1658.76 563.64)" fill="#683d0c"/>
    <rect id="Rectangle_127" data-name="Rectangle 127" width="6.69" height="76.07" transform="translate(1676.63 563.64)" fill="#683d0c"/>
    <rect id="Rectangle_128" data-name="Rectangle 128" width="6.7" height="76.07" transform="translate(1694.49 563.64)" fill="#683d0c"/>
    <rect id="Rectangle_129" data-name="Rectangle 129" width="6.7" height="76.07" transform="translate(1712.35 563.64)" fill="#683d0c"/>
    <path id="Path_351" data-name="Path 351" d="M1727.54,566.89l-94.48,5.49-1.49-16.45,95.97.5Z" fill="#8f5012"/>
    <rect id="Rectangle_130" data-name="Rectangle 130" width="198.4" height="11.14" transform="translate(1530.63 636.62)" fill="#a7c192"/>
    <path id="Path_352" data-name="Path 352" d="M1536.98,647.77h-12.7l-13.07-185.28,25.77-11.31Z" fill="#cb7c72"/>
    <path id="Path_353" data-name="Path 353" d="M1735.38,647.77h-12.7V451.18l21.77,10.56Z" fill="#cb7c72"/>
    <path id="Path_354" data-name="Path 354" d="M1735.38,647.77l5.33-4.03,9.35-180.92-5.61-1.08Z" fill="#c75864"/>
    <path id="Path_355" data-name="Path 355" d="M1703.36,468.88h54.45l-131.53-130.5-129.66,130.5,40.25-.5,89.41-94.34Z" fill="#d5171b"/>
    <path id="Path_356" data-name="Path 356" d="M1626.28,338.38h0c-.35,12.81,0,35.65,0,35.65l77.08,94.84h54.45Z" fill="#a61713"/>
    <path id="Path_357" data-name="Path 357" d="M1644,564.23a2.75,2.75,0,1,1-2.68-2.81,2.749,2.749,0,0,1,2.68,2.81Z" fill="#e98e2e"/>
    <path id="Path_358" data-name="Path 358" d="M1663.66,564.07a44.384,44.384,0,1,1,.02.02Z" fill="#e98e2e"/>
    <path id="Path_359" data-name="Path 359" d="M1681.24,563.08a1.82,1.82,0,0,1-1.87,1.79,1.84,1.84,0,1,1,1.87-1.79Z" fill="#e98e2e"/>
    <path id="Path_360" data-name="Path 360" d="M1700.35,562.37a1.84,1.84,0,1,1-.837-1.721A1.84,1.84,0,0,1,1700.35,562.37Z" fill="#e98e2e"/>
    <path id="Path_361" data-name="Path 361" d="M1715.26,562.33a1.84,1.84,0,1,1-1.79-1.87,1.84,1.84,0,0,1,1.79,1.87Z" fill="#e98e2e"/>
    <path id="Path_362" data-name="Path 362" d="M1621.11,636.77l-66.91.5-11.85-131.92,85.23-3.14Z" fill="#cb7c72"/>
    <path id="Path_363" data-name="Path 363" d="M1617.48,636.77h-57.17l-9.11-126.06,68.78-.75Z" fill="#452b09"/>
    <path id="Path_364" data-name="Path 364" d="M1536.87,636.42V468.38l89.41-94.34,77.08,94.84,19.22-.07.69,87.37-5.98-81.73-20.43-.5-70.78-92.2-84.22,88.21Z" fill="#ba581d" opacity="0.5"/>
    <g id="Group_106" data-name="Group 106">
      <path id="Path_365" data-name="Path 365" d="M1501.99,465.48l121.6-122.11-1.99,28.41-88.71,93.7Z" fill="url(#linear-gradient)"/>
    </g>
    <path id="Path_366" data-name="Path 366" d="M1640.54,351.31l58.31,1.25,2.74,2.49Z" fill="#440c00"/>
    <path id="Path_367" data-name="Path 367" d="M1743.71,452.98l31.89-18.94,2.75,2.5Z" fill="#440c00"/>
    <path id="Path_368" data-name="Path 368" d="M1694.61,401.9l38.13-12.71,2.74,2.49Z" fill="#440c00"/>
    <path id="Path_369" data-name="Path 369" d="M1724.02,434.3l35.38-17.7,2.74,2.49Z" fill="#440c00"/>
    <path id="Path_370" data-name="Path 370" d="M1709.32,417.6l36.38-14.46,2.74,2.49Z" fill="#440c00"/>
    <path id="Path_371" data-name="Path 371" d="M1659.72,369l49.35-5.23,2.74,2.49Z" fill="#440c00"/>
    <path id="Path_372" data-name="Path 372" d="M1677.17,385.7l43.11-9.47,2.74,2.49Z" fill="#440c00"/>
    <path id="Path_373" data-name="Path 373" d="M2.5,876.56S98.4,860,160.33,824.44c0,0,69.93,38,146.85,52.12,0,0,124.87-15.59,190.8-52.12,0,0,84.41,44.08,219.27,51.87,0,0,161.83-17,218.77-52.11,0,0,48,27.76,225.77,52.11,0,0,171.82-8.28,309.68-52.11,0,0,95.9,33.12,264.72,52.11,0,0,85.91-5.36,183.81-63.31v75H3Z" fill="#36b0c1"/>
    <path id="Path_374" data-name="Path 374" d="M0,826.46S99.9,881,161.83,882.19c0,0,97.4-9.6,142.35-43.9,0,0,63.94,41.28,196.8,48.26,0,0,149.84-11,214.77-51.17,0,0,110.89,46.52,218.78,46.52,0,0,195.79-8.14,244.74-43.61,0,0,93.9,34.88,290.7,43.61,0,0,211.78-12.8,264.72-55.24,0,0,43,31,183.31,59.68H0Z" fill="#319fa8"/>
    <rect id="Rectangle_131" data-name="Rectangle 131" width="1919" height="158.44" transform="translate(0.5 888)" fill="#b1d35f"/>
    <rect id="Rectangle_132" data-name="Rectangle 132" width="1919" height="34.92" transform="translate(0.5 888)" fill="#9ab954"/>
    <rect id="Rectangle_133" data-name="Rectangle 133" width="1919" height="83.25" transform="translate(0.5 963.2)" fill="#9ab954"/>
    <rect id="Rectangle_134" data-name="Rectangle 134" width="1919" height="95.32" transform="translate(0.5 984.68)" fill="#fdc889"/>
    <path id="Path_375" data-name="Path 375" d="M360.06,1025.12c0,6.75-51.05,12.22-114,12.22s-114-5.47-114-12.22,51.05-12.23,114-12.23S360.06,1018.36,360.06,1025.12Z" fill="#c28963" opacity="0.7"/>
    <path id="Path_376" data-name="Path 376" d="M1758.51,1022.08c0,6.75-51,12.23-114,12.23s-114-5.48-114-12.23,51-12.22,114-12.22S1758.51,1015.33,1758.51,1022.08Z" fill="#c28963" opacity="0.7"/>
    <rect id="Rectangle_135" data-name="Rectangle 135" width="1919" height="37.58" transform="translate(0.5 1042.42)" fill="#dc9e71" opacity="0.7"/>
    <ellipse id="Ellipse_75" data-name="Ellipse 75" cx="94.5" cy="15" rx="94.5" ry="15" transform="translate(1199 664)" fill="#9ab954"/>
    <rect id="Rectangle_136" data-name="Rectangle 136" width="8.23" height="37.1" transform="translate(1224.62 604.02)" fill="#2a1d07"/>
    <rect id="Rectangle_137" data-name="Rectangle 137" width="8.23" height="37.1" transform="translate(1352.49 604.02)" fill="#2a1d07"/>
    <rect id="Rectangle_138" data-name="Rectangle 138" width="150.66" height="8.82" transform="translate(1217.34 600)" fill="#694c2e"/>
    <rect id="Rectangle_139" data-name="Rectangle 139" width="150.66" height="8.81" transform="translate(1217.34 613.87)" fill="#694c2e"/>
    <rect id="Rectangle_140" data-name="Rectangle 140" width="150.66" height="8.82" transform="translate(1217.34 627.73)" fill="#694c2e"/>
    <path id="Path_377" data-name="Path 377" d="M1357.52,604.05a1.17,1.17,0,1,1-.339-.834,1.18,1.18,0,0,1,.339.834Z" fill="#2a1d07"/>
    <path id="Path_378" data-name="Path 378" d="M1357.52,618.1a1.17,1.17,0,1,1-.339-.834,1.18,1.18,0,0,1,.339.834Z" fill="#2a1d07"/>
    <path id="Path_379" data-name="Path 379" d="M1357.52,632.14a1.17,1.17,0,1,1-.339-.834,1.18,1.18,0,0,1,.339.834Z" fill="#2a1d07"/>
    <path id="Path_380" data-name="Path 380" d="M1229.91,604.05a1.18,1.18,0,1,1-1.18-1.18,1.18,1.18,0,0,1,1.18,1.18Z" fill="#2a1d07"/>
    <path id="Path_381" data-name="Path 381" d="M1229.91,618.1a1.18,1.18,0,1,1-1.18-1.18A1.18,1.18,0,0,1,1229.91,618.1Z" fill="#2a1d07"/>
    <path id="Path_382" data-name="Path 382" d="M1229.91,632.14a1.18,1.18,0,1,1-1.18-1.18A1.18,1.18,0,0,1,1229.91,632.14Z" fill="#2a1d07"/>
    <rect id="Rectangle_141" data-name="Rectangle 141" width="3.66" height="31.56" transform="translate(1215.51 650.44)" fill="#694c2e"/>
    <rect id="Rectangle_142" data-name="Rectangle 142" width="5.25" height="2.03" transform="translate(1214.71 649.6)" fill="#503a21"/>
    <rect id="Rectangle_143" data-name="Rectangle 143" width="3.67" height="31.56" transform="translate(1366.17 650.44)" fill="#694c2e"/>
    <rect id="Rectangle_144" data-name="Rectangle 144" width="5.25" height="2.03" transform="translate(1365.37 649.6)" fill="#503a21"/>
    <rect id="Rectangle_145" data-name="Rectangle 145" width="3.31" height="28.51" transform="translate(1221.05 644.85)" fill="#503a21"/>
    <rect id="Rectangle_146" data-name="Rectangle 146" width="4.74" height="1.83" transform="translate(1220.34 644.08)" fill="#503a21"/>
    <rect id="Rectangle_147" data-name="Rectangle 147" width="3.31" height="28.51" transform="translate(1360.97 644.85)" fill="#503a21"/>
    <rect id="Rectangle_148" data-name="Rectangle 148" width="4.75" height="1.83" transform="translate(1360.26 644.08)" fill="#503a21"/>
    <path id="Path_383" data-name="Path 383" d="M1378,648.02H1207.34l10.18-8.28h150.45Z" fill="#694c2e"/>
    <rect id="Rectangle_149" data-name="Rectangle 149" width="170.65" height="2.72" transform="translate(1207.34 648.02)" fill="#31220d"/>
    <path id="Path_384" data-name="Path 384" d="M244.44,587.18s3.43.52,5.44-4.77-4.25-10.57-4.25-10.57c5.83-4.54-1.22-10-1.22-10s8.79,1.43,10.13-5.4c1.39-7.13-7.21-10.31-7.21-10.31s6.28-9.24-5.15-16.95c-10.86-7.33-16.52-1.07-16.52-1.07s-4.13-3.76-9.35-1.76c-6.21,2.38-7.63,7.25-7.63,7.25s-3.26-3.58-5.46-3.28.16,4,.16,4-4.88-2.85-7.06-.82.66,5,.66,5c-4.15-2.85-6.8-3.34-8.29-3.27a12.787,12.787,0,0,0-1.31.28l-.23.12v-.06c-4.47,1.29-8.82,5.22-5.12,9.43.19.22-.09.59-.34.41a10.784,10.784,0,0,0-9.28-1c-1.33.44-2.95,1.23-3.47,2.65a3.66,3.66,0,0,0,.13,2.69,8.061,8.061,0,0,1,1.12,1.86c.11.26-.24.56-.43.31a9.619,9.619,0,0,1-1.22-2l-.15-.21c-4.5-5-12.72-1.42-16.69,2.45-2.08,2-3.94,4.83-3.69,7.87.33,3.94,3.93,6.37,7.24,7.84.25.11.25.56-.09.52-4.34-.48-9.48.84-12.36,4.32a8.66,8.66,0,0,0-1.94,7.21c.59,2.87,2.71,3.74,5.45,3.28.28,0,.47.36.18.5-1.65.81-3.79,2.18-3.65,4.3a6.1,6.1,0,0,0,2.7,4.11c3.71,1.06,6.24-2.42,6.24-2.42s1.33,4.39,3.93,4.24c3.24-.18,2.3-5.2,2.3-5.2s4.42,4.6,10.33,5.12a9.44,9.44,0,0,0,8.62-3.54s.57,2.27,4,4,5.61-.07,5.61-.07-.6,4.6,2.89,6.29,4.38-1.74,4.38-1.74c1.62,2,2.69.54,2.69.54s2.38,7.26,12.25,7.81,11.54-6.28,11.54-6.28,1.13,2.46,2.78,1.9a1.53,1.53,0,0,0,.91-2.16s3,2.95,5.65,2.48,2.42-3.8,2.42-3.8,6.15,3.25,10.91-.41C249.93,593.51,244.44,587.18,244.44,587.18Z" fill="#007834"/>
    <path id="Path_385" data-name="Path 385" d="M107.89,564.17a18.83,18.83,0,0,1-3.1,13.6,10,10,0,0,1-10.15,4.53s-1.76,11.1-16.71,10.35C62.16,591.86,62.75,577,62.75,577s-10.28,2.39-13.18-6.69C46.78,561.55,56.19,557,56.19,557s-10.1-1.22-7.14-10.46c0,0-9.25-1.57-10.47-9.07S41,528.25,41,528.25s-9.14-3.38-5.59-14.3c2.45-7.5,10.38-8.11,10.38-8.11s-2.33-3.51.09-6,7-1.13,7-1.13a2.23,2.23,0,0,1-.39-3.1c1.26-1.79,3.84.22,3.84.22s-2.47-9,7.47-15.24,16.6.33,16.6.33.21-2.35,2.95-1.27c0,0-1.18-4.53,3.23-5.05s6.58,5.14,6.58,5.14a6,6,0,0,1,5.4-4c4.41-.39,6.33,1.79,6.33,1.79a12.93,12.93,0,0,1,6.27-10.07c6.06-3.53,13.12-1.4,13.12-1.4s-3.93-5.05-.87-7.54c2.44-2,6.37,2.1,6.37,2.1s.43-6.94,6-7.41,6.19,8.67,6.19,8.67,6.67-9.58,21.05-4.84c12.36,4.08,14.47,13.62,14.47,13.62s2.07-5,6.78-3.07c3.73,1.5,2.64,7,.65,8.43,0,0,3-.58,4.09,1.34a3.16,3.16,0,0,1,0,3.34s3.11-.69,4.61,1.9,0,7.74,0,7.74,4.14-5.58,10-5.49,5.71,5.36,5.71,5.36,2.65-3.26,5.84-1.52.7,6.14.7,6.14,13.38-6.4,21.84,4.67-1.05,17.5-1.05,17.5a13.89,13.89,0,0,1,9.24,7.24c3.48,6.36,2.79,19.53-11.86,20.4,0,0,4.36,8.37.35,13.77s-13.95,3.14-13.95,3.14S227.33,579,214,586.83s-22.75-7.06-22.75-7.06-.62,5.14-5.49,4.1-4.72-6.63-4.72-6.63-9.67,5.58-17.08,1.23c-6.47-3.81.7-11.69.7-11.69s-4.43.16-5.67-2c-1.75-3,3.49-5.32,3.49-5.32s-3.84.48-4.71-2.53,3.57-5.54,3.57-5.54-3.52-1-3.39-3.79c0,0-2.84,9.2-15.52,8.37s-14.74-9.11-14.74-9.11-1.44,4.19-11.29,3.62c0,0,4.53,1.35,3.62,5.19s-7.37,4-7.37,4,4.49,2.53,2.53,4.41S107.89,564.17,107.89,564.17Z" fill="#3fa000"/>
    <path id="Path_386" data-name="Path 386" d="M236.53,556.84a2.49,2.49,0,0,0-2.33-2.45c-2-.13-3.47,1.57-4.47,3-1.64,2.34-2.87,4.88-4.36,7.3-.25-1.57-.48-3.15-.7-4.71-.3-2.1-.44-4.14-.58-6.26-.06-.88,0-1.75,0-2.63-.63.47-1.27.91-1.92,1.34a21.24,21.24,0,0,0,.59,15.15.49.49,0,0,1-.1.55.6.6,0,0,1-.28.49h0l.06.06a29.079,29.079,0,0,1-6.69,5.56c-7.82,3.51-16.2,5.33-24.47,7.45-4.22.67-7.29,1.91-11.52,2.55-3.75.55-8.85,3.75-12.33,5.17-3.06,1.25-9.69,6.29-12.33,8.39.51-1,4.62-7.58,5.15-8.57,1.54-2.89,3.27-5.77,4.92-8.7,2.83-3.89,4.35-9,6-13.43,1.77-4.72,2.66-9.57,3.81-14.46,0-.19-.21-.11-.27,0-2.68,4-4.53,8.59-6.82,12.85-1.3,2.43-2.81,4.75-4.07,7.2a35,35,0,0,1-3.59,6.34,51.3,51.3,0,0,0-4.37,6.26h0a41.225,41.225,0,0,0-2.2,3.51c0-1.64,0-3.29-.14-4.92a.8.8,0,0,1-.19-.55,90.184,90.184,0,0,0-1-11.29v-.82c.12-2.11.73-4.15.85-6.26.18-3.59,1.13-7.13,1.36-10.73a21.789,21.789,0,0,1,1-5.57,5.77,5.77,0,0,0,.47-3.23c-.06-.23-.38-.06-.38.12,0,1.43-1.41,2.95-2.1,4.1a47.948,47.948,0,0,0-2.8,4.85c-1.6,3.33-3.2,7.77-3.13,11.52,0,2.1-.44,4.16-.57,6.26a58.287,58.287,0,0,0,.13,5.91,34.589,34.589,0,0,0,.8,5.66,38.919,38.919,0,0,1-.1,10.56c-.7,3.76-2.74,6.89-4.6,10.14s-4.05,6.6-6.12,9.87c-.81,1.28-1.61,2.59-2.39,3.91-1.95-8.1-5.17-15.79-5.89-24.16-.09-1-.15-1.93-.18-2.9-.14-1.21-.25-2.43-.31-3.64-.28-6,.85-11.9,1.67-17.8,1.21-8.62,2.51-19-1.36-27.12a4.45,4.45,0,0,0,.19,1.08,9.222,9.222,0,0,1,.22,1c-.49,5.11-1.58,10.3-2.56,15.32-1.13,5.78-2.21,11.54-3.16,17.35a89.558,89.558,0,0,0-1.51,16q-1.23-1.5-2.52-3c-2.77-3.19-5.7-6.37-8.6-9.59-10.93-10.8-21.81-22.22-24.86-37.58-1.94,2.06-1,5.68-.62,8.36a9.81,9.81,0,0,0,.84,2.75,55.1,55.1,0,0,0,3.67,10.41,59.418,59.418,0,0,0,5.85,10.52C92,572,88,569,84.7,565.34s-5.47-8.33-7.31-13a31.14,31.14,0,0,0,.91,5.6,30.64,30.64,0,0,0,6,11.17c1.67,2.09,3.41,4.13,5.15,6.16.68.58,1.35,1.17,2,1.75a71.4,71.4,0,0,1,12.65,14.43q1.14,2.65,2.12,5.37c3.2,9,5.24,18.29,4.13,27.93-.52,4.5-2,8.92-2.18,13.45,0,.84-.06,1.69-.07,2.53-.58-1.6-1.19-3.19-1.86-4.76-1.63-3.82-4.13-7.09-6-10.77-1.75-3.52-1.85-7.58-2.12-11.42-.42-6.07-1-12.06-3.2-17.68a1.65,1.65,0,0,0-.65,1,9.659,9.659,0,0,0,.41,2.17c.19,1.68.46,3.33.55,5,.18,3.44.28,6.89.5,10.32.06.94.14,1.9.2,2.87a7.389,7.389,0,0,1-.06,1.15c-1.58-2.27-3.16-4.53-4.55-6.92s-2.56-4.56-3.79-6.87q-1-2.49-1.87-5c-1.11-2.32-2.15-4.67-3.08-7.06-2.2-5.67-4.6-11.56-9.6-15.24,1.25,2.87,2.52,5.72,3.8,8.58.06.27.13.56.2.83,1,4.19,2.36,8.33,3.65,12.43A82.779,82.779,0,0,0,86.09,612c-1.79-1.6-3.72-3-5.65-4.42a.861.861,0,0,1-.34-.18l-.39-.35c-.44-.31-.86-.63-1.29-1h0c-.41-.42-.8-.85-1.2-1.29A72.73,72.73,0,0,1,63.47,588a18,18,0,0,0,1.87,5.72,24.632,24.632,0,0,1,2.51,5,56.65,56.65,0,0,0,3.72,5.18,28.54,28.54,0,0,0-3.9-.64c-.53-.06-1.06-.15-1.58-.24a24.462,24.462,0,0,1-6.09-3.5,20.88,20.88,0,0,0-3.33-2.29,24.94,24.94,0,0,0,13.48,10.23,22.883,22.883,0,0,1,2.27.92,13.242,13.242,0,0,1,1.82.55,32.39,32.39,0,0,1,9.93,6.46c7,6.32,11.69,14.21,15.86,22.55,3.36,6.75,3.88,14.08,2.9,21.49s-3.7,13.43-7.27,19.91A56.169,56.169,0,0,1,74.46,701c-3,1.79-6.2,3.53-9.39,5.06-3,1.43-6,2.6-8.91,4.18a22.572,22.572,0,0,0,3.67,1.49c7.25-.42,14.52-.12,21.77.14a1.17,1.17,0,0,1,.41.1l4.29.16c.91,0,1.84.11,2.8.16-2.8,1.55-5.73,2.77-8.55,4.28a13.23,13.23,0,0,1,1.83.25c1.37.3,2.71.56,4.05.75,1.37-.16,2.79-.2,4.13-.33,4.76-.46,9.52-.63,14.25-1.29a48.169,48.169,0,0,0,12.78-3.11,50.936,50.936,0,0,1,5.55-1.86V711a3.92,3.92,0,0,0,.67,1.6c6.86,5,16,5.17,24.25,5.17,1.43,0,2.88,0,4.33-.09A44.271,44.271,0,0,1,144,708.2a34.108,34.108,0,0,1-5.06-9.12,27.21,27.21,0,0,1-.73-11.94c.64-5.17,1.25-10.35,1.86-15.53v-.4c.13-1.43.26-2.87.41-4.3.83-7.8,1.18-15.54,1.68-23.35.56-8.65,1.39-20.26,6.09-27.69,6.35-10,17.28-16.2,28-20.73,5.77-2.45,11.67-4.83,17.65-6.73,3-1,6.09-1.93,9.07-3l1-.34a67.659,67.659,0,0,0,10.93-4.61,56.729,56.729,0,0,0,17.64-15C234.2,563.25,236.85,559.83,236.53,556.84Z" fill="#925f2d"/>
    <path id="Path_387" data-name="Path 387" d="M236.53,556.84a2.49,2.49,0,0,0-2.33-2.45h-.06a37,37,0,0,1-8.67,14c-5.8,6-13.78,9.45-21.61,12-8.94,2.93-17.89,5.75-26.67,9.15-4.46,1.72-8.69,3.83-13,5.83-3.56,1.63-7.26,3.27-10.08,6.08a.64.64,0,0,1-1-.78,25,25,0,0,1,2.6-4c1.33-2.21,4.07-6.65,4.5-7.44,1.54-2.89,3.27-5.77,4.92-8.7,2.83-3.89,4.35-9,6-13.43,1.77-4.72,2.66-9.57,3.81-14.46,0-.19-.21-.11-.27,0l-.06.1c-1.43,6.74-4.58,13-8.12,18.87-3.9,6.5-7.91,13-12,19.37-8.22,12.7-18.44,24.83-22.2,39.79a.64.64,0,0,1-1.23,0c-1.07-2.81-2.23-5.58-3.42-8.34.3,2.66.8,5.3,1.13,8a52.129,52.129,0,0,1,0,12,213.229,213.229,0,0,1-3.84,22.27c-1.73,7.74-4.4,15.81-4.3,23.82.09,7,3.06,12.76,7.18,18.19.34.44-.22,1.12-.72.94a31.869,31.869,0,0,1-11.66-7.94c-2.6,6.32-10.33,10.17-16.43,12.41a91.455,91.455,0,0,1-17.36,4.51,3.791,3.791,0,0,1,.83.14c1.37.3,2.71.56,4.05.75,1.37-.16,2.79-.2,4.13-.33,4.76-.46,9.52-.63,14.25-1.29a48.169,48.169,0,0,0,12.78-3.11,50.922,50.922,0,0,1,5.55-1.86V711a3.92,3.92,0,0,0,.67,1.6c6.86,5,16,5.17,24.25,5.17,1.43,0,2.88,0,4.33-.09A44.271,44.271,0,0,1,144,708.2a34.108,34.108,0,0,1-5.06-9.12,27.21,27.21,0,0,1-.73-11.94c.64-5.17,1.25-10.35,1.86-15.53v-.4c.13-1.43.26-2.87.41-4.3.83-7.8,1.18-15.54,1.68-23.35.56-8.65,1.39-20.26,6.09-27.69,6.35-10,17.28-16.2,28-20.73,5.77-2.45,11.67-4.83,17.65-6.73,3-1,6.09-1.93,9.07-3l1-.34a67.659,67.659,0,0,0,10.93-4.61,56.729,56.729,0,0,0,17.64-15C234.2,563.25,236.85,559.83,236.53,556.84Z" fill="#925f2d" opacity="0.4"/>
    <path id="Path_388" data-name="Path 388" d="M181.85,592.64c-13.61,4.74-27.54,9.38-36.88,21.08l-.23.3c-10.18,20.56-5.49,24.75-9.85,74.53-.41,4.73,1.13,9.5,3.19,13.84a29.68,29.68,0,0,0,10.77,12,61.006,61.006,0,0,1-4.88-6.2,34.107,34.107,0,0,1-5.06-9.12,27.21,27.21,0,0,1-.73-11.94c.64-5.17,1.25-10.35,1.86-15.53v-.4c.13-1.43.26-2.87.41-4.3.83-7.8,1.18-15.54,1.68-23.35.56-8.65,1.39-20.26,6.09-27.69,6.35-10,17.28-16.2,28-20.73,2.83-1.21,5.69-2.39,8.58-3.51Z" fill="#925f2d" opacity="0.4"/>
    <path id="Path_389" data-name="Path 389" d="M193.57,588.5a2.659,2.659,0,0,1,.26-.09c3-1,6.09-1.93,9.07-3l1-.34a67.664,67.664,0,0,0,10.93-4.61,52.716,52.716,0,0,0,5.52-3.42A214.589,214.589,0,0,1,193.57,588.5Z" fill="#925f2d" opacity="0.4"/>
    <path id="Path_390" data-name="Path 390" d="M126.32,555.44s2.55.38,4.05-3.56-3.16-7.88-3.16-7.88c4.33-3.37-.92-7.4-.92-7.4s6.55,1.06,7.55-4c1-5.3-5.37-7.68-5.37-7.68s4.68-6.87-3.84-12.62c-8.09-5.46-12.3-.79-12.3-.79a7.13,7.13,0,0,0-7-1.32,9.26,9.26,0,0,0-5.68,5.4s-2.43-2.66-4.07-2.44.12,3,.12,3-3.63-2.12-5.26-.61.5,3.7.5,3.7c-3.1-2.12-5.07-2.49-6.18-2.43a7.113,7.113,0,0,0-1,.2l-.17.09c-3.33,1-6.58,3.88-3.82,7,.15.17-.06.44-.25.31a8,8,0,0,0-6.91-.76,3.87,3.87,0,0,0-2.58,2,2.65,2.65,0,0,0,.1,2,6.91,6.91,0,0,1,.83,1.39c.08.19-.18.42-.33.23a6.792,6.792,0,0,1-.9-1.5l-.12-.15c-3.35-3.73-9.47-1.06-12.42,1.82-1.55,1.51-2.94,3.6-2.75,5.86.24,2.94,2.92,4.75,5.38,5.84.19.09.19.42-.06.39-3.23-.36-7.07.63-9.21,3.22A6.47,6.47,0,0,0,49.16,550c.45,2.14,2,2.79,4.06,2.45a.2.2,0,0,1,.14.37c-1.23.6-2.82,1.63-2.71,3.2a4.46,4.46,0,0,0,2,3c2.77.81,4.65-1.8,4.65-1.8s1,3.28,2.92,3.18c2.43-.15,1.72-3.89,1.72-3.89a13.74,13.74,0,0,0,7.69,3.82,7.06,7.06,0,0,0,6.43-2.64s.43,1.69,3,3a3.79,3.79,0,0,0,4.18-.05s-.45,3.43,2.15,4.69a2.13,2.13,0,0,0,3.26-1.3c1.21,1.45,2,.4,2,.4s1.77,5.41,9.12,5.82,8.6-4.67,8.6-4.67.84,1.83,2.06,1.4a1.13,1.13,0,0,0,.69-1.6s2.22,2.19,4.2,1.85,1.8-2.83,1.8-2.83,4.59,2.42,8.13-.31C130.41,560.16,126.32,555.44,126.32,555.44Z" fill="#00943b"/>
    <path id="Path_391" data-name="Path 391" d="M32.73,591.66s-8.81-1.95-10.12,6.41,8.91,9.49,8.91,9.49-.75,3.34,2,4.35,4.77-2,4.77-2,2.13,9.55,13.67,5.67S60.19,603,60.19,603s11.4-1.38,9.76-11.53c-1.74-10.83-13.62-7.14-13.62-7.14A7.73,7.73,0,0,0,49,580.06a8.38,8.38,0,0,0-7.33,4.8s-3.59-4.72-7.94-1.71S32.73,591.66,32.73,591.66Z" fill="#5cc11a"/>
    <path id="Path_392" data-name="Path 392" d="M64.3,584.9s-2.86,8.32-6.51,3.92c-1.83,7.86-5.85,6.54-8.8,5.4s-2.63-8.49-2.63-8.49-6,4-11-2.69c-3.14-4.63.67-10.27,2.44-10.45-3.08-1.32-.92-4.72.64-5.55-5,.07-9.12-5.52-3.23-14.1,3.63-5.51,9.93-4.58,11.45-3.38-1-4.11,1.46-4.79,3.71-1.4.12-8,8.14-13.4,16-14.4s12.26,4.64,12.78,8c2.19-3.56,7.2-1.59,6,2.46,3.33-2,5.58,1.44,5.23,4.37,5.67-1.86,11.69,3.43,11.42,9.53s-5.55,6.6-5.55,6.6,4.91,2.58.86,5c4,2.27,2.17,9.35-3,11s-7-1.37-7-1.37-1.58,2.72-4.75.12c0,4.26-5.89,7.65-12.72,2.53C69.5,584.85,65.64,586.24,64.3,584.9Z" fill="#5cc11a"/>
    <path id="Path_393" data-name="Path 393" d="M114.52,528.6s-9.53-5.36-14,3.87,7,14.14,7,14.14-2,3.62.75,5.74,6.25-.67,6.25-.67-.89,11.84,13.85,11.39,14-11.62,14-11.62,13.7,2.42,15.37-9.93c1.79-13.18-13.29-13.07-13.29-13.07a9.37,9.37,0,0,0-7-7.59,10.18,10.18,0,0,0-10.19,3s-2.5-6.75-8.61-4.78S114.52,528.6,114.52,528.6Z" fill="#5cc11a"/>
    <path id="Path_394" data-name="Path 394" d="M83.31,584.31S75.6,580,72,587.45s5.66,11.45,5.66,11.45-1.65,2.92.61,4.65,5.06-.55,5.06-.55-.72,9.58,11.22,9.22,11.33-9.4,11.33-9.4,11.09,2,12.45-8.05c1.45-10.67-10.76-10.58-10.76-10.58a7.59,7.59,0,0,0-5.7-6.14,8.23,8.23,0,0,0-8.25,2.41s-2-5.46-7-3.86S83.31,584.31,83.31,584.31Z" fill="#3fa000"/>
    <path id="Path_395" data-name="Path 395" d="M114.51,635.17c.16-.73.33-1.47.55-2.19a41.88,41.88,0,0,0,1.83-12.06A54.2,54.2,0,0,0,115.38,610c-.3-1.39-.64-2.79-1-4.16a34.292,34.292,0,0,0-1.54-4c-.06-.15-.14-.3-.21-.44v.06c1,5.27,1.89,10.54,2.76,15.83a41.32,41.32,0,0,1,0,9.94C115.08,629.91,114.88,632.57,114.51,635.17Z" fill="#814525"/>
    <path id="Path_396" data-name="Path 396" d="M118.43,648.13h-.08a72.121,72.121,0,0,1-2.76,12.67c-1.14,3.58-1.52,7.18-2.23,10.85-.8,4.18-.81,9.29-3.15,12.94-1.76,2.75-3.32,5.62-5,8.41,1.11-1.34,2.3-2.62,3.49-3.9a45.535,45.535,0,0,0,2.49-4.12c1.9-3.6,2.42-7.63,3.14-11.62A123.132,123.132,0,0,1,117.54,660,35.24,35.24,0,0,0,118.43,648.13Z" fill="#814525"/>
    <path id="Path_397" data-name="Path 397" d="M101.2,680.6a46.44,46.44,0,0,1-26.47,24.3.13.13,0,0,0-.07.06,5.226,5.226,0,0,0,.78-.11,56.515,56.515,0,0,0,8.39-3.9,58.146,58.146,0,0,0,8.54-5.15c4.83-3.84,7.1-9.06,8.87-14.78a2.851,2.851,0,0,0-.04-.42Z" fill="#814525"/>
    <path id="Path_398" data-name="Path 398" d="M106.2,653.14a38,38,0,0,0,.49-6.47A20.43,20.43,0,0,0,103,636.34C104.29,642,106,647.32,106.2,653.14Z" fill="#814525"/>
    <path id="Path_399" data-name="Path 399" d="M214.33,549.67s-3.34-4.28,0-10.09c3.16-5.56,9.39-3.84,9.39-3.84s-1.05-2.17.74-3.13a2.35,2.35,0,0,1,3,.71s-.19-7.29,6.33-7,6.13,6.26,6.13,6.26a9.11,9.11,0,0,1,11.3,1.09c4.29,3.77.9,10.6.9,10.6s7.73-1.31,8,5.37-8.72,7.64-8.72,7.64,5.84,10.44-3.93,15-14.57-2.3-14.57-2.3a5.92,5.92,0,0,1-4.74,3.36c-5,.86-6.81-3.89-6.81-3.89s-12.93,4-16.24-6.56C202,553.06,214.33,549.67,214.33,549.67Z" fill="#5cc11a"/>
    <path id="Path_400" data-name="Path 400" d="M164.34,558.73s-7.24,6.86-8.58.5c-6,6.94-9.32,3.49-11.69.8s1.84-9.9,1.84-9.9-8.17.82-9.65-8.51c-.7-6.3,6.09-10,7.94-9.2-2.39-2.94,1.57-5.22,3.58-5.23-5.11-2.59-6.26-10.34,4.18-15.85,6.54-3.62,12.36.63,13.26,2.64,1.14-4.66,4-4,4.46.54,4.34-8,15.22-9.15,23.66-6s9.86,11.12,8.59,14.8c4.07-2.42,8.07,2.19,4.76,5.64,4.36-.2,4.84,4.38,2.95,7.14,6.66,1.12,9.91,9.59,6.44,15.57s-9.05,3.7-9.05,3.7,3.57,5.18-1.78,5.5c2.84,4.4-2.75,10.52-8.79,9.43s-6.31-5.06-6.31-5.06-3,1.9-4.82-2.37c-2.19,4.3-9.94,4.56-14.1-4.16C169.59,561.42,165,560.78,164.34,558.73Z" fill="#007834"/>
    <path id="Path_401" data-name="Path 401" d="M304.05,587.18s-3.43.52-5.44-4.77,4.25-10.57,4.25-10.57c-5.83-4.54,1.22-10,1.22-10s-8.79,1.43-10.13-5.4c-1.39-7.13,7.2-10.31,7.2-10.31s-6.28-9.24,5.16-16.95c10.85-7.33,16.52-1.07,16.52-1.07s4.13-3.76,9.34-1.76c6.21,2.38,7.64,7.25,7.64,7.25s3.26-3.58,5.46-3.28-.16,4-.16,4,4.88-2.85,7.06-.82-.67,5-.67,5c4.16-2.85,6.81-3.34,8.3-3.27a12.772,12.772,0,0,1,1.31.28l.23.12a.321.321,0,0,1,0-.06c4.48,1.29,8.84,5.22,5.13,9.43-.19.22.09.59.34.41a10.783,10.783,0,0,1,9.28-1c1.33.44,2.95,1.23,3.47,2.65a3.62,3.62,0,0,1-.14,2.69,8.8,8.8,0,0,0-1.11,1.86c-.12.26.23.56.43.31a9.18,9.18,0,0,0,1.21-2l.17-.21c4.49-5,12.71-1.42,16.67,2.45,2.08,2,4,4.83,3.69,7.87-.32,3.94-3.92,6.37-7.22,7.84-.25.11-.25.56.07.52,4.35-.48,9.49.84,12.37,4.32a8.7,8.7,0,0,1,1.95,7.21c-.61,2.87-2.72,3.74-5.46,3.28-.28,0-.47.36-.18.5,1.65.81,3.79,2.18,3.64,4.3a6.06,6.06,0,0,1-2.69,4.11c-3.72,1.06-6.24-2.42-6.24-2.42s-1.33,4.39-3.92,4.24c-3.26-.18-2.31-5.2-2.31-5.2s-4.42,4.6-10.32,5.12a9.45,9.45,0,0,1-8.63-3.54s-.57,2.27-4,4-5.6-.07-5.6-.07.6,4.6-2.89,6.29-4.39-1.74-4.39-1.74c-1.61,2-2.68.54-2.68.54s-2.39,7.26-12.26,7.81-11.53-6.28-11.53-6.28-1.14,2.46-2.78,1.9a1.54,1.54,0,0,1-.92-2.16s-3,2.95-5.64,2.48-2.42-3.8-2.42-3.8-6.15,3.25-10.91-.41C298.56,593.51,304.05,587.18,304.05,587.18Z" fill="#007834"/>
    <path id="Path_402" data-name="Path 402" d="M440.59,564.17a18.89,18.89,0,0,0,3.1,13.6,10,10,0,0,0,10.16,4.53s1.76,11.1,16.72,10.35c15.75-.79,15.16-15.69,15.16-15.69s10.28,2.39,13.19-6.69c2.79-8.72-6.62-13.25-6.62-13.25s10.09-1.22,7.13-10.46c0,0,9.25-1.57,10.47-9.07s-2.44-9.24-2.44-9.24,9.14-3.38,5.58-14.3c-2.44-7.5-10.37-8.11-10.37-8.11s2.33-3.51-.09-6-7-1.13-7-1.13a2.23,2.23,0,0,0,.39-3.1c-1.26-1.79-3.84.22-3.84.22s2.47-9-7.47-15.24-16.61.33-16.61.33-.19-2.35-2.94-1.27c0,0,1.18-4.53-3.23-5.05s-6.58,5.14-6.58,5.14a6,6,0,0,0-5.41-4c-4.4-.39-6.31,1.79-6.31,1.79a13,13,0,0,0-6.28-10.07c-6.06-3.53-13.12-1.4-13.12-1.4s3.93-5.05.87-7.54c-2.44-2-6.37,2.1-6.37,2.1s-.43-6.94-6-7.41-6.19,8.67-6.19,8.67-6.67-9.58-21.05-4.84c-12.3,4.06-14.44,13.6-14.44,13.6s-2.08-5-6.78-3.07c-3.73,1.5-2.64,7-.65,8.43,0,0-3.05-.58-4.09,1.34a3.16,3.16,0,0,0,0,3.34s-3.11-.69-4.61,1.9,0,7.74,0,7.74-4.14-5.58-10-5.49-5.71,5.36-5.71,5.36-2.66-3.26-5.84-1.52-.69,6.14-.69,6.14-13.39-6.4-21.85,4.67S311.83,517,311.83,517a13.89,13.89,0,0,0-9.24,7.24c-3.49,6.36-2.79,19.53,11.86,20.4,0,0-4.36,8.37-.35,13.77s13.9,3.14,13.9,3.14-6.88,17.43,6.46,25.28,22.75-7.06,22.75-7.06.61,5.14,5.49,4.1,4.71-6.63,4.71-6.63,9.68,5.58,17.09,1.23c6.47-3.81-.7-11.69-.7-11.69s4.43.16,5.67-2c1.74-3-3.49-5.32-3.49-5.32s3.84.48,4.71-2.53-3.57-5.54-3.57-5.54,3.52-1,3.39-3.79c0,0,2.84,9.2,15.52,8.37s14.74-9.11,14.74-9.11,1.43,4.19,11.29,3.62c0,0-4.54,1.35-3.62,5.19s7.36,4,7.36,4-4.49,2.53-2.52,4.41S440.59,564.17,440.59,564.17Z" fill="#3fa000"/>
    <path id="Path_403" data-name="Path 403" d="M312,556.84a2.49,2.49,0,0,1,2.33-2.45c2-.13,3.46,1.57,4.47,3,1.64,2.34,2.87,4.88,4.36,7.3.25-1.57.48-3.15.7-4.71.3-2.1.44-4.14.58-6.26.05-.88,0-1.75,0-2.63.63.47,1.27.91,1.92,1.34a21.19,21.19,0,0,1-.59,15.15.49.49,0,0,0,.1.55.56.56,0,0,0,.28.49h0l-.05.06a29.09,29.09,0,0,0,6.68,5.56c7.82,3.51,16.2,5.33,24.46,7.45,4.22.67,7.3,1.91,11.53,2.55,3.74.55,8.85,3.75,12.33,5.17,3.05,1.25,9.69,6.29,12.33,8.39-.51-1-4.62-7.58-5.15-8.57-1.54-2.89-3.28-5.77-4.91-8.7-2.84-3.89-4.36-9-6-13.43-1.77-4.72-2.66-9.57-3.82-14.46,0-.19.22-.11.27,0,2.69,4,4.55,8.59,6.83,12.85,1.3,2.43,2.8,4.75,4.07,7.2a33.873,33.873,0,0,0,3.6,6.34,52.367,52.367,0,0,1,4.36,6.26h0a41.231,41.231,0,0,1,2.2,3.51c0-1.64,0-3.29.14-4.92a.8.8,0,0,0,.19-.55,90.187,90.187,0,0,1,1-11.29v-.82c-.12-2.11-.74-4.15-.85-6.26-.18-3.59-1.13-7.13-1.37-10.73a21.78,21.78,0,0,0-1-5.57,5.69,5.69,0,0,1-.47-3.23c.06-.23.38-.06.38.12,0,1.43,1.41,2.95,2.1,4.1a47.944,47.944,0,0,1,2.8,4.85c1.6,3.33,3.19,7.77,3.13,11.52,0,2.1.44,4.16.56,6.26a53,53,0,0,1-.13,5.91,33.513,33.513,0,0,1-.79,5.66,38.919,38.919,0,0,0,.1,10.56c.7,3.76,2.73,6.89,4.6,10.14s4.05,6.6,6.12,9.87c.82,1.28,1.61,2.59,2.38,3.91,2-8.1,5.19-15.79,5.91-24.16.08-1,.13-1.93.17-2.9.14-1.21.25-2.43.3-3.64.29-6-.84-11.9-1.67-17.8-1.2-8.62-2.5-19,1.37-27.12a4.45,4.45,0,0,1-.19,1.08,9.23,9.23,0,0,0-.22,1c.48,5.11,1.58,10.3,2.57,15.32,1.12,5.78,2.2,11.54,3.15,17.35a90.491,90.491,0,0,1,1.51,16q1.23-1.5,2.52-3c2.77-3.19,5.7-6.37,8.59-9.59,10.94-10.8,21.82-22.22,24.86-37.58,2,2.06,1,5.68.63,8.36a10.15,10.15,0,0,1-.84,2.75,55.811,55.811,0,0,1-3.67,10.41,58.789,58.789,0,0,1-5.85,10.52c3.58-3.37,7.6-6.31,10.87-10s5.47-8.33,7.3-13a27.69,27.69,0,0,1-6.9,16.77c-1.67,2.09-3.4,4.13-5.14,6.16-.68.58-1.35,1.17-2,1.75A71.341,71.341,0,0,0,444.4,591.5c-.76,1.77-1.48,3.56-2.12,5.37-3.2,9-5.24,18.29-4.13,27.93.51,4.5,2,8.92,2.18,13.45,0,.84.05,1.69.07,2.53q.87-2.4,1.87-4.76c1.62-3.82,4.12-7.09,6-10.77,1.75-3.52,1.84-7.58,2.11-11.42.43-6.07,1-12.06,3.21-17.68a1.69,1.69,0,0,1,.65,1,10.918,10.918,0,0,1-.41,2.17c-.2,1.68-.46,3.33-.55,5-.18,3.44-.28,6.89-.51,10.32-.05.94-.13,1.9-.2,2.87a6.345,6.345,0,0,0,.07,1.15c1.58-2.27,3.17-4.53,4.54-6.92s2.57-4.56,3.8-6.87q1-2.49,1.87-5c1.11-2.32,2.15-4.67,3.08-7.06,2.2-5.67,4.59-11.56,9.6-15.24-1.26,2.87-2.52,5.72-3.79,8.58-.07.27-.15.56-.21.83-1,4.19-2.36,8.33-3.65,12.43A84.812,84.812,0,0,1,462.4,612c1.79-1.6,3.71-3,5.65-4.42a.861.861,0,0,0,.34-.18l.39-.35,1.29-1h0l1.2-1.29A72.73,72.73,0,0,0,485,588a18.221,18.221,0,0,1-1.87,5.72,24.632,24.632,0,0,0-2.51,5,58.626,58.626,0,0,1-3.72,5.18,28.8,28.8,0,0,1,3.9-.64c.53-.06,1.06-.15,1.58-.24a24.46,24.46,0,0,0,6.09-3.5,20,20,0,0,1,3.33-2.29,24.94,24.94,0,0,1-13.48,10.23,23.083,23.083,0,0,0-2.28.92,13.692,13.692,0,0,0-1.82.55,32.47,32.47,0,0,0-9.92,6.46c-7,6.32-11.69,14.21-15.86,22.55-3.36,6.75-3.88,14.08-2.89,21.49s3.68,13.43,7.26,19.91A56.15,56.15,0,0,0,474,701c3.06,1.79,6.21,3.53,9.39,5.06,3,1.43,6,2.6,8.92,4.18a23.318,23.318,0,0,1-3.67,1.49c-7.25-.42-14.53-.12-21.77.14a1.171,1.171,0,0,0-.41.1l-4.3.16c-.89,0-1.84.11-2.79.16,2.79,1.55,5.72,2.77,8.55,4.28a13.165,13.165,0,0,0-1.84.25c-1.36.3-2.7.56-4,.75-1.37-.16-2.78-.2-4.14-.33-4.75-.46-9.51-.63-14.25-1.29a48.1,48.1,0,0,1-12.77-3.11,50.205,50.205,0,0,0-5.55-1.86V711a3.761,3.761,0,0,1-.66,1.6c-6.86,5-16,5.17-24.26,5.17-1.42,0-2.87,0-4.33-.09a43.739,43.739,0,0,0,8.42-9.51,33.331,33.331,0,0,0,5.07-9.12,27.211,27.211,0,0,0,.73-11.94c-.64-5.17-1.24-10.35-1.87-15.53v-.4c-.13-1.43-.26-2.87-.41-4.3-.82-7.8-1.18-15.54-1.69-23.35-.56-8.65-1.39-20.26-6.08-27.69-6.35-10-17.27-16.2-27.94-20.73-5.78-2.45-11.68-4.83-17.66-6.73-3.05-1-6.09-1.93-9.07-3l-1-.34a67.28,67.28,0,0,1-10.93-4.61,56.581,56.581,0,0,1-17.63-15C314.29,563.25,311.64,559.83,312,556.84Z" fill="#925f2d"/>
    <path id="Path_404" data-name="Path 404" d="M312,556.84a2.49,2.49,0,0,1,2.33-2.45h.06a37.14,37.14,0,0,0,8.66,14c5.81,6,13.79,9.45,21.63,12,8.93,2.93,17.88,5.75,26.66,9.15,4.45,1.72,8.7,3.83,13,5.83,3.56,1.63,7.26,3.27,10.07,6.08a.65.65,0,0,0,1-.78,24.994,24.994,0,0,0-2.6-4c-1.32-2.21-4.07-6.65-4.5-7.44-1.54-2.89-3.28-5.77-4.91-8.7-2.84-3.89-4.36-9-6-13.43-1.77-4.72-2.66-9.57-3.82-14.46,0-.19.22-.11.27,0l.07.1c1.44,6.74,4.58,13,8.11,18.87,3.91,6.5,7.92,13,12,19.37,8.22,12.7,18.43,24.83,22.2,39.79a.64.64,0,0,0,1.23,0c1.06-2.81,2.23-5.58,3.42-8.34-.3,2.66-.8,5.3-1.13,8a51.579,51.579,0,0,0,0,12,210.647,210.647,0,0,0,3.84,22.27c1.73,7.74,4.39,15.81,4.29,23.82-.08,7-3,12.76-7.17,18.19-.34.44.22,1.12.72.94a31.869,31.869,0,0,0,11.66-7.94c2.59,6.32,10.33,10.17,16.43,12.41a91.353,91.353,0,0,0,17.35,4.51,3.89,3.89,0,0,0-.83.14c-1.36.3-2.7.56-4,.75-1.37-.16-2.78-.2-4.14-.33-4.75-.46-9.51-.63-14.25-1.29a48.1,48.1,0,0,1-12.77-3.11,50.2,50.2,0,0,0-5.55-1.86V711a3.76,3.76,0,0,1-.66,1.6c-6.86,5-16,5.17-24.26,5.17-1.42,0-2.87,0-4.33-.09a43.742,43.742,0,0,0,8.42-9.51,33.332,33.332,0,0,0,5.07-9.12,27.21,27.21,0,0,0,.73-11.94c-.64-5.17-1.24-10.35-1.87-15.53v-.4c-.13-1.43-.26-2.87-.41-4.3-.82-7.8-1.18-15.54-1.69-23.35-.56-8.65-1.39-20.26-6.08-27.69-6.35-10-17.27-16.2-27.94-20.73-5.78-2.45-11.68-4.83-17.66-6.73-3.05-1-6.09-1.93-9.07-3l-1-.34a67.275,67.275,0,0,1-10.93-4.61,56.581,56.581,0,0,1-17.63-15C314.29,563.25,311.64,559.83,312,556.84Z" fill="#925f2d" opacity="0.4"/>
    <path id="Path_405" data-name="Path 405" d="M366.64,592.64c13.6,4.74,27.54,9.38,36.88,21.08l.23.3c10.17,20.56,5.49,24.75,9.84,74.53.42,4.73-1.12,9.5-3.18,13.84a29.68,29.68,0,0,1-10.77,12,59.531,59.531,0,0,0,4.87-6.2,33.33,33.33,0,0,0,5.07-9.12,27.21,27.21,0,0,0,.73-11.94c-.64-5.17-1.24-10.35-1.87-15.53v-.4c-.13-1.43-.26-2.87-.41-4.3-.82-7.8-1.18-15.54-1.69-23.35-.56-8.65-1.39-20.26-6.08-27.69-6.35-10-17.27-16.2-27.94-20.73-2.84-1.21-5.7-2.39-8.59-3.51Z" fill="#925f2d" opacity="0.4"/>
    <path id="Path_406" data-name="Path 406" d="M354.92,588.5l-.26-.09c-3.05-1-6.09-1.93-9.07-3l-1-.34a67.281,67.281,0,0,1-10.93-4.61,51.69,51.69,0,0,1-5.52-3.42,214.588,214.588,0,0,0,26.78,11.46Z" fill="#925f2d" opacity="0.4"/>
    <path id="Path_407" data-name="Path 407" d="M422.17,555.44s-2.55.38-4.05-3.56,3.17-7.88,3.17-7.88c-4.34-3.37.91-7.4.91-7.4s-6.55,1.06-7.55-4c-1-5.3,5.37-7.68,5.37-7.68s-4.68-6.87,3.84-12.62c8.09-5.46,12.3-.79,12.3-.79a7.11,7.11,0,0,1,7-1.32,9.26,9.26,0,0,1,5.69,5.4s2.43-2.66,4.07-2.44-.12,3-.12,3,3.63-2.12,5.26-.61-.5,3.7-.5,3.7c3.1-2.12,5.07-2.49,6.18-2.43a6.688,6.688,0,0,1,1,.2l.18.09h0c3.33,1,6.57,3.88,3.82,7a.2.2,0,0,0,.25.31,8,8,0,0,1,6.91-.76,3.87,3.87,0,0,1,2.58,2,2.65,2.65,0,0,1-.1,2,6.905,6.905,0,0,0-.83,1.39c-.08.19.18.42.32.23a6.819,6.819,0,0,0,.91-1.5,1.579,1.579,0,0,1,.12-.15c3.35-3.73,9.47-1.06,12.42,1.82,1.55,1.51,2.94,3.6,2.75,5.86-.24,2.94-2.92,4.75-5.38,5.84-.19.09-.19.42.05.39,3.24-.36,7.07.63,9.22,3.22a6.5,6.5,0,0,1,1.45,5.37c-.46,2.14-2,2.79-4.07,2.45a.2.2,0,0,0-.14.37c1.24.6,2.83,1.63,2.72,3.2a4.46,4.46,0,0,1-2,3c-2.77.81-4.65-1.8-4.65-1.8s-1,3.28-2.92,3.18c-2.43-.15-1.72-3.89-1.72-3.89a13.74,13.74,0,0,1-7.69,3.82,7,7,0,0,1-6.43-2.64s-.42,1.69-3,3a3.78,3.78,0,0,1-4.17-.05s.45,3.43-2.15,4.69a2.14,2.14,0,0,1-3.27-1.3c-1.2,1.45-2,.4-2,.4s-1.77,5.41-9.12,5.82-8.6-4.67-8.6-4.67-.84,1.83-2.06,1.4a1.13,1.13,0,0,1-.69-1.6s-2.22,2.19-4.2,1.85-1.81-2.83-1.81-2.83-4.58,2.42-8.13-.31C418.09,560.16,422.17,555.44,422.17,555.44Z" fill="#00943b"/>
    <path id="Path_408" data-name="Path 408" d="M515.76,591.66s8.81-1.95,10.12,6.41-8.91,9.49-8.91,9.49.75,3.34-2,4.35-4.78-2-4.78-2-2.14,9.55-13.67,5.67S488.3,603,488.3,603s-11.4-1.38-9.76-11.53c1.74-10.83,13.62-7.14,13.62-7.14a7.73,7.73,0,0,1,7.38-4.31,8.4,8.4,0,0,1,7.33,4.8s3.59-4.72,7.94-1.71S515.76,591.66,515.76,591.66Z" fill="#5cc11a"/>
    <path id="Path_409" data-name="Path 409" d="M484.19,584.9s2.85,8.32,6.5,3.92c1.83,7.86,5.86,6.54,8.81,5.4s2.63-8.49,2.63-8.49,6,4,11-2.69c3.13-4.63-.68-10.27-2.44-10.45,3.08-1.32.92-4.72-.64-5.55,5.05.07,9.12-5.52,3.22-14.1-3.62-5.51-9.92-4.58-11.44-3.38,1-4.11-1.46-4.79-3.71-1.4-.12-8-8.14-13.4-16-14.4s-12.27,4.64-12.78,8c-2.19-3.56-7.21-1.59-6,2.46-3.32-2-5.57,1.44-5.22,4.37-5.67-1.86-11.69,3.43-11.43,9.53s5.56,6.6,5.56,6.6-4.91,2.58-.87,5c-4,2.27-2.16,9.35,3,11s7-1.37,7-1.37,1.57,2.72,4.74.12c0,4.26,5.9,7.65,12.73,2.53C479,584.85,482.84,586.24,484.19,584.9Z" fill="#5cc11a"/>
    <path id="Path_410" data-name="Path 410" d="M434,528.6s9.53-5.36,14,3.87-7,14.14-7,14.14,2.05,3.62-.74,5.74-6.25-.67-6.25-.67.89,11.84-13.85,11.39-14-11.62-14-11.62-13.7,2.42-15.37-9.93C389,528.34,404,528.45,404,528.45a9.39,9.39,0,0,1,7-7.59,10.18,10.18,0,0,1,10.19,3s2.5-6.75,8.6-4.78S434,528.6,434,528.6Z" fill="#5cc11a"/>
    <path id="Path_411" data-name="Path 411" d="M465.18,584.31s7.71-4.34,11.33,3.14-5.67,11.45-5.67,11.45,1.66,2.92-.6,4.65-5.06-.55-5.06-.55.72,9.58-11.21,9.22-11.34-9.4-11.34-9.4-11.09,2-12.45-8.05c-1.45-10.67,10.76-10.58,10.76-10.58a7.57,7.57,0,0,1,5.7-6.14,8.23,8.23,0,0,1,8.25,2.41s2-5.46,7-3.86S465.18,584.31,465.18,584.31Z" fill="#3fa000"/>
    <path id="Path_412" data-name="Path 412" d="M434,635.17c-.17-.73-.34-1.47-.55-2.19a41.879,41.879,0,0,1-1.83-12.06A54.2,54.2,0,0,1,433.11,610c.29-1.39.64-2.79,1.05-4.16s1-2.66,1.54-4l.21-.44v.06c-1,5.27-1.89,10.54-2.76,15.83a41.322,41.322,0,0,0,0,9.94C433.41,629.91,433.61,632.57,434,635.17Z" fill="#814525"/>
    <path id="Path_413" data-name="Path 413" d="M430.06,648.13h.08a70.364,70.364,0,0,0,2.76,12.67c1.14,3.58,1.52,7.18,2.23,10.85.8,4.18.81,9.29,3.15,12.94,1.77,2.75,3.32,5.62,5,8.41-1.12-1.34-2.3-2.62-3.5-3.9a47.837,47.837,0,0,1-2.48-4.12c-1.91-3.6-2.42-7.63-3.14-11.62A123.139,123.139,0,0,0,431,660a34.74,34.74,0,0,1-.94-11.87Z" fill="#814525"/>
    <path id="Path_414" data-name="Path 414" d="M447.29,680.6a46.44,46.44,0,0,0,26.47,24.3.13.13,0,0,1,.07.06,5.191,5.191,0,0,1-.79-.11,56.891,56.891,0,0,1-8.38-3.9,58.143,58.143,0,0,1-8.54-5.15c-4.83-3.84-7.1-9.06-8.88-14.78C447.25,680.88,447.27,680.73,447.29,680.6Z" fill="#814525"/>
    <path id="Path_415" data-name="Path 415" d="M442.29,653.14a38,38,0,0,1-.49-6.47,20.43,20.43,0,0,1,3.74-10.33C444.2,642,442.54,647.32,442.29,653.14Z" fill="#814525"/>
    <path id="Path_416" data-name="Path 416" d="M334.16,549.67s3.33-4.28,0-10.09c-3.16-5.56-9.4-3.84-9.4-3.84s1.06-2.17-.73-3.13a2.35,2.35,0,0,0-3,.71s.19-7.29-6.32-7a5.918,5.918,0,0,0-6.14,6.26,9.13,9.13,0,0,0-11.31,1.09c-4.28,3.77-.89,10.6-.89,10.6s-7.74-1.31-8,5.37,8.72,7.64,8.72,7.64-5.85,10.44,3.93,15,14.56-2.3,14.56-2.3a6,6,0,0,0,4.75,3.36c5,.86,6.8-3.89,6.8-3.89s12.94,4,16.25-6.56C346.49,553.06,334.16,549.67,334.16,549.67Z" fill="#5cc11a"/>
    <path id="Path_417" data-name="Path 417" d="M384.15,558.73s7.24,6.86,8.58.5c6,6.94,9.32,3.49,11.68.8s-1.83-9.9-1.83-9.9,8.17.82,9.65-8.51c.71-6.3-6.09-10-8-9.2,2.4-2.94-1.56-5.22-3.57-5.23,5.11-2.59,6.25-10.34-4.18-15.85-6.54-3.62-12.37.63-13.26,2.64-1.14-4.66-4-4-4.46.54-4.34-8-15.22-9.15-23.66-6s-9.87,11.12-8.6,14.8c-4.07-2.42-8.06,2.19-4.75,5.64-4.36-.2-4.84,4.38-2.95,7.14-6.66,1.12-9.91,9.59-6.44,15.57s9,3.7,9,3.7-3.56,5.18,1.79,5.5c-2.84,4.4,2.75,10.52,8.79,9.43s6.31-5.06,6.31-5.06,3,1.9,4.82-2.37c2.2,4.3,9.93,4.56,14.09-4.16C378.9,561.42,383.5,560.78,384.15,558.73Z" fill="#007834"/>
    <path id="Path_418" data-name="Path 418" d="M337.13,658.05V579.66c0-.54-.28-1-.61-1s-.62.44-.62,1v78.39Z" fill="#673a1d"/>
    <path id="Path_419" data-name="Path 419" d="M209.77,658.05V581c0-.54-.28-1-.62-1s-.61.43-.61,1v77.07Z" fill="#673a1d"/>
    <path id="Path_420" data-name="Path 420" d="M209.82,584.65a.35.35,0,0,1-.14,0,1.07,1.07,0,0,1-.46-1.16c.8-5.77-1.46-8-1.55-8.07a1.33,1.33,0,0,1-.22-1.34c.17-.46.54-.62.83-.35.13.12,3.14,3,2.13,10.18C210.35,584.34,210.1,584.65,209.82,584.65Z" fill="#673a1d"/>
    <path id="Path_421" data-name="Path 421" d="M208.9,585.54h-.14a1.08,1.08,0,0,1-.46-1.17c.82-5.88-1.46-8.4-1.49-8.42a1.4,1.4,0,0,1-.16-1.36c.19-.45.57-.57.85-.26.12.12,3,3.3,2,10.46C209.43,585.23,209.17,585.54,208.9,585.54Z" fill="#542f14"/>
    <path id="Path_422" data-name="Path 422" d="M336.86,581.23a.321.321,0,0,1-.13,0,1.07,1.07,0,0,1-.46-1.16c.57-4.11-1-5.67-1.09-5.74A1.36,1.36,0,0,1,335,573c.17-.47.54-.63.83-.36.1.09,2.44,2.3,1.67,7.85C337.4,580.93,337.15,581.23,336.86,581.23Z" fill="#673a1d"/>
    <path id="Path_423" data-name="Path 423" d="M336.18,581.9a.28.28,0,0,1-.13,0c-.33-.11-.54-.63-.47-1.16.58-4.15-1-5.94-1-6a1.41,1.41,0,0,1-.16-1.36c.2-.44.57-.56.85-.26.09.1,2.31,2.55,1.55,8.06C336.72,581.59,336.46,581.9,336.18,581.9Z" fill="#542f14"/>
    <path id="Path_424" data-name="Path 424" d="M207.2,678.23h-.06c-.24-.06-.4-.43-.36-.84L208.71,656a.6.6,0,0,1,.39-.63c.2-.03.38.21.43.55L211.46,668c.06.39-.07.8-.3.9s-.46-.12-.52-.51l-1.4-8.77-1.62,18C207.59,678,207.41,678.23,207.2,678.23Z" fill="#542f14"/>
    <path id="Path_425" data-name="Path 425" d="M337.94,679.27c-.24,0-.44-.29-.46-.65l-1.17-18.5-1.42,8.29c-.07.39-.32.62-.56.51a.85.85,0,0,1-.33-.9l2.07-12.09c.06-.35.26-.56.48-.54s.4.3.42.65l1.43,22.42c0,.41-.17.77-.42.81Z" fill="#542f14"/>
    <path id="Path_426" data-name="Path 426" d="M334.21,666.61H210.85l-4.1,10.07,117.89,2.29,13.67-2.29Z" fill="#ffd060"/>
    <rect id="Rectangle_150" data-name="Rectangle 150" width="131.57" height="3.48" transform="translate(206.75 676.68)" fill="#faa53c"/>
  </g>
</svg>
