<svg xmlns="http://www.w3.org/2000/svg" viewBox="0 0 105.29 104.84"><defs><style>.cls-1{isolation:isolate;}.cls-2{fill:#e30613;}.cls-14,.cls-3,.cls-9{fill:#c80613;}.cls-14,.cls-3,.cls-8{mix-blend-mode:multiply;}.cls-4{fill:#f4a081;mix-blend-mode:color-dodge;}.cls-5{fill:#3d1a0b;}.cls-6{fill:#fff;}.cls-7{fill:#790613;}.cls-10{fill:#623f24;}.cls-11{fill:#a06640;}.cls-12{fill:#279235;}.cls-13{fill:#8abd24;}.cls-14{opacity:0.5;}</style></defs><title>apple10</title><g class="cls-1"><g id="Layer_1" data-name="Layer 1"><path class="cls-2" d="M35.69,17.42a12.13,12.13,0,0,1,9.13-7c4.61-.54,5.52,1.09,7.26,1.82s3-.29,5.58-1.31,7.69.58,9.43,3.63a19.25,19.25,0,0,1-.73,18.85c-4.27,7.4-9.79,7.18-12.4,6.24-2-.58-2.77.91-5.71.62A15.77,15.77,0,0,1,35.4,27.57,16.64,16.64,0,0,1,35.69,17.42Z"/><path class="cls-3" d="M49.12,19.43c.06.83.35,1.48.66,1.45s.51-.74.45-1.57-.35-1.48-.66-1.45S49.06,18.6,49.12,19.43Z"/><path class="cls-4" d="M44.45,12.87s-4,2-5,8.76L37,21.24a13.33,13.33,0,0,1,6.16-8.83Z"/><path class="cls-4" d="M36.57,22.86a6.54,6.54,0,0,1,2.28.24c-.42,1.69-.59,2.82-.59,2.82l-1.38-.21A6.89,6.89,0,0,1,36.57,22.86Z"/><path class="cls-5" d="M48.94,19.3c.06.84.35,1.49.66,1.45s.51-.73.46-1.57-.36-1.48-.66-1.45S48.89,18.47,48.94,19.3Z"/><path class="cls-6" d="M49.54,18.6c0,.25.13.44.23.42s.14-.24.1-.49-.14-.43-.23-.41S49.5,18.35,49.54,18.6Z"/><path class="cls-3" d="M55.12,18.68c.05.85.35,1.51.66,1.47s.51-.74.45-1.59-.35-1.5-.66-1.47S55.06,17.84,55.12,18.68Z"/><path class="cls-5" d="M54.94,18.56c.06.84.35,1.5.66,1.47s.51-.75.45-1.6-.35-1.5-.66-1.47S54.88,17.71,54.94,18.56Z"/><path class="cls-6" d="M55.53,17.84c0,.26.14.45.23.43s.14-.24.11-.49-.14-.45-.23-.43S55.5,17.59,55.53,17.84Z"/><path class="cls-7" d="M46.71,25.54a4.56,4.56,0,0,0,.16.81,5.42,5.42,0,0,0,1,1.91,5,5,0,0,0,1.05,1,5.82,5.82,0,0,0,1.44.69,7.71,7.71,0,0,0,1.68.35,8.82,8.82,0,0,0,1.78,0,5.25,5.25,0,0,0,1.7-.43,4.61,4.61,0,0,0,1.41-1,6.34,6.34,0,0,0,1.56-2.59A10.67,10.67,0,0,0,59,24.19c0-.52,0-.83,0-.83a7.55,7.55,0,0,1,0,.83,9.55,9.55,0,0,1-.39,2.16A7,7,0,0,1,58,27.71a5.77,5.77,0,0,1-1,1.33,5,5,0,0,1-1.46,1,5.58,5.58,0,0,1-1.76.46,8.51,8.51,0,0,1-1.82,0,7.41,7.41,0,0,1-1.72-.37,5.5,5.5,0,0,1-1.47-.75,4.92,4.92,0,0,1-1.06-1,4.66,4.66,0,0,1-.63-1.07,6.14,6.14,0,0,1-.31-.91A4.06,4.06,0,0,1,46.71,25.54Z"/><path class="cls-7" d="M58,22.33a3.19,3.19,0,0,0,.29.33l.32.29a3,3,0,0,0,.42.27l.23.1.22.09.23.06.2,0,.17,0,.14,0,.12,0-.12,0a1.32,1.32,0,0,1-.32,0H59.7l-.25,0-.25-.07L59,23.41a2.46,2.46,0,0,1-.44-.31l-.17-.18-.13-.18A1.39,1.39,0,0,1,58,22.33Z"/><g class="cls-8"><path class="cls-9" d="M67.09,14.59C65.35,11.54,60.27,10,57.66,11s-3.84,2-5.58,1.31A26.79,26.79,0,0,0,49,10.68a4,4,0,0,1,.92.86C51,13,52.44,14,54.61,12.92c4-2,7-.73,8.86,2.13,3.06,4.69,3,15-2.33,20.21-3.69,3.05-6.27,3.12-8.23,1.59s-4.13,6.42-13.49-1.3h0a15.53,15.53,0,0,0,8.83,4.75c2.94.29,3.68-1.2,5.71-.62,2.61.94,8.13,1.16,12.4-6.24A19.25,19.25,0,0,0,67.09,14.59Z"/></g><path class="cls-10" d="M51.29,1.07l0,0S51,.65,50.15,1s-.76.61-.4.91A2.5,2.5,0,0,0,51.29,1.07Z"/><path class="cls-11" d="M51.29,1.07a2.5,2.5,0,0,1-1.54.87c.35.31,3.54,6.43,2.76,11.26a1.32,1.32,0,0,0,.64.17S54,5,51.29,1.07Z"/><path class="cls-7" d="M50.56,12.08s1.53,3,4.9.28a5.93,5.93,0,0,1-2.64.89A4.16,4.16,0,0,1,50.56,12.08Z"/><path class="cls-12" d="M53,9.14C63.6,10.56,64,.9,64,.9A20.35,20.35,0,0,0,53,9.14Z"/><path class="cls-13" d="M53,9.14A20.35,20.35,0,0,1,64,.9C54.37-1.12,53,9.14,53,9.14Z"/><path class="cls-5" d="M49.22,15.69a.79.79,0,0,0-.74.73.08.08,0,0,0,.11.08,0,0,0,0,0,0,0,1.1,1.1,0,0,1,1-.06c.07,0,.13-.05.15-.12A.56.56,0,0,0,49.22,15.69Z"/><path class="cls-5" d="M55.53,15.05a.78.78,0,0,0-.74.73.08.08,0,0,0,.11.08,0,0,0,0,0,.05,0,1.05,1.05,0,0,1,1-.06c.08,0,.14-.06.15-.12A.55.55,0,0,0,55.53,15.05Z"/><path class="cls-7" d="M48,20.55a1.91,1.91,0,0,1,2.27.9A3.48,3.48,0,0,0,48,20.55Z"/><path class="cls-7" d="M57,19.93a1.89,1.89,0,0,0-2.27.89A3.5,3.5,0,0,1,57,19.93Z"/><path class="cls-14" d="M46.64,25.1s1.26,5,6.11,5c3.72-.08,5.8-3,6.2-6.67C58,23.27,58,22,58,22A3.57,3.57,0,0,0,60.7,23.4a1.52,1.52,0,0,1-1.5.12s.27,7.22-5.54,7.53C49.34,31.35,46.55,29.34,46.64,25.1Z"/><path class="cls-2" d="M57.32,36.09a12.23,12.23,0,0,1,9.19-7c4.63-.55,5.54,1.09,7.29,1.82s3-.29,5.61-1.31,7.73.58,9.48,3.65a19.39,19.39,0,0,1-.73,19c-4.3,7.43-9.84,7.21-12.47,6.27-2-.59-2.78.91-5.74.62A15.86,15.86,0,0,1,57,46.29,16.79,16.79,0,0,1,57.32,36.09Z"/><path class="cls-3" d="M70.83,38.11c0,.84.35,1.49.66,1.46S72,38.83,72,38s-.36-1.49-.67-1.45S70.77,37.28,70.83,38.11Z"/><path class="cls-4" d="M66.13,31.52s-4,2-5,8.8l-2.47-.39a13.36,13.36,0,0,1,6.19-8.87Z"/><path class="cls-4" d="M58.21,41.56a6.65,6.65,0,0,1,2.3.24c-.43,1.7-.6,2.83-.6,2.83l-1.38-.21A6.83,6.83,0,0,1,58.21,41.56Z"/><path class="cls-5" d="M70.65,38c0,.83.35,1.49.66,1.45s.51-.74.46-1.58-.36-1.48-.67-1.45S70.59,37.15,70.65,38Z"/><path class="cls-6" d="M71.24,37.28c0,.25.14.44.24.42s.13-.24.1-.49-.14-.44-.23-.42S71.21,37,71.24,37.28Z"/><path class="cls-3" d="M76.85,37.36c.06.85.36,1.51.67,1.48s.51-.75.45-1.6-.35-1.51-.66-1.48S76.79,36.51,76.85,37.36Z"/><path class="cls-5" d="M76.67,37.24c.06.84.36,1.51.67,1.47s.51-.75.45-1.6-.35-1.51-.66-1.48S76.62,36.39,76.67,37.24Z"/><path class="cls-6" d="M77.27,36.52c0,.25.14.44.23.43s.14-.25.11-.5-.14-.45-.24-.43S77.24,36.26,77.27,36.52Z"/><path class="cls-7" d="M68.4,44.25a4.19,4.19,0,0,0,.17.82,5.49,5.49,0,0,0,1,1.92,5.27,5.27,0,0,0,1.06,1,6.09,6.09,0,0,0,1.45.7,7.68,7.68,0,0,0,1.69.35,8.92,8.92,0,0,0,1.79,0,5.51,5.51,0,0,0,1.71-.43,4.87,4.87,0,0,0,1.42-1A6.43,6.43,0,0,0,80.24,45a10.19,10.19,0,0,0,.46-2.13,8.22,8.22,0,0,0,.06-.83,6.51,6.51,0,0,1,0,.83,9.6,9.6,0,0,1-.38,2.17,8.16,8.16,0,0,1-.57,1.37,5.77,5.77,0,0,1-1,1.33,4.93,4.93,0,0,1-1.47,1,5.64,5.64,0,0,1-1.77.46,10.16,10.16,0,0,1-1.83,0A7.61,7.61,0,0,1,72,48.85a6,6,0,0,1-1.48-.75,5,5,0,0,1-1.06-1A4.72,4.72,0,0,1,68.83,46a6,6,0,0,1-.3-.91A3.8,3.8,0,0,1,68.4,44.25Z"/><path class="cls-7" d="M79.77,41s.11.14.29.33a3.4,3.4,0,0,0,.33.29,2.52,2.52,0,0,0,.42.27L81,42l.23.08.22.06.21,0,.17,0H82l.12,0-.12,0a2.17,2.17,0,0,1-.32,0,.81.81,0,0,1-.22,0l-.25,0L81,42.22a2,2,0,0,1-.26-.11,2.32,2.32,0,0,1-.44-.31l-.17-.18L80,41.44A1.39,1.39,0,0,1,79.77,41Z"/><g class="cls-8"><path class="cls-9" d="M88.89,33.25c-1.75-3.07-6.86-4.67-9.48-3.65s-3.86,2-5.61,1.31a28.69,28.69,0,0,0-3.11-1.59,4.16,4.16,0,0,1,.92.86c1.09,1.46,2.55,2.47,4.74,1.39,4-2,7-.73,8.89,2.14,3.08,4.71,3,15.06-2.33,20.31-3.72,3.07-6.31,3.13-8.28,1.6s-4.15,6.45-13.55-1.31h0A15.63,15.63,0,0,0,70,59.09c3,.29,3.7-1.21,5.74-.62,2.63.94,8.17,1.16,12.47-6.27A19.39,19.39,0,0,0,88.89,33.25Z"/></g><path class="cls-10" d="M73,19.66l0,0s-.27-.38-1.12,0-.76.61-.4.92A2.55,2.55,0,0,0,73,19.66Z"/><path class="cls-11" d="M73,19.66a2.55,2.55,0,0,1-1.55.88c.35.3,3.56,6.46,2.77,11.31a1.34,1.34,0,0,0,.65.17S75.77,23.61,73,19.66Z"/><path class="cls-7" d="M72.27,30.72s1.54,3,4.93.28a6,6,0,0,1-2.66.9A4.14,4.14,0,0,1,72.27,30.72Z"/><path class="cls-12" d="M74.75,27.77c10.62,1.42,11.06-8.28,11.06-8.28A20.49,20.49,0,0,0,74.75,27.77Z"/><path class="cls-13" d="M74.75,27.77a20.49,20.49,0,0,1,11.06-8.28C76.1,17.46,74.75,27.77,74.75,27.77Z"/><path class="cls-5" d="M70.93,34.36a.78.78,0,0,0-.74.73.07.07,0,0,0,.1.08,0,0,0,0,0,0,0,1.1,1.1,0,0,1,1-.07c.08,0,.14-.05.15-.11A.54.54,0,0,0,70.93,34.36Z"/><path class="cls-5" d="M77.27,33.71a.78.78,0,0,0-.74.73.07.07,0,0,0,.1.08,0,0,0,0,0,.05,0,1.08,1.08,0,0,1,1-.07.13.13,0,0,0,.15-.12A.55.55,0,0,0,77.27,33.71Z"/><path class="cls-7" d="M69.7,39.24a1.9,1.9,0,0,1,2.28.9A3.52,3.52,0,0,0,69.7,39.24Z"/><path class="cls-7" d="M78.72,38.61a1.9,1.9,0,0,0-2.28.9A3.52,3.52,0,0,1,78.72,38.61Z"/><path class="cls-14" d="M68.33,43.81s1.27,5,6.15,5c3.73-.09,5.82-3.06,6.22-6.71-1-.14-1-1.46-1-1.46a3.6,3.6,0,0,0,2.77,1.45,1.51,1.51,0,0,1-1.51.12s.27,7.26-5.57,7.57C71,50.1,68.24,48.07,68.33,43.81Z"/><path class="cls-2" d="M34.3,36a12.22,12.22,0,0,1,9.18-7c4.63-.54,5.54,1.1,7.29,1.83s3-.3,5.61-1.32,7.73.59,9.48,3.65a19.36,19.36,0,0,1-.73,19c-4.3,7.43-9.84,7.22-12.46,6.27-2.05-.58-2.79.91-5.74.62A15.85,15.85,0,0,1,34,46.24,16.73,16.73,0,0,1,34.3,36Z"/><path class="cls-3" d="M47.8,38.06c.06.83.35,1.49.66,1.45s.52-.74.46-1.58-.36-1.48-.67-1.45S47.74,37.22,47.8,38.06Z"/><path class="cls-4" d="M43.1,31.46s-4,2-5,8.8l-2.48-.39A13.41,13.41,0,0,1,41.83,31Z"/><path class="cls-4" d="M35.18,41.5a6.51,6.51,0,0,1,2.3.25c-.42,1.69-.6,2.82-.6,2.82l-1.38-.21A7,7,0,0,1,35.18,41.5Z"/><path class="cls-5" d="M47.62,37.93c.06.84.35,1.49.66,1.45s.52-.74.46-1.57-.35-1.49-.66-1.46S47.56,37.09,47.62,37.93Z"/><path class="cls-6" d="M48.22,37.22c0,.25.14.44.23.42s.14-.24.1-.49-.13-.44-.23-.42S48.18,37,48.22,37.22Z"/><path class="cls-3" d="M53.82,37.3c.06.85.36,1.52.67,1.48s.51-.75.45-1.6-.35-1.51-.66-1.48S53.77,36.45,53.82,37.3Z"/><path class="cls-5" d="M53.65,37.18c.05.85.35,1.51.66,1.47s.51-.75.46-1.6-.36-1.51-.67-1.47S53.59,36.33,53.65,37.18Z"/><path class="cls-6" d="M54.24,36.46c0,.26.14.45.23.43s.14-.25.11-.5-.14-.45-.23-.43S54.21,36.21,54.24,36.46Z"/><path class="cls-7" d="M45.38,44.19a4.55,4.55,0,0,0,.16.82,5.54,5.54,0,0,0,1,1.92,4.78,4.78,0,0,0,1.06,1,5.84,5.84,0,0,0,1.44.7,7.93,7.93,0,0,0,1.69.35,8.92,8.92,0,0,0,1.79,0,5.25,5.25,0,0,0,1.71-.43,4.65,4.65,0,0,0,1.42-1A6.46,6.46,0,0,0,57.21,45a10.19,10.19,0,0,0,.47-2.13c0-.53,0-.83,0-.83a7.5,7.5,0,0,1,0,.83A9.72,9.72,0,0,1,57.33,45a7.33,7.33,0,0,1-.56,1.37,5.61,5.61,0,0,1-1,1.33,5,5,0,0,1-1.46,1,5.7,5.7,0,0,1-1.78.46,8.61,8.61,0,0,1-1.83,0A7.73,7.73,0,0,1,49,48.79,5.5,5.5,0,0,1,47.51,48a5.27,5.27,0,0,1-1.07-1,4.93,4.93,0,0,1-.63-1.08A5.16,5.16,0,0,1,45.5,45,4.1,4.1,0,0,1,45.38,44.19Z"/><path class="cls-7" d="M56.75,41a2.43,2.43,0,0,0,.28.33,3.25,3.25,0,0,0,.33.29,3,3,0,0,0,.42.27L58,42l.23.08.22.06a1.94,1.94,0,0,0,.2,0l.18,0,.14,0,.12,0-.12,0a1.42,1.42,0,0,1-.33,0,.83.83,0,0,1-.22,0l-.24,0a2,2,0,0,1-.26-.08,1.36,1.36,0,0,1-.25-.11,1.58,1.58,0,0,1-.44-.31,1.41,1.41,0,0,1-.17-.18,1,1,0,0,1-.13-.18A1.39,1.39,0,0,1,56.75,41Z"/><g class="cls-8"><path class="cls-9" d="M65.86,33.19c-1.75-3.06-6.85-4.67-9.48-3.65s-3.86,2-5.61,1.32a27,27,0,0,0-3.11-1.59,3.75,3.75,0,0,1,.92.86c1.1,1.45,2.55,2.47,4.74,1.38,4-2,7-.73,8.9,2.14,3.07,4.72,3,15.06-2.34,20.31-3.71,3.07-6.3,3.14-8.27,1.61S47.45,62,38.05,54.25h0A15.62,15.62,0,0,0,46.93,59c3,.29,3.69-1.2,5.74-.62,2.62,1,8.16,1.16,12.46-6.27A19.36,19.36,0,0,0,65.86,33.19Z"/></g><path class="cls-10" d="M50,19.6l0,0s-.27-.38-1.11,0-.77.61-.41.92A2.55,2.55,0,0,0,50,19.6Z"/><path class="cls-11" d="M50,19.6a2.55,2.55,0,0,1-1.55.88c.36.31,3.56,6.46,2.78,11.31a1.33,1.33,0,0,0,.64.18S52.75,23.55,50,19.6Z"/><path class="cls-7" d="M49.25,30.66s1.53,3,4.92.29a5.86,5.86,0,0,1-2.65.89A4.07,4.07,0,0,1,49.25,30.66Z"/><path class="cls-12" d="M51.73,27.71c10.62,1.43,11.06-8.27,11.06-8.27A20.41,20.41,0,0,0,51.73,27.71Z"/><path class="cls-13" d="M51.73,27.71a20.41,20.41,0,0,1,11.06-8.27C53.07,17.4,51.73,27.71,51.73,27.71Z"/><path class="cls-5" d="M47.9,34.3a.78.78,0,0,0-.74.73.08.08,0,0,0,.11.08s0,0,0,0a1.09,1.09,0,0,1,1-.06c.07,0,.13,0,.15-.12A.56.56,0,0,0,47.9,34.3Z"/><path class="cls-5" d="M54.24,33.65a.79.79,0,0,0-.74.73c0,.07.06.11.11.08a0,0,0,0,0,0,0,1.1,1.1,0,0,1,1-.07c.07,0,.13,0,.15-.11A.56.56,0,0,0,54.24,33.65Z"/><path class="cls-7" d="M46.67,39.18a1.92,1.92,0,0,1,2.29.9A3.53,3.53,0,0,0,46.67,39.18Z"/><path class="cls-7" d="M55.7,38.55a1.93,1.93,0,0,0-2.29.9A3.53,3.53,0,0,1,55.7,38.55Z"/><path class="cls-14" d="M45.3,43.76s1.28,5.05,6.15,5c3.73-.09,5.83-3,6.23-6.71-1-.14-1-1.45-1-1.45A3.58,3.58,0,0,0,59.44,42a1.51,1.51,0,0,1-1.51.12s.27,7.26-5.57,7.57C48,50,45.21,48,45.3,43.76Z"/><path class="cls-2" d="M15.79,35.69a12.2,12.2,0,0,1,9.19-7c4.63-.55,5.54,1.09,7.29,1.82s3-.29,5.61-1.31,7.73.58,9.47,3.64a19.36,19.36,0,0,1-.72,18.95c-4.3,7.44-9.84,7.22-12.47,6.27-2-.58-2.78.91-5.74.62A15.86,15.86,0,0,1,15.5,45.9,16.83,16.83,0,0,1,15.79,35.69Z"/><path class="cls-3" d="M29.3,37.72c.05.84.35,1.49.66,1.46s.51-.74.45-1.58-.35-1.49-.66-1.46S29.24,36.88,29.3,37.72Z"/><path class="cls-4" d="M24.6,31.12s-4,2-5,8.81l-2.47-.39a13.4,13.4,0,0,1,6.18-8.88Z"/><path class="cls-4" d="M16.68,41.16a6.8,6.8,0,0,1,2.3.25c-.43,1.7-.6,2.83-.6,2.83L17,44A6.89,6.89,0,0,1,16.68,41.16Z"/><path class="cls-5" d="M29.12,37.59c.05.84.35,1.49.66,1.46s.51-.74.46-1.58S29.88,36,29.57,36,29.06,36.76,29.12,37.59Z"/><path class="cls-6" d="M29.71,36.89c0,.25.14.44.23.42s.14-.24.11-.49-.14-.44-.23-.42S29.68,36.64,29.71,36.89Z"/><path class="cls-3" d="M35.32,37c.06.85.35,1.51.66,1.48s.52-.75.46-1.6-.35-1.52-.66-1.48S35.26,36.12,35.32,37Z"/><path class="cls-5" d="M35.14,36.84c.06.85.36,1.51.67,1.48s.51-.75.45-1.6-.35-1.51-.66-1.48S35.08,36,35.14,36.84Z"/><path class="cls-6" d="M35.74,36.12c0,.26.14.45.23.43s.14-.24.11-.49-.14-.45-.24-.43S35.7,35.87,35.74,36.12Z"/><path class="cls-7" d="M26.87,43.86a4.19,4.19,0,0,0,.17.81,5.17,5.17,0,0,0,1,1.92,5.27,5.27,0,0,0,1.06,1,6.11,6.11,0,0,0,1.45.71,8.3,8.3,0,0,0,1.69.35,9.73,9.73,0,0,0,1.79,0,5.81,5.81,0,0,0,1.71-.43,4.69,4.69,0,0,0,1.41-1,6.35,6.35,0,0,0,1.57-2.6,10.81,10.81,0,0,0,.46-2.14,8,8,0,0,0,.06-.83,6.68,6.68,0,0,1,0,.84,10.13,10.13,0,0,1-.38,2.16A7.83,7.83,0,0,1,38.26,46a5.61,5.61,0,0,1-1,1.34,5.09,5.09,0,0,1-1.47,1,5.64,5.64,0,0,1-1.77.46,9.32,9.32,0,0,1-1.83,0,8.86,8.86,0,0,1-1.73-.37A5.74,5.74,0,0,1,29,47.7a5,5,0,0,1-1.06-1,4.57,4.57,0,0,1-.64-1.08,5,5,0,0,1-.3-.91A3.77,3.77,0,0,1,26.87,43.86Z"/><path class="cls-7" d="M38.24,40.63a3.94,3.94,0,0,0,.29.34,3.4,3.4,0,0,0,.33.29,2.39,2.39,0,0,0,.41.26c.08,0,.16.07.23.11l.23.09.22.06.21,0,.17,0,.14,0,.12,0-.12,0a1.25,1.25,0,0,1-.32,0h-.22l-.25,0-.25-.07-.26-.11a2.36,2.36,0,0,1-.44-.32,1.45,1.45,0,0,1-.17-.18L38.43,41A1.39,1.39,0,0,1,38.24,40.63Z"/><g class="cls-8"><path class="cls-9" d="M47.35,32.85c-1.74-3.06-6.85-4.66-9.47-3.64s-3.86,2-5.61,1.31a26.39,26.39,0,0,0-3.12-1.59,4,4,0,0,1,.93.86c1.09,1.46,2.55,2.47,4.74,1.39,4-2,7-.74,8.89,2.14,3.08,4.71,3,15.06-2.33,20.31-3.72,3.07-6.31,3.13-8.28,1.6S29,61.68,19.55,53.92h0a15.57,15.57,0,0,0,8.87,4.77c3,.29,3.7-1.2,5.74-.62,2.63,1,8.17,1.17,12.47-6.27A19.36,19.36,0,0,0,47.35,32.85Z"/></g><path class="cls-10" d="M31.48,19.27l0,0s-.27-.39-1.12,0-.76.61-.4.91A2.52,2.52,0,0,0,31.48,19.27Z"/><path class="cls-11" d="M31.48,19.27a2.52,2.52,0,0,1-1.55.87c.35.31,3.56,6.47,2.77,11.31a1.39,1.39,0,0,0,.64.18S34.24,23.22,31.48,19.27Z"/><path class="cls-7" d="M30.74,30.33s1.54,3,4.93.28A5.86,5.86,0,0,1,33,31.5,4.09,4.09,0,0,1,30.74,30.33Z"/><path class="cls-12" d="M33.22,27.38C43.84,28.8,44.28,19.1,44.28,19.1A20.43,20.43,0,0,0,33.22,27.38Z"/><path class="cls-13" d="M33.22,27.38A20.43,20.43,0,0,1,44.28,19.1C34.57,17.07,33.22,27.38,33.22,27.38Z"/><path class="cls-5" d="M29.4,34a.78.78,0,0,0-.74.73.07.07,0,0,0,.1.08s0,0,0,0a1.08,1.08,0,0,1,1-.07c.08,0,.14-.05.15-.11A.56.56,0,0,0,29.4,34Z"/><path class="cls-5" d="M35.74,33.32a.78.78,0,0,0-.74.73.07.07,0,0,0,.1.08,0,0,0,0,0,0,0,1.07,1.07,0,0,1,1-.06c.08,0,.14-.06.15-.12A.55.55,0,0,0,35.74,33.32Z"/><path class="cls-7" d="M28.17,38.84a1.92,1.92,0,0,1,2.28.91A3.57,3.57,0,0,0,28.17,38.84Z"/><path class="cls-7" d="M37.19,38.22a1.9,1.9,0,0,0-2.28.9A3.52,3.52,0,0,1,37.19,38.22Z"/><path class="cls-14" d="M26.8,43.42s1.27,5,6.15,5c3.73-.09,5.82-3.06,6.22-6.71-1-.14-1-1.46-1-1.46a3.6,3.6,0,0,0,2.77,1.45,1.51,1.51,0,0,1-1.51.12s.27,7.26-5.57,7.56C29.51,49.7,26.71,47.68,26.8,43.42Z"/><path class="cls-2" d="M56.73,57.45a12.2,12.2,0,0,1,9.18-7c4.63-.55,5.54,1.09,7.29,1.82s3-.29,5.61-1.31,7.73.58,9.48,3.64a19.36,19.36,0,0,1-.73,19c-4.3,7.44-9.84,7.22-12.46,6.27-2-.58-2.79.91-5.74.62A15.85,15.85,0,0,1,56.44,67.66,16.74,16.74,0,0,1,56.73,57.45Z"/><path class="cls-3" d="M70.23,59.48c.06.84.35,1.49.66,1.45s.52-.73.46-1.57-.35-1.49-.66-1.46S70.17,58.64,70.23,59.48Z"/><path class="cls-4" d="M65.53,52.88s-4,2-5,8.8l-2.48-.38a13.44,13.44,0,0,1,6.19-8.88Z"/><path class="cls-4" d="M57.61,62.92a6.78,6.78,0,0,1,2.3.25c-.42,1.7-.6,2.83-.6,2.83l-1.38-.22A7,7,0,0,1,57.61,62.92Z"/><path class="cls-5" d="M70.05,59.35c.06.84.36,1.49.67,1.46s.51-.74.45-1.58-.35-1.49-.66-1.46S70,58.51,70.05,59.35Z"/><path class="cls-6" d="M70.65,58.65c0,.25.14.44.23.42s.14-.24.1-.49-.13-.44-.23-.42S70.61,58.4,70.65,58.65Z"/><path class="cls-3" d="M76.26,58.73c0,.85.35,1.51.66,1.48s.51-.75.46-1.61-.36-1.51-.67-1.47S76.2,57.88,76.26,58.73Z"/><path class="cls-5" d="M76.08,58.6c.06.85.35,1.51.66,1.48s.52-.75.46-1.6S76.84,57,76.53,57,76,57.75,76.08,58.6Z"/><path class="cls-6" d="M76.67,57.88c0,.26.14.45.24.43s.14-.24.1-.49-.14-.45-.23-.43S76.64,57.63,76.67,57.88Z"/><path class="cls-7" d="M67.81,65.62a4.56,4.56,0,0,0,.16.81,5.37,5.37,0,0,0,1,1.92,5,5,0,0,0,1.06,1,5.93,5.93,0,0,0,1.45.71,8.3,8.3,0,0,0,1.69.35,9.62,9.62,0,0,0,1.78,0A5.81,5.81,0,0,0,76.66,70a4.87,4.87,0,0,0,1.42-1,6.43,6.43,0,0,0,1.56-2.6,10.26,10.26,0,0,0,.47-2.14c0-.52,0-.83,0-.83a7.71,7.71,0,0,1,0,.84,9.65,9.65,0,0,1-.39,2.16,7.07,7.07,0,0,1-.56,1.37,5.4,5.4,0,0,1-1,1.34,5.18,5.18,0,0,1-1.46,1A5.7,5.7,0,0,1,75,70.6a9.22,9.22,0,0,1-1.82,0,8.71,8.71,0,0,1-1.73-.37,5.74,5.74,0,0,1-1.48-.76,5.27,5.27,0,0,1-1.07-1,4.87,4.87,0,0,1-.63-1.08,5.16,5.16,0,0,1-.31-.91A4.06,4.06,0,0,1,67.81,65.62Z"/><path class="cls-7" d="M79.18,62.39a2.5,2.5,0,0,0,.29.34l.32.29a3,3,0,0,0,.42.26,1.63,1.63,0,0,0,.23.11l.23.09.22.06.2,0,.18,0,.14,0,.12,0-.12,0a1.34,1.34,0,0,1-.33,0h-.22l-.24,0-.26-.07-.25-.11a2.07,2.07,0,0,1-.44-.32A1,1,0,0,1,79.5,63a1,1,0,0,1-.13-.18A1.39,1.39,0,0,1,79.18,62.39Z"/><g class="cls-8"><path class="cls-9" d="M88.29,54.61C86.54,51.55,81.44,50,78.81,51S75,53,73.2,52.28a27,27,0,0,0-3.11-1.59,3.77,3.77,0,0,1,.92.86c1.1,1.46,2.55,2.47,4.74,1.39,4-2,7-.74,8.9,2.14,3.07,4.71,3,15.06-2.34,20.31C78.6,78.46,76,78.52,74,77s-4.15,6.45-13.56-1.31h0a15.59,15.59,0,0,0,8.88,4.77c3,.29,3.7-1.2,5.74-.62,2.62,1,8.16,1.17,12.46-6.27A19.36,19.36,0,0,0,88.29,54.61Z"/></g><path class="cls-10" d="M72.41,41s0,0,0,0-.27-.39-1.11,0-.77.61-.41.91A2.52,2.52,0,0,0,72.41,41Z"/><path class="cls-11" d="M72.41,41a2.52,2.52,0,0,1-1.55.87c.36.31,3.56,6.47,2.78,11.31a1.39,1.39,0,0,0,.64.18S75.18,45,72.41,41Z"/><path class="cls-7" d="M71.68,52.09s1.53,3,4.92.28a5.86,5.86,0,0,1-2.65.89A4.09,4.09,0,0,1,71.68,52.09Z"/><path class="cls-12" d="M74.16,49.14c10.62,1.42,11.06-8.28,11.06-8.28A20.4,20.4,0,0,0,74.16,49.14Z"/><path class="cls-13" d="M74.16,49.14a20.4,20.4,0,0,1,11.06-8.28C75.5,38.83,74.16,49.14,74.16,49.14Z"/><path class="cls-5" d="M70.33,55.72a.78.78,0,0,0-.74.73.08.08,0,0,0,.11.08s0,0,0,0a1.07,1.07,0,0,1,1-.07c.07,0,.14,0,.15-.11A.56.56,0,0,0,70.33,55.72Z"/><path class="cls-5" d="M76.67,55.08a.78.78,0,0,0-.74.73.08.08,0,0,0,.11.08,0,0,0,0,0,0,0,1.07,1.07,0,0,1,1-.06c.07,0,.14-.06.15-.12A.56.56,0,0,0,76.67,55.08Z"/><path class="cls-7" d="M69.11,60.6a1.92,1.92,0,0,1,2.28.91A3.57,3.57,0,0,0,69.11,60.6Z"/><path class="cls-7" d="M78.13,60a1.9,1.9,0,0,0-2.28.9A3.52,3.52,0,0,1,78.13,60Z"/><path class="cls-14" d="M67.73,65.18s1.28,5,6.15,5c3.73-.09,5.83-3.06,6.23-6.71-1-.14-1-1.46-1-1.46a3.57,3.57,0,0,0,2.76,1.45,1.51,1.51,0,0,1-1.51.12s.28,7.26-5.56,7.56C70.45,71.46,67.65,69.44,67.73,65.18Z"/><path class="cls-2" d="M33.7,57.4a12.23,12.23,0,0,1,9.19-7c4.63-.55,5.54,1.09,7.29,1.82s3-.29,5.61-1.31,7.72.58,9.47,3.64a19.36,19.36,0,0,1-.73,19c-4.3,7.43-9.84,7.21-12.46,6.26-2-.58-2.78.91-5.74.63A15.86,15.86,0,0,1,33.41,67.6,16.7,16.7,0,0,1,33.7,57.4Z"/><path class="cls-3" d="M47.2,59.42c.06.84.36,1.49.67,1.46s.51-.74.45-1.58-.35-1.49-.66-1.46S47.15,58.58,47.2,59.42Z"/><path class="cls-4" d="M42.51,52.83s-4,2-5,8.8l-2.47-.39a13.37,13.37,0,0,1,6.18-8.87Z"/><path class="cls-4" d="M34.59,62.86a6.8,6.8,0,0,1,2.3.25c-.43,1.7-.61,2.83-.61,2.83l-1.37-.21A6.89,6.89,0,0,1,34.59,62.86Z"/><path class="cls-5" d="M47,59.29c0,.84.35,1.49.66,1.46s.51-.74.45-1.58-.35-1.49-.66-1.45S47,58.46,47,59.29Z"/><path class="cls-6" d="M47.62,58.59c0,.25.14.44.23.42s.14-.24.11-.49-.14-.44-.23-.42S47.59,58.34,47.62,58.59Z"/><path class="cls-3" d="M53.23,58.67c.06.85.35,1.51.66,1.48s.52-.75.46-1.6S54,57,53.69,57.07,53.17,57.82,53.23,58.67Z"/><path class="cls-5" d="M53.05,58.54c.06.85.36,1.51.67,1.48s.51-.75.45-1.6-.35-1.51-.66-1.48S53,57.69,53.05,58.54Z"/><path class="cls-6" d="M53.65,57.83c0,.25.14.44.23.42s.14-.24.1-.49-.13-.45-.23-.43S53.61,57.57,53.65,57.83Z"/><path class="cls-7" d="M44.78,65.56a4.19,4.19,0,0,0,.17.82,5.32,5.32,0,0,0,1,1.92,5.58,5.58,0,0,0,1.06,1,6.49,6.49,0,0,0,1.45.7,7.68,7.68,0,0,0,1.69.35,9.73,9.73,0,0,0,1.79,0,6,6,0,0,0,1.71-.43,5,5,0,0,0,1.41-1,6.35,6.35,0,0,0,1.57-2.6,10.81,10.81,0,0,0,.46-2.14,8,8,0,0,0,.06-.83,6.68,6.68,0,0,1,0,.84,10.2,10.2,0,0,1-.38,2.17,8.07,8.07,0,0,1-.57,1.36,5.61,5.61,0,0,1-1,1.34,4.9,4.9,0,0,1-1.47,1,6,6,0,0,1-1.78.47,10,10,0,0,1-1.82,0,7.49,7.49,0,0,1-1.73-.37,6,6,0,0,1-1.48-.75,5,5,0,0,1-1.06-1,4.72,4.72,0,0,1-.64-1.07,5.31,5.31,0,0,1-.3-.91A3.8,3.8,0,0,1,44.78,65.56Z"/><path class="cls-7" d="M56.15,62.34s.11.14.29.33a3.4,3.4,0,0,0,.33.29,2.42,2.42,0,0,0,.41.27l.23.1.23.09.22.06.21,0,.17,0,.14,0,.12,0-.12,0a2.33,2.33,0,0,1-.32,0h-.22l-.25,0-.26-.07a2.72,2.72,0,0,1-.25-.11,2.36,2.36,0,0,1-.44-.32,1.45,1.45,0,0,1-.17-.18l-.13-.17A1.39,1.39,0,0,1,56.15,62.34Z"/><g class="cls-8"><path class="cls-9" d="M65.26,54.55c-1.75-3.06-6.85-4.66-9.47-3.64s-3.87,2-5.61,1.31a28.91,28.91,0,0,0-3.12-1.59,4,4,0,0,1,.93.86C49.08,53,50.54,54,52.73,52.88c4-2,7-.73,8.89,2.14,3.08,4.71,3,15.06-2.33,20.31C55.57,78.4,53,78.46,51,76.93s-4.15,6.45-13.55-1.31h0a15.6,15.6,0,0,0,8.87,4.78c3,.28,3.7-1.21,5.74-.63,2.62,1,8.16,1.17,12.46-6.26A19.36,19.36,0,0,0,65.26,54.55Z"/></g><path class="cls-10" d="M49.39,41l0,0s-.28-.39-1.12,0-.76.61-.41.92A2.59,2.59,0,0,0,49.39,41Z"/><path class="cls-11" d="M49.39,41a2.59,2.59,0,0,1-1.56.88c.36.3,3.57,6.46,2.78,11.31a1.32,1.32,0,0,0,.64.17S52.15,44.92,49.39,41Z"/><path class="cls-7" d="M48.65,52s1.54,3,4.93.28a5.91,5.91,0,0,1-2.66.89A4.09,4.09,0,0,1,48.65,52Z"/><path class="cls-12" d="M51.13,49.08C61.75,50.5,62.19,40.8,62.19,40.8A20.49,20.49,0,0,0,51.13,49.08Z"/><path class="cls-13" d="M51.13,49.08A20.49,20.49,0,0,1,62.19,40.8C52.48,38.77,51.13,49.08,51.13,49.08Z"/><path class="cls-5" d="M47.31,55.67a.78.78,0,0,0-.74.73.07.07,0,0,0,.1.07s0,0,0,0a1.1,1.1,0,0,1,1-.07c.08,0,.14,0,.15-.11A.55.55,0,0,0,47.31,55.67Z"/><path class="cls-5" d="M53.65,55a.78.78,0,0,0-.74.73.07.07,0,0,0,.1.08,0,0,0,0,0,.05,0,1.1,1.1,0,0,1,1-.06.13.13,0,0,0,.15-.12A.55.55,0,0,0,53.65,55Z"/><path class="cls-7" d="M46.08,60.55a1.9,1.9,0,0,1,2.28.9A3.52,3.52,0,0,0,46.08,60.55Z"/><path class="cls-7" d="M55.1,59.92a1.9,1.9,0,0,0-2.28.9A3.52,3.52,0,0,1,55.1,59.92Z"/><path class="cls-14" d="M44.71,65.12s1.27,5,6.14,5c3.74-.09,5.83-3.06,6.23-6.71-1-.14-1-1.46-1-1.46a3.6,3.6,0,0,0,2.76,1.45,1.51,1.51,0,0,1-1.51.12s.28,7.26-5.56,7.57C47.42,71.4,44.62,69.38,44.71,65.12Z"/><path class="cls-2" d="M15.2,57.06a12.22,12.22,0,0,1,9.18-7c4.63-.54,5.54,1.1,7.29,1.83s3-.3,5.61-1.32,7.73.59,9.48,3.65a19.36,19.36,0,0,1-.73,19c-4.3,7.43-9.84,7.22-12.46,6.27-2-.58-2.79.91-5.74.62A15.85,15.85,0,0,1,14.91,67.27,16.73,16.73,0,0,1,15.2,57.06Z"/><path class="cls-3" d="M28.7,59.09c.06.83.35,1.48.66,1.45s.52-.74.46-1.58-.36-1.49-.66-1.45S28.64,58.25,28.7,59.09Z"/><path class="cls-4" d="M24,52.49s-4,2-5,8.8l-2.48-.39A13.41,13.41,0,0,1,22.73,52Z"/><path class="cls-4" d="M16.08,62.53a6.51,6.51,0,0,1,2.3.25c-.42,1.69-.6,2.82-.6,2.82l-1.38-.21A7,7,0,0,1,16.08,62.53Z"/><path class="cls-5" d="M28.52,59c.06.84.36,1.49.67,1.45s.51-.74.45-1.57-.35-1.49-.66-1.46S28.46,58.12,28.52,59Z"/><path class="cls-6" d="M29.12,58.25c0,.25.14.44.23.42s.14-.24.1-.49-.13-.44-.23-.42S29.08,58,29.12,58.25Z"/><path class="cls-3" d="M34.73,58.33c.05.85.35,1.52.66,1.48s.51-.75.46-1.6-.36-1.51-.67-1.48S34.67,57.48,34.73,58.33Z"/><path class="cls-5" d="M34.55,58.21c.05.85.35,1.51.66,1.47s.51-.75.46-1.6-.36-1.51-.67-1.47S34.49,57.36,34.55,58.21Z"/><path class="cls-6" d="M35.14,57.49c0,.26.14.45.23.43s.14-.25.11-.5-.14-.45-.23-.43S35.11,57.24,35.14,57.49Z"/><path class="cls-7" d="M26.28,65.22a4.55,4.55,0,0,0,.16.82,5.54,5.54,0,0,0,1,1.92,5,5,0,0,0,1.06,1,5.74,5.74,0,0,0,1.45.7,7.68,7.68,0,0,0,1.69.35,8.82,8.82,0,0,0,1.78,0,5.25,5.25,0,0,0,1.71-.43,4.84,4.84,0,0,0,1.42-1A6.46,6.46,0,0,0,38.11,66a10.33,10.33,0,0,0,.47-2.13c.05-.53.05-.83.05-.83a7.5,7.5,0,0,1,0,.83A9.72,9.72,0,0,1,38.23,66a7.33,7.33,0,0,1-.56,1.37,5.35,5.35,0,0,1-1,1.33,5,5,0,0,1-1.46,1,5.7,5.7,0,0,1-1.78.46,8.5,8.5,0,0,1-1.82,0,7.69,7.69,0,0,1-1.74-.37,5.5,5.5,0,0,1-1.47-.75,5.27,5.27,0,0,1-1.07-1A4.93,4.93,0,0,1,26.71,67a5.16,5.16,0,0,1-.31-.91A4.1,4.1,0,0,1,26.28,65.22Z"/><path class="cls-7" d="M37.65,62a2.17,2.17,0,0,0,.29.33l.32.29a3,3,0,0,0,.42.27l.23.11.23.08.22.06a1.94,1.94,0,0,0,.2,0l.18,0,.14,0,.12,0-.12,0a1.42,1.42,0,0,1-.33,0,.83.83,0,0,1-.22,0l-.24,0a2.58,2.58,0,0,1-.26-.08,1.36,1.36,0,0,1-.25-.11,1.74,1.74,0,0,1-.44-.31,1.41,1.41,0,0,1-.17-.18,1,1,0,0,1-.13-.18A1.39,1.39,0,0,1,37.65,62Z"/><g class="cls-8"><path class="cls-9" d="M46.76,54.22c-1.75-3.06-6.85-4.67-9.48-3.65s-3.86,2-5.61,1.32a27,27,0,0,0-3.11-1.59,3.75,3.75,0,0,1,.92.86c1.1,1.45,2.55,2.47,4.74,1.38,4-2,7-.73,8.9,2.14,3.07,4.72,3,15.06-2.34,20.31-3.71,3.07-6.3,3.14-8.27,1.61S28.35,83.05,19,75.28h0a15.62,15.62,0,0,0,8.88,4.78c3,.29,3.7-1.2,5.74-.62,2.62,1,8.16,1.16,12.46-6.27A19.36,19.36,0,0,0,46.76,54.22Z"/></g><path class="cls-10" d="M30.88,40.63l0,0s-.27-.38-1.11,0-.77.61-.41.92A2.55,2.55,0,0,0,30.88,40.63Z"/><path class="cls-11" d="M30.88,40.63a2.55,2.55,0,0,1-1.55.88c.36.31,3.56,6.46,2.78,11.31a1.39,1.39,0,0,0,.64.18S33.65,44.58,30.88,40.63Z"/><path class="cls-7" d="M30.15,51.69s1.53,3,4.92.29a5.86,5.86,0,0,1-2.65.89A4.07,4.07,0,0,1,30.15,51.69Z"/><path class="cls-12" d="M32.63,48.74c10.62,1.43,11.06-8.27,11.06-8.27A20.41,20.41,0,0,0,32.63,48.74Z"/><path class="cls-13" d="M32.63,48.74a20.41,20.41,0,0,1,11.06-8.27C34,38.43,32.63,48.74,32.63,48.74Z"/><path class="cls-5" d="M28.8,55.33a.78.78,0,0,0-.74.73.08.08,0,0,0,.11.08,0,0,0,0,0,0,0,1.07,1.07,0,0,1,1-.06c.07,0,.14,0,.15-.12A.56.56,0,0,0,28.8,55.33Z"/><path class="cls-5" d="M35.14,54.68a.79.79,0,0,0-.74.73c0,.07.06.11.11.08s0,0,.05,0a1.07,1.07,0,0,1,1-.07c.07,0,.14,0,.15-.11A.56.56,0,0,0,35.14,54.68Z"/><path class="cls-7" d="M27.58,60.21a1.9,1.9,0,0,1,2.28.9A3.52,3.52,0,0,0,27.58,60.21Z"/><path class="cls-7" d="M36.6,59.58a1.92,1.92,0,0,0-2.29.9A3.53,3.53,0,0,1,36.6,59.58Z"/><path class="cls-14" d="M26.2,64.79s1.28,5,6.15,5c3.73-.09,5.83-3.05,6.23-6.71-1-.14-1-1.45-1-1.45a3.58,3.58,0,0,0,2.77,1.44,1.51,1.51,0,0,1-1.51.12s.27,7.26-5.57,7.57C28.92,71.07,26.12,69.05,26.2,64.79Z"/><path class="cls-2" d="M56.73,81.16a12.2,12.2,0,0,1,9.18-7c4.63-.55,5.54,1.09,7.29,1.82s3-.29,5.61-1.31,7.73.58,9.48,3.64a19.36,19.36,0,0,1-.73,19c-4.3,7.44-9.84,7.22-12.46,6.27-2-.58-2.79.91-5.74.62A15.85,15.85,0,0,1,56.44,91.37,16.74,16.74,0,0,1,56.73,81.16Z"/><path class="cls-3" d="M70.23,83.19c.06.84.35,1.49.66,1.45s.52-.74.46-1.57-.35-1.49-.66-1.46S70.17,82.35,70.23,83.19Z"/><path class="cls-4" d="M65.53,76.59s-4,2-5,8.8L58.07,85a13.41,13.41,0,0,1,6.19-8.87Z"/><path class="cls-4" d="M57.61,86.63a6.51,6.51,0,0,1,2.3.25c-.42,1.7-.6,2.83-.6,2.83l-1.38-.22A7,7,0,0,1,57.61,86.63Z"/><path class="cls-5" d="M70.05,83.06c.06.84.36,1.49.67,1.46s.51-.74.45-1.58-.35-1.49-.66-1.46S70,82.22,70.05,83.06Z"/><path class="cls-6" d="M70.65,82.36c0,.25.14.43.23.42s.14-.24.1-.49-.13-.44-.23-.42S70.61,82.11,70.65,82.36Z"/><path class="cls-3" d="M76.26,82.44c0,.85.35,1.51.66,1.47s.51-.75.46-1.6-.36-1.51-.67-1.47S76.2,81.59,76.26,82.44Z"/><path class="cls-5" d="M76.08,82.31c.06.85.35,1.51.66,1.48s.52-.75.46-1.6-.36-1.52-.67-1.48S76,81.46,76.08,82.31Z"/><path class="cls-6" d="M76.67,81.59c0,.26.14.45.24.43s.14-.24.1-.5-.14-.44-.23-.42S76.64,81.34,76.67,81.59Z"/><path class="cls-7" d="M67.81,89.33a4.56,4.56,0,0,0,.16.81,5.45,5.45,0,0,0,1,1.92A5,5,0,0,0,70,93a5.57,5.57,0,0,0,1.45.7,7.14,7.14,0,0,0,1.69.35,8.82,8.82,0,0,0,1.78,0,5.53,5.53,0,0,0,1.71-.44,4.65,4.65,0,0,0,1.42-1,6.43,6.43,0,0,0,1.56-2.6A10.26,10.26,0,0,0,80.11,88c0-.53,0-.83,0-.83a7.5,7.5,0,0,1,0,.83,9.62,9.62,0,0,1-.39,2.17,7.07,7.07,0,0,1-.56,1.37,5.35,5.35,0,0,1-1,1.33,5,5,0,0,1-1.46,1,5.7,5.7,0,0,1-1.78.46,9.22,9.22,0,0,1-1.82,0,8.06,8.06,0,0,1-1.73-.38,5.42,5.42,0,0,1-1.48-.75,5.27,5.27,0,0,1-1.07-1,5.1,5.1,0,0,1-.63-1.08,5.16,5.16,0,0,1-.31-.91A4.06,4.06,0,0,1,67.81,89.33Z"/><path class="cls-7" d="M79.18,86.1a2.17,2.17,0,0,0,.29.33,3.13,3.13,0,0,0,.32.3,3,3,0,0,0,.42.26,1.63,1.63,0,0,0,.23.11l.23.08.22.07.2,0,.18,0,.14,0,.12,0-.12,0a1.42,1.42,0,0,1-.33,0,1.61,1.61,0,0,1-.22,0l-.24,0-.26-.07-.25-.11a2.07,2.07,0,0,1-.44-.32,1.41,1.41,0,0,1-.17-.18,1,1,0,0,1-.13-.18A1.39,1.39,0,0,1,79.18,86.1Z"/><g class="cls-8"><path class="cls-9" d="M88.29,78.32c-1.75-3.06-6.85-4.66-9.48-3.64S75,76.72,73.2,76a27,27,0,0,0-3.11-1.59,3.58,3.58,0,0,1,.92.86c1.1,1.46,2.55,2.47,4.74,1.38,4-2,7-.73,8.9,2.15,3.07,4.71,3,15.06-2.34,20.3-3.71,3.08-6.3,3.14-8.27,1.61s-4.15,6.45-13.56-1.31h0a15.59,15.59,0,0,0,8.88,4.77c3,.29,3.7-1.2,5.74-.62,2.62.95,8.16,1.17,12.46-6.27A19.36,19.36,0,0,0,88.29,78.32Z"/></g><path class="cls-10" d="M72.41,64.74a.13.13,0,0,0,0,0s-.27-.38-1.11,0-.77.62-.41.92A2.58,2.58,0,0,0,72.41,64.74Z"/><path class="cls-11" d="M72.41,64.74a2.58,2.58,0,0,1-1.55.87c.36.31,3.56,6.47,2.78,11.31a1.39,1.39,0,0,0,.64.18S75.18,68.69,72.41,64.74Z"/><path class="cls-7" d="M71.68,75.8s1.53,3,4.92.28A5.86,5.86,0,0,1,74,77,4.09,4.09,0,0,1,71.68,75.8Z"/><path class="cls-12" d="M74.16,72.85c10.62,1.42,11.06-8.28,11.06-8.28A20.4,20.4,0,0,0,74.16,72.85Z"/><path class="cls-13" d="M74.16,72.85a20.4,20.4,0,0,1,11.06-8.28C75.5,62.54,74.16,72.85,74.16,72.85Z"/><path class="cls-5" d="M70.33,79.43a.78.78,0,0,0-.74.73.08.08,0,0,0,.11.08s0,0,0,0a1.07,1.07,0,0,1,1-.07c.07,0,.14-.05.15-.12A.56.56,0,0,0,70.33,79.43Z"/><path class="cls-5" d="M76.67,78.79a.78.78,0,0,0-.74.73.08.08,0,0,0,.11.08,0,0,0,0,0,0,0,1.1,1.1,0,0,1,1-.07c.07,0,.14,0,.15-.11A.56.56,0,0,0,76.67,78.79Z"/><path class="cls-7" d="M69.11,84.31a1.92,1.92,0,0,1,2.28.91A3.57,3.57,0,0,0,69.11,84.31Z"/><path class="cls-7" d="M78.13,83.69a1.9,1.9,0,0,0-2.28.9A3.52,3.52,0,0,1,78.13,83.69Z"/><path class="cls-14" d="M67.73,88.89s1.28,5,6.15,5c3.73-.09,5.83-3.06,6.23-6.71-1-.14-1-1.46-1-1.46a3.57,3.57,0,0,0,2.76,1.45,1.54,1.54,0,0,1-1.51.12s.28,7.26-5.56,7.56C70.45,95.17,67.65,93.15,67.73,88.89Z"/><path class="cls-2" d="M33.7,81.11a12.21,12.21,0,0,1,9.19-7c4.63-.55,5.54,1.09,7.29,1.82s3-.29,5.61-1.31,7.72.58,9.47,3.64a19.34,19.34,0,0,1-.73,18.95c-4.3,7.44-9.84,7.22-12.46,6.27-2-.58-2.78.91-5.74.62A15.85,15.85,0,0,1,33.41,91.31,16.7,16.7,0,0,1,33.7,81.11Z"/><path class="cls-3" d="M47.2,83.13c.06.84.36,1.49.67,1.46s.51-.74.45-1.58-.35-1.49-.66-1.46S47.15,82.29,47.2,83.13Z"/><path class="cls-4" d="M42.51,76.53s-4,2-5,8.81L35.05,85a13.37,13.37,0,0,1,6.18-8.87Z"/><path class="cls-4" d="M34.59,86.57a6.8,6.8,0,0,1,2.3.25c-.43,1.7-.61,2.83-.61,2.83l-1.37-.21A6.89,6.89,0,0,1,34.59,86.57Z"/><path class="cls-5" d="M47,83c0,.84.35,1.49.66,1.46s.51-.74.45-1.58-.35-1.49-.66-1.45S47,82.17,47,83Z"/><path class="cls-6" d="M47.62,82.3c0,.25.14.44.23.42s.14-.24.11-.49-.14-.44-.23-.42S47.59,82.05,47.62,82.3Z"/><path class="cls-3" d="M53.23,82.38c.06.85.35,1.51.66,1.48s.52-.75.46-1.6-.36-1.52-.66-1.48S53.17,81.53,53.23,82.38Z"/><path class="cls-5" d="M53.05,82.25c.06.85.36,1.51.67,1.48s.51-.75.45-1.6-.35-1.51-.66-1.48S53,81.4,53.05,82.25Z"/><path class="cls-6" d="M53.65,81.54c0,.25.14.44.23.42s.14-.24.1-.49-.13-.45-.23-.43S53.61,81.28,53.65,81.54Z"/><path class="cls-7" d="M44.78,89.27a4.19,4.19,0,0,0,.17.81,5.27,5.27,0,0,0,1,1.93A5.54,5.54,0,0,0,47,93a6.11,6.11,0,0,0,1.45.71,8.3,8.3,0,0,0,1.69.35,9.73,9.73,0,0,0,1.79,0,6,6,0,0,0,1.71-.43,5,5,0,0,0,1.41-1,6.35,6.35,0,0,0,1.57-2.6,10.81,10.81,0,0,0,.46-2.14,8,8,0,0,0,.06-.83,6.68,6.68,0,0,1,0,.84,10.2,10.2,0,0,1-.38,2.17,8.07,8.07,0,0,1-.57,1.36,5.61,5.61,0,0,1-1,1.34,5.09,5.09,0,0,1-1.47,1,6,6,0,0,1-1.78.47,10,10,0,0,1-1.82,0,8.71,8.71,0,0,1-1.73-.37,5.74,5.74,0,0,1-1.48-.76,5,5,0,0,1-1.06-1A4.72,4.72,0,0,1,45.21,91a5.38,5.38,0,0,1-.3-.92A3.69,3.69,0,0,1,44.78,89.27Z"/><path class="cls-7" d="M56.15,86a3.94,3.94,0,0,0,.29.34,3.4,3.4,0,0,0,.33.29,2.39,2.39,0,0,0,.41.26,1.58,1.58,0,0,0,.23.11l.23.09.22.06.21,0,.17,0,.14,0,.12,0-.12,0a1.32,1.32,0,0,1-.32,0h-.22l-.25,0-.26-.07-.25-.11a2.36,2.36,0,0,1-.44-.32,1.45,1.45,0,0,1-.17-.18l-.13-.18A1.39,1.39,0,0,1,56.15,86Z"/><g class="cls-8"><path class="cls-9" d="M65.26,78.26c-1.75-3.06-6.85-4.66-9.47-3.64s-3.87,2-5.61,1.31a28.91,28.91,0,0,0-3.12-1.59,4,4,0,0,1,.93.86c1.09,1.46,2.55,2.47,4.74,1.39,4-2,7-.73,8.89,2.14,3.08,4.71,3,15.06-2.33,20.31-3.72,3.07-6.31,3.13-8.28,1.6s-4.15,6.45-13.55-1.31h0a15.51,15.51,0,0,0,8.87,4.77c3,.29,3.7-1.2,5.74-.62,2.62,1,8.16,1.17,12.46-6.27A19.34,19.34,0,0,0,65.26,78.26Z"/></g><path class="cls-10" d="M49.39,64.68l0,0s-.28-.39-1.12,0-.76.61-.41.92A2.59,2.59,0,0,0,49.39,64.68Z"/><path class="cls-11" d="M49.39,64.68a2.59,2.59,0,0,1-1.56.88c.36.3,3.57,6.46,2.78,11.31a1.47,1.47,0,0,0,.64.17S52.15,68.63,49.39,64.68Z"/><path class="cls-7" d="M48.65,75.74s1.54,3,4.93.28a5.91,5.91,0,0,1-2.66.89A4.09,4.09,0,0,1,48.65,75.74Z"/><path class="cls-12" d="M51.13,72.79c10.62,1.42,11.06-8.28,11.06-8.28A20.49,20.49,0,0,0,51.13,72.79Z"/><path class="cls-13" d="M51.13,72.79a20.49,20.49,0,0,1,11.06-8.28C52.48,62.48,51.13,72.79,51.13,72.79Z"/><path class="cls-5" d="M47.31,79.37a.79.79,0,0,0-.74.73c0,.07,0,.11.1.08s0,0,0,0a1.08,1.08,0,0,1,1-.07c.08,0,.14-.05.15-.11A.56.56,0,0,0,47.31,79.37Z"/><path class="cls-5" d="M53.65,78.73a.78.78,0,0,0-.74.73.07.07,0,0,0,.1.08,0,0,0,0,0,.05,0,1.07,1.07,0,0,1,1-.06.13.13,0,0,0,.15-.12A.55.55,0,0,0,53.65,78.73Z"/><path class="cls-7" d="M46.08,84.26a1.9,1.9,0,0,1,2.28.9A3.52,3.52,0,0,0,46.08,84.26Z"/><path class="cls-7" d="M55.1,83.63a1.9,1.9,0,0,0-2.28.9A3.52,3.52,0,0,1,55.1,83.63Z"/><path class="cls-14" d="M44.71,88.83s1.27,5,6.14,5c3.74-.09,5.83-3.06,6.23-6.71-1-.14-1-1.46-1-1.46a3.6,3.6,0,0,0,2.76,1.45,1.51,1.51,0,0,1-1.51.12s.28,7.26-5.56,7.57C47.42,95.11,44.62,93.09,44.71,88.83Z"/><path class="cls-2" d="M15.2,80.77a12.22,12.22,0,0,1,9.18-7c4.63-.55,5.54,1.1,7.29,1.82s3-.29,5.61-1.31,7.73.59,9.48,3.65A19.36,19.36,0,0,1,46,96.88c-4.3,7.43-9.84,7.21-12.46,6.27-2-.59-2.79.91-5.74.62A15.85,15.85,0,0,1,14.91,91,16.7,16.7,0,0,1,15.2,80.77Z"/><path class="cls-3" d="M28.7,82.79c.06.84.35,1.49.66,1.46s.52-.74.46-1.58-.36-1.49-.66-1.45S28.64,82,28.7,82.79Z"/><path class="cls-4" d="M24,76.2s-4,2-5,8.8l-2.48-.39a13.41,13.41,0,0,1,6.19-8.87Z"/><path class="cls-4" d="M16.08,86.24a6.64,6.64,0,0,1,2.3.24c-.42,1.7-.6,2.83-.6,2.83L16.4,89.1A7,7,0,0,1,16.08,86.24Z"/><path class="cls-5" d="M28.52,82.67c.06.83.36,1.49.67,1.45s.51-.74.45-1.57-.35-1.49-.66-1.46S28.46,81.83,28.52,82.67Z"/><path class="cls-6" d="M29.12,82c0,.25.14.44.23.42s.14-.24.1-.49-.13-.44-.23-.42S29.08,81.71,29.12,82Z"/><path class="cls-3" d="M34.73,82c.05.85.35,1.52.66,1.48s.51-.75.46-1.6-.36-1.51-.67-1.48S34.67,81.19,34.73,82Z"/><path class="cls-5" d="M34.55,81.92c.05.85.35,1.51.66,1.47s.51-.75.46-1.6-.36-1.51-.67-1.48S34.49,81.07,34.55,81.92Z"/><path class="cls-6" d="M35.14,81.2c0,.26.14.45.23.43s.14-.25.11-.5-.14-.45-.23-.43S35.11,81,35.14,81.2Z"/><path class="cls-7" d="M26.28,88.93a4.55,4.55,0,0,0,.16.82,5.54,5.54,0,0,0,1,1.92,5,5,0,0,0,1.06,1,5.74,5.74,0,0,0,1.45.7,7.68,7.68,0,0,0,1.69.35,8.82,8.82,0,0,0,1.78,0,5.25,5.25,0,0,0,1.71-.43,4.68,4.68,0,0,0,1.42-1,6.43,6.43,0,0,0,1.56-2.6,10.33,10.33,0,0,0,.47-2.13c.05-.53.05-.83.05-.83a7.5,7.5,0,0,1,0,.83,9.72,9.72,0,0,1-.39,2.17,7.33,7.33,0,0,1-.56,1.37,5.54,5.54,0,0,1-1,1.33,5,5,0,0,1-1.46,1,5.7,5.7,0,0,1-1.78.46,8.5,8.5,0,0,1-1.82,0,7.69,7.69,0,0,1-1.74-.37,5.5,5.5,0,0,1-1.47-.75,5.27,5.27,0,0,1-1.07-1,4.93,4.93,0,0,1-.63-1.08,5.16,5.16,0,0,1-.31-.91A4.1,4.1,0,0,1,26.28,88.93Z"/><path class="cls-7" d="M37.65,85.71a2.17,2.17,0,0,0,.29.33l.32.29a3,3,0,0,0,.42.27l.23.11.23.08.22.06.2.05.18,0,.14,0L40,87l-.12,0a2.34,2.34,0,0,1-.33,0,.83.83,0,0,1-.22,0l-.24,0a2.58,2.58,0,0,1-.26-.08,1.36,1.36,0,0,1-.25-.11,2,2,0,0,1-.44-.31A1.41,1.41,0,0,1,38,86.3a1,1,0,0,1-.13-.18A1.39,1.39,0,0,1,37.65,85.71Z"/><g class="cls-8"><path class="cls-9" d="M46.76,77.93c-1.75-3.06-6.85-4.67-9.48-3.65s-3.86,2-5.61,1.31A28.69,28.69,0,0,0,28.56,74a3.8,3.8,0,0,1,.92.87c1.1,1.45,2.55,2.47,4.74,1.38,4-2,7-.73,8.9,2.14,3.07,4.71,3,15.06-2.34,20.31-3.71,3.07-6.3,3.14-8.27,1.6S28.35,106.76,19,99h0a15.62,15.62,0,0,0,8.88,4.78c3,.29,3.7-1.21,5.74-.62,2.62.94,8.16,1.16,12.46-6.27A19.36,19.36,0,0,0,46.76,77.93Z"/></g><path class="cls-10" d="M30.88,64.34l0,0s-.27-.38-1.11,0-.77.61-.41.92A2.55,2.55,0,0,0,30.88,64.34Z"/><path class="cls-11" d="M30.88,64.34a2.55,2.55,0,0,1-1.55.88c.36.31,3.56,6.46,2.78,11.31a1.39,1.39,0,0,0,.64.18S33.65,68.29,30.88,64.34Z"/><path class="cls-7" d="M30.15,75.4s1.53,3,4.92.28a5.83,5.83,0,0,1-2.65.9A4.07,4.07,0,0,1,30.15,75.4Z"/><path class="cls-12" d="M32.63,72.45c10.62,1.43,11.06-8.28,11.06-8.28A20.46,20.46,0,0,0,32.63,72.45Z"/><path class="cls-13" d="M32.63,72.45a20.46,20.46,0,0,1,11.06-8.28C34,62.14,32.63,72.45,32.63,72.45Z"/><path class="cls-5" d="M28.8,79a.78.78,0,0,0-.74.73.08.08,0,0,0,.11.08,0,0,0,0,0,0,0,1.07,1.07,0,0,1,1-.06c.07,0,.14-.06.15-.12A.56.56,0,0,0,28.8,79Z"/><path class="cls-5" d="M35.14,78.39a.78.78,0,0,0-.74.73.08.08,0,0,0,.11.08s0,0,.05,0a1.07,1.07,0,0,1,1-.07c.07,0,.14,0,.15-.12A.56.56,0,0,0,35.14,78.39Z"/><path class="cls-7" d="M27.58,83.92a1.9,1.9,0,0,1,2.28.9A3.52,3.52,0,0,0,27.58,83.92Z"/><path class="cls-7" d="M36.6,83.29a1.92,1.92,0,0,0-2.29.9A3.53,3.53,0,0,1,36.6,83.29Z"/><path class="cls-14" d="M26.2,88.5s1.28,5,6.15,5c3.73-.09,5.83-3.06,6.23-6.71-1-.14-1-1.46-1-1.46a3.57,3.57,0,0,0,2.77,1.45,1.51,1.51,0,0,1-1.51.12s.27,7.26-5.57,7.57C28.92,94.78,26.12,92.75,26.2,88.5Z"/></g></g></svg>