<svg id="Layer_1" data-name="Layer 1" xmlns="http://www.w3.org/2000/svg" xmlns:xlink="http://www.w3.org/1999/xlink" viewBox="0 0 1920 1080"><defs><style>.cls-1{fill:none;}.cls-2{fill:#8bdce0;}.cls-3{clip-path:url(#clip-path);}.cls-4{fill:#86bfbf;}.cls-5{fill:#f5e8c6;}.cls-6{fill:#3d6073;}.cls-7{fill:#27b5b6;}.cls-8{fill:#208090;}.cls-9{fill:#6a4e5c;}.cls-10{fill:#75bdc9;}.cls-11{fill:#844f03;}.cls-12{fill:#fffeff;}</style><clipPath id="clip-path"><rect class="cls-1" width="1920" height="1082"/></clipPath></defs><title>FloatingMountain</title><rect class="cls-2" width="1920" height="1080"/><g class="cls-3"><path class="cls-4" d="M1872,597.66c-61.32,0-117.52,23.53-161.26,62.65A238.09,238.09,0,0,0,1686,659c-4.61,0-9.19.15-13.74.41-43.59-38.59-99.41-61.76-160.26-61.76-60.14,0-115.35,22.64-158.72,60.42A236.52,236.52,0,0,0,1184,656.84C1125.56,572.57,1032.2,518,927,518c-102.88,0-194.43,52.19-253.07,133.3a209.89,209.89,0,0,0-164.47-10.39c-40.5-43.36-96.32-70.16-158-70.16-81.13,0-152.18,46.42-191.48,115.94A209.42,209.42,0,0,0,85.5,673c-123.71,0-224,108-224,241.12s100.29,241.12,224,241.12c45.09,0,87.06-14.35,122.21-39,38.9,35.11,89,56.26,143.79,56.26,62.79,0,119.53-27.82,160.2-72.62a210.09,210.09,0,0,0,169.78-15.12C740.27,1160.09,828.43,1208,927,1208c73.57,0,141.33-26.7,195.42-71.56,41,30.84,90.8,49,144.58,49,60.14,0,115.35-22.64,158.72-60.42a236,236,0,0,0,86.28,16.29q6.91,0,13.74-.4c43.59,38.59,99.41,61.76,160.26,61.76,61.32,0,117.52-23.54,161.26-62.66a238.09,238.09,0,0,0,24.74,1.3c139.45,0,252.5-121.69,252.5-271.8S2011.45,597.66,1872,597.66Z"/><path class="cls-5" d="M221.74,506.41a106.89,106.89,0,0,1,25.7-38.84,3.47,3.47,0,0,0-3.12-5.89c-28.12,6.1-53.11,26.52-64.55,56.33-17.65,46,3.64,97,47.55,113.81a81.64,81.64,0,0,0,27.9,5.42,3.47,3.47,0,0,0,2.16-6.22C220.05,602.58,204.18,552.17,221.74,506.41Z"/><polygon class="cls-6" points="110.89 747.01 76.27 776.45 85.36 799.58 110.82 799.58 110.82 841.64 179.46 810.1 244.01 873.18 272.2 824.82 281.75 873.18 437.21 853.56 437.21 786.26 468.58 834.63 484.03 834.63 484.03 799.58 557.22 799.58 557.22 897.02 600.86 784.16 629.05 784.16 639.96 769.44 657.23 769.44 657.23 789.07 671.32 789.07 671.32 799.58 691.32 799.58 712.24 882.3 742.69 789.07 783.6 786.26 776.4 747.01 110.89 747.01"/><polygon class="cls-6" points="339.82 434.2 310.36 493.6 288.95 499.07 238.66 607.63 193.84 620.57 163.47 725.64 487.97 725.64 330.78 554.84 339.82 434.2"/><polygon class="cls-7" points="419.42 552.85 388.54 551.36 340.24 433.35 339.82 434.2 330.78 554.84 487.97 725.64 509.05 725.64 419.42 552.85"/><polygon class="cls-6" points="534.32 610.05 502.04 583.57 505.31 519.19 358.03 725.64 632.39 725.64 510.43 650.09 534.32 610.05"/><polygon class="cls-7" points="602.13 617.8 578.88 621.67 505.91 518.35 505.31 519.19 502.04 583.57 534.32 610.05 510.43 650.09 632.39 725.64 696.41 725.64 602.13 617.8"/><path class="cls-8" d="M758.24,709.27a15.08,15.08,0,0,0-2.25.17c-1.6-7.29-7.24-12.67-14-12.67a13,13,0,0,0-8.51,3.26,13,13,0,0,0-8.51-3.26c-5.3,0-9.93,3.35-12.43,8.34a22.64,22.64,0,0,0-4.15-.38,21,21,0,0,0-14.08,5.2,16.35,16.35,0,0,0-5-.77,16.56,16.56,0,0,0-2.35.17c-1.66-7.59-7.54-13.2-14.53-13.2-5.52,0-10.34,3.49-13,8.69a23.56,23.56,0,0,0-4.33-.4,22.43,22.43,0,0,0-11.81,3.28c-2.09-6.75-7.61-11.57-14.1-11.57-5.52,0-10.34,3.49-13,8.69a23.53,23.53,0,0,0-4.32-.4,22.43,22.43,0,0,0-11.87,3.32,22.43,22.43,0,0,0-11.87-3.32,23.53,23.53,0,0,0-4.32.4c-2.61-5.2-7.43-8.69-13-8.69-6.34,0-11.76,4.6-14,11.11A22.61,22.61,0,0,0,546,704.42a23.53,23.53,0,0,0-4.32.4c-2.61-5.2-7.43-8.69-13-8.69-7,0-12.87,5.61-14.53,13.2a16.32,16.32,0,0,0-5.36.11,21.92,21.92,0,0,0-14.2-5,23.64,23.64,0,0,0-4.33.4c-2.6-5.2-7.43-8.69-12.95-8.69-7,0-12.87,5.61-14.53,13.2a16.45,16.45,0,0,0-9.09,1.27,21.64,21.64,0,0,0-15.47-6.18,23.64,23.64,0,0,0-4.33.4c-2.6-5.2-7.42-8.69-12.94-8.69-7,0-12.88,5.61-14.54,13.2a16.46,16.46,0,0,0-14.56,5.24,13,13,0,0,0-1.41-.08,11.56,11.56,0,0,0-2.78.33c-3.13-6.12-10.25-10.4-18.54-10.4a23.53,23.53,0,0,0-4.32.4c-2.61-5.2-7.43-8.69-12.95-8.69-7,0-12.88,5.61-14.54,13.2a16.44,16.44,0,0,0-14.42,5.1c-3.23-5.91-10.21-10-18.32-10a23.53,23.53,0,0,0-4.32.4c-2.61-5.2-7.43-8.69-12.95-8.69s-10.26,3.43-12.88,8.56a23.15,23.15,0,0,0-7.81.13c-2.61-5.2-7.43-8.69-12.95-8.69-7,0-12.88,5.61-14.54,13.2a16.31,16.31,0,0,0-2.34-.17,16.78,16.78,0,0,0-2.25.16,22,22,0,0,0-14.06-4.9,23.53,23.53,0,0,0-4.32.4c-2.61-5.2-7.43-8.69-12.95-8.69-7,0-12.88,5.61-14.53,13.2A16.46,16.46,0,0,0,172.39,717a12.08,12.08,0,0,0-7.34-2.47,11.71,11.71,0,0,0-2.79.33c-3.13-6.12-10.25-10.4-18.53-10.4a23.64,23.64,0,0,0-4.33.4c-2.6-5.2-7.42-8.69-12.94-8.69-7,0-12.88,5.61-14.54,13.2a16.47,16.47,0,0,0-18.83,16.31,17,17,0,0,0,.16,2.27H705.71c0-.21,0-.42.07-.63H773.9a15.77,15.77,0,0,0-15.66-18Z"/><rect class="cls-5" x="374.95" y="628.8" width="11.35" height="38.54"/><rect class="cls-9" x="373.89" y="627.86" width="13.48" height="0.95" rx="0.4"/><rect class="cls-5" x="423.48" y="671.13" width="82.29" height="6.38" rx="2.72"/><polygon class="cls-9" points="446.19 678.99 447.39 676.46 450.81 674.9 496.79 674.9 498.5 676.46 500.38 678.99 500.46 734.84 499.44 737.17 497.73 739.12 450.9 739.71 448.85 738.15 447.48 738.15 446.28 734.64 446.19 678.99"/><path class="cls-5" d="M495.8,741H450.94c-3.27,0-5.94-3.05-5.94-6.78V680.51c0-3.74,2.67-6.78,5.94-6.78H495.8c3.28,0,5.95,3,5.95,6.78V734.2C501.75,737.93,499.08,741,495.8,741Zm-44.86-64.52a3.84,3.84,0,0,0-3.55,4V734.2a3.84,3.84,0,0,0,3.55,4H495.8a3.83,3.83,0,0,0,3.55-4V680.51a3.83,3.83,0,0,0-3.55-4Z"/><rect class="cls-5" x="454.73" y="680.81" width="44.62" height="0.71"/><rect class="cls-5" x="454.73" y="684.35" width="44.62" height="0.71"/><rect class="cls-5" x="454.73" y="687.9" width="44.62" height="0.71"/><rect class="cls-5" x="454.73" y="691.45" width="44.62" height="0.71"/><rect class="cls-5" x="454.73" y="694.99" width="44.62" height="0.71"/><rect class="cls-5" x="454.73" y="698.54" width="44.62" height="0.71"/><rect class="cls-5" x="454.73" y="702.09" width="44.62" height="0.71"/><rect class="cls-5" x="454.73" y="705.63" width="44.62" height="0.71"/><rect class="cls-5" x="454.73" y="709.18" width="44.62" height="0.71"/><rect class="cls-5" x="454.73" y="712.73" width="44.62" height="0.71"/><rect class="cls-5" x="454.73" y="716.27" width="44.62" height="0.71"/><rect class="cls-5" x="454.73" y="719.82" width="44.62" height="0.71"/><rect class="cls-5" x="454.73" y="723.37" width="44.62" height="0.71"/><rect class="cls-5" x="454.73" y="726.91" width="44.62" height="0.71"/><rect class="cls-5" x="454.73" y="730.46" width="44.62" height="0.71"/><rect class="cls-5" x="454.73" y="733.53" width="44.62" height="0.71"/><polygon class="cls-9" points="410.72 608.43 335.22 738.83 485.96 738.83 410.72 608.43"/><polygon class="cls-10" points="404.8 667.35 375.01 667.35 393.93 635.66 404.8 635.66 404.8 667.35"/><rect class="cls-10" x="373.12" y="673.26" width="31.68" height="65.02"/><rect class="cls-10" x="416.86" y="673.26" width="31.68" height="65.02"/><polygon class="cls-10" points="416.86 667.35 446.65 667.35 427.74 635.66 416.86 635.66 416.86 667.35"/><path class="cls-5" d="M486.47,741.1H334.75a2,2,0,0,1-1.76-1,2,2,0,0,1,0-2l75.86-131.4a2,2,0,0,1,3.52,0l75.86,131.4a2,2,0,0,1,0,2A2,2,0,0,1,486.47,741.1ZM338.27,737H483l-72.34-125.3Z"/><circle class="cls-9" cx="400.9" cy="707.66" r="1.54"/><circle class="cls-9" cx="419.58" cy="707.66" r="1.54"/><path class="cls-6" d="M772.51,723.82H87.37c-10.06,0-18.23,5.41-18.36,12.11H790.87C790.73,729.23,782.57,723.82,772.51,723.82Z"/><path class="cls-7" d="M69,735.93c0,.05,0,.11,0,.17h0c0,6.78,8.22,12.27,18.37,12.27H772.51c10.14,0,18.37-5.49,18.37-12.27h0c0-.06,0-.12,0-.17Z"/><path class="cls-8" d="M277.86,661.12a11.71,11.71,0,0,0,.43-3.16c0-4.89-2.94-9-6.92-10.14a14.83,14.83,0,0,0,.36-3.3c0-7.42-5.27-13.43-11.78-13.43s-11.79,6-11.79,13.43a15.21,15.21,0,0,0,.22,2.55c-4,1.52-6.89,5.82-6.89,10.89a12.39,12.39,0,0,0,2.25,7.22c-4.77,1.89-8.2,7.06-8.2,13.14,0,7.68,5.47,13.91,12.2,13.91A11.88,11.88,0,0,0,257.91,686a14.16,14.16,0,0,0,11.21,5.81c8.22,0,14.88-7.6,14.88-17A17.76,17.76,0,0,0,277.86,661.12Z"/><path class="cls-11" d="M257.92,723.37a.9.9,0,0,1-.83-1V654a.84.84,0,1,1,1.67,0v68.41A.9.9,0,0,1,257.92,723.37Z"/><path class="cls-11" d="M257.93,669.22a.81.81,0,0,1-.69-.4l-6.59-10.57a1,1,0,0,1,.19-1.33.77.77,0,0,1,1.17.22l6.6,10.58a1,1,0,0,1-.2,1.33A.76.76,0,0,1,257.93,669.22Z"/><path class="cls-11" d="M257.92,682.6a.76.76,0,0,1-.57-.26,1.06,1.06,0,0,1,0-1.35l13.75-16.81a.76.76,0,0,1,1.18,0,1.06,1.06,0,0,1,.05,1.35L258.54,682.3A.8.8,0,0,1,257.92,682.6Z"/><path class="cls-8" d="M598.8,661.57a12.06,12.06,0,0,0,.42-3.16c0-4.89-2.94-9-6.91-10.13a15.59,15.59,0,0,0,.36-3.3c0-7.42-5.28-13.44-11.79-13.44s-11.78,6-11.78,13.44a15.31,15.31,0,0,0,.21,2.55c-4,1.51-6.89,5.81-6.89,10.88a12.51,12.51,0,0,0,2.25,7.23c-4.77,1.89-8.19,7.05-8.19,13.13,0,7.69,5.46,13.91,12.2,13.91a11.88,11.88,0,0,0,10.17-6.22,14.16,14.16,0,0,0,11.2,5.8c8.22,0,14.89-7.59,14.89-17A17.79,17.79,0,0,0,598.8,661.57Z"/><path class="cls-11" d="M578.86,723.82a.9.9,0,0,1-.84-1V654.45a.85.85,0,1,1,1.68,0v68.42A.9.9,0,0,1,578.86,723.82Z"/><path class="cls-11" d="M578.86,669.68a.81.81,0,0,1-.68-.4l-6.6-10.58a1,1,0,0,1,.2-1.33.77.77,0,0,1,1.17.23l6.59,10.57a1,1,0,0,1-.19,1.33A.78.78,0,0,1,578.86,669.68Z"/><path class="cls-11" d="M578.86,683.06a.78.78,0,0,1-.57-.26,1,1,0,0,1,0-1.35L592,664.63a.78.78,0,0,1,1.19,0,1,1,0,0,1,0,1.35l-13.75,16.82A.8.8,0,0,1,578.86,683.06Z"/><path class="cls-8" d="M682.38,679.51a8.54,8.54,0,0,0,.3-2.28,7.41,7.41,0,0,0-5-7.29,10.83,10.83,0,0,0,.26-2.37c0-5.34-3.8-9.66-8.48-9.66s-8.48,4.32-8.48,9.66a11.14,11.14,0,0,0,.16,1.84,8.21,8.21,0,0,0-4.95,7.82,8.9,8.9,0,0,0,1.62,5.2,10,10,0,0,0-5.9,9.45c0,5.52,3.93,10,8.78,10A8.54,8.54,0,0,0,668,697.4a10.17,10.17,0,0,0,8.06,4.18c5.91,0,10.7-5.46,10.7-12.2A12.78,12.78,0,0,0,682.38,679.51Z"/><path class="cls-11" d="M668,724.28a.65.65,0,0,1-.61-.69v-49.2a.61.61,0,1,1,1.21,0v49.2A.65.65,0,0,1,668,724.28Z"/><path class="cls-11" d="M668,685.34a.57.57,0,0,1-.49-.29l-4.75-7.61a.75.75,0,0,1,.15-1,.56.56,0,0,1,.84.17l4.74,7.6a.76.76,0,0,1-.14,1A.61.61,0,0,1,668,685.34Z"/><path class="cls-11" d="M668,695a.53.53,0,0,1-.41-.19.74.74,0,0,1,0-1l9.88-12.09a.56.56,0,0,1,.86,0,.77.77,0,0,1,0,1l-9.89,12.1A.59.59,0,0,1,668,695Z"/><polygon class="cls-6" points="1196.01 747.01 1161.4 776.45 1170.49 799.58 1195.94 799.58 1195.94 841.64 1264.59 810.1 1329.14 873.18 1357.32 824.82 1366.87 873.18 1522.34 853.56 1522.34 786.26 1553.7 834.63 1569.16 834.63 1569.16 799.58 1642.34 799.58 1642.34 897.02 1685.98 784.16 1714.17 784.16 1725.08 769.44 1742.35 769.44 1742.35 789.07 1756.44 789.07 1756.44 799.58 1776.45 799.58 1797.36 882.3 1827.81 789.07 1868.73 786.26 1861.52 747.01 1196.01 747.01"/><polygon class="cls-6" points="1424.94 434.2 1395.49 493.6 1374.07 499.07 1323.78 607.63 1278.97 620.57 1248.59 725.64 1573.09 725.64 1415.9 554.84 1424.94 434.2"/><polygon class="cls-7" points="1504.54 552.85 1473.66 551.36 1425.36 433.35 1424.94 434.2 1415.9 554.84 1573.09 725.64 1594.17 725.64 1504.54 552.85"/><polygon class="cls-6" points="1619.44 610.05 1587.16 583.57 1590.43 519.19 1443.15 725.64 1717.51 725.64 1595.55 650.09 1619.44 610.05"/><polygon class="cls-7" points="1687.25 617.8 1664 621.67 1591.03 518.35 1590.43 519.19 1587.16 583.57 1619.44 610.05 1595.55 650.09 1717.51 725.64 1781.53 725.64 1687.25 617.8"/><path class="cls-8" d="M1843.36,709.27a15.08,15.08,0,0,0-2.25.17c-1.59-7.29-7.24-12.67-13.95-12.67a12.74,12.74,0,0,1-17,0c-5.3,0-9.93,3.35-12.43,8.34a22.48,22.48,0,0,0-4.15-.38,21,21,0,0,0-14.08,5.2,16.35,16.35,0,0,0-7.31-.6c-1.66-7.59-7.54-13.2-14.54-13.2-5.52,0-10.34,3.49-13,8.69a23.53,23.53,0,0,0-4.32-.4,22.4,22.4,0,0,0-11.81,3.28c-2.1-6.75-7.62-11.57-14.11-11.57-5.51,0-10.34,3.49-12.94,8.69a23.64,23.64,0,0,0-4.33-.4,22.43,22.43,0,0,0-11.87,3.32,22.41,22.41,0,0,0-11.87-3.32,23.53,23.53,0,0,0-4.32.4c-2.61-5.2-7.43-8.69-12.95-8.69-6.34,0-11.76,4.6-14,11.11a22.57,22.57,0,0,0-11-2.82,23.64,23.64,0,0,0-4.33.4c-2.6-5.2-7.43-8.69-12.95-8.69-7,0-12.87,5.61-14.53,13.2a16.26,16.26,0,0,0-5.35.11,22,22,0,0,0-14.21-5,23.64,23.64,0,0,0-4.33.4c-2.6-5.2-7.42-8.69-12.94-8.69-7,0-12.88,5.61-14.54,13.2a16.42,16.42,0,0,0-9.08,1.27,21.69,21.69,0,0,0-15.48-6.18,23.53,23.53,0,0,0-4.32.4c-2.61-5.2-7.43-8.69-12.95-8.69-7,0-12.88,5.61-14.54,13.2a16.44,16.44,0,0,0-14.55,5.24,13.33,13.33,0,0,0-1.41-.08,11.65,11.65,0,0,0-2.79.33c-3.13-6.12-10.25-10.4-18.54-10.4a23.53,23.53,0,0,0-4.32.4c-2.61-5.2-7.43-8.69-13-8.69-7,0-12.87,5.61-14.53,13.2a16.46,16.46,0,0,0-14.43,5.1c-3.23-5.91-10.21-10-18.32-10a23.53,23.53,0,0,0-4.32.4c-2.61-5.2-7.43-8.69-13-8.69s-10.26,3.43-12.88,8.56a23.15,23.15,0,0,0-7.81.13c-2.61-5.2-7.43-8.69-13-8.69-7,0-12.87,5.61-14.53,13.2a16,16,0,0,0-4.59,0,22,22,0,0,0-14.06-4.9,23.56,23.56,0,0,0-4.33.4c-2.6-5.2-7.43-8.69-12.95-8.69-7,0-12.87,5.61-14.53,13.2a16.46,16.46,0,0,0-16.36,7.63,12.08,12.08,0,0,0-7.34-2.47,11.56,11.56,0,0,0-2.78.33c-3.13-6.12-10.25-10.4-18.54-10.4a23.53,23.53,0,0,0-4.32.4c-2.61-5.2-7.43-8.69-13-8.69-7,0-12.88,5.61-14.54,13.2a16.31,16.31,0,0,0-2.34-.17,16.48,16.48,0,0,0-16.48,16.48,17,17,0,0,0,.15,2.27h612.46c0-.21.05-.42.07-.63H1859a15.84,15.84,0,0,0-15.67-18Z"/><rect class="cls-5" x="1460.07" y="628.8" width="11.35" height="38.54"/><rect class="cls-9" x="1459.01" y="627.86" width="13.48" height="0.95" rx="0.4"/><rect class="cls-5" x="1508.6" y="671.13" width="82.29" height="6.38" rx="2.72"/><polygon class="cls-9" points="1531.32 678.99 1532.51 676.46 1535.93 674.9 1581.91 674.9 1583.62 676.46 1585.5 678.99 1585.59 734.84 1584.56 737.17 1582.85 739.12 1536.02 739.71 1533.97 738.15 1532.6 738.15 1531.4 734.64 1531.32 678.99"/><path class="cls-5" d="M1580.92,741h-44.85c-3.28,0-6-3.05-6-6.78V680.51c0-3.74,2.67-6.78,6-6.78h44.85c3.28,0,5.95,3,5.95,6.78V734.2C1586.87,737.93,1584.2,741,1580.92,741Zm-44.85-64.52a3.84,3.84,0,0,0-3.56,4V734.2a3.84,3.84,0,0,0,3.56,4h44.85a3.84,3.84,0,0,0,3.56-4V680.51a3.84,3.84,0,0,0-3.56-4Z"/><rect class="cls-5" x="1539.86" y="680.81" width="44.62" height="0.71"/><rect class="cls-5" x="1539.86" y="684.35" width="44.62" height="0.71"/><rect class="cls-5" x="1539.86" y="687.9" width="44.62" height="0.71"/><rect class="cls-5" x="1539.86" y="691.45" width="44.62" height="0.71"/><rect class="cls-5" x="1539.86" y="694.99" width="44.62" height="0.71"/><rect class="cls-5" x="1539.86" y="698.54" width="44.62" height="0.71"/><rect class="cls-5" x="1539.86" y="702.09" width="44.62" height="0.71"/><rect class="cls-5" x="1539.86" y="705.63" width="44.62" height="0.71"/><rect class="cls-5" x="1539.86" y="709.18" width="44.62" height="0.71"/><rect class="cls-5" x="1539.86" y="712.73" width="44.62" height="0.71"/><rect class="cls-5" x="1539.86" y="716.27" width="44.62" height="0.71"/><rect class="cls-5" x="1539.86" y="719.82" width="44.62" height="0.71"/><rect class="cls-5" x="1539.86" y="723.37" width="44.62" height="0.71"/><rect class="cls-5" x="1539.86" y="726.91" width="44.62" height="0.71"/><rect class="cls-5" x="1539.86" y="730.46" width="44.62" height="0.71"/><rect class="cls-5" x="1539.86" y="733.53" width="44.62" height="0.71"/><polygon class="cls-9" points="1495.84 608.43 1420.35 738.83 1571.09 738.83 1495.84 608.43"/><polygon class="cls-10" points="1489.92 667.35 1460.13 667.35 1479.05 635.66 1489.92 635.66 1489.92 667.35"/><rect class="cls-10" x="1458.24" y="673.26" width="31.68" height="65.02"/><rect class="cls-10" x="1501.98" y="673.26" width="31.68" height="65.02"/><polygon class="cls-10" points="1501.98 667.35 1531.78 667.35 1512.86 635.66 1501.98 635.66 1501.98 667.35"/><path class="cls-5" d="M1571.59,741.1H1419.87a2,2,0,0,1-1.76-1,2,2,0,0,1,0-2L1494,606.65a2,2,0,0,1,3.52,0l75.87,131.4a2,2,0,0,1-1.77,3.05ZM1423.39,737h144.68l-72.34-125.3Z"/><circle class="cls-9" cx="1486.02" cy="707.66" r="1.54"/><circle class="cls-9" cx="1504.7" cy="707.66" r="1.54"/><path class="cls-6" d="M1857.63,723.82H1172.49c-10.06,0-18.22,5.41-18.36,12.11H1876C1875.86,729.23,1867.69,723.82,1857.63,723.82Z"/><path class="cls-7" d="M1154.13,735.93c0,.05,0,.11,0,.17h0c0,6.78,8.23,12.27,18.37,12.27h685.14c10.15,0,18.37-5.49,18.37-12.27h0c0-.06,0-.12,0-.17Z"/><path class="cls-8" d="M1363,661.12a11.71,11.71,0,0,0,.43-3.16c0-4.89-2.94-9-6.91-10.14a15.45,15.45,0,0,0,.36-3.3c0-7.42-5.28-13.43-11.79-13.43s-11.79,6-11.79,13.43a15.21,15.21,0,0,0,.22,2.55c-4,1.52-6.89,5.82-6.89,10.89a12.39,12.39,0,0,0,2.25,7.22c-4.77,1.89-8.2,7.06-8.2,13.14,0,7.68,5.47,13.91,12.21,13.91A11.91,11.91,0,0,0,1343,686a14.14,14.14,0,0,0,11.2,5.81c8.22,0,14.88-7.6,14.88-17A17.76,17.76,0,0,0,1363,661.12Z"/><path class="cls-11" d="M1343.05,723.37a.9.9,0,0,1-.84-1V654a.85.85,0,1,1,1.68,0v68.41A.91.91,0,0,1,1343.05,723.37Z"/><path class="cls-11" d="M1343.05,669.22a.83.83,0,0,1-.69-.4l-6.59-10.57a1,1,0,0,1,.2-1.33.77.77,0,0,1,1.17.22l6.59,10.58a1,1,0,0,1-.2,1.33A.72.72,0,0,1,1343.05,669.22Z"/><path class="cls-11" d="M1343.05,682.6a.74.74,0,0,1-.57-.26,1.06,1.06,0,0,1,0-1.35l13.75-16.81a.77.77,0,0,1,1.19,0,1.06,1.06,0,0,1,0,1.35l-13.75,16.82A.79.79,0,0,1,1343.05,682.6Z"/><path class="cls-8" d="M1683.92,661.57a11.65,11.65,0,0,0,.43-3.16c0-4.89-2.94-9-6.92-10.13a15,15,0,0,0,.36-3.3c0-7.42-5.28-13.44-11.79-13.44s-11.78,6-11.78,13.44a15.31,15.31,0,0,0,.21,2.55c-4,1.51-6.88,5.81-6.88,10.88a12.44,12.44,0,0,0,2.25,7.23c-4.77,1.89-8.2,7.05-8.2,13.13,0,7.69,5.46,13.91,12.2,13.91a11.87,11.87,0,0,0,10.17-6.22,14.18,14.18,0,0,0,11.21,5.8c8.22,0,14.88-7.59,14.88-17A17.79,17.79,0,0,0,1683.92,661.57Z"/><path class="cls-11" d="M1664,723.82a.9.9,0,0,1-.84-1V654.45a.85.85,0,1,1,1.68,0v68.42A.89.89,0,0,1,1664,723.82Z"/><path class="cls-11" d="M1664,669.68a.81.81,0,0,1-.68-.4l-6.6-10.58a1,1,0,0,1,.2-1.33.77.77,0,0,1,1.17.23l6.6,10.57a1,1,0,0,1-.2,1.33A.78.78,0,0,1,1664,669.68Z"/><path class="cls-11" d="M1664,683.06a.79.79,0,0,1-.57-.26,1,1,0,0,1,0-1.35l13.75-16.82a.77.77,0,0,1,1.18,0,1,1,0,0,1,0,1.35l-13.74,16.82A.82.82,0,0,1,1664,683.06Z"/><path class="cls-8" d="M1767.5,679.51a8.54,8.54,0,0,0,.31-2.28,7.42,7.42,0,0,0-5-7.29,10.83,10.83,0,0,0,.26-2.37c0-5.34-3.79-9.66-8.48-9.66s-8.47,4.32-8.47,9.66a11.14,11.14,0,0,0,.15,1.84,8.21,8.21,0,0,0-5,7.82,9,9,0,0,0,1.62,5.2,10,10,0,0,0-5.9,9.45c0,5.52,3.93,10,8.78,10a8.54,8.54,0,0,0,7.31-4.48,10.2,10.2,0,0,0,8.06,4.18c5.91,0,10.7-5.46,10.7-12.2A12.78,12.78,0,0,0,1767.5,679.51Z"/><path class="cls-11" d="M1753.16,724.28a.65.65,0,0,1-.6-.69v-49.2a.61.61,0,1,1,1.2,0v49.2A.65.65,0,0,1,1753.16,724.28Z"/><path class="cls-11" d="M1753.16,685.34a.58.58,0,0,1-.49-.29l-4.74-7.61a.75.75,0,0,1,.14-1,.56.56,0,0,1,.84.17l4.74,7.6a.76.76,0,0,1-.14,1A.61.61,0,0,1,1753.16,685.34Z"/><path class="cls-11" d="M1753.16,695a.54.54,0,0,1-.41-.19.76.76,0,0,1,0-1l9.89-12.09a.55.55,0,0,1,.85,0,.76.76,0,0,1,0,1l-9.89,12.1A.59.59,0,0,1,1753.16,695Z"/><polygon class="cls-12" points="142.49 434.41 139.63 402.35 110.08 403 139.63 397.54 141.49 370.59 142.83 397.54 173.91 402 143.37 402.35 142.49 434.41"/><polygon class="cls-12" points="1717.88 181.93 1713.91 137.48 1672.95 138.38 1713.91 130.81 1716.49 93.45 1718.35 130.81 1761.42 137 1719.09 137.48 1717.88 181.93"/><polygon class="cls-12" points="380.88 340.93 376.91 296.48 335.95 297.38 376.91 289.81 379.49 252.46 381.35 289.81 424.42 296 382.09 296.48 380.88 340.93"/><polygon class="cls-12" points="1540.88 468.93 1536.91 424.48 1495.95 425.38 1536.91 417.81 1539.49 380.45 1541.35 417.81 1584.42 424 1542.09 424.48 1540.88 468.93"/><polygon class="cls-12" points="586.49 137.41 583.63 105.35 554.08 106 583.63 100.54 585.49 73.59 586.83 100.54 617.91 105 587.37 105.35 586.49 137.41"/><polygon class="cls-12" points="195.49 137.41 192.63 105.35 163.08 106 192.63 100.54 194.49 73.59 195.83 100.54 226.91 105 196.37 105.35 195.49 137.41"/><polygon class="cls-12" points="1227.16 445.75 1225.24 424.23 1205.42 424.67 1225.24 421.01 1226.49 402.93 1227.39 421.01 1248.24 424 1227.75 424.23 1227.16 445.75"/><polygon class="cls-12" points="1530.16 94.75 1528.24 73.23 1508.42 73.67 1528.24 70.01 1529.49 51.92 1530.39 70.01 1551.24 73 1530.75 73.23 1530.16 94.75"/><polygon class="cls-12" points="586.16 401.75 584.24 380.23 564.42 380.67 584.24 377.01 585.49 358.93 586.39 377.01 607.24 380 586.75 380.23 586.16 401.75"/><rect class="cls-6" x="715.07" y="266.63" width="30.93" height="22.81" rx="9.12"/><rect class="cls-6" x="492" y="221" width="30.93" height="22.81" rx="9.12"/><path class="cls-6" d="M694.54,266.63h-77a5.92,5.92,0,0,0,1.52-.2c-3.88-1-6.82-5.62-6.82-11.21h0c0-5.59,2.94-10.23,6.82-11.21a6.4,6.4,0,0,0-1.52-.2h3a11.4,11.4,0,0,0,11.41-11.4h0A11.41,11.41,0,0,0,620.52,221H544a11.41,11.41,0,0,0-11.41,11.41h0A11.4,11.4,0,0,0,544,243.81h27c4.6,0,8.34,5.11,8.34,11.41h0c0,6.3-3.74,11.41-8.34,11.41h-14.8A11.4,11.4,0,0,0,544.73,278h0a11.39,11.39,0,0,0,11.4,11.4H694.54A11.4,11.4,0,0,0,706,278h0A11.41,11.41,0,0,0,694.54,266.63Z"/><rect class="cls-6" x="1479.98" y="252.08" width="32.02" height="23.62" rx="9.12"/><rect class="cls-6" x="1249" y="204.83" width="32.02" height="23.62" rx="9.12"/><path class="cls-6" d="M1458.72,252.08H1379a6.32,6.32,0,0,0,1.57-.21c-4-1-7.06-5.81-7.06-11.6h0c0-5.79,3-10.6,7.06-11.61a6.31,6.31,0,0,0-1.57-.2h3.06a11.82,11.82,0,0,0,11.82-11.82h0a11.82,11.82,0,0,0-11.82-11.81h-79.26A11.81,11.81,0,0,0,1291,216.64h0a11.81,11.81,0,0,0,11.81,11.82h27.92c4.76,0,8.63,5.28,8.63,11.81h0c0,6.52-3.87,11.81-8.63,11.81h-15.32a11.82,11.82,0,0,0-11.82,11.81h0a11.82,11.82,0,0,0,11.82,11.81h143.31a11.81,11.81,0,0,0,11.81-11.81h0A11.81,11.81,0,0,0,1458.72,252.08Z"/><rect class="cls-6" x="1829.57" y="404.96" width="21.43" height="15.81" rx="6.5"/><rect class="cls-6" x="1675" y="373.34" width="21.43" height="15.81" rx="6.5"/><path class="cls-6" d="M1815.34,405H1762a4.07,4.07,0,0,0,1-.14c-2.68-.67-4.72-3.89-4.72-7.76h0c0-3.88,2-7.1,4.72-7.77a4.07,4.07,0,0,0-1-.14h2a7.91,7.91,0,0,0,7.91-7.9h0a7.91,7.91,0,0,0-7.91-7.91h-53a7.91,7.91,0,0,0-7.91,7.91h0a7.91,7.91,0,0,0,7.91,7.9h18.68c3.19,0,5.78,3.54,5.78,7.91h0c0,4.36-2.59,7.9-5.78,7.9h-10.25a7.91,7.91,0,0,0-7.91,7.9h0a7.91,7.91,0,0,0,7.91,7.91h95.9a7.91,7.91,0,0,0,7.91-7.91h0A7.91,7.91,0,0,0,1815.34,405Z"/><rect class="cls-6" x="521" y="549" width="17.62" height="13" rx="6.5" transform="translate(1059.62 1111) rotate(180)"/><rect class="cls-6" x="648.11" y="523" width="17.62" height="13" rx="6.5" transform="translate(1313.84 1059) rotate(-180)"/><path class="cls-6" d="M550.32,549h43.86a3.56,3.56,0,0,1-.86-.11c2.21-.56,3.89-3.2,3.89-6.39h0c0-3.19-1.68-5.83-3.89-6.39a3.56,3.56,0,0,1,.86-.11H592.5a6.5,6.5,0,0,1-6.5-6.5h0a6.5,6.5,0,0,1,6.5-6.5h43.62a6.5,6.5,0,0,1,6.5,6.5h0a6.5,6.5,0,0,1-6.5,6.5H620.76c-2.63,0-4.75,2.91-4.75,6.5h0c0,3.59,2.12,6.5,4.75,6.5h8.43a6.5,6.5,0,0,1,6.5,6.5h0a6.5,6.5,0,0,1-6.5,6.5H550.32a6.5,6.5,0,0,1-6.5-6.5h0A6.5,6.5,0,0,1,550.32,549Z"/><rect class="cls-6" x="70" y="296.27" width="26.06" height="19.22" rx="6.5" transform="translate(166.06 611.75) rotate(180)"/><rect class="cls-6" x="257.94" y="257.82" width="26.06" height="19.22" rx="6.5" transform="translate(541.94 534.87) rotate(-180)"/><path class="cls-6" d="M113.36,296.27h64.85a5.48,5.48,0,0,1-1.28-.17c3.27-.82,5.75-4.73,5.75-9.45h0c0-4.71-2.48-8.62-5.75-9.44a5.48,5.48,0,0,1,1.28-.17h-2.49a9.61,9.61,0,0,1-9.61-9.61h0a9.61,9.61,0,0,1,9.61-9.61h64.5a9.61,9.61,0,0,1,9.61,9.61h0a9.61,9.61,0,0,1-9.61,9.61H217.5c-3.88,0-7,4.31-7,9.61h0c0,5.31,3.14,9.62,7,9.62H230a9.61,9.61,0,0,1,9.61,9.61h0a9.62,9.62,0,0,1-9.61,9.61H113.36a9.62,9.62,0,0,1-9.62-9.61h0A9.62,9.62,0,0,1,113.36,296.27Z"/></g></svg>