<svg id="Layer_1" data-name="Layer 1" xmlns="http://www.w3.org/2000/svg" xmlns:xlink="http://www.w3.org/1999/xlink" viewBox="0 0 1920 1080"><defs><style>.cls-1{fill:none;}.cls-2{clip-path:url(#clip-path);}.cls-3{fill:#a6e0f7;}.cls-4{fill:#0589bc;}.cls-5{fill:#fe7e00;}.cls-6{fill:#fefe00;}.cls-26,.cls-7{fill:#3f93c2;}.cls-8{fill:#58aadc;}.cls-26,.cls-35,.cls-8{opacity:0.5;}.cls-9{fill:#175c2f;}.cls-10{fill:#11793e;}.cls-11{fill:#37d175;}.cls-12{fill:#a8a9ad;}.cls-13{fill:#8b2b2c;}.cls-14{fill:#742425;}.cls-15{fill:#afafaf;}.cls-16{fill:#d3d3d3;}.cls-17{fill:#a83434;}.cls-18{fill:#818286;}.cls-19{fill:#9c9da1;}.cls-20{fill:#414143;}.cls-21{fill:#58595b;}.cls-22{fill:#fff;}.cls-23{fill:#856a5a;}.cls-24{fill:#784c36;}.cls-25{fill:#fcfcfc;}.cls-27{fill:#2f3d44;}.cls-28{fill:#899167;}.cls-29{fill:#b0b784;}.cls-30{fill:#1e272b;}.cls-31{fill:#3b5b43;}.cls-32{fill:#be041c;}.cls-33{fill:#ba3722;}.cls-34{fill:#ff4f2c;}.cls-36{fill:#f7f4da;}</style><clipPath id="clip-path"><rect class="cls-1" width="1920" height="1080"/></clipPath></defs><title>SeaMountain</title><g class="cls-2"><rect class="cls-3" width="1920" height="1080"/><rect class="cls-4" x="1" y="685" width="1920" height="393"/><path class="cls-5" d="M420.47,285.74,411,282.9a15.42,15.42,0,0,0-19.28,18.84l2.61,9.56c4.22,15.48-15.06,26.31-26.08,14.64l-6.81-7.2a15.41,15.41,0,0,0-26.11,6.67L332.78,335c-4.08,15.52-26.2,15.26-29.91-.35L300.58,325a15.42,15.42,0,0,0-25.95-7.28l-7,7c-11.29,11.4-30.31.12-25.72-15.26l2.83-9.5a15.41,15.41,0,0,0-18.83-19.28l-9.56,2.61c-15.48,4.23-26.31-15.06-14.65-26.08l7.21-6.8a15.42,15.42,0,0,0-6.67-26.12l-9.59-2.52c-15.51-4.08-15.25-26.2.36-29.91l9.64-2.29A15.42,15.42,0,0,0,210,163.65l-7.05-7c-11.39-11.29-.11-30.31,15.27-25.72l9.49,2.84A15.42,15.42,0,0,0,247,115l-2.61-9.57c-4.23-15.48,15.06-26.31,26.07-14.64l6.81,7.2a15.42,15.42,0,0,0,26.12-6.67l2.52-9.58c4.08-15.52,26.19-15.26,29.91.35l2.29,9.65A15.42,15.42,0,0,0,364,99l7-7c11.3-11.4,30.32-.12,25.73,15.26l-2.84,9.5A15.41,15.41,0,0,0,412.71,136l9.57-2.61c15.47-4.23,26.3,15.06,14.64,26.08l-7.2,6.8a15.42,15.42,0,0,0,6.66,26.12l9.59,2.52c15.52,4.08,15.25,26.2-.35,29.91L436,227.09A15.42,15.42,0,0,0,428.69,253l7,7C447.13,271.31,435.84,290.33,420.47,285.74Z"/><circle class="cls-6" cx="319.32" cy="208.35" r="98.43"/><path class="cls-7" d="M1921,1081H1V866.66a691.39,691.39,0,0,1,116-11.57c43.86-.71,75.28,2.81,105,5.48,25.66,2.31,86.44,4.48,208,8.83,274.39,9.82,649-25.66,1008-3.35,44.21,2.75,159.76,10.83,314,7.92,74.45-1.4,134-4.91,169-7.31Z"/><path class="cls-8" d="M1920,1079H0V749.13a1670.11,1670.11,0,0,0,178,21.8c154.75,10.6,270.82-3,316-7.52,405.74-40.49,536.47,110,877,36.07,73.76-16,170.64-45.42,326-54.1a1543.5,1543.5,0,0,1,223,3.75Z"/><path class="cls-9" d="M569.74,613.3a432.57,432.57,0,0,0-6.15-73.87c-13.37,3.91-27.69-15.23-27.69-15.23-16-25.34-31.94-27.66-44-23.5V671.94h74.06A443.79,443.79,0,0,0,569.74,613.3Z"/><path class="cls-10" d="M471,516.21c-22.45,29.73-32.75,0-32.75,0-2.92-5.38-6.53-8.77-10.49-10.74C419.06,536.08,414,573.24,414,613.3a443.83,443.83,0,0,0,3.8,58.64h74.12V500.7C479.39,505,471,516.21,471,516.21Z"/><path class="cls-11" d="M535.9,524.2s14.32,19.14,27.69,15.23c-11.83-67.93-39.49-115.59-71.72-115.62V500.7C504,496.54,519.93,498.86,535.9,524.2Z"/><path class="cls-11" d="M438.27,516.21s10.3,29.73,32.75,0c0,0,8.37-11.21,20.85-15.51V423.81h0c-26.55,0-50,32.32-64.06,81.66C431.74,507.44,435.35,510.83,438.27,516.21Z"/><path class="cls-10" d="M183.87,573.53c-20.18,18.79-29.44,0-29.44,0a20.1,20.1,0,0,0-9.43-6.79c-7.84,19.35-12.43,42.83-12.43,68.15A198.64,198.64,0,0,0,136,671.94h66.68V563.72A45.7,45.7,0,0,0,183.87,573.53Z"/><path class="cls-9" d="M272.61,634.89a194.72,194.72,0,0,0-5.52-46.69c-12,2.48-24.9-9.62-24.9-9.62-14.33-16-28.66-17.48-39.53-14.86V671.94H269.2A199.49,199.49,0,0,0,272.61,634.89Z"/><path class="cls-11" d="M242.19,578.58s12.88,12.1,24.9,9.62c-10.63-42.9-35.47-73-64.43-73.06v48.58C213.53,561.1,227.86,562.59,242.19,578.58Z"/><path class="cls-11" d="M154.43,573.53s9.26,18.79,29.44,0a45.7,45.7,0,0,1,18.79-9.81V515.14h-.07c-23.87,0-45,20.42-57.59,51.6A20.1,20.1,0,0,1,154.43,573.53Z"/><path class="cls-10" d="M442.6,618.62a280.28,280.28,0,0,0-8-67.18c-17.3,3.56-35.83-13.85-35.83-13.85-20.65-23-41.31-25.15-56.95-21.36V671.94h95.81A286.33,286.33,0,0,0,442.6,618.62Z"/><path class="cls-9" d="M314.9,530.33c-29,27-42.36,0-42.36,0A28.89,28.89,0,0,0,259,520.56c-11.29,27.84-17.9,61.63-17.9,98.06A286.33,286.33,0,0,0,246,671.94h95.88V516.23A65.75,65.75,0,0,0,314.9,530.33Z"/><path class="cls-11" d="M398.82,537.59s18.53,17.41,35.83,13.85c-15.31-61.77-51.09-105.11-92.78-105.13v69.92C357.51,512.44,378.17,514.56,398.82,537.59Z"/><path class="cls-11" d="M272.54,530.33s13.31,27,42.36,0a65.75,65.75,0,0,1,27-14.1V446.31h0c-34.34,0-64.67,29.38-82.86,74.25A28.89,28.89,0,0,1,272.54,530.33Z"/><rect class="cls-12" x="334.94" y="509.15" width="40.32" height="21.63"/><polygon class="cls-13" points="354.99 553.47 330.32 553.47 329.95 566.82 354.99 566.82 354.99 553.47"/><polygon class="cls-14" points="354.99 566.82 380.08 566.82 379.68 553.47 354.99 553.47 354.99 566.82"/><polygon class="cls-15" points="354.99 621.28 381.72 621.28 381.15 602.32 354.99 602.32 354.99 621.28"/><polygon class="cls-16" points="354.99 540.38 330.69 540.38 330.32 553.47 354.99 553.47 354.99 540.38"/><polygon class="cls-15" points="354.99 583.37 380.57 583.37 380.08 566.82 354.99 566.82 354.99 583.37"/><polygon class="cls-14" points="354.99 602.32 381.15 602.32 380.57 583.37 354.99 583.37 354.99 602.32"/><polygon class="cls-15" points="379.68 553.47 379.28 540.38 354.99 540.38 354.99 553.47 379.68 553.47"/><polygon class="cls-16" points="327.9 640.24 327.22 664.53 354.99 664.53 354.99 640.24 327.9 640.24"/><polygon class="cls-15" points="354.99 664.53 383.02 664.53 382.29 640.24 354.99 640.24 354.99 664.53"/><polygon class="cls-16" points="354.99 566.82 329.95 566.82 329.49 583.37 354.99 583.37 354.99 566.82"/><polygon class="cls-14" points="354.99 621.28 354.99 640.24 382.29 640.24 381.72 621.28 354.99 621.28"/><polygon class="cls-13" points="354.99 621.28 328.43 621.28 327.9 640.24 354.99 640.24 354.99 621.28"/><polygon class="cls-13" points="354.99 583.37 329.49 583.37 328.96 602.32 354.99 602.32 354.99 583.37"/><polygon class="cls-16" points="354.99 602.32 328.96 602.32 328.43 621.28 354.99 621.28 354.99 602.32"/><polygon class="cls-17" points="390.09 675.75 320.14 675.75 321.75 662.4 388.49 662.4 390.09 675.75"/><polygon class="cls-18" points="379.68 530.24 354.32 529.96 354.32 541.99 381.82 541.99 379.68 530.24"/><polygon class="cls-19" points="331.09 529.7 328.42 541.99 354.32 541.99 354.32 529.96 331.09 529.7"/><polygon class="cls-20" points="355.31 476.71 331.07 509.81 379.17 509.81 355.31 476.71"/><polygon class="cls-21" points="355.31 476.71 337.76 509.81 344.17 509.81 355.31 476.71"/><rect class="cls-22" x="345.09" y="515.42" width="20.02" height="10.95" rx="4.62"/><path class="cls-9" d="M569.74,751.21a432.69,432.69,0,0,1-6.15,73.88c-13.37-3.92-27.69,15.22-27.69,15.22-16,25.34-31.94,27.67-44,23.5V692.57h74.06A443.79,443.79,0,0,1,569.74,751.21Z"/><path class="cls-10" d="M471,848.3c-22.45-29.73-32.75,0-32.75,0-2.92,5.38-6.53,8.77-10.49,10.75C419.06,828.44,414,791.28,414,751.21a443.83,443.83,0,0,1,3.8-58.64h74.12V863.81C479.39,859.51,471,848.3,471,848.3Z"/><path class="cls-11" d="M535.9,840.31s14.32-19.14,27.69-15.22C551.76,893,524.1,940.67,491.87,940.7V863.81C504,868,519.93,865.65,535.9,840.31Z"/><path class="cls-11" d="M438.27,848.3s10.3-29.73,32.75,0c0,0,8.37,11.21,20.85,15.51V940.7h0c-26.55,0-50-32.31-64.06-81.65C431.74,857.07,435.35,853.68,438.27,848.3Z"/><path class="cls-10" d="M183.87,791c-20.18-18.79-29.44,0-29.44,0a20,20,0,0,1-9.43,6.79c-7.84-19.34-12.43-42.83-12.43-68.15a198.72,198.72,0,0,1,3.41-37h66.68V800.79A45.7,45.7,0,0,1,183.87,791Z"/><path class="cls-9" d="M272.61,729.62a194.66,194.66,0,0,1-5.52,46.69c-12-2.47-24.9,9.62-24.9,9.62-14.33,16-28.66,17.48-39.53,14.86V692.57H269.2A199.57,199.57,0,0,1,272.61,729.62Z"/><path class="cls-11" d="M242.19,785.93s12.88-12.09,24.9-9.62c-10.63,42.9-35.47,73-64.43,73.06V800.79C213.53,803.41,227.86,801.92,242.19,785.93Z"/><path class="cls-11" d="M154.43,791s9.26-18.79,29.44,0a45.7,45.7,0,0,0,18.79,9.81v48.58h-.07c-23.87,0-45-20.42-57.59-51.6A20,20,0,0,0,154.43,791Z"/><path class="cls-10" d="M442.6,745.89a280.22,280.22,0,0,1-8,67.18c-17.3-3.56-35.83,13.85-35.83,13.85-20.65,23-41.31,25.15-56.95,21.36V692.57h95.81A286.33,286.33,0,0,1,442.6,745.89Z"/><path class="cls-9" d="M314.9,834.18c-29-27-42.36,0-42.36,0A28.89,28.89,0,0,1,259,844c-11.29-27.83-17.9-61.62-17.9-98.06A286.33,286.33,0,0,1,246,692.57h95.88V848.28A65.61,65.61,0,0,1,314.9,834.18Z"/><path class="cls-11" d="M398.82,826.92s18.53-17.41,35.83-13.85c-15.31,61.77-51.09,105.11-92.78,105.13V848.28C357.51,852.07,378.17,850,398.82,826.92Z"/><path class="cls-11" d="M272.54,834.18s13.31-27,42.36,0a65.61,65.61,0,0,0,27,14.1V918.2h0c-34.34,0-64.67-29.38-82.86-74.25A28.89,28.89,0,0,0,272.54,834.18Z"/><rect class="cls-12" x="334.94" y="833.74" width="40.32" height="21.63"/><polygon class="cls-13" points="354.99 811.05 330.32 811.05 329.95 797.7 354.99 797.7 354.99 811.05"/><polygon class="cls-14" points="354.99 797.7 380.08 797.7 379.68 811.05 354.99 811.05 354.99 797.7"/><polygon class="cls-15" points="354.99 743.23 381.72 743.23 381.15 762.19 354.99 762.19 354.99 743.23"/><polygon class="cls-16" points="354.99 824.13 330.69 824.13 330.32 811.05 354.99 811.05 354.99 824.13"/><polygon class="cls-15" points="354.99 781.14 380.57 781.14 380.08 797.7 354.99 797.7 354.99 781.14"/><polygon class="cls-14" points="354.99 762.19 381.15 762.19 380.57 781.14 354.99 781.14 354.99 762.19"/><polygon class="cls-15" points="379.68 811.05 379.28 824.13 354.99 824.13 354.99 811.05 379.68 811.05"/><polygon class="cls-16" points="327.9 724.28 327.22 699.98 354.99 699.98 354.99 724.28 327.9 724.28"/><polygon class="cls-15" points="354.99 699.98 383.02 699.98 382.29 724.28 354.99 724.28 354.99 699.98"/><polygon class="cls-16" points="354.99 797.7 329.95 797.7 329.49 781.14 354.99 781.14 354.99 797.7"/><polygon class="cls-14" points="354.99 743.23 354.99 724.28 382.29 724.28 381.72 743.23 354.99 743.23"/><polygon class="cls-13" points="354.99 743.23 328.43 743.23 327.9 724.28 354.99 724.28 354.99 743.23"/><polygon class="cls-13" points="354.99 781.14 329.49 781.14 328.96 762.19 354.99 762.19 354.99 781.14"/><polygon class="cls-16" points="354.99 762.19 328.96 762.19 328.43 743.23 354.99 743.23 354.99 762.19"/><polygon class="cls-17" points="390.09 688.77 320.14 688.77 321.75 702.12 388.49 702.12 390.09 688.77"/><polygon class="cls-18" points="379.68 834.27 354.32 834.55 354.32 822.53 381.82 822.53 379.68 834.27"/><polygon class="cls-19" points="331.09 834.81 328.42 822.53 354.32 822.53 354.32 834.55 331.09 834.81"/><polygon class="cls-20" points="355.31 887.81 331.07 854.7 379.17 854.7 355.31 887.81"/><polygon class="cls-21" points="355.31 887.81 337.76 854.7 344.17 854.7 355.31 887.81"/><rect class="cls-22" x="345.09" y="838.15" width="20.02" height="10.95" rx="4.62"/><path class="cls-23" d="M626.58,671.83H75.72a10.41,10.41,0,0,0-10.41,10.23H637A10.43,10.43,0,0,0,626.58,671.83Z"/><path class="cls-24" d="M65.31,682.06a1.28,1.28,0,0,0,0,.19h0a10.43,10.43,0,0,0,10.42,10.43H626.58A10.43,10.43,0,0,0,637,682.25h0v-.19Z"/><path class="cls-9" d="M1356.57,613.3a432.6,432.6,0,0,1,6.14-73.87c13.37,3.91,27.7-15.23,27.7-15.23,16-25.34,31.93-27.66,44-23.5V671.94h-74.07A443.83,443.83,0,0,1,1356.57,613.3Z"/><path class="cls-10" d="M1455.28,516.21c22.45,29.73,32.75,0,32.75,0,2.92-5.38,6.53-8.77,10.49-10.74,8.72,30.61,13.83,67.77,13.83,107.83a443.83,443.83,0,0,1-3.8,58.64h-74.11V500.7C1446.92,505,1455.28,516.21,1455.28,516.21Z"/><path class="cls-11" d="M1390.41,524.2s-14.33,19.14-27.7,15.23c11.83-67.93,39.49-115.59,71.73-115.62V500.7C1422.34,496.54,1406.37,498.86,1390.41,524.2Z"/><path class="cls-11" d="M1488,516.21s-10.3,29.73-32.75,0c0,0-8.36-11.21-20.84-15.51V423.81h0c26.55,0,50,32.32,64.06,81.66C1494.56,507.44,1491,510.83,1488,516.21Z"/><path class="cls-10" d="M1742.43,573.53c20.18,18.79,29.44,0,29.44,0a20.1,20.1,0,0,1,9.43-6.79c7.84,19.35,12.44,42.83,12.44,68.15a198.63,198.63,0,0,1-3.42,37.05h-66.68V563.72A45.7,45.7,0,0,1,1742.43,573.53Z"/><path class="cls-9" d="M1653.69,634.89a194.72,194.72,0,0,1,5.52-46.69c12,2.48,24.9-9.62,24.9-9.62,14.33-16,28.66-17.48,39.53-14.86V671.94h-66.53A198.63,198.63,0,0,1,1653.69,634.89Z"/><path class="cls-11" d="M1684.11,578.58s-12.88,12.1-24.9,9.62c10.63-42.9,35.47-73,64.43-73.06v48.58C1712.77,561.1,1698.44,562.59,1684.11,578.58Z"/><path class="cls-11" d="M1771.87,573.53s-9.26,18.79-29.44,0a45.7,45.7,0,0,0-18.79-9.81V515.14h.07c23.87,0,45,20.42,57.59,51.6A20.1,20.1,0,0,0,1771.87,573.53Z"/><path class="cls-10" d="M1483.71,618.62a280.79,280.79,0,0,1,7.94-67.18c17.3,3.56,35.83-13.85,35.83-13.85,20.65-23,41.31-25.15,57-21.36V671.94h-95.82A286.34,286.34,0,0,1,1483.71,618.62Z"/><path class="cls-9" d="M1611.4,530.33c29,27,42.36,0,42.36,0a28.89,28.89,0,0,1,13.57-9.77c11.29,27.84,17.9,61.63,17.9,98.06a286.33,286.33,0,0,1-4.92,53.32h-95.87V516.23A65.75,65.75,0,0,1,1611.4,530.33Z"/><path class="cls-11" d="M1527.48,537.59S1509,555,1491.65,551.44c15.31-61.77,51.09-105.11,92.79-105.13v69.92C1568.79,512.44,1548.13,514.56,1527.48,537.59Z"/><path class="cls-11" d="M1653.76,530.33s-13.31,27-42.36,0a65.75,65.75,0,0,0-27-14.1V446.31h0c34.34,0,64.67,29.38,82.86,74.25A28.89,28.89,0,0,0,1653.76,530.33Z"/><rect class="cls-12" x="1551.05" y="509.15" width="40.32" height="21.63" transform="translate(3142.41 1039.92) rotate(-180)"/><polygon class="cls-13" points="1571.32 553.47 1595.98 553.47 1596.35 566.82 1571.32 566.82 1571.32 553.47"/><polygon class="cls-14" points="1571.32 566.82 1546.22 566.82 1546.63 553.47 1571.32 553.47 1571.32 566.82"/><polygon class="cls-15" points="1571.32 621.28 1544.58 621.28 1545.15 602.32 1571.32 602.32 1571.32 621.28"/><polygon class="cls-16" points="1571.32 540.38 1595.61 540.38 1595.98 553.47 1571.32 553.47 1571.32 540.38"/><polygon class="cls-15" points="1571.32 583.37 1545.73 583.37 1546.22 566.82 1571.32 566.82 1571.32 583.37"/><polygon class="cls-14" points="1571.32 602.32 1545.15 602.32 1545.73 583.37 1571.32 583.37 1571.32 602.32"/><polygon class="cls-15" points="1546.63 553.47 1547.02 540.38 1571.32 540.38 1571.32 553.47 1546.63 553.47"/><polygon class="cls-16" points="1598.4 640.24 1599.08 664.53 1571.32 664.53 1571.32 640.24 1598.4 640.24"/><polygon class="cls-15" points="1571.32 664.53 1543.28 664.53 1544.01 640.24 1571.32 640.24 1571.32 664.53"/><polygon class="cls-16" points="1571.32 566.82 1596.35 566.82 1596.81 583.37 1571.32 583.37 1571.32 566.82"/><polygon class="cls-14" points="1571.32 621.28 1571.32 640.24 1544.01 640.24 1544.58 621.28 1571.32 621.28"/><polygon class="cls-13" points="1571.32 621.28 1597.87 621.28 1598.4 640.24 1571.32 640.24 1571.32 621.28"/><polygon class="cls-13" points="1571.32 583.37 1596.81 583.37 1597.34 602.32 1571.32 602.32 1571.32 583.37"/><polygon class="cls-16" points="1571.32 602.32 1597.34 602.32 1597.87 621.28 1571.32 621.28 1571.32 602.32"/><polygon class="cls-17" points="1536.21 675.75 1606.16 675.75 1604.56 662.4 1537.81 662.4 1536.21 675.75"/><polygon class="cls-18" points="1546.62 530.24 1571.98 529.96 1571.98 541.99 1544.48 541.99 1546.62 530.24"/><polygon class="cls-19" points="1595.21 529.7 1597.88 541.99 1571.98 541.99 1571.98 529.96 1595.21 529.7"/><polygon class="cls-20" points="1570.99 476.71 1595.23 509.81 1547.14 509.81 1570.99 476.71"/><polygon class="cls-21" points="1570.99 476.71 1588.54 509.81 1582.13 509.81 1570.99 476.71"/><rect class="cls-22" x="1561.19" y="515.42" width="20.02" height="10.95" rx="4.62" transform="translate(3142.41 1041.79) rotate(180)"/><path class="cls-9" d="M1356.57,751.21a432.72,432.72,0,0,0,6.14,73.88c13.37-3.92,27.7,15.22,27.7,15.22,16,25.34,31.93,27.67,44,23.5V692.57h-74.07A443.83,443.83,0,0,0,1356.57,751.21Z"/><path class="cls-10" d="M1455.28,848.3c22.45-29.73,32.75,0,32.75,0,2.92,5.38,6.53,8.77,10.49,10.75,8.72-30.61,13.83-67.77,13.83-107.84a443.83,443.83,0,0,0-3.8-58.64h-74.11V863.81C1446.92,859.51,1455.28,848.3,1455.28,848.3Z"/><path class="cls-11" d="M1390.41,840.31s-14.33-19.14-27.7-15.22c11.83,67.93,39.49,115.58,71.73,115.61V863.81C1422.34,868,1406.37,865.65,1390.41,840.31Z"/><path class="cls-11" d="M1488,848.3s-10.3-29.73-32.75,0c0,0-8.36,11.21-20.84,15.51V940.7h0c26.55,0,50-32.31,64.06-81.65C1494.56,857.07,1491,853.68,1488,848.3Z"/><path class="cls-10" d="M1742.43,791c20.18-18.79,29.44,0,29.44,0a20,20,0,0,0,9.43,6.79c7.84-19.34,12.44-42.83,12.44-68.15a198.71,198.71,0,0,0-3.42-37h-66.68V800.79A45.7,45.7,0,0,0,1742.43,791Z"/><path class="cls-9" d="M1653.69,729.62a194.66,194.66,0,0,0,5.52,46.69c12-2.47,24.9,9.62,24.9,9.62,14.33,16,28.66,17.48,39.53,14.86V692.57h-66.53A198.71,198.71,0,0,0,1653.69,729.62Z"/><path class="cls-11" d="M1684.11,785.93s-12.88-12.09-24.9-9.62c10.63,42.9,35.47,73,64.43,73.06V800.79C1712.77,803.41,1698.44,801.92,1684.11,785.93Z"/><path class="cls-11" d="M1771.87,791s-9.26-18.79-29.44,0a45.7,45.7,0,0,1-18.79,9.81v48.58h.07c23.87,0,45-20.42,57.59-51.6A20,20,0,0,1,1771.87,791Z"/><path class="cls-10" d="M1483.71,745.89a280.73,280.73,0,0,0,7.94,67.18c17.3-3.56,35.83,13.85,35.83,13.85,20.65,23,41.31,25.15,57,21.36V692.57h-95.82A286.34,286.34,0,0,0,1483.71,745.89Z"/><path class="cls-9" d="M1611.4,834.18c29-27,42.36,0,42.36,0a28.89,28.89,0,0,0,13.57,9.77c11.29-27.83,17.9-61.62,17.9-98.06a286.33,286.33,0,0,0-4.92-53.32h-95.87V848.28A65.62,65.62,0,0,0,1611.4,834.18Z"/><path class="cls-11" d="M1527.48,826.92s-18.53-17.41-35.83-13.85c15.31,61.77,51.09,105.11,92.79,105.13V848.28C1568.79,852.07,1548.13,850,1527.48,826.92Z"/><path class="cls-11" d="M1653.76,834.18s-13.31-27-42.36,0a65.62,65.62,0,0,1-27,14.1V918.2h0c34.34,0,64.67-29.38,82.86-74.25A28.89,28.89,0,0,1,1653.76,834.18Z"/><rect class="cls-12" x="1551.05" y="833.74" width="40.32" height="21.63" transform="translate(3142.41 1689.11) rotate(-180)"/><polygon class="cls-13" points="1571.32 811.05 1595.98 811.05 1596.35 797.7 1571.32 797.7 1571.32 811.05"/><polygon class="cls-14" points="1571.32 797.7 1546.22 797.7 1546.63 811.05 1571.32 811.05 1571.32 797.7"/><polygon class="cls-15" points="1571.32 743.23 1544.58 743.23 1545.15 762.19 1571.32 762.19 1571.32 743.23"/><polygon class="cls-16" points="1571.32 824.13 1595.61 824.13 1595.98 811.05 1571.32 811.05 1571.32 824.13"/><polygon class="cls-15" points="1571.32 781.14 1545.73 781.14 1546.22 797.7 1571.32 797.7 1571.32 781.14"/><polygon class="cls-14" points="1571.32 762.19 1545.15 762.19 1545.73 781.14 1571.32 781.14 1571.32 762.19"/><polygon class="cls-15" points="1546.63 811.05 1547.02 824.13 1571.32 824.13 1571.32 811.05 1546.63 811.05"/><polygon class="cls-16" points="1598.4 724.28 1599.08 699.98 1571.32 699.98 1571.32 724.28 1598.4 724.28"/><polygon class="cls-15" points="1571.32 699.98 1543.28 699.98 1544.01 724.28 1571.32 724.28 1571.32 699.98"/><polygon class="cls-16" points="1571.32 797.7 1596.35 797.7 1596.81 781.14 1571.32 781.14 1571.32 797.7"/><polygon class="cls-14" points="1571.32 743.23 1571.32 724.28 1544.01 724.28 1544.58 743.23 1571.32 743.23"/><polygon class="cls-13" points="1571.32 743.23 1597.87 743.23 1598.4 724.28 1571.32 724.28 1571.32 743.23"/><polygon class="cls-13" points="1571.32 781.14 1596.81 781.14 1597.34 762.19 1571.32 762.19 1571.32 781.14"/><polygon class="cls-16" points="1571.32 762.19 1597.34 762.19 1597.87 743.23 1571.32 743.23 1571.32 762.19"/><polygon class="cls-17" points="1536.21 688.77 1606.16 688.77 1604.56 702.12 1537.81 702.12 1536.21 688.77"/><polygon class="cls-18" points="1546.62 834.27 1571.98 834.55 1571.98 822.53 1544.48 822.53 1546.62 834.27"/><polygon class="cls-19" points="1595.21 834.81 1597.88 822.53 1571.98 822.53 1571.98 834.55 1595.21 834.81"/><polygon class="cls-20" points="1570.99 887.81 1595.23 854.7 1547.14 854.7 1570.99 887.81"/><polygon class="cls-21" points="1570.99 887.81 1588.54 854.7 1582.13 854.7 1570.99 887.81"/><rect class="cls-22" x="1561.19" y="838.15" width="20.02" height="10.95" rx="4.62" transform="translate(3142.41 1687.24) rotate(-180)"/><path class="cls-23" d="M1299.72,671.83h550.86A10.43,10.43,0,0,1,1861,682.06H1289.31A10.41,10.41,0,0,1,1299.72,671.83Z"/><path class="cls-24" d="M1861,682.06v.19h0a10.43,10.43,0,0,1-10.42,10.43H1299.72a10.43,10.43,0,0,1-10.42-10.43h0a1.28,1.28,0,0,1,0-.19Z"/><path class="cls-25" d="M665.29,251.36c-12.77,0-24.43,3.62-33.34,9.57-4.69-13.25-18.35-23.69-35.7-27.27,0-.44,0-.89,0-1.34,0-21.39-22.7-38.73-50.71-38.73s-50.71,17.34-50.71,38.73c-21.29,0-39.51,10-47,24.24a65.13,65.13,0,0,0-16.15-2c-28,0-50.71,17.34-50.71,38.73S403.7,332,431.71,332l233.58-3.17c28,0,50.71-17.34,50.71-38.73S693.3,251.36,665.29,251.36Z"/><path class="cls-25" d="M1526.6,107.49a38.57,38.57,0,0,0-21.31,6.11c-3-8.46-11.71-15.13-22.79-17.41,0-.29,0-.58,0-.86,0-13.67-14.5-24.74-32.39-24.74s-32.39,11.07-32.39,24.74c-13.6,0-25.23,6.4-30,15.48a41.62,41.62,0,0,0-10.32-1.29c-17.89,0-32.39,11.08-32.39,24.74S1359.5,159,1377.39,159l149.21-2c17.88,0,32.39-11.07,32.39-24.74S1544.48,107.49,1526.6,107.49Z"/><path class="cls-25" d="M1864.14,269.67a42.84,42.84,0,0,0-23.71,6.8c-3.34-9.42-13-16.84-25.38-19.39,0-.32,0-.63,0-1,0-15.2-16.14-27.53-36-27.53S1743,240.92,1743,256.12c-15.14,0-28.09,7.14-33.43,17.24a46.07,46.07,0,0,0-11.49-1.44c-19.91,0-36,12.33-36,27.54s16.14,27.54,36,27.54l166.09-2.26c19.91,0,36-12.33,36-27.53S1884.05,269.67,1864.14,269.67Z"/><rect class="cls-26" y="693" width="1920" height="387"/><rect class="cls-27" x="810.14" y="625.81" width="70.17" height="0.92" transform="translate(-3.7 1247.51) rotate(-72.73)"/><polygon class="cls-28" points="854.43 625.42 854.43 621.3 790.1 630.13 792.84 633.85 854.43 625.42 854.43 625.42"/><polygon class="cls-29" points="847.37 668.73 854.43 625.42 792.84 633.85 792.84 673.08 847.37 668.73"/><rect class="cls-27" x="837.17" y="636.85" width="7.24" height="9.68"/><polygon class="cls-30" points="842.71 638.16 837.17 638.16 837.17 636.85 844.41 636.85 844.41 646.52 842.71 646.52 842.71 638.16"/><rect class="cls-27" x="824.71" y="636.85" width="7.24" height="9.68"/><polygon class="cls-30" points="830.25 638.16 824.71 638.16 824.71 636.85 831.95 636.85 831.95 646.52 830.25 646.52 830.25 638.16"/><rect class="cls-27" x="813.85" y="636.85" width="7.24" height="9.68"/><polygon class="cls-30" points="819.39 638.16 813.85 638.16 813.85 636.85 821.09 636.85 821.09 646.52 819.39 646.52 819.39 638.16"/><rect class="cls-27" x="802.87" y="636.85" width="7.24" height="9.68"/><polygon class="cls-30" points="808.41 638.16 802.87 638.16 802.87 636.85 810.11 636.85 810.11 646.52 808.41 646.52 808.41 638.16"/><polygon class="cls-28" points="798.63 633.06 798.63 663.27 792.84 663.27 792.84 633.85 798.63 633.06"/><rect class="cls-27" x="855.36" y="592.76" width="0.92" height="64.9" transform="translate(-3.42 4.71) rotate(-0.31)"/><rect class="cls-27" x="874.02" y="592.75" width="0.92" height="61.63" transform="translate(-17.23 24.9) rotate(-1.62)"/><rect class="cls-27" x="880.57" y="591.82" width="0.92" height="59.22" transform="matrix(0.97, -0.25, 0.25, 0.97, -127.75, 240.96)"/><polygon class="cls-27" points="708.41 676.61 709.33 676.61 709.33 649.8 752.25 625.83 865.02 581.13 864.69 580.28 751.85 625 751.83 625.02 708.41 649.26 708.41 676.61"/><polygon class="cls-27" points="748.21 665.82 709.1 649.12 708.12 650.91 742.03 666.21 748.21 665.82 748.21 665.82"/><rect class="cls-27" x="855.17" y="591.88" width="18.87" height="1.77"/><rect class="cls-27" x="864.17" y="579.66" width="1.37" height="92.47"/><circle class="cls-27" cx="709.46" cy="650.09" r="2.45"/><polygon class="cls-27" points="790.57 671.45 756.44 626.91 750.56 627.58 748.21 672.15 752.13 672.15 754.22 630.96 786.26 671.45 790.57 671.45"/><polygon class="cls-30" points="708.9 673.89 712.57 679.32 705.18 679.32 708.9 673.89 708.9 673.89"/><polygon class="cls-31" points="708.87 673.94 711.19 679.32 708.87 679.32 708.9 674.29 708.87 673.94"/><path class="cls-29" d="M890.1,649.12s3,12.94-4.26,24.71c-5,8-15.32,14.52-15.32,14.52H756.71a22.5,22.5,0,0,1-10.92-7.85c-4.88-6.27-5.58-11.77-5.58-11.77s15.24,2.21,71.82-3.92C875.86,657.9,890.1,649.12,890.1,649.12Z"/><path class="cls-28" d="M812,664.81c63.83-6.91,78.07-15.69,78.07-15.69a31.05,31.05,0,0,1,.62,6.28A209.16,209.16,0,0,1,846,665.62c-27.25,3.35-84.8,4.5-105.42,4.81a14,14,0,0,1-.37-1.7S755.45,670.94,812,664.81Z"/><path class="cls-28" d="M740.6,669.05c0-.21-.05-.32-.05-.32s.87.13,3,.24Z"/><path class="cls-28" d="M870.49,673.83a34.68,34.68,0,0,0,4.86-19.46c11.54-3.06,15.09-5.25,15.09-5.25s3,12.94-4.26,24.71c-5,8-15.32,14.52-15.32,14.52H855.17S865.51,681.87,870.49,673.83Z"/><path class="cls-32" d="M892.43,643.26l1.57,5.86s-23,11.66-75.06,16.63-81.33,3-81.33,3v-4.29s50.64.64,80-3.4C877,652.88,892.43,643.26,892.43,643.26Z"/><path class="cls-33" d="M875.41,649.68c12.73-3.72,17-6.39,17-6.39l1.57,5.86s-5.33,2.7-16.66,6.06A41.55,41.55,0,0,0,875.41,649.68Z"/><path class="cls-32" d="M827.15,681.31c22.52-.8,47.07-6.44,60.22-9.89a27.62,27.62,0,0,1-1.35,2.41c-5,8-15.32,14.52-15.32,14.52H756.89a22.26,22.26,0,0,1-10.12-6.88C764,681.75,802.41,682.2,827.15,681.31Z"/><path class="cls-33" d="M886.05,673.81c-5,8-15.32,14.51-15.32,14.51H855s8.72-5.46,14-12.57c7.18-1.49,13.51-3,18.34-4.31Q886.77,672.63,886.05,673.81Z"/><path class="cls-34" d="M750.3,627.58a3,3,0,1,0,3-3A3,3,0,0,0,750.3,627.58Z"/><path class="cls-27" d="M752.13,627.58a1.18,1.18,0,0,0,2.35,0,1.18,1.18,0,1,0-2.35,0Z"/><path class="cls-34" d="M846,669.12a8.45,8.45,0,1,1,8.45,8.46A8.46,8.46,0,0,1,846,669.12Zm4.31,0a4.14,4.14,0,1,0,4.14-4.14A4.14,4.14,0,0,0,850.29,669.12Z"/><g class="cls-35"><path class="cls-36" d="M859.62,669.06a5.33,5.33,0,0,0-1.15-3.68c-1.69-1.77-2.82-1.67-2.82-1.67l.06-2a7.41,7.41,0,0,1,4.37,2.47c1.7,1.89,1.73,5.47,1.73,5.47Z"/></g><path class="cls-34" d="M823.5,672.15A8.45,8.45,0,1,1,832,680.6,8.46,8.46,0,0,1,823.5,672.15Zm4.31,0A4.14,4.14,0,1,0,832,668,4.14,4.14,0,0,0,827.81,672.15Z"/><g class="cls-35"><path class="cls-36" d="M837.14,672.09a5.33,5.33,0,0,0-1.15-3.68c-1.69-1.77-2.82-1.67-2.82-1.67l.06-2a7.41,7.41,0,0,1,4.37,2.47c1.7,1.89,1.73,5.47,1.73,5.47Z"/></g></g></svg>