<svg id="Layer_1" data-name="Layer 1" xmlns="http://www.w3.org/2000/svg" xmlns:xlink="http://www.w3.org/1999/xlink" viewBox="0 0 343.28 193"><defs><style>.cls-1{fill:none;}.cls-2{clip-path:url(#clip-path);}.cls-3{fill:#fcb040;}.cls-4{fill:#8c8a8b;}.cls-5{fill:#bdbcc1;}.cls-6{fill:#f0f0f2;}.cls-7{fill:#e8e8ea;}.cls-8{fill:#c86102;}.cls-9{fill:#e67703;}.cls-10{fill:#723706;}.cls-11{fill:#d94c36;}.cls-12{fill:#eb6d46;}.cls-13{fill:#009b0b;}.cls-14{fill:#016b06;}.cls-15{fill:#ddb303;}.cls-16{fill:#fcd703;}</style><clipPath id="clip-path"><rect class="cls-1" x="0.14" width="343" height="193"/></clipPath></defs><title>Third</title><g class="cls-2"><rect class="cls-3" width="343" height="193"/><polygon class="cls-4" points="104 65.38 56 146.38 104 146.38 104 65.38"/><polygon class="cls-5" points="104 65.38 152 146.38 104 146.38 104 65.38"/><path class="cls-6" d="M104,65.38,93.06,83.84S94,88.38,99,83.38c0,0,2-1,2,2,0,0,3,4.85,3-1.58Z"/><path class="cls-7" d="M104.06,65.38,115,83.84s-.94,4.54-5.94-.46c0,0-2-1-2,2,0,0-3,4.85-3-1.58Z"/><polygon class="cls-4" points="170.26 46.38 111 146.38 170.26 146.38 170.26 46.38"/><polygon class="cls-5" points="170.26 46.38 229.52 146.38 170.26 146.38 170.26 46.38"/><path class="cls-6" d="M170.26,46.38,156.75,69.17s1.16,5.6,7.34-.57c0,0,2.47-1.24,2.47,2.47,0,0,3.7,6,3.7-1.94Z"/><path class="cls-7" d="M170.33,46.38l13.51,22.79s-1.16,5.6-7.34-.57c0,0-2.46-1.24-2.46,2.47,0,0-3.71,6-3.71-1.94Z"/><polygon class="cls-4" points="233 62 183 146.38 233 146.38 233 62"/><polygon class="cls-5" points="233 62 283 146.38 233 146.38 233 62"/><path class="cls-6" d="M233,62,221.6,81.23s1,4.73,6.19-.48c0,0,2.09-1,2.09,2.08,0,0,3.12,5.06,3.12-1.63Z"/><path class="cls-7" d="M233.06,62l11.4,19.23s-1,4.73-6.19-.48c0,0-2.08-1-2.08,2.08,0,0-3.13,5.06-3.13-1.63Z"/><path class="cls-8" d="M21.5,156h301a4.49,4.49,0,0,0,4.5-4.5H17A4.49,4.49,0,0,0,21.5,156Z"/><path class="cls-9" d="M322.5,147H21.5a4.49,4.49,0,0,0-4.5,4.5H327A4.49,4.49,0,0,0,322.5,147Z"/><path class="cls-9" d="M172.36,152H276V112.39C240.28,110.57,172.36,152,172.36,152Z"/><path class="cls-8" d="M294,121c-3.65-5.66-10-8.21-18-8.61V152h38.36Z"/><path class="cls-9" d="M96.5,152H165V104C141.3,101.76,96.5,152,96.5,152Z"/><path class="cls-8" d="M171,106a12.79,12.79,0,0,0-6-2v48h69.21C213.43,152,171,106,171,106Z"/><path class="cls-9" d="M29.5,152H95V121.53C62.67,117.17,29.5,152,29.5,152Z"/><path class="cls-8" d="M116,131a40.64,40.64,0,0,0-21-9.47V152h49.36C138.71,152,116,131,116,131Z"/><rect class="cls-10" x="284.83" y="94.67" width="1.33" height="28.33" rx="0.67"/><path class="cls-8" d="M280.5,100.83c0,6.54,2.24,11.84,5,11.84V89C282.74,89,280.5,94.3,280.5,100.83Z"/><path class="cls-9" d="M285.5,89v23.67c2.76,0,5-5.3,5-11.84S288.26,89,285.5,89Z"/><rect class="cls-10" x="98.32" y="108.68" width="0.87" height="18.42" rx="0.43"/><path class="cls-8" d="M95.5,112.69c0,4.25,1.46,7.69,3.25,7.69V105C97,105,95.5,108.44,95.5,112.69Z"/><path class="cls-9" d="M98.75,105v15.38c1.79,0,3.25-3.44,3.25-7.69S100.54,105,98.75,105Z"/><rect class="cls-6" x="62.5" y="44" width="41.5" height="4" rx="2"/><rect class="cls-6" x="67" y="52" width="24" height="4" rx="2"/><polygon class="cls-6" points="67.5 46 69.5 53 88.5 54 91.5 46 67.5 46"/><rect class="cls-3" x="58" y="48" width="14" height="4" rx="2"/><rect class="cls-3" x="86.5" y="48" width="19.5" height="4" rx="2"/><rect class="cls-3" x="74" y="48.5" width="10" height="3" rx="1.5"/><rect class="cls-10" x="130.42" y="102.67" width="1.1" height="23.33" rx="0.43"/><path class="cls-8" d="M126.85,107.75c0,5.38,1.85,9.74,4.12,9.74V98C128.7,98,126.85,102.36,126.85,107.75Z"/><path class="cls-9" d="M131,98v19.49c2.27,0,4.12-4.36,4.12-9.74S133.24,98,131,98Z"/><rect class="cls-10" x="226.33" y="114.33" width="1.33" height="17.67" rx="0.67"/><path class="cls-11" d="M219,112a8,8,0,0,0,8,8V104A8,8,0,0,0,219,112Z"/><path class="cls-12" d="M227,104v16a8,8,0,0,0,0-16Z"/><rect class="cls-10" x="49.33" y="124.33" width="1.33" height="17.67" rx="0.67"/><path class="cls-11" d="M42,122a8,8,0,0,0,8,8V114A8,8,0,0,0,42,122Z"/><path class="cls-12" d="M50,114v16a8,8,0,0,0,0-16Z"/><rect class="cls-10" x="71.26" y="113.05" width="0.72" height="22.66" rx="0.36"/><path class="cls-13" d="M68.25,113.05c0,6.66,1.51,12.06,3.38,12.06V101C69.76,101,68.25,106.4,68.25,113.05Z"/><path class="cls-14" d="M71.63,101v24.11c1.86,0,3.37-5.4,3.37-12.06S73.49,101,71.63,101Z"/><rect class="cls-10" x="156.26" y="95.05" width="0.72" height="22.66" rx="0.36"/><path class="cls-13" d="M153.25,95.05c0,6.66,1.51,12.06,3.38,12.06V83C154.76,83,153.25,88.4,153.25,95.05Z"/><path class="cls-14" d="M156.63,83v24.11c1.86,0,3.37-5.4,3.37-12.06S158.49,83,156.63,83Z"/><rect class="cls-10" x="262.98" y="108" width="1.05" height="29.6" rx="0.52"/><polygon class="cls-13" points="263.5 97 258 122.41 263.5 122.41 263.5 97"/><polygon class="cls-14" points="263.5 97 269 122.41 263.5 122.41 263.5 97"/><rect class="cls-10" x="190.98" y="113" width="1.05" height="29.6" rx="0.52"/><polygon class="cls-13" points="191.5 102 186 127.41 191.5 127.41 191.5 102"/><polygon class="cls-14" points="191.5 102 197 127.41 191.5 127.41 191.5 102"/><rect class="cls-10" x="128.24" y="160.53" width="152.14" height="18.11"/><rect class="cls-10" x="40.4" y="156" width="260.82" height="9.06" rx="4.53"/><rect class="cls-10" x="61.22" y="174.11" width="231.84" height="9.06" rx="4.53"/><rect class="cls-3" x="25" y="165.06" width="112.3" height="9.06" rx="4.53"/><rect class="cls-3" x="267.7" y="165.06" width="112.3" height="9.06" rx="4.53"/><rect class="cls-3" x="141.82" y="165" width="49.18" height="9" rx="4.5"/><circle class="cls-3" cx="199.58" cy="169.29" r="3.42"/><circle class="cls-3" cx="211.58" cy="169.29" r="3.42"/><circle class="cls-3" cx="222.58" cy="169.29" r="3.42"/><circle class="cls-15" cx="48.5" cy="36.5" r="20.5"/><circle class="cls-16" cx="48.5" cy="36.5" r="18"/><rect class="cls-6" x="134.5" y="16" width="41.5" height="4" rx="2"/><rect class="cls-6" x="139" y="24" width="24" height="4" rx="2"/><polygon class="cls-6" points="139.5 18 141.5 25 160.5 26 163.5 18 139.5 18"/><rect class="cls-3" x="130" y="20" width="14" height="4" rx="2"/><rect class="cls-3" x="158.5" y="20" width="19.5" height="4" rx="2"/><rect class="cls-3" x="146" y="20.5" width="10" height="3" rx="1.5"/><rect class="cls-6" x="192" y="36" width="41.5" height="4" rx="2" transform="translate(425.5 76) rotate(-180)"/><rect class="cls-6" x="205" y="44" width="24" height="4" rx="2" transform="translate(434 92) rotate(180)"/><polygon class="cls-6" points="228.5 38 226.5 45 207.5 46 204.5 38 228.5 38"/><rect class="cls-3" x="224" y="40" width="14" height="4" rx="2" transform="translate(462 84) rotate(-180)"/><rect class="cls-3" x="190" y="40" width="19.5" height="4" rx="2" transform="translate(399.5 84) rotate(-180)"/><rect class="cls-3" x="212" y="40.5" width="10" height="3" rx="1.5" transform="translate(434 84) rotate(180)"/><rect class="cls-6" x="273.5" y="44" width="41.5" height="4" rx="2"/><rect class="cls-6" x="278" y="52" width="24" height="4" rx="2"/><polygon class="cls-6" points="278.5 46 280.5 53 299.5 54 302.5 46 278.5 46"/><rect class="cls-3" x="269" y="48" width="14" height="4" rx="2"/><rect class="cls-3" x="297.5" y="48" width="19.5" height="4" rx="2"/><rect class="cls-3" x="285" y="48.5" width="10" height="3" rx="1.5"/></g></svg>