<svg xmlns="http://www.w3.org/2000/svg" viewBox="0 0 105.29 104.84"><defs><style>.cls-1{isolation:isolate;}.cls-2{fill:#e30613;}.cls-14,.cls-3,.cls-9{fill:#c80613;}.cls-14,.cls-3,.cls-8{mix-blend-mode:multiply;}.cls-4{fill:#f4a081;mix-blend-mode:color-dodge;}.cls-5{fill:#3d1a0b;}.cls-6{fill:#fff;}.cls-7{fill:#790613;}.cls-10{fill:#623f24;}.cls-11{fill:#a06640;}.cls-12{fill:#279235;}.cls-13{fill:#8abd24;}.cls-14{opacity:0.5;}</style></defs><title>apple5</title><g class="cls-1"><g id="Layer_1" data-name="Layer 1"><path class="cls-2" d="M17.23,33.51a16.4,16.4,0,0,1,12.34-9.4c6.21-.74,7.44,1.47,9.79,2.45s4-.4,7.54-1.77,10.38.79,12.73,4.9a26,26,0,0,1-1,25.46c-5.78,10-13.22,9.69-16.75,8.42-2.74-.78-3.73,1.22-7.7.84A21.3,21.3,0,0,1,16.84,47.22,22.51,22.51,0,0,1,17.23,33.51Z"/><path class="cls-3" d="M35.37,36.23c.07,1.12.47,2,.89,2s.69-1,.61-2.11-.48-2-.89-2S35.29,35.11,35.37,36.23Z"/><path class="cls-4" d="M29.06,27.37s-5.37,2.7-6.7,11.82L19,38.67a18,18,0,0,1,8.31-11.92Z"/><path class="cls-4" d="M18.42,40.85a8.85,8.85,0,0,1,3.08.34c-.57,2.28-.8,3.8-.8,3.8l-1.85-.29A9.23,9.23,0,0,1,18.42,40.85Z"/><path class="cls-5" d="M35.13,36.06c.07,1.12.47,2,.89,1.95s.69-1,.61-2.12-.48-2-.89-2S35.05,34.93,35.13,36.06Z"/><path class="cls-6" d="M35.93,35.11c0,.34.18.59.31.57s.19-.33.14-.66-.19-.59-.31-.57S35.88,34.77,35.93,35.11Z"/><path class="cls-3" d="M43.46,35.22c.08,1.14.48,2,.89,2s.69-1,.62-2.16-.48-2-.9-2S43.38,34.08,43.46,35.22Z"/><path class="cls-5" d="M43.22,35.05c.08,1.14.48,2,.89,2s.69-1,.62-2.15-.48-2-.9-2S43.14,33.91,43.22,35.05Z"/><path class="cls-6" d="M44,34.09c0,.34.19.6.31.57s.19-.33.15-.67-.19-.6-.32-.57S44,33.75,44,34.09Z"/><path class="cls-7" d="M32.11,44.48a6.19,6.19,0,0,0,.22,1.09,7.42,7.42,0,0,0,1.34,2.58,6.76,6.76,0,0,0,1.43,1.32,8.31,8.31,0,0,0,1.94.94,10.39,10.39,0,0,0,2.27.47,12,12,0,0,0,2.4,0A7.28,7.28,0,0,0,44,50.3,6.29,6.29,0,0,0,45.91,49a8.62,8.62,0,0,0,2.1-3.5,13.5,13.5,0,0,0,.62-2.87,10.86,10.86,0,0,0,.08-1.11,8.68,8.68,0,0,1,0,1.12,12.91,12.91,0,0,1-.52,2.91,9.7,9.7,0,0,1-.76,1.84,7.13,7.13,0,0,1-1.32,1.79,6.51,6.51,0,0,1-2,1.35,7.53,7.53,0,0,1-2.39.62,11.8,11.8,0,0,1-2.45,0,10.41,10.41,0,0,1-2.32-.5,7.75,7.75,0,0,1-2-1,7.29,7.29,0,0,1-1.43-1.39,6.45,6.45,0,0,1-.85-1.44,7.05,7.05,0,0,1-.41-1.23A5.11,5.11,0,0,1,32.11,44.48Z"/><path class="cls-7" d="M47.39,40.14a4.23,4.23,0,0,0,.38.45,4.48,4.48,0,0,0,.44.39,3.57,3.57,0,0,0,.56.36c.1.06.21.09.31.14l.31.12.3.08.27.06a2.4,2.4,0,0,0,.24,0l.18,0,.17,0-.17,0a2.11,2.11,0,0,1-.43,0h-.3l-.33,0-.34-.1a3.49,3.49,0,0,1-.34-.15,2.56,2.56,0,0,1-.82-.67,1.88,1.88,0,0,1-.18-.24A1.71,1.71,0,0,1,47.39,40.14Z"/><g class="cls-8"><path class="cls-9" d="M59.63,29.69c-2.35-4.11-9.21-6.27-12.73-4.9s-5.19,2.75-7.54,1.77C38,26,37,25,35.18,24.42a5.25,5.25,0,0,1,1.24,1.16c1.47,2,3.42,3.32,6.36,1.86,5.34-2.65,9.44-1,12,2.88,4.13,6.33,4.06,20.23-3.14,27.28-5,4.12-8.47,4.21-11.12,2.15S34.9,68.42,22.27,58h0A21,21,0,0,0,34.2,64.41c4,.38,5-1.62,7.7-.84,3.53,1.27,11,1.57,16.75-8.42A26,26,0,0,0,59.63,29.69Z"/></g><path class="cls-10" d="M38.3,11.44l0-.06s-.37-.51-1.5,0-1,.83-.55,1.24A3.46,3.46,0,0,0,38.3,11.44Z"/><path class="cls-11" d="M38.3,11.44a3.46,3.46,0,0,1-2.09,1.18c.48.41,4.79,8.68,3.73,15.19a1.91,1.91,0,0,0,.87.24S42,16.75,38.3,11.44Z"/><path class="cls-7" d="M37.31,26.3s2.07,4.06,6.62.38c0,0-2.18,1.33-3.57,1.2A5.54,5.54,0,0,1,37.31,26.3Z"/><path class="cls-12" d="M40.64,22.33C54.91,24.25,55.5,11.21,55.5,11.21S45.92,13.76,40.64,22.33Z"/><path class="cls-13" d="M40.64,22.33C45.92,13.76,55.5,11.21,55.5,11.21,42.45,8.48,40.64,22.33,40.64,22.33Z"/><path class="cls-5" d="M35.5,31.18a1,1,0,0,0-1,1,.1.1,0,0,0,.14.11,0,0,0,0,0,.07,0,1.42,1.42,0,0,1,1.34-.09c.1,0,.19-.07.21-.16A.76.76,0,0,0,35.5,31.18Z"/><path class="cls-5" d="M44,30.32a1,1,0,0,0-1,1,.1.1,0,0,0,.14.1,0,0,0,0,0,.06,0,1.5,1.5,0,0,1,1.35-.09c.1,0,.18-.07.2-.16A.74.74,0,0,0,44,30.32Z"/><path class="cls-7" d="M33.86,37.74S35.5,37,36.92,39A4.73,4.73,0,0,0,33.86,37.74Z"/><path class="cls-7" d="M46,36.9s-1.65-.74-3.07,1.21A4.74,4.74,0,0,1,46,36.9Z"/><path class="cls-14" d="M32,43.89s1.71,6.78,8.26,6.72c5-.12,7.83-4.1,8.37-9-1.29-.19-1.35-2-1.35-2a4.83,4.83,0,0,0,3.72,2,2,2,0,0,1-2,.16s.36,9.75-7.48,10.16C35.66,52.33,31.89,49.61,32,43.89Z"/><path class="cls-2" d="M50.83,34.2a16.43,16.43,0,0,1,12.34-9.41c6.22-.73,7.44,1.47,9.8,2.45s4-.39,7.53-1.76,10.38.78,12.73,4.9a26,26,0,0,1-1,25.46c-5.78,10-13.22,9.69-16.75,8.42-2.74-.79-3.74,1.22-7.71.83A21.31,21.31,0,0,1,50.44,47.9,22.49,22.49,0,0,1,50.83,34.2Z"/><path class="cls-3" d="M69,36.92c.08,1.12.48,2,.9,1.95s.69-1,.61-2.12-.48-2-.89-2S68.9,35.79,69,36.92Z"/><path class="cls-4" d="M62.66,28.05S57.3,30.76,56,39.88l-3.33-.52A18,18,0,0,1,61,27.44Z"/><path class="cls-4" d="M52,41.54a9,9,0,0,1,3.08.33c-.57,2.28-.81,3.8-.81,3.8l-1.85-.28A9.36,9.36,0,0,1,52,41.54Z"/><path class="cls-5" d="M68.73,36.74c.08,1.13.48,2,.9,2s.69-1,.61-2.12-.48-2-.89-2S68.66,35.62,68.73,36.74Z"/><path class="cls-6" d="M69.54,35.8c0,.33.18.59.31.56S70,36,70,35.7s-.19-.59-.31-.56S69.49,35.46,69.54,35.8Z"/><path class="cls-3" d="M77.07,35.91c.08,1.14.47,2,.89,2s.69-1,.61-2.15-.47-2-.89-2S77,34.76,77.07,35.91Z"/><path class="cls-5" d="M76.83,35.74c.08,1.14.47,2,.89,2s.69-1,.61-2.15-.47-2-.89-2S76.75,34.59,76.83,35.74Z"/><path class="cls-6" d="M77.63,34.77c.05.35.19.6.31.58s.19-.33.14-.67-.18-.6-.31-.57S77.58,34.43,77.63,34.77Z"/><path class="cls-7" d="M65.72,45.16a5.34,5.34,0,0,0,.22,1.1,7.34,7.34,0,0,0,1.34,2.58,6.66,6.66,0,0,0,1.42,1.31,7.85,7.85,0,0,0,2,1,10.39,10.39,0,0,0,2.27.47,12.83,12.83,0,0,0,2.4,0,7.55,7.55,0,0,0,2.3-.58,6.45,6.45,0,0,0,1.9-1.29,8.66,8.66,0,0,0,2.1-3.49,13.5,13.5,0,0,0,.62-2.87,11.12,11.12,0,0,0,.08-1.12s0,.41,0,1.13a12.91,12.91,0,0,1-.52,2.91A10,10,0,0,1,81,48.1a7.87,7.87,0,0,1-1.32,1.79,6.89,6.89,0,0,1-2,1.35,7.53,7.53,0,0,1-2.39.62,12.53,12.53,0,0,1-2.45,0,11.09,11.09,0,0,1-2.33-.5,7.85,7.85,0,0,1-2-1,7,7,0,0,1-1.43-1.39,6.34,6.34,0,0,1-.85-1.45,6.72,6.72,0,0,1-.41-1.22A5.23,5.23,0,0,1,65.72,45.16Z"/><path class="cls-7" d="M81,40.83a5.43,5.43,0,0,0,.39.45,4.48,4.48,0,0,0,.44.39,3.52,3.52,0,0,0,.56.35c.1.06.21.1.31.15l.3.11.3.09c.1,0,.19,0,.28.05l.23,0,.19,0,.16,0-.16,0a1.68,1.68,0,0,1-.44,0,1.43,1.43,0,0,1-.29,0,1.88,1.88,0,0,1-.33,0,2.68,2.68,0,0,1-.35-.1,2.52,2.52,0,0,1-.34-.15,2.75,2.75,0,0,1-.59-.42,2.61,2.61,0,0,1-.23-.24l-.17-.24A2,2,0,0,1,81,40.83Z"/><g class="cls-8"><path class="cls-9" d="M93.23,30.38c-2.35-4.12-9.2-6.27-12.73-4.9S75.32,28.22,73,27.24c-1.38-.57-2.37-1.56-4.18-2.13A5.41,5.41,0,0,1,70,26.26c1.47,2,3.42,3.32,6.36,1.86,5.34-2.64,9.44-1,12,2.88,4.13,6.33,4.06,20.23-3.13,27.28-5,4.13-8.48,4.22-11.12,2.16s-5.58,8.66-18.21-1.76h0A20.91,20.91,0,0,0,67.8,65.09c4,.39,5-1.62,7.71-.83,3.53,1.27,11,1.56,16.75-8.42A26,26,0,0,0,93.23,30.38Z"/></g><path class="cls-10" d="M71.91,12.13l0-.06s-.37-.51-1.5,0-1,.82-.55,1.23A3.45,3.45,0,0,0,71.91,12.13Z"/><path class="cls-11" d="M71.91,12.13a3.45,3.45,0,0,1-2.09,1.17c.48.42,4.79,8.69,3.73,15.2a1.77,1.77,0,0,0,.86.23S75.62,17.43,71.91,12.13Z"/><path class="cls-7" d="M70.92,27S73,31,77.53,27.36c0,0-2.18,1.34-3.56,1.2A5.49,5.49,0,0,1,70.92,27Z"/><path class="cls-12" d="M74.25,23C88.52,24.93,89.11,11.9,89.11,11.9S79.52,14.45,74.25,23Z"/><path class="cls-13" d="M74.25,23C79.52,14.45,89.11,11.9,89.11,11.9,76.06,9.17,74.25,23,74.25,23Z"/><path class="cls-5" d="M69.11,31.87a1,1,0,0,0-1,1,.1.1,0,0,0,.14.11,0,0,0,0,0,.06,0,1.5,1.5,0,0,1,1.35-.09c.1,0,.18-.07.2-.15A.75.75,0,0,0,69.11,31.87Z"/><path class="cls-5" d="M77.63,31a1,1,0,0,0-1,1,.11.11,0,0,0,.15.11s0,0,.06,0A1.44,1.44,0,0,1,78.19,32c.1,0,.18-.07.2-.16A.75.75,0,0,0,77.63,31Z"/><path class="cls-7" d="M67.46,38.43s1.65-.74,3.07,1.21A4.74,4.74,0,0,0,67.46,38.43Z"/><path class="cls-7" d="M79.58,37.58s-1.64-.73-3.06,1.21A4.73,4.73,0,0,1,79.58,37.58Z"/><path class="cls-14" d="M65.62,44.57s1.71,6.79,8.26,6.73c5-.12,7.82-4.11,8.36-9-1.28-.18-1.34-2-1.34-2a4.8,4.8,0,0,0,3.71,1.94,2,2,0,0,1-2,.16S83,52.19,75.11,52.6C69.27,53,65.5,50.3,65.62,44.57Z"/><path class="cls-2" d="M5.09,63.66a15.33,15.33,0,0,1,11.52-8.78c5.8-.68,7,1.38,9.14,2.29s3.75-.37,7-1.65,9.69.74,11.88,4.57a24.28,24.28,0,0,1-.91,23.77c-5.4,9.33-12.34,9-15.63,7.86-2.56-.73-3.49,1.14-7.2.78a19.87,19.87,0,0,1-16.21-16A21.07,21.07,0,0,1,5.09,63.66Z"/><path class="cls-3" d="M22,66.2c.08,1,.45,1.87.84,1.82s.64-.92.57-2-.45-1.87-.83-1.83S22,65.15,22,66.2Z"/><path class="cls-4" d="M16.13,57.93s-5,2.52-6.25,11l-3.1-.48a16.79,16.79,0,0,1,7.76-11.13Z"/><path class="cls-4" d="M6.2,70.52a8.13,8.13,0,0,1,2.88.31c-.53,2.12-.75,3.54-.75,3.54L6.6,74.11A8.73,8.73,0,0,1,6.2,70.52Z"/><path class="cls-5" d="M21.8,66c.07,1,.44,1.87.83,1.82s.65-.92.57-2-.44-1.87-.83-1.83S21.73,65,21.8,66Z"/><path class="cls-6" d="M22.55,65.15c0,.32.17.56.29.53s.17-.3.13-.61-.17-.55-.29-.53S22.5,64.84,22.55,65.15Z"/><path class="cls-3" d="M29.58,65.26c.07,1.06.44,1.89.83,1.85s.65-.94.57-2-.44-1.89-.83-1.85S29.51,64.19,29.58,65.26Z"/><path class="cls-5" d="M29.36,65.1c.07,1.06.44,1.89.83,1.85s.64-.94.57-2-.44-1.89-.83-1.85S29.28,64,29.36,65.1Z"/><path class="cls-6" d="M30.11,64.2c0,.32.17.56.28.53s.18-.3.14-.62-.18-.56-.29-.53S30.06,63.88,30.11,64.2Z"/><path class="cls-7" d="M19,73.9a5.92,5.92,0,0,0,.21,1,6.87,6.87,0,0,0,1.25,2.41,6.58,6.58,0,0,0,1.33,1.23,7.68,7.68,0,0,0,1.82.88,10.22,10.22,0,0,0,2.12.44,12,12,0,0,0,2.24,0,7.16,7.16,0,0,0,2.14-.54,6.13,6.13,0,0,0,1.78-1.2,8.12,8.12,0,0,0,2-3.27,13.16,13.16,0,0,0,.58-2.67c.07-.66.07-1,.07-1a10.22,10.22,0,0,1,0,1A12.58,12.58,0,0,1,34,74.92a10.12,10.12,0,0,1-.71,1.72A6.89,6.89,0,0,1,32,78.31a6.22,6.22,0,0,1-1.83,1.26,7.41,7.41,0,0,1-2.23.58,11.67,11.67,0,0,1-2.29,0,9.63,9.63,0,0,1-2.17-.47,6.85,6.85,0,0,1-1.85-.94,6.49,6.49,0,0,1-2.14-2.65,7.22,7.22,0,0,1-.38-1.14A4.8,4.8,0,0,1,19,73.9Z"/><path class="cls-7" d="M33.24,69.85a4.79,4.79,0,0,0,.36.42,5.5,5.5,0,0,0,.42.37,3.3,3.3,0,0,0,.52.33l.28.13.29.11.28.08c.09,0,.18,0,.26,0a.93.93,0,0,0,.22,0l.17,0,.15,0-.15,0a3.33,3.33,0,0,1-.41,0,1.24,1.24,0,0,1-.27,0,1.67,1.67,0,0,1-.31,0c-.1,0-.22,0-.32-.09a3.09,3.09,0,0,1-.32-.14,2.73,2.73,0,0,1-.55-.39,1.51,1.51,0,0,1-.21-.23,2.65,2.65,0,0,1-.17-.22A1.73,1.73,0,0,1,33.24,69.85Z"/><g class="cls-8"><path class="cls-9" d="M44.67,60.09c-2.19-3.83-8.59-5.85-11.88-4.57s-4.85,2.56-7,1.65c-1.28-.53-2.2-1.46-3.9-2A5,5,0,0,1,23,56.26C24.38,58.08,26.2,59.35,29,58c5-2.47,8.81-.91,11.16,2.69,3.85,5.91,3.78,18.89-2.93,25.47-4.66,3.85-7.91,3.93-10.38,2s-5.21,8.09-17-1.65h0a19.56,19.56,0,0,0,11.13,6c3.71.36,4.64-1.51,7.2-.78,3.29,1.19,10.23,1.47,15.63-7.86A24.28,24.28,0,0,0,44.67,60.09Z"/></g><path class="cls-10" d="M24.76,43.06l0-.05s-.35-.48-1.4,0-1,.76-.52,1.15A3.21,3.21,0,0,0,24.76,43.06Z"/><path class="cls-11" d="M24.76,43.06a3.21,3.21,0,0,1-2,1.1c.45.38,4.47,8.1,3.49,14.18a1.64,1.64,0,0,0,.8.22S28.23,48,24.76,43.06Z"/><path class="cls-7" d="M23.84,56.93s1.93,3.79,6.18.35c0,0-2,1.25-3.33,1.12A5.12,5.12,0,0,1,23.84,56.93Z"/><path class="cls-12" d="M27,53.23C40.27,55,40.82,42.85,40.82,42.85S31.87,45.22,27,53.23Z"/><path class="cls-13" d="M27,53.23c4.92-8,13.87-10.38,13.87-10.38C28.64,40.3,27,53.23,27,53.23Z"/><path class="cls-5" d="M22.15,61.49a1,1,0,0,0-.93.91.1.1,0,0,0,.14.1s0,0,.06,0a1.32,1.32,0,0,1,1.25-.08c.1,0,.18-.07.19-.15A.7.7,0,0,0,22.15,61.49Z"/><path class="cls-5" d="M30.1,60.68a1,1,0,0,0-.93.92.1.1,0,0,0,.14.09s0,0,.06,0a1.32,1.32,0,0,1,1.25-.08c.1,0,.18-.07.19-.15A.7.7,0,0,0,30.1,60.68Z"/><path class="cls-7" d="M20.61,67.61a2.4,2.4,0,0,1,2.87,1.13A4.46,4.46,0,0,0,20.61,67.61Z"/><path class="cls-7" d="M31.93,66.82A2.42,2.42,0,0,0,29.06,68,4.46,4.46,0,0,1,31.93,66.82Z"/><path class="cls-14" d="M18.89,73.35s1.6,6.33,7.71,6.28c4.68-.11,7.31-3.84,7.81-8.42-1.2-.17-1.26-1.83-1.26-1.83a4.5,4.5,0,0,0,3.47,1.82,1.9,1.9,0,0,1-1.89.15s.34,9.11-7,9.49C22.3,81.23,18.78,78.69,18.89,73.35Z"/><path class="cls-2" d="M33.45,64.87A15.33,15.33,0,0,1,45,56.09c5.8-.68,6.94,1.38,9.14,2.29s3.75-.37,7-1.65,9.69.74,11.88,4.57a24.31,24.31,0,0,1-.91,23.77c-5.4,9.33-12.34,9.05-15.64,7.86-2.55-.73-3.48,1.14-7.19.78a19.89,19.89,0,0,1-16.21-16A21.07,21.07,0,0,1,33.45,64.87Z"/><path class="cls-3" d="M50.38,67.41c.07,1,.45,1.87.83,1.82s.65-.92.58-2-.45-1.87-.84-1.83S50.31,66.36,50.38,67.41Z"/><path class="cls-4" d="M44.49,59.14s-5,2.52-6.25,11l-3.1-.48a16.8,16.8,0,0,1,7.75-11.13Z"/><path class="cls-4" d="M34.56,71.73a8.13,8.13,0,0,1,2.88.31c-.53,2.12-.75,3.54-.75,3.54L35,75.32A8.73,8.73,0,0,1,34.56,71.73Z"/><path class="cls-5" d="M50.16,67.25c.07,1,.44,1.87.83,1.82s.64-.92.57-2-.44-1.87-.83-1.83S50.09,66.2,50.16,67.25Z"/><path class="cls-6" d="M50.91,66.36c0,.32.17.56.29.53s.17-.3.13-.61-.18-.55-.29-.53S50.86,66.05,50.91,66.36Z"/><path class="cls-3" d="M57.94,66.47c.07,1.06.44,1.89.83,1.85s.65-.94.57-2-.44-1.89-.83-1.85S57.87,65.4,57.94,66.47Z"/><path class="cls-5" d="M57.72,66.31c.07,1.06.44,1.89.83,1.85s.64-.94.57-2-.45-1.89-.83-1.85S57.64,65.24,57.72,66.31Z"/><path class="cls-6" d="M58.46,65.41c0,.32.18.56.29.53s.18-.3.14-.62-.18-.56-.3-.53S58.42,65.09,58.46,65.41Z"/><path class="cls-7" d="M47.34,75.11a5.92,5.92,0,0,0,.21,1,6.87,6.87,0,0,0,1.25,2.41,6.33,6.33,0,0,0,1.33,1.23,7.8,7.8,0,0,0,1.81.88,10.5,10.5,0,0,0,2.12.44,12,12,0,0,0,2.24,0,7.15,7.15,0,0,0,2.15-.54,6.13,6.13,0,0,0,1.78-1.2,8.23,8.23,0,0,0,2-3.27,13.16,13.16,0,0,0,.58-2.67c.07-.66.07-1,.07-1a10.22,10.22,0,0,1,0,1,12.58,12.58,0,0,1-.48,2.72,10.12,10.12,0,0,1-.71,1.72,7.16,7.16,0,0,1-1.24,1.67,6.14,6.14,0,0,1-1.84,1.26,7.27,7.27,0,0,1-2.22.58,11.67,11.67,0,0,1-2.29,0,9.63,9.63,0,0,1-2.17-.47A7.15,7.15,0,0,1,50,79.93a6.39,6.39,0,0,1-1.34-1.3,6,6,0,0,1-.8-1.35,7.22,7.22,0,0,1-.38-1.14A4.8,4.8,0,0,1,47.34,75.11Z"/><path class="cls-7" d="M61.6,71.06a4.79,4.79,0,0,0,.36.42,5,5,0,0,0,.41.36,3.2,3.2,0,0,0,.53.34l.28.13.29.11.28.08c.09,0,.18,0,.26,0a.93.93,0,0,0,.22,0l.17,0,.15,0-.15,0a3.33,3.33,0,0,1-.41,0,1.24,1.24,0,0,1-.27,0,1.67,1.67,0,0,1-.31,0,3,3,0,0,1-.32-.09,3.09,3.09,0,0,1-.32-.14,2.47,2.47,0,0,1-.55-.39A2.39,2.39,0,0,1,62,71.8l-.16-.22A1.73,1.73,0,0,1,61.6,71.06Z"/><g class="cls-8"><path class="cls-9" d="M73,61.3c-2.19-3.83-8.59-5.85-11.88-4.57s-4.85,2.56-7,1.65c-1.28-.53-2.2-1.46-3.9-2a5,5,0,0,1,1.16,1.09c1.37,1.82,3.19,3.09,5.94,1.73,5-2.47,8.8-.91,11.16,2.69,3.85,5.91,3.78,18.89-2.94,25.47-4.65,3.85-7.9,3.93-10.37,2s-5.21,8.09-17-1.65h0a19.53,19.53,0,0,0,11.13,6c3.71.36,4.64-1.51,7.19-.78,3.3,1.19,10.24,1.47,15.64-7.86A24.31,24.31,0,0,0,73,61.3Z"/></g><path class="cls-10" d="M53.12,44.27a.1.1,0,0,0,0-.05s-.34-.48-1.4,0-1,.76-.51,1.15A3.24,3.24,0,0,0,53.12,44.27Z"/><path class="cls-11" d="M53.12,44.27a3.24,3.24,0,0,1-1.95,1.1c.45.38,4.47,8.1,3.48,14.18a1.71,1.71,0,0,0,.81.22S56.59,49.22,53.12,44.27Z"/><path class="cls-7" d="M52.2,58.14s1.92,3.79,6.17.35c0,0-2,1.25-3.32,1.12A5.12,5.12,0,0,1,52.2,58.14Z"/><path class="cls-12" d="M55.31,54.44c13.32,1.78,13.87-10.38,13.87-10.38S60.23,46.43,55.31,54.44Z"/><path class="cls-13" d="M55.31,54.44c4.92-8,13.87-10.38,13.87-10.38C57,41.51,55.31,54.44,55.31,54.44Z"/><path class="cls-5" d="M50.51,62.7a1,1,0,0,0-.93.91c0,.09.07.13.13.1s0,0,.06,0A1.34,1.34,0,0,1,51,63.64c.09,0,.17-.07.19-.15A.7.7,0,0,0,50.51,62.7Z"/><path class="cls-5" d="M58.46,61.89a1,1,0,0,0-.93.92.1.1,0,0,0,.14.09s0,0,.06,0A1.32,1.32,0,0,1,59,62.83c.1,0,.18-.07.19-.15A.7.7,0,0,0,58.46,61.89Z"/><path class="cls-7" d="M49,68.82A2.39,2.39,0,0,1,51.83,70,4.42,4.42,0,0,0,49,68.82Z"/><path class="cls-7" d="M60.29,68a2.42,2.42,0,0,0-2.87,1.13A4.46,4.46,0,0,1,60.29,68Z"/><path class="cls-14" d="M47.25,74.56s1.6,6.33,7.71,6.28c4.68-.11,7.31-3.84,7.81-8.42-1.2-.17-1.26-1.83-1.26-1.83A4.5,4.5,0,0,0,65,72.41a1.9,1.9,0,0,1-1.89.15s.34,9.11-7,9.49C50.66,82.44,47.14,79.9,47.25,74.56Z"/><path class="cls-2" d="M59.11,65.09a15.3,15.3,0,0,1,11.51-8.77c5.81-.69,6.95,1.37,9.14,2.28s3.75-.36,7-1.64,9.69.73,11.89,4.57a24.27,24.27,0,0,1-.92,23.76c-5.39,9.33-12.34,9-15.63,7.87-2.56-.74-3.49,1.14-7.19.77a19.87,19.87,0,0,1-16.21-16A21,21,0,0,1,59.11,65.09Z"/><path class="cls-3" d="M76,67.63c.07,1.05.44,1.87.83,1.83s.65-.93.57-2-.44-1.87-.83-1.83S76,66.58,76,67.63Z"/><path class="cls-4" d="M70.15,59.36s-5,2.53-6.25,11l-3.11-.49a16.79,16.79,0,0,1,7.76-11.13Z"/><path class="cls-4" d="M60.22,72a8.42,8.42,0,0,1,2.88.31c-.53,2.13-.75,3.55-.75,3.55l-1.73-.27A8.69,8.69,0,0,1,60.22,72Z"/><path class="cls-5" d="M75.82,67.47c.07,1,.44,1.87.83,1.83s.64-.93.57-2-.45-1.87-.83-1.83S75.74,66.42,75.82,67.47Z"/><path class="cls-6" d="M76.56,66.59c0,.31.18.55.29.52s.18-.3.13-.61-.17-.55-.29-.53S76.52,66.27,76.56,66.59Z"/><path class="cls-3" d="M83.6,66.69c.07,1.07.44,1.9.83,1.85s.64-.94.57-2-.45-1.9-.83-1.86S83.52,65.62,83.6,66.69Z"/><path class="cls-5" d="M83.37,66.53c.07,1.07.45,1.9.83,1.85s.65-.94.58-2-.45-1.9-.84-1.86S83.3,65.46,83.37,66.53Z"/><path class="cls-6" d="M84.12,65.63c0,.32.17.56.29.54s.18-.31.13-.63-.17-.56-.29-.53S84.08,65.31,84.12,65.63Z"/><path class="cls-7" d="M73,75.33a4.9,4.9,0,0,0,.21,1,6.62,6.62,0,0,0,1.25,2.41A6.33,6.33,0,0,0,75.79,80a7.42,7.42,0,0,0,1.81.88,9.73,9.73,0,0,0,2.12.44,11.18,11.18,0,0,0,2.24,0,6.87,6.87,0,0,0,2.15-.54,6.08,6.08,0,0,0,1.77-1.2,8.11,8.11,0,0,0,2-3.26,13.23,13.23,0,0,0,.57-2.68,7.89,7.89,0,0,0,.07-1,8.29,8.29,0,0,1,0,1A12,12,0,0,1,88,76.35a9.09,9.09,0,0,1-.71,1.72,6.84,6.84,0,0,1-1.23,1.67A6.26,6.26,0,0,1,84.21,81a7.06,7.06,0,0,1-2.23.58,11.68,11.68,0,0,1-2.29,0,10.33,10.33,0,0,1-2.17-.46,7.34,7.34,0,0,1-1.85-.95,6.55,6.55,0,0,1-1.33-1.29,5.89,5.89,0,0,1-.8-1.35,6.06,6.06,0,0,1-.38-1.14A4.92,4.92,0,0,1,73,75.33Z"/><path class="cls-7" d="M87.26,71.29a3.78,3.78,0,0,0,.36.41,3,3,0,0,0,.41.37,3.51,3.51,0,0,0,.52.33c.09.06.2.09.29.14l.29.1.28.08a1.11,1.11,0,0,0,.25,0,1,1,0,0,0,.22,0l.18,0,.15,0-.15,0a1.53,1.53,0,0,1-.41,0,1.34,1.34,0,0,1-.28,0l-.31,0a2.33,2.33,0,0,1-.32-.1,2.12,2.12,0,0,1-.31-.14,2.24,2.24,0,0,1-.56-.39,2.29,2.29,0,0,1-.21-.23,1.53,1.53,0,0,1-.16-.22A1.74,1.74,0,0,1,87.26,71.29Z"/><g class="cls-8"><path class="cls-9" d="M98.69,61.53c-2.2-3.84-8.6-5.85-11.89-4.57s-4.84,2.56-7,1.64c-1.28-.53-2.2-1.45-3.9-2A4.58,4.58,0,0,1,77,57.69c1.37,1.83,3.2,3.1,5.94,1.74,5-2.47,8.81-.92,11.16,2.68C98,68,97.91,81,91.19,87.58c-4.66,3.85-7.91,3.93-10.37,2s-5.21,8.09-17-1.64h0a19.52,19.52,0,0,0,11.14,6c3.7.37,4.63-1.51,7.19-.77,3.29,1.18,10.24,1.46,15.63-7.87A24.27,24.27,0,0,0,98.69,61.53Z"/></g><path class="cls-10" d="M78.78,44.49l0-.05s-.34-.48-1.4,0-1,.77-.51,1.15A3.24,3.24,0,0,0,78.78,44.49Z"/><path class="cls-11" d="M78.78,44.49a3.24,3.24,0,0,1-2,1.1c.45.39,4.47,8.11,3.48,14.18a1.78,1.78,0,0,0,.81.23S82.24,49.44,78.78,44.49Z"/><path class="cls-7" d="M77.85,58.36s1.93,3.79,6.18.36a7.4,7.4,0,0,1-3.33,1.12A5.21,5.21,0,0,1,77.85,58.36Z"/><path class="cls-12" d="M81,54.66c13.32,1.79,13.88-10.38,13.88-10.38S85.89,46.66,81,54.66Z"/><path class="cls-13" d="M81,54.66c4.93-8,13.88-10.38,13.88-10.38C82.65,41.73,81,54.66,81,54.66Z"/><path class="cls-5" d="M76.17,62.92a1,1,0,0,0-.93.92.1.1,0,0,0,.13.1s0,0,.06,0a1.4,1.4,0,0,1,1.26-.08c.09,0,.17-.07.19-.15A.7.7,0,0,0,76.17,62.92Z"/><path class="cls-5" d="M84.12,62.11a1,1,0,0,0-.93.92.1.1,0,0,0,.13.1s0,0,.06,0a1.4,1.4,0,0,1,1.26-.08c.09,0,.17-.07.19-.15A.7.7,0,0,0,84.12,62.11Z"/><path class="cls-7" d="M74.63,69a2.4,2.4,0,0,1,2.86,1.13A4.42,4.42,0,0,0,74.63,69Z"/><path class="cls-7" d="M85.94,68.25a2.4,2.4,0,0,0-2.86,1.14A4.41,4.41,0,0,1,85.94,68.25Z"/><path class="cls-14" d="M72.91,74.78s1.59,6.33,7.71,6.28c4.68-.11,7.3-3.83,7.81-8.42-1.21-.17-1.26-1.82-1.26-1.82a4.5,4.5,0,0,0,3.47,1.81,1.9,1.9,0,0,1-1.9.15s.35,9.11-7,9.49C76.31,82.66,72.8,80.12,72.91,74.78Z"/></g></g></svg>