<svg id="Layer_1" data-name="Layer 1" xmlns="http://www.w3.org/2000/svg" xmlns:xlink="http://www.w3.org/1999/xlink" viewBox="0 0 1920 1080"><defs><style>.cls-1{fill:none;}.cls-2{fill:#78d0f0;}.cls-3{clip-path:url(#clip-path);}.cls-11,.cls-12,.cls-13,.cls-14,.cls-15,.cls-4,.cls-5{fill-rule:evenodd;}.cls-4{fill:url(#Áåçûìÿííûé_ãðàäèåíò_138);}.cls-5{fill:url(#Áåçûìÿííûé_ãðàäèåíò_138-2);}.cls-6{fill:url(#Áåçûìÿííûé_ãðàäèåíò_138-3);}.cls-7{fill:#77242e;}.cls-8{fill:#884c2e;}.cls-9{fill:url(#Áåçûìÿííûé_ãðàäèåíò_138-4);}.cls-10{fill:url(#Áåçûìÿííûé_ãðàäèåíò_138-5);}.cls-11,.cls-29{fill:#25b9e4;}.cls-12,.cls-28{fill:#017bb4;}.cls-13{fill:url(#Áåçûìÿííûé_ãðàäèåíò_138-6);}.cls-14{fill:url(#Áåçûìÿííûé_ãðàäèåíò_138-7);}.cls-15{fill:#652c27;}.cls-16{fill:url(#Áåçûìÿííûé_ãðàäèåíò_138-8);}.cls-17{fill:url(#Áåçûìÿííûé_ãðàäèåíò_138-9);}.cls-18{fill:#bcd7e3;}.cls-19{fill:#b2c9d1;}.cls-20{fill:#050505;}.cls-21{fill:#0488bc;}.cls-22{fill:#7a7b7f;}.cls-23{fill:#4f5455;}.cls-24{fill:#787c81;}.cls-25{fill:#9f9ba5;}.cls-26{fill:#005b2e;}.cls-27{fill:#076b36;}.cls-30{fill:#774d37;}.cls-31{fill:#aa7454;}</style><clipPath id="clip-path"><rect class="cls-1" width="1920" height="1080"/></clipPath><linearGradient id="Áåçûìÿííûé_ãðàäèåíò_138" x1="1365.95" y1="623.36" x2="1365.95" y2="497.3" gradientUnits="userSpaceOnUse"><stop offset="0" stop-color="#6c2f55"/><stop offset="0.34" stop-color="#6c2748"/><stop offset="0.96" stop-color="#6d1227"/><stop offset="1" stop-color="#6d1025"/></linearGradient><linearGradient id="Áåçûìÿííûé_ãðàäèåíò_138-2" x1="577.3" y1="640.89" x2="577.3" y2="524.56" xlink:href="#Áåçûìÿííûé_ãðàäèåíò_138"/><linearGradient id="Áåçûìÿííûé_ãðàäèåíò_138-3" x1="970.87" y1="744.57" x2="970.87" y2="621.9" xlink:href="#Áåçûìÿííûé_ãðàäèåíò_138"/><linearGradient id="Áåçûìÿííûé_ãðàäèåíò_138-4" x1="576.03" y1="579.46" x2="1372.75" y2="579.46" xlink:href="#Áåçûìÿííûé_ãðàäèåíò_138"/><linearGradient id="Áåçûìÿííûé_ãðàäèåíò_138-5" x1="570.37" y1="588.38" x2="1372.71" y2="588.38" xlink:href="#Áåçûìÿííûé_ãðàäèåíò_138"/><linearGradient id="Áåçûìÿííûé_ãðàäèåíò_138-6" x1="784.01" y1="685.7" x2="784.01" y2="591.24" xlink:href="#Áåçûìÿííûé_ãðàäèåíò_138"/><linearGradient id="Áåçûìÿííûé_ãðàäèåíò_138-7" x1="1146.57" y1="646.49" x2="1146.57" y2="585.64" xlink:href="#Áåçûìÿííûé_ãðàäèåíò_138"/><linearGradient id="Áåçûìÿííûé_ãðàäèåíò_138-8" x1="375.35" y1="601.46" x2="572.18" y2="601.46" xlink:href="#Áåçûìÿííûé_ãðàäèåíò_138"/><linearGradient id="Áåçûìÿííûé_ãðàäèåíò_138-9" x1="1375.53" y1="582.75" x2="1544.65" y2="582.75" xlink:href="#Áåçûìÿííûé_ãðàäèåíò_138"/></defs><title>WaterFallScenery</title><rect class="cls-2" width="1920" height="1080"/><g class="cls-3"><polygon class="cls-4" points="1353.89 623.36 1365.81 502.72 1378.01 497.3 1361.83 597.57 1362.83 603.22 1357.86 622.57 1353.89 623.36"/><polygon class="cls-5" points="586.62 640.89 564.55 524.56 573.82 524.56 581.1 587.72 583.25 589.38 590.04 640.89 586.62 640.89"/><path class="cls-6" d="M1001.49,744.57c-3.9,0-7.82-.05-11.77-.13-113.85-2.4-212.94-31-276-54.6-65.5-24.49-106.79-48.76-110.49-51l-19.26,1-.12-1.34,19.93-1,.27.16c1.66,1,168.47,100.85,385.74,105.44,113.42,2.4,204.73-30.48,261.33-58.47,61.36-30.35,96.32-61.67,96.67-62l.24-.21,9.79-.53.12,1.34-9.06.49c-3.21,2.83-37.88,32.87-96.76,62C1197.25,712.87,1110,744.57,1001.49,744.57Z"/><polygon class="cls-7" points="584.16 644.47 646.04 654.83 648.86 649.65 611.74 636.89 606.61 646.06 602.18 643.52 584.16 644.47"/><polygon class="cls-7" points="619.39 653 675.67 682.12 681.86 672.45 672.69 666.83 668.51 676.47 619.39 653"/><polygon class="cls-7" points="681.86 682.16 708.97 698.13 736.08 706.04 738.98 698.13 736.08 691.57 733.27 700.16 681.86 682.16"/><path class="cls-8" d="M606.6,646.06c-2-1.11-3.44-2-4.42-2.54l-18,1L583.61,634l21.21-1.11,1.38.84s1.94,1.17,5.54,3.2Z"/><path class="cls-8" d="M1001.69,749.15q-6,0-12.05-.12c-13.64-.29-27.54-1-41.31-2l.79-10.48c13.58,1,27.29,1.68,40.74,2q6,.13,11.83.13h1l.05,10.51Zm15.53-.21-2.3-14.55h55.33l1.29,10.43C1053.62,747.06,1035.34,748.44,1017.22,748.94Zm-83.33-3.13c-17.82-1.67-36-4-53.92-6.91l1.68-10.38c17.72,2.88,35.63,5.17,53.21,6.82Zm152.05-3-1.56-10.4c17.53-2.64,35.17-6.19,52.44-10.53l2.55,10.2C1121.77,736.53,1103.8,740.14,1085.94,742.84Zm-220.26-6.38c-17.64-3.18-35.52-7-53.15-11.31l2.5-10.22c17.41,4.28,35.08,8,52.51,11.18Zm287.74-8.07-2.81-10.13c17.09-4.77,34.19-10.42,50.8-16.81l3.75,9.82C1188.24,717.77,1170.83,723.53,1153.42,728.39ZM798.7,725.7l-52.32-19.55,3.27-10c17,5.6,34.33,10.72,51.5,15.24Zm420-19.82-4-9.72L1261,669.84l7,12.84C1252.05,691.13,1235.45,698.94,1218.67,705.88Zm-485.4-5.72-51.41-18,4-9.71c16.36,6.81,33.25,13.24,50.2,19.12Zm-64.76-23.69C651,668.85,634.5,661,619.39,653l3.63-6.94c10.23,5.38,28.18,11.4,49.67,20.77Zm612.27-.77-5.13-9.17a506.37,506.37,0,0,0,45.2-28.61l6.08,8.57A517.14,517.14,0,0,1,1280.78,675.7Z"/><path class="cls-8" d="M1338.61,637.85l-6.37-8.35c8.25-6.34,12.64-10.29,12.69-10.33l1.37-1.24,11.28-.61.56,10.5-7.62.41C1348.55,629.93,1344.56,633.28,1338.61,637.85Z"/><polygon class="cls-7" points="801.15 711.4 810.86 719.32 809.76 727.32 799.31 727.33 757.88 713.28 746.38 706.15 798.7 725.7 801.15 711.4"/><polygon class="cls-7" points="812.53 725.15 824.65 730.71 867.54 739.79 870.42 732.47 867.54 726.11 865.68 736.46 812.53 725.15"/><polygon class="cls-7" points="879.97 738.9 899.34 745.81 934.86 748.94 936.86 740.8 934.86 735.34 933.89 745.81 879.97 738.9"/><polygon class="cls-7" points="948.33 747.03 960.25 749.15 1002.7 751 1002.7 749.15 948.33 747.03"/><polygon class="cls-7" points="1017.22 748.94 1017.22 751 1061.16 748.94 1071.55 744.82 1017.22 748.94"/><polygon class="cls-7" points="1084.38 732.44 1081.24 738.22 1084.38 747.03 1134.59 736.46 1139.37 732.11 1085.94 742.84 1084.38 732.44"/><polygon class="cls-7" points="1150.61 718.26 1147.52 724.55 1149.07 734.39 1202.12 714.92 1205.16 711.27 1153.42 728.39 1150.61 718.26"/><polygon class="cls-7" points="1214.67 696.16 1206.21 705.23 1210.86 713.27 1262.37 687.86 1268.01 682.68 1218.67 705.88 1214.67 696.16"/><polygon class="cls-7" points="1275.65 666.53 1268.01 675.7 1270.04 681.98 1281.23 679.37 1324.38 650.25 1326.93 646.49 1280.78 675.7 1275.65 666.53"/><polygon class="cls-7" points="1332.24 629.5 1322.59 640.37 1326.93 646.49 1351.08 631.32 1357.39 630.26 1358.14 627.82 1350.52 628.23 1338.61 637.85 1332.24 629.5"/><path class="cls-9" d="M942.43,629.75c-119.39,0-212-21.6-268.95-39.89-62.78-20.16-97.12-40.77-97.45-41l1.08-1.06c.33.21,34.53,20.73,97.11,40.81,57.76,18.53,152.18,40.52,274.1,39.75,127.63-.76,235.95-27.7,304.34-50.16,74.12-24.34,118.63-48.81,119.07-49.05l1,1.08c-.44.25-45.07,24.8-119.35,49.19C1184.85,602,1076.27,629,948.34,629.73Z"/><path class="cls-10" d="M901.43,644.26q-36.09,0-70.35-3.19c-99.85-9.31-187.56-39.16-260.71-88.71l1.15-1c165.05,111.82,373.79,100.75,519.84,71.78,158.36-31.41,279.21-90,280.41-90.64l.94,1.13c-1.2.59-122.25,59.34-280.87,90.81C1025.3,637.63,961.53,644.26,901.43,644.26Z"/><polygon class="cls-11" points="590.04 633.63 597.68 629.08 613.65 634.86 688.97 672.45 796.63 707.91 862.28 725.15 815.03 714.93 813.29 722.03 799.7 717.21 801.15 711.4 749.65 696.16 747.28 703.4 734.58 696.16 736.08 691.57 685.88 672.45 683.4 677.11 670.26 672.45 672.69 666.83 623.02 646.06 621.82 648.35 619.39 653 616.51 725.7 611.74 732.47 608.11 777.64 611.74 650.8 608.11 653 608.09 718.43 602.23 632.85 590.04 633.63"/><polygon class="cls-12" points="1346.3 617.93 1340.37 617.32 1292.6 654.78 1258.67 668.23 1175.99 706.66 1105.68 725.7 1075 734.39 1036.25 730.56 1030.42 734.39 1070.25 734.39 1071.55 744.82 1071.55 772.09 1073.21 772.09 1075.89 827 1077.21 745.81 1079.86 744.82 1081.24 769.45 1084.38 747.03 1084.38 732.44 1110.31 728.39 1136.82 721.91 1139.37 732.11 1139.37 740.34 1142.97 728.39 1143.75 729.6 1148.12 728.39 1150.61 718.26 1177.89 709.89 1201.41 701.45 1205.16 711.27 1214.67 708.04 1214.67 696.16 1261.04 669.84 1266.9 680.64 1280.78 675.7 1275.65 666.53 1302.37 650.43 1320.85 637.92 1324.88 643.59 1335.52 641.09 1332.24 629.5 1346.3 617.93"/><polygon class="cls-12" points="859.5 724.42 861.89 722.16 921.36 733.95 881.64 728.52 880.25 737.16 867.54 726.11 859.5 724.42"/><polygon class="cls-11" points="934.86 735.34 980.66 734.39 1002.65 738.64 974.89 738.64 949.12 736.54 948.64 742.85 934.86 745.81 934.86 735.34"/><path class="cls-13" d="M680.17,591.24s39,18.24,108,29.1l4.11-3,4.35,68.38V621.36l4.53-1,2.63,4.59,1.32-2.36s25.6,6.92,49.44,6.51,30.63-1.66,30.63-1.66l2.69,9.47v-9.31S752.75,611.88,680.17,591.24Z"/><path class="cls-14" d="M1056,629.08s88.73-15,181.08-43.44l-7.4,60.85,4.41-58.17-7.95,2.92s-5.41,17.22-56.33,16.54l-4.13,8.28-.39-8.07S1103.4,627.69,1056,629.08Z"/><polygon class="cls-12" points="1346.3 617.93 1357.58 617.32 1357.39 630.26 1351.08 631.32 1450.4 632.7 1382.64 627.82 1379.55 626.12 1383.08 609.14 1378.01 623.36 1378.01 611.01 1361.57 608.13 1358.14 616.06 1360.35 608.13 1346.34 611.09 1346.3 617.93"/><polygon class="cls-12" points="590.04 633.63 583.61 633.97 584.16 644.47 541.33 646.06 539.08 635.75 541.33 635.24 541.99 643.77 545.29 632.85 577.3 629.08 580.88 637.57 577.3 621.62 591.48 618.82 590.04 633.63"/><polygon class="cls-15" points="1360.13 527.91 1360.13 543.19 1372.24 543.19 1378.01 527.91 1360.13 527.91"/><polygon class="cls-15" points="564.55 544.46 577.3 542.17 578.9 559.82 568.14 560.63 564.55 544.46"/><polygon class="cls-16" points="376.26 648.67 375.35 647.53 571.26 554.25 572.18 555.39 376.26 648.67"/><polygon class="cls-17" points="1543.59 632.97 1375.53 533.59 1376.6 532.52 1544.65 631.9 1543.59 632.97"/><polygon class="cls-15" points="1556.72 516.73 1559.95 505.57 1564 505.57 1560.36 517.42 1556.72 516.73"/><polygon class="cls-15" points="391.43 535.8 389 527.66 393.16 524.78 394.3 535.8 391.43 535.8"/><path class="cls-18" d="M400.94,81.11a318.72,318.72,0,0,0-42.58,2.74c-7.62-13-29.67-22.45-55.7-22.45-28.2,0-51.73,11.05-57.3,25.77-3.83-.17-7.74-.26-11.71-.26C187.45,86.91,150,98.59,150,113s37.45,26.08,83.65,26.08A251.54,251.54,0,0,0,266.26,137a239.46,239.46,0,0,0,32.22,2.05c18.63,0,35.35-1.87,46.84-4.85a300.66,300.66,0,0,0,55.62,4.85c55.44,0,100.38-13,100.38-29S456.38,81.11,400.94,81.11Z"/><path class="cls-19" d="M313.14,108.2A321.67,321.67,0,0,0,270.35,111c-7.65-13.08-29.81-22.55-56-22.55-28.33,0-52,11.1-57.58,25.89-3.84-.17-7.77-.26-11.76-.26C98.63,114,61,125.76,61,140.24s37.63,26.21,84.05,26.21a252.09,252.09,0,0,0,32.76-2.06,240.15,240.15,0,0,0,32.37,2.06c18.73,0,35.53-1.88,47.08-4.88a300.61,300.61,0,0,0,55.88,4.88c55.7,0,100.86-13,100.86-29.12S368.84,108.2,313.14,108.2Z"/><path class="cls-18" d="M1481.63,75.47a374,374,0,0,1,49.91,3.21c8.92-15.27,34.76-26.31,65.27-26.31,33,0,60.62,12.95,67.15,30.2q6.72-.3,13.72-.31c54.14,0,98,13.69,98,30.58s-43.88,30.57-98,30.57a294.05,294.05,0,0,1-38.21-2.41,279.7,279.7,0,0,1-37.76,2.41c-21.83,0-41.44-2.2-54.9-5.7-18.66,3.6-41.07,5.7-65.18,5.7-65,0-117.63-15.21-117.63-34S1416.66,75.47,1481.63,75.47Z"/><path class="cls-19" d="M1584.52,107.22a377.56,377.56,0,0,1,50.15,3.22c9-15.34,34.93-26.43,65.58-26.43,33.2,0,60.91,13,67.47,30.34,4.51-.19,9.11-.3,13.79-.3,54.39,0,98.49,13.75,98.49,30.71s-44.1,30.72-98.49,30.72a295.23,295.23,0,0,1-38.4-2.42,280.49,280.49,0,0,1-37.93,2.42c-21.94,0-41.64-2.21-55.17-5.72-18.75,3.61-41.26,5.72-65.49,5.72-65.27,0-118.19-15.28-118.19-34.13S1519.25,107.22,1584.52,107.22Z"/><path class="cls-20" d="M1703,250.12s61.88,20,64.45,26c0,0,64.46-26,72.19-26,0,0-61.87,24-69.61,33.95C1770,284.07,1718.47,252.12,1703,250.12Z"/><path class="cls-20" d="M483,255s42.93,13.85,44.72,18c0,0,44.72-18,50.09-18,0,0-42.94,16.63-48.3,23.55C529.51,278.57,493.73,256.4,483,255Z"/><path class="cls-20" d="M1374,800.12s34.32,11.08,35.75,14.4c0,0,35.76-14.4,40-14.4,0,0-34.33,13.3-38.62,18.83C1411.18,819,1382.58,801.23,1374,800.12Z"/><path class="cls-20" d="M1366,295.68s21.75,7,22.66,9.13c0,0,22.65-9.13,25.37-9.13,0,0-21.75,8.42-24.47,11.93C1389.56,307.61,1371.44,296.38,1366,295.68Z"/><path class="cls-20" d="M41,724.53s27.49,8.87,28.63,11.54c0,0,28.63-11.54,32.07-11.54,0,0-27.49,10.65-30.92,15.08C70.78,739.61,47.87,725.42,41,724.53Z"/><path class="cls-20" d="M586,718.86s32.4,10.46,33.75,13.6c0,0,33.75-13.6,37.8-13.6,0,0-32.4,12.55-36.45,17.78C621.1,736.64,594.1,719.91,586,718.86Z"/><path class="cls-18" d="M593.43,409.71a167.39,167.39,0,0,0-22.31,1.43c-4-6.82-15.53-11.76-29.17-11.76-14.77,0-27.09,5.79-30,13.5-2-.09-4.05-.14-6.13-.14-24.2,0-43.81,6.12-43.81,13.67s19.61,13.66,43.81,13.66A130.22,130.22,0,0,0,522.89,439a123.86,123.86,0,0,0,16.87,1.08c9.76,0,18.52-1,24.54-2.54a157.61,157.61,0,0,0,29.13,2.54c29,0,52.57-6.8,52.57-15.18S622.46,409.71,593.43,409.71Z"/><path class="cls-18" d="M1336,735.37a110.48,110.48,0,0,1,18.67,1.53c3.34-7.26,13-12.52,24.41-12.52,12.36,0,22.68,6.16,25.12,14.37q2.52-.15,5.13-.15c20.25,0,36.67,6.51,36.67,14.54s-16.42,14.54-36.67,14.54a86.54,86.54,0,0,1-14.29-1.15,82.41,82.41,0,0,1-14.12,1.15c-8.17,0-15.5-1-20.54-2.71a104.23,104.23,0,0,1-24.38,2.71c-24.3,0-44-7.23-44-16.15S1311.7,735.37,1336,735.37Z"/><rect class="cls-21" y="869" width="1920" height="211"/><polygon class="cls-22" points="1474.42 464.4 1502.62 520.33 1455.12 520.33 1455.12 464.4 1474.42 464.4"/><polygon class="cls-23" points="1429.94 476.16 1411.29 513.07 1455.12 513.07 1455.12 473.61 1429.94 476.16"/><path class="cls-24" d="M1455.12,426.32,1419.43,497c3-1.65,18.27-9.82,31.11-3.16a22.22,22.22,0,0,1,4.58,3.16Z"/><polygon class="cls-23" points="1419.43 496.96 1347.98 638.39 1455.12 638.39 1455.12 496.96 1419.43 496.96"/><path class="cls-25" d="M1455.12,426.32V497a29,29,0,0,1,10.59-5.06c12.48-3,22.86,3.56,25.1,5.06Z"/><polygon class="cls-22" points="1562.26 638.39 1490.81 496.96 1455.12 496.96 1455.12 638.39 1562.26 638.39"/><polygon class="cls-22" points="1535.73 483.82 1560.75 533.45 1518.6 533.45 1518.6 483.82 1535.73 483.82"/><polygon class="cls-23" points="1496.25 494.26 1479.7 527.02 1518.6 527.02 1518.6 492 1496.25 494.26"/><path class="cls-24" d="M1518.6,450l-31.67,62.69c2.62-1.46,16.21-8.71,27.6-2.8a19.69,19.69,0,0,1,4.07,2.8Z"/><polygon class="cls-23" points="1486.93 512.71 1423.52 638.23 1518.6 638.23 1518.6 512.71 1486.93 512.71"/><path class="cls-25" d="M1518.6,450v62.69a25.8,25.8,0,0,1,9.4-4.49c11.08-2.69,20.28,3.16,22.27,4.49Q1534.43,481.38,1518.6,450Z"/><polygon class="cls-22" points="1613.68 638.23 1550.27 512.71 1518.6 512.71 1518.6 638.23 1613.68 638.23"/><polygon class="cls-22" points="1443.17 530.01 1425.6 564.86 1455.2 564.86 1455.2 530.01 1443.17 530.01"/><polygon class="cls-23" points="1470.89 537.34 1482.51 560.34 1455.2 560.34 1455.2 535.75 1470.89 537.34"/><path class="cls-24" d="M1455.2,506.28l22.24,44c-1.84-1-11.39-6.12-19.38-2a13.74,13.74,0,0,0-2.86,2Z"/><polygon class="cls-23" points="1477.44 550.3 1521.96 638.43 1455.2 638.43 1455.2 550.3 1477.44 550.3"/><path class="cls-25" d="M1455.2,506.28v44a17.87,17.87,0,0,0-6.6-3.15c-7.78-1.9-14.24,2.21-15.64,3.15Q1444.07,528.28,1455.2,506.28Z"/><polygon class="cls-22" points="1388.43 638.43 1432.96 550.3 1455.2 550.3 1455.2 638.43 1388.43 638.43"/><polygon class="cls-22" points="1752.72 464.4 1724.53 520.33 1772.02 520.33 1772.02 464.4 1752.72 464.4"/><polygon class="cls-23" points="1797.2 476.16 1815.85 513.07 1772.02 513.07 1772.02 473.61 1797.2 476.16"/><path class="cls-24" d="M1772,426.32,1807.71,497c-3-1.65-18.27-9.82-31.1-3.16A22,22,0,0,0,1772,497Z"/><polygon class="cls-23" points="1807.71 496.96 1879.16 638.39 1772.02 638.39 1772.02 496.96 1807.71 496.96"/><path class="cls-25" d="M1772,426.32V497a29,29,0,0,0-10.58-5.06c-12.49-3-22.86,3.56-25.1,5.06Z"/><polygon class="cls-22" points="1664.88 638.39 1736.34 496.96 1772.02 496.96 1772.02 638.39 1664.88 638.39"/><polygon class="cls-22" points="1691.41 483.82 1666.39 533.45 1708.54 533.45 1708.54 483.82 1691.41 483.82"/><polygon class="cls-23" points="1730.89 494.26 1747.44 527.02 1708.54 527.02 1708.54 492 1730.89 494.26"/><path class="cls-24" d="M1708.54,450l31.67,62.69c-2.62-1.46-16.21-8.71-27.6-2.8a19.69,19.69,0,0,0-4.07,2.8Z"/><polygon class="cls-23" points="1740.21 512.71 1803.63 638.23 1708.54 638.23 1708.54 512.71 1740.21 512.71"/><path class="cls-25" d="M1708.54,450v62.69a25.82,25.82,0,0,0-9.39-4.49c-11.08-2.69-20.29,3.16-22.28,4.49Q1692.71,481.38,1708.54,450Z"/><polygon class="cls-22" points="1613.46 638.23 1676.87 512.71 1708.54 512.71 1708.54 638.23 1613.46 638.23"/><polygon class="cls-22" points="1783.97 530.01 1801.54 564.86 1771.94 564.86 1771.94 530.01 1783.97 530.01"/><polygon class="cls-23" points="1756.25 537.34 1744.63 560.34 1771.94 560.34 1771.94 535.75 1756.25 537.34"/><path class="cls-24" d="M1771.94,506.28l-22.23,44c1.84-1,11.38-6.12,19.38-2a13.44,13.44,0,0,1,2.85,2Z"/><polygon class="cls-23" points="1749.71 550.3 1705.18 638.43 1771.94 638.43 1771.94 550.3 1749.71 550.3"/><path class="cls-25" d="M1771.94,506.28v44a17.87,17.87,0,0,1,6.6-3.15c7.78-1.9,14.25,2.21,15.64,3.15Q1783.07,528.28,1771.94,506.28Z"/><polygon class="cls-22" points="1838.71 638.43 1794.18 550.3 1771.94 550.3 1771.94 638.43 1838.71 638.43"/><path class="cls-23" d="M1613.68,637.64h-63.32l11.9-23.55H1455.12v23.35h-66.68l0,0H1348l71.45,141.43h0l35.69,70.64,19.24-38.09h.06l18.44-36.57,25.74,51q8.54-16.89,17.08-33.79h0l25-49.64h0ZM1455.2,755.54v0h27.87v0Z"/><path class="cls-23" d="M1836.47,637.48l0,0h-66.69V614.09H1662.67l11.9,23.55h-63.32l52.94,104.79,25,49.62h.06l17.07,33.79,25.74-51,18.44,36.57h.06l19.24,38.09,35.69-70.64h0L1877,637.48Zm-94.61,118h27.87v0h-27.88Z"/><path class="cls-22" d="M1518.57,657.1h26.25a0,0,0,0,1,0,0v94.1a13.12,13.12,0,0,1-13.12,13.12h0a13.12,13.12,0,0,1-13.12-13.12V657.1A0,0,0,0,1,1518.57,657.1Z"/><path class="cls-22" d="M1679.41,657.1h26.25a0,0,0,0,1,0,0v94.1a13.12,13.12,0,0,1-13.12,13.12h0a13.12,13.12,0,0,1-13.12-13.12V657.1A0,0,0,0,1,1679.41,657.1Z"/><path class="cls-26" d="M1838.2,612s1-42-37-17.7c0,0-46.77-16.12-40.77,20.22,0,0-4.74-31.28-55.62-20.22,0,0-40.77-6-38.87,14.54,0,0-42.61,3-52.45,18.77-9.83-15.74-52.44-18.77-52.44-18.77,1.9-20.55-38.87-14.54-38.87-14.54-50.89-11.06-55.63,20.22-55.63,20.22,6-36.34-40.77-20.22-40.77-20.22-37.92-24.34-37,17.7-37,17.7-53.4-19.4-42.31,24.57-40.9,29.56-1.41,1.89-12.5,18.47,40.9,11.15,0,0-.94,15.86,37,6.68,0,0,46.78,6.08,40.77-7.63,0,0,4.74,11.8,55.63,7.63,0,0,40.77,2.26,38.87-5.48,0,0,42.61-1.15,52.44-7.08,9.84,5.93,52.45,7.08,52.45,7.08-1.9,7.74,38.87,5.48,38.87,5.48,50.88,4.17,55.62-7.63,55.62-7.63-6,13.71,40.77,7.63,40.77,7.63,37.93,9.18,37-6.68,37-6.68,53.4,7.32,42.31-9.26,40.9-11.15C1880.51,636.57,1891.6,592.6,1838.2,612Z"/><path class="cls-27" d="M1826.72,624.5s.9-25.32-35.09-10.66c0,0-44.38-9.71-38.68,12.18,0,0-4.5-18.84-52.79-12.18,0,0-38.68-3.62-36.88,8.75,0,0-40.44,1.83-49.77,11.31-9.33-9.48-49.76-11.31-49.76-11.31,1.8-12.37-36.89-8.75-36.89-8.75-48.28-6.66-52.78,12.18-52.78,12.18,5.7-21.89-38.69-12.18-38.69-12.18-36-14.66-35.09,10.66-35.09,10.66-50.67-11.68-40.15,14.8-38.81,17.81-1.34,1.13-11.86,11.11,38.81,6.71,0,0-.9,9.55,35.09,4,0,0,44.39,3.66,38.69-4.59,0,0,4.5,7.1,52.78,4.59,0,0,38.69,1.36,36.89-3.3,0,0,40.43-.69,49.76-4.27,9.33,3.58,49.77,4.27,49.77,4.27-1.8,4.66,36.88,3.3,36.88,3.3,48.29,2.51,52.79-4.59,52.79-4.59-5.7,8.25,38.68,4.59,38.68,4.59,36,5.53,35.09-4,35.09-4,50.68,4.4,40.16-5.58,38.82-6.71C1866.88,639.3,1877.4,612.82,1826.72,624.5Z"/><path class="cls-28" d="M1614,642.49l78.52-.47a376.39,376.39,0,0,1-20.61-117.25h-116.8A412,412,0,0,1,1534.53,642l78.52.47h1Z"/><path class="cls-28" d="M1673.59,642H1534.84V937.81c0,3.89,4.18,7,9.33,7s9.32-3.15,9.32-7v-38.9c0,3.89,4.17,7,9.32,7s9.33-3.15,9.33-7V872c0,3.88,4.17,7,9.32,7s9.32-3.15,9.32-7v16c0,3.89,4.18,7,9.33,7s9.32-3.15,9.32-7V827.08c0,3.89,4.17,7,9.32,7s9.33-3.15,9.33-7v47c0,3.89,4.17,7,9.32,7s9.32-3.15,9.32-7v21.72c0,5.6,6,10.14,13.44,10.14s13.43-4.54,13.43-10.14v42c0,3.89,4.17,7,9.32,7s9.32-3.15,9.32-7V642Z"/><path class="cls-29" d="M1673.59,642H1534.84v112c0,3.89,4.18,7,9.33,7h0c5.15,0,9.32-3.15,9.32-7v42.72c0,3.88,4.17,7,9.32,7s9.33-3.15,9.33-7V778.4c0,3.89,4.17,7,9.32,7h0c5.15,0,9.32-3.15,9.32-7v30.31c0,3.88,4.18,7,9.33,7h0c5.15,0,9.32-3.16,9.32-7V721.84c0,3.89,4.17,7,9.32,7s9.33-3.15,9.33-7v89.49c0,3.89,4.17,7,9.32,7h0c5.15,0,9.32-3.15,9.32-7v38.9c0,5.6,6,10.14,13.44,10.14h0c7.41,0,13.43-4.54,13.43-10.14v33.65c0,3.88,4.17,7,9.32,7h0c5.15,0,9.32-3.16,9.32-7V642Z"/><path class="cls-18" d="M1562.77,555.7a75.88,75.88,0,0,0-10.15.65c-1.82-3.11-7.08-5.35-13.28-5.35-6.73,0-12.34,2.63-13.67,6.14q-1.37-.06-2.79-.06c-11,0-19.94,2.78-19.94,6.22s8.93,6.22,19.94,6.22a60.89,60.89,0,0,0,7.78-.49,57,57,0,0,0,7.68.49,47.29,47.29,0,0,0,11.17-1.16,71.66,71.66,0,0,0,13.26,1.16c13.22,0,23.94-3.1,23.94-6.91S1576,555.7,1562.77,555.7Z"/><path class="cls-18" d="M1681.48,590.85a84.09,84.09,0,0,1,11.31.73c2-3.46,7.88-6,14.79-6,7.48,0,13.73,2.93,15.21,6.84,1,0,2-.07,3.11-.07,12.26,0,22.2,3.1,22.2,6.93s-9.94,6.92-22.2,6.92a66.83,66.83,0,0,1-8.66-.54,64.55,64.55,0,0,1-8.55.54,52.67,52.67,0,0,1-12.44-1.29,79.13,79.13,0,0,1-14.77,1.29c-14.71,0-26.64-3.44-26.64-7.69S1666.77,590.85,1681.48,590.85Z"/><circle class="cls-22" cx="1611" cy="525.03" r="8.66"/><polygon class="cls-22" points="1611.28 536.2 1618.54 523.65 1611.25 523.65 1611.15 523.65 1603.86 523.65 1611.12 536.2 1611.12 536.48 1611.2 536.34 1611.28 536.48 1611.28 536.2"/><circle class="cls-22" cx="1553.48" cy="525.03" r="8.66"/><circle class="cls-22" cx="1671.31" cy="525.03" r="8.66"/><path class="cls-30" d="M1386.7,653.9a10.51,10.51,0,0,0,10.51,10.41h97.49a10.51,10.51,0,0,0,10.51-10.41Z"/><path class="cls-31" d="M1505.21,653.8h0a10.51,10.51,0,0,0-10.51-10.52h-97.49a10.51,10.51,0,0,0-10.51,10.52h0v.1h118.51Z"/><path class="cls-30" d="M1723.92,653.9a10.51,10.51,0,0,0,10.51,10.41h97.49a10.51,10.51,0,0,0,10.51-10.41Z"/><path class="cls-31" d="M1842.43,653.8h0a10.51,10.51,0,0,0-10.51-10.52h-97.49a10.51,10.51,0,0,0-10.51,10.52h0v.1h118.51Z"/><polygon class="cls-22" points="186.42 464.4 214.62 520.33 167.12 520.33 167.12 464.4 186.42 464.4"/><polygon class="cls-23" points="141.94 476.16 123.29 513.07 167.12 513.07 167.12 473.61 141.94 476.16"/><path class="cls-24" d="M167.12,426.32,131.43,497c3-1.65,18.27-9.82,31.11-3.16a22.22,22.22,0,0,1,4.58,3.16Z"/><polygon class="cls-23" points="131.43 496.96 59.98 638.39 167.12 638.39 167.12 496.96 131.43 496.96"/><path class="cls-25" d="M167.12,426.32V497a29,29,0,0,1,10.59-5.06c12.48-3,22.86,3.56,25.1,5.06Z"/><polygon class="cls-22" points="274.26 638.39 202.81 496.96 167.12 496.96 167.12 638.39 274.26 638.39"/><polygon class="cls-22" points="247.73 483.82 272.75 533.45 230.6 533.45 230.6 483.82 247.73 483.82"/><polygon class="cls-23" points="208.25 494.26 191.7 527.02 230.6 527.02 230.6 492 208.25 494.26"/><path class="cls-24" d="M230.6,450l-31.67,62.69c2.62-1.46,16.21-8.71,27.6-2.8a19.69,19.69,0,0,1,4.07,2.8Z"/><polygon class="cls-23" points="198.93 512.71 135.52 638.23 230.6 638.23 230.6 512.71 198.93 512.71"/><path class="cls-25" d="M230.6,450v62.69a25.8,25.8,0,0,1,9.4-4.49c11.08-2.69,20.28,3.16,22.27,4.49Q246.43,481.38,230.6,450Z"/><polygon class="cls-22" points="325.69 638.23 262.27 512.71 230.6 512.71 230.6 638.23 325.69 638.23"/><polygon class="cls-22" points="155.17 530.01 137.6 564.86 167.2 564.86 167.2 530.01 155.17 530.01"/><polygon class="cls-23" points="182.89 537.34 194.51 560.34 167.2 560.34 167.2 535.75 182.89 537.34"/><path class="cls-24" d="M167.2,506.28l22.24,44c-1.84-1-11.39-6.12-19.38-2a13.74,13.74,0,0,0-2.86,2Z"/><polygon class="cls-23" points="189.44 550.3 233.96 638.43 167.2 638.43 167.2 550.3 189.44 550.3"/><path class="cls-25" d="M167.2,506.28v44a17.87,17.87,0,0,0-6.6-3.15c-7.78-1.9-14.24,2.21-15.64,3.15Q156.07,528.28,167.2,506.28Z"/><polygon class="cls-22" points="100.44 638.43 144.96 550.3 167.2 550.3 167.2 638.43 100.44 638.43"/><polygon class="cls-22" points="464.72 464.4 436.53 520.33 484.02 520.33 484.02 464.4 464.72 464.4"/><polygon class="cls-23" points="509.2 476.16 527.85 513.07 484.02 513.07 484.02 473.61 509.2 476.16"/><path class="cls-24" d="M484,426.32,519.71,497c-3-1.65-18.27-9.82-31.1-3.16A22,22,0,0,0,484,497Z"/><polygon class="cls-23" points="519.71 496.96 591.16 638.39 484.02 638.39 484.02 496.96 519.71 496.96"/><path class="cls-25" d="M484,426.32V497a29,29,0,0,0-10.58-5.06c-12.49-3-22.86,3.56-25.1,5.06Z"/><polygon class="cls-22" points="376.88 638.39 448.34 496.96 484.02 496.96 484.02 638.39 376.88 638.39"/><polygon class="cls-22" points="403.41 483.82 378.39 533.45 420.54 533.45 420.54 483.82 403.41 483.82"/><polygon class="cls-23" points="442.89 494.26 459.44 527.02 420.54 527.02 420.54 492 442.89 494.26"/><path class="cls-24" d="M420.54,450l31.67,62.69c-2.62-1.46-16.21-8.71-27.6-2.8a19.69,19.69,0,0,0-4.07,2.8Z"/><polygon class="cls-23" points="452.21 512.71 515.63 638.23 420.54 638.23 420.54 512.71 452.21 512.71"/><path class="cls-25" d="M420.54,450v62.69a25.82,25.82,0,0,0-9.39-4.49c-11.08-2.69-20.29,3.16-22.28,4.49Q404.71,481.38,420.54,450Z"/><polygon class="cls-22" points="325.46 638.23 388.87 512.71 420.54 512.71 420.54 638.23 325.46 638.23"/><polygon class="cls-22" points="495.97 530.01 513.54 564.86 483.94 564.86 483.94 530.01 495.97 530.01"/><polygon class="cls-23" points="468.25 537.34 456.63 560.34 483.94 560.34 483.94 535.75 468.25 537.34"/><path class="cls-24" d="M483.94,506.28l-22.23,44c1.84-1,11.38-6.12,19.38-2a13.44,13.44,0,0,1,2.85,2Z"/><polygon class="cls-23" points="461.71 550.3 417.18 638.43 483.94 638.43 483.94 550.3 461.71 550.3"/><path class="cls-25" d="M483.94,506.28v44a17.87,17.87,0,0,1,6.6-3.15c7.78-1.9,14.25,2.21,15.64,3.15Q495.06,528.28,483.94,506.28Z"/><polygon class="cls-22" points="550.71 638.43 506.18 550.3 483.94 550.3 483.94 638.43 550.71 638.43"/><path class="cls-23" d="M325.68,637.64H262.36l11.9-23.55H167.12v23.35H100.44l0,0H60l71.45,141.43h0l35.69,70.64,19.24-38.09h.06l18.44-36.57,25.74,51q8.53-16.89,17.08-33.79h0l25-49.64h0ZM167.2,755.54v0h27.87v0Z"/><path class="cls-23" d="M548.47,637.48l0,0H481.81V614.09H374.67l11.9,23.55H323.25l52.94,104.79,25,49.62h.06l17.07,33.79,25.74-51,18.44,36.57h.06l19.24,38.09,35.69-70.64h0L589,637.48Zm-94.61,118h27.87v0H453.85Z"/><path class="cls-22" d="M230.57,657.1h26.25a0,0,0,0,1,0,0v94.1a13.12,13.12,0,0,1-13.12,13.12h0a13.12,13.12,0,0,1-13.12-13.12V657.1A0,0,0,0,1,230.57,657.1Z"/><path class="cls-22" d="M391.41,657.1h26.25a0,0,0,0,1,0,0v94.1a13.12,13.12,0,0,1-13.12,13.12h0a13.12,13.12,0,0,1-13.12-13.12V657.1A0,0,0,0,1,391.41,657.1Z"/><path class="cls-26" d="M550.2,612s.95-42-37-17.7c0,0-46.77-16.12-40.77,20.22,0,0-4.74-31.28-55.62-20.22,0,0-40.77-6-38.87,14.54,0,0-42.61,3-52.45,18.77-9.83-15.74-52.44-18.77-52.44-18.77,1.9-20.55-38.87-14.54-38.87-14.54-50.89-11.06-55.63,20.22-55.63,20.22,6-36.34-40.77-20.22-40.77-20.22-37.92-24.34-37,17.7-37,17.7-53.4-19.4-42.31,24.57-40.9,29.56-1.41,1.89-12.5,18.47,40.9,11.15,0,0-.94,15.86,37,6.68,0,0,46.78,6.08,40.77-7.63,0,0,4.74,11.8,55.63,7.63,0,0,40.77,2.26,38.87-5.48,0,0,42.61-1.15,52.44-7.08,9.84,5.93,52.45,7.08,52.45,7.08-1.9,7.74,38.87,5.48,38.87,5.48,50.88,4.17,55.62-7.63,55.62-7.63-6,13.71,40.77,7.63,40.77,7.63,37.93,9.18,37-6.68,37-6.68,53.4,7.32,42.31-9.26,40.9-11.15C592.51,636.57,603.6,592.6,550.2,612Z"/><path class="cls-27" d="M538.72,624.5s.9-25.32-35.09-10.66c0,0-44.38-9.71-38.68,12.18,0,0-4.5-18.84-52.79-12.18,0,0-38.68-3.62-36.88,8.75,0,0-40.44,1.83-49.77,11.31-9.33-9.48-49.76-11.31-49.76-11.31,1.8-12.37-36.89-8.75-36.89-8.75C190.58,607.18,186.08,626,186.08,626c5.7-21.89-38.69-12.18-38.69-12.18-36-14.66-35.09,10.66-35.09,10.66-50.67-11.68-40.15,14.8-38.81,17.81-1.34,1.13-11.86,11.11,38.81,6.71,0,0-.9,9.55,35.09,4,0,0,44.39,3.66,38.69-4.59,0,0,4.5,7.1,52.78,4.59,0,0,38.69,1.36,36.89-3.3,0,0,40.43-.69,49.76-4.27,9.33,3.58,49.77,4.27,49.77,4.27-1.8,4.66,36.88,3.3,36.88,3.3,48.29,2.51,52.79-4.59,52.79-4.59-5.7,8.25,38.68,4.59,38.68,4.59,36,5.53,35.09-4,35.09-4,50.68,4.4,40.16-5.58,38.82-6.71C578.88,639.3,589.4,612.82,538.72,624.5Z"/><path class="cls-28" d="M326,642.49l78.52-.47a376.39,376.39,0,0,1-20.61-117.25H267.14a410.76,410.76,0,0,1-6,59.1A412.22,412.22,0,0,1,246.53,642l78.52.47h1Z"/><path class="cls-28" d="M385.59,642H246.84V937.81c0,3.89,4.18,7,9.33,7s9.32-3.15,9.32-7v-38.9c0,3.89,4.17,7,9.32,7s9.33-3.15,9.33-7V872c0,3.88,4.17,7,9.32,7s9.32-3.15,9.32-7v16c0,3.89,4.18,7,9.33,7s9.32-3.15,9.32-7V827.08c0,3.89,4.17,7,9.32,7s9.33-3.15,9.33-7v47c0,3.89,4.17,7,9.32,7s9.32-3.15,9.32-7v21.72c0,5.6,6,10.14,13.44,10.14s13.43-4.54,13.43-10.14v42c0,3.89,4.17,7,9.32,7s9.32-3.15,9.32-7V642Z"/><path class="cls-29" d="M385.59,642H246.84v112c0,3.89,4.18,7,9.33,7h0c5.15,0,9.32-3.15,9.32-7v42.72c0,3.88,4.17,7,9.32,7s9.33-3.15,9.33-7V778.4c0,3.89,4.17,7,9.32,7h0c5.15,0,9.32-3.15,9.32-7v30.31c0,3.88,4.18,7,9.33,7h0c5.15,0,9.32-3.16,9.32-7V721.84c0,3.89,4.17,7,9.32,7s9.33-3.15,9.33-7v89.49c0,3.89,4.17,7,9.32,7h0c5.15,0,9.32-3.15,9.32-7v38.9c0,5.6,6,10.14,13.44,10.14h0c7.41,0,13.43-4.54,13.43-10.14v33.65c0,3.88,4.17,7,9.32,7h0c5.15,0,9.32-3.16,9.32-7V642Z"/><path class="cls-18" d="M274.77,555.7a75.88,75.88,0,0,0-10.15.65c-1.82-3.11-7.08-5.35-13.28-5.35-6.73,0-12.34,2.63-13.67,6.14q-1.36-.06-2.79-.06c-11,0-19.94,2.78-19.94,6.22s8.93,6.22,19.94,6.22a60.89,60.89,0,0,0,7.78-.49,57,57,0,0,0,7.68.49,47.29,47.29,0,0,0,11.17-1.16,71.66,71.66,0,0,0,13.26,1.16c13.22,0,23.94-3.1,23.94-6.91S288,555.7,274.77,555.7Z"/><path class="cls-18" d="M393.48,590.85a84.09,84.09,0,0,1,11.31.73c2-3.46,7.88-6,14.79-6,7.48,0,13.73,2.93,15.21,6.84,1,0,2-.07,3.11-.07,12.26,0,22.2,3.1,22.2,6.93s-9.94,6.92-22.2,6.92a66.83,66.83,0,0,1-8.66-.54,64.55,64.55,0,0,1-8.55.54A52.67,52.67,0,0,1,408.25,605a79.13,79.13,0,0,1-14.77,1.29c-14.71,0-26.64-3.44-26.64-7.69S378.77,590.85,393.48,590.85Z"/><circle class="cls-22" cx="323" cy="525.03" r="8.66"/><polygon class="cls-22" points="323.28 536.2 330.54 523.65 323.25 523.65 323.15 523.65 315.86 523.65 323.12 536.2 323.12 536.48 323.2 536.34 323.28 536.48 323.28 536.2"/><circle class="cls-22" cx="265.48" cy="525.03" r="8.66"/><circle class="cls-22" cx="383.31" cy="525.03" r="8.66"/><path class="cls-30" d="M98.7,653.9a10.51,10.51,0,0,0,10.51,10.41H206.7a10.51,10.51,0,0,0,10.51-10.41Z"/><path class="cls-31" d="M217.21,653.8h0a10.51,10.51,0,0,0-10.51-10.52H109.21A10.51,10.51,0,0,0,98.7,653.8h0v.1H217.21Z"/><path class="cls-30" d="M435.92,653.9a10.51,10.51,0,0,0,10.51,10.41h97.49a10.51,10.51,0,0,0,10.51-10.41Z"/><path class="cls-31" d="M554.43,653.8h0a10.51,10.51,0,0,0-10.51-10.52H446.43a10.51,10.51,0,0,0-10.51,10.52h0v.1H554.43Z"/><rect class="cls-28" x="28" y="983" width="139" height="18" rx="9"/><rect class="cls-28" x="254" y="1029" width="139" height="18" rx="9"/><rect class="cls-28" x="761" y="1038" width="139" height="18" rx="9"/><rect class="cls-28" x="445" y="919" width="139" height="18" rx="9"/><rect class="cls-28" x="504" y="983" width="139" height="18" rx="9"/><rect class="cls-28" x="899" y="974" width="139" height="18" rx="9"/><rect class="cls-28" x="975" y="891" width="139" height="18" rx="9"/><rect class="cls-28" x="1284" y="956" width="139" height="18" rx="9"/><rect class="cls-28" x="1497" y="977" width="139" height="18" rx="9"/><rect class="cls-28" x="1724" y="992" width="139" height="18" rx="9"/><rect class="cls-28" x="1744" y="910" width="139" height="18" rx="9"/><rect class="cls-28" x="1380" y="891" width="139" height="18" rx="9"/><rect class="cls-28" x="1532" y="1028" width="139" height="18" rx="9"/><rect class="cls-28" x="1151" y="1001" width="139" height="18" rx="9"/><rect class="cls-28" x="771" y="919" width="139" height="18" rx="9"/><rect class="cls-28" x="1145" y="910" width="139" height="18" rx="9"/><rect class="cls-28" x="71" y="919" width="139" height="18" rx="9"/></g></svg>